<?xml version="1.0" encoding="UTF-8" standalone="no"?>
<svg
   version="1.0"
   width="1728.3333333333335pt"
   height="1720.0pt"
   viewBox="0 0 1728.3333333333335 1720.0"
   id="svg14"
   sodipodi:docname="4.svg"
   inkscape:version="1.1.2 (1:1.1+202202050942+0a00cf5339)"
   xmlns:inkscape="http://www.inkscape.org/namespaces/inkscape"
   xmlns:sodipodi="http://sodipodi.sourceforge.net/DTD/sodipodi-0.dtd"
   xmlns="http://www.w3.org/2000/svg"
   xmlns:svg="http://www.w3.org/2000/svg">
  <defs
     id="defs18" />
  <sodipodi:namedview
     id="namedview16"
     pagecolor="#ffffff"
     bordercolor="#666666"
     borderopacity="1.0"
     inkscape:pageshadow="2"
     inkscape:pageopacity="0.0"
     inkscape:pagecheckerboard="0"
     inkscape:document-units="pt"
     showgrid="false"
     inkscape:zoom="0.36802326"
     inkscape:cx="1153.4597"
     inkscape:cy="1580.0632"
     inkscape:window-width="1852"
     inkscape:window-height="1016"
     inkscape:window-x="68"
     inkscape:window-y="27"
     inkscape:window-maximized="1"
     inkscape:current-layer="svg14" />
  <path
     stroke="black"
     fill="black"
     d="M 1724.1666666666667 860.0 L 1664.1666666666667 860.0 L 1429.8520916159048 1425.685424949238 L 864.1666666666667 1660.0 L 298.4812417174288 1425.685424949238 L 64.16666666666674 860.0000000000001 L 298.4812417174286 294.3145750507621 L 864.1666666666666 60.0 L 1429.8520916159046 294.31457505076185 L 1664.1666666666667 859.9999999999998 L 1724.1666666666667 859.9999999999998 L 1472.2784984870973 251.888168179569 L 864.1666666666666 0.0 L 256.05483484623574 251.88816817956922 L 4.1666666666667425 860.0000000000001 L 256.05483484623596 1468.1118318204308 L 864.1666666666667 1720.0 L 1472.2784984870977 1468.1118318204308 L 1724.1666666666667 860.0 z"
     id="path4" />
  <path
     stroke="black"
     fill="black"
     d="M 207.66666666666666 561.5 L 386.0 701.5 L 573.0 701.5 C743.0 701.5, 743.0 701.5, 836.3333333333334 841.5 L 855.6666666666666 870.5 L 770.6666666666666 998.0 L 666.3333333333334 841.5 L 479.3333333333333 841.5 C394.3333333333333 841.5, 394.3333333333333 841.5, 301.0 701.5 L 207.66666666666666 561.5 z"
     id="path6" />
  <path
     stroke="black"
     fill="black"
     d="M 1520.6666666666667 561.5 L 1342.3333333333333 701.5 L 1155.3333333333333 701.5 C985.3333333333334 701.5, 985.3333333333334 701.5, 892.0 841.5 L 779.1666666666666 1010.75 L 864.1666666666666 1138.25 L 1062.0 841.5 L 1249.0 841.5 C1334.0 841.5, 1334.0 841.5, 1427.3333333333333 701.5 L 1520.6666666666667 561.5 z"
     id="path8" />
  <path
     stroke="black"
     fill="black"
     d="M 490.6666666666667 858.5 L 660.6666666666666 858.5 L 940.6666666666666 1278.5 L 770.6666666666666 1278.5 L 630.6666666666666 1068.5 C620.6666666666666 1053.5, 605.6666666666666 993.5, 620.6666666666666 978.5 C570.6666666666666 978.5, 570.6666666666666 978.5, 490.6666666666667 858.5 L 490.6666666666667 858.5 z"
     id="path10" />
  <path
     stroke="black"
     fill="black"
     d="M 1237.6666666666667 858.5 L 1067.6666666666667 858.5 L 872.6666666666666 1151.0 L 957.6666666666666 1278.5 L 1097.6666666666667 1068.5 C1107.6666666666667 1053.5, 1122.6666666666667 993.5, 1107.6666666666667 978.5 C1157.6666666666667 978.5, 1157.6666666666667 978.5, 1237.6666666666667 858.5 L 1237.6666666666667 858.5 z"
     id="path12" />
</svg>
