<?xml version="1.0" standalone="no"?>
<!DOCTYPE svg PUBLIC "-//W3C//DTD SVG 20010904//EN"
 "http://www.w3.org/TR/2001/REC-SVG-20010904/DTD/svg10.dtd">
<svg version="1.0" xmlns="http://www.w3.org/2000/svg"
 width="200.000000pt" height="200.000000pt" viewBox="0 0 200.000000 200.000000"
 preserveAspectRatio="xMidYMid meet">

<g transform="translate(0.000000,200.000000) scale(0.100000,-0.100000)"
fill="#000000" stroke="none">
<path d="M476 1715 c-49 -17 -93 -59 -117 -110 -17 -36 -19 -70 -19 -347 0
-297 1 -308 20 -318 14 -8 26 -8 40 0 19 10 20 21 20 313 0 325 1 333 53 371
26 19 44 21 235 24 126 2 211 7 219 14 17 14 16 33 -3 52 -13 14 -46 16 -212
16 -141 -1 -208 -5 -236 -15z"/>
<path d="M1076 1714 c-19 -19 -20 -38 -3 -52 8 -7 93 -12 219 -14 191 -3 209
-5 235 -24 52 -38 53 -46 53 -371 0 -292 1 -303 20 -313 14 -8 26 -8 40 0 19
10 20 21 20 318 0 275 -2 311 -19 347 -23 51 -79 101 -128 114 -21 6 -124 11
-230 11 -161 0 -194 -3 -207 -16z"/>
<path d="M540 1300 l0 -220 220 0 220 0 0 220 0 220 -220 0 -220 0 0 -220z
m360 0 l0 -140 -140 0 -140 0 0 140 0 140 140 0 140 0 0 -140z"/>
<path d="M694 1336 c-3 -7 -4 -35 -2 -62 l3 -49 58 -3 57 -3 0 66 0 65 -55 0
c-38 0 -57 -4 -61 -14z"/>
<path d="M1050 1420 l0 -100 40 0 40 0 0 100 0 100 -40 0 -40 0 0 -100z"/>
<path d="M1190 1480 l0 -40 115 0 115 0 0 -110 0 -110 40 0 40 0 0 150 0 150
-155 0 -155 0 0 -40z"/>
<path d="M1190 1340 l0 -40 60 0 60 0 0 40 0 40 -60 0 -60 0 0 -40z"/>
<path d="M1050 1090 l0 -160 160 0 161 0 -3 158 -3 157 -157 3 -158 3 0 -161z
m238 -2 l3 -78 -81 0 -80 0 0 80 0 81 78 -3 77 -3 3 -77z"/>
<path d="M1150 1085 l0 -55 55 0 55 0 0 55 0 55 -55 0 -55 0 0 -55z"/>
<path d="M1420 1019 l0 -60 38 3 37 3 3 58 3 57 -41 0 -40 0 0 -61z"/>
<path d="M540 980 l0 -50 40 0 40 0 0 50 0 50 -40 0 -40 0 0 -50z"/>
<path d="M700 960 l0 -40 135 0 135 0 0 40 0 40 -135 0 -135 0 0 -40z"/>
<path d="M223 873 c-19 -7 -16 -60 3 -67 20 -8 1528 -8 1548 0 21 8 21 60 0
68 -19 7 -1533 7 -1551 -1z"/>
<path d="M352 728 c-8 -8 -12 -56 -12 -152 0 -115 4 -148 19 -181 23 -51 79
-101 128 -114 21 -6 124 -11 230 -11 161 0 194 3 207 16 9 8 16 21 16 28 0 32
-24 36 -217 36 -292 0 -296 3 -301 218 -2 82 -8 152 -14 159 -13 16 -40 17
-56 1z"/>
<path d="M1040 700 l0 -40 100 0 100 0 0 -40 c0 -36 -2 -40 -25 -40 -22 0 -25
-4 -25 -40 l0 -40 155 0 155 0 0 120 0 120 -40 0 -40 0 0 -80 0 -80 -50 0 -50
0 0 80 0 80 -140 0 -140 0 0 -40z"/>
<path d="M1592 728 c-8 -8 -12 -55 -12 -147 0 -119 -3 -140 -20 -169 -34 -55
-65 -62 -283 -62 -193 0 -217 -4 -217 -36 0 -7 7 -20 16 -28 13 -13 46 -16
207 -16 106 0 209 5 230 11 49 13 105 63 128 114 15 33 19 66 19 181 0 143 -5
164 -40 164 -9 0 -21 -5 -28 -12z"/>
<path d="M540 610 l0 -110 230 0 230 0 0 40 0 40 -190 0 -190 0 0 70 0 70 -40
0 -40 0 0 -110z"/>
<path d="M710 670 l0 -40 105 0 105 0 0 40 0 40 -105 0 -105 0 0 -40z"/>
</g>
</svg>
