<svg xmlns="http://www.w3.org/2000/svg" width="345.6" height="340.8" viewBox="0 0 91.44 90.17"><g fill="#f9f9f9" stroke="#010101" stroke-linecap="round" stroke-linejoin="round" stroke-width=".2" transform="translate(-67.641 -88.974)"><ellipse cx="113.473" cy="134.414" rx="44.824" ry="44.215"/><ellipse cx="113.558" cy="133.97" rx="40.591" ry="40.493"/></g><path fill="#f55" stroke="#d15151" stroke-linecap="round" stroke-linejoin="round" stroke-width=".425" d="M54.112 83.988c-.083-.212-.326-1.092-.54-1.955-.41-1.655-1.045-2.938-1.652-3.341-.292-.194-1.026-.217-6.047-.188-5.337.03-7.437-.042-11.29-.386-1.716-.154-5.569-1.012-7.483-1.667-1.372-.469-1.944-.52-2.63-.233-.607.253-1.004.78-1.116 1.481l-.091.57-.727-.524c-2.868-2.073-5.976-5-8.021-7.557-4.675-5.844-7.568-12.637-8.643-20.295-.282-2.01-.242-8.107.068-10.217 1.35-9.21 5.334-17.081 11.857-23.43 9.86-9.595 23.538-13.464 37.026-10.471C60.58 7.052 66.448 9.887 71.226 13.7c1.662 1.326 4.897 4.583 6.235 6.277 9.412 11.918 11.397 27.745 5.208 41.527-4.836 10.766-14.62 19.147-25.95 22.225-2.652.721-2.434.7-2.607.259Zm-4.82-6.843c1.526-.16 2.161-.45 2.44-1.108.18-.426.189-.874.068-3.138-.092-1.721-.095-3.005-.007-3.684.18-1.406.079-2.945-.227-3.41-.332-.508-1.204-.85-2.442-.96-1.38-.124-5.725-.732-6.603-.925a51.91 51.91 0 0 1-2.293-.614 65.493 65.493 0 0 0-2.884-.755c-.707-.162-2.302-.67-3.545-1.13a728.04 728.04 0 0 0-2.827-1.041c-.312-.113-1.157-.557-1.876-.986-2.049-1.22-2.696-1.486-3.357-1.38-.31.05-.739.215-.953.367-.536.382-1.065 1.542-1.232 2.702-.19 1.322-.424 6.601-.424 9.561 0 2.798-.15 2.488 1.702 3.543 2.974 1.696 7.677 2.688 14.214 2.998 2.136.102 9.164.074 10.246-.04zm3.128-13.624c.353-.216.493-.44.67-1.077.647-2.333.982-3.189 1.637-4.19 1.062-1.623 1.254-2.142 1.267-3.426.009-.878-.048-1.215-.27-1.599-.343-.592-1.305-1.112-2.06-1.112-.94 0-5.732-1.22-8.849-2.254-4.276-1.417-7.543-3.092-10.634-5.452-2.472-1.887-3.144-2.302-3.724-2.302-.77 0-1.176.22-1.466.793-.668 1.32-3.104 7.37-3.358 8.342-.237.904-.552 2.955-.556 3.625-.002.284 1.21 1.504 2.044 2.057.417.278 1.802 1.034 3.076 1.681 4.651 2.363 12.916 4.806 17.05 5.04 3.554.203 4.679.175 5.173-.126zm5.31-12.092c.269-.144.34-.278 1.66-3.134 1.421-3.073 2.988-7.824 3.644-11.05.07-.345.19-1.702.268-3.016.207-3.528-.072-3.916-1.337-1.862-.902 1.465-2.747 3.374-4.6 4.76-1.263.945-1.698 1.173-3.906 2.049-1.399.554-3.147 1.135-4 1.328l-1.516.344-.572-.277c-1.374-.663-2.617-2.433-4.046-5.76-.831-1.936-1.206-5.423-.854-7.943.18-1.293.096-1.857-.278-1.857-.28 0-2.37 2.102-4.61 4.638-1.71 1.936-6.326 8.705-6.474 9.493-.05.267-.023.634.06.816.297.653 2.152 2.436 3.206 3.082.581.357 1.579.983 2.217 1.393 2.79 1.792 8.328 4.197 12.554 5.452.79.235 2.658.737 4.148 1.116 2.145.546 2.866.676 3.455.622.41-.037.851-.125.981-.194zm22.021-2.56c1.429-.596 1.922-3.136.923-4.753-.62-1.003-2.26-1.537-3.61-1.175-.776.209-1.675 1.1-1.915 1.9-.212.709-.22 2.643-.014 3.462l.155.617h.818c.45 0 .817-.047.817-.104 0-.057-.125-.433-.278-.836-.46-1.211-.276-2.581.397-2.94.573-.308.592-.24.549 1.934l-.042 2.086h.873c.48 0 1.078-.086 1.327-.19zm-1.584-8.01c1.404-.304 2.583-.582 2.618-.617.075-.075-.209-1.41-.386-1.817-.067-.153-.143-.693-.17-1.2-.058-1.104-.504-1.806-1.41-2.218-1.485-.674-3.798.049-4.345 1.357-.362.865-.149 2.18.463 2.855.21.234.2.249-.193.249-.778 0-1.177-.794-1.17-2.324l.005-1.004-.446.088c-1.157.228-1.145.217-1.11.96.09 1.97.726 3.566 1.591 3.992.72.354 1.789.28 4.553-.32zm-26.55-2.153a19.44 19.44 0 0 0 5.808-3.163c1.42-1.129 1.486-1.256 1.368-2.646-.18-2.117-.706-3.6-1.209-3.407-.11.043-.473.6-.806 1.24-1.58 3.036-3.356 5.117-5.827 6.825-.792.547-1.471 1.077-1.51 1.176-.083.218.047.598.206.598.063 0 .95-.28 1.97-.623zm23.781-5.36c2.388-1.212 2.693-1.522 2.612-2.65-.065-.899-.523-1.64-1.243-2.012-.382-.197-.4-.235-.187-.39.218-.16.203-.24-.198-1.033-.238-.473-.473-.86-.52-.86-.138 0-5.192 2.65-5.192 2.723 0 .036.188.438.419.894l.418.829 1.885-.937 1.885-.937.407.454c.461.514.522 1 .164 1.316-.134.118-.947.566-1.807.996-.86.43-1.564.841-1.564.915 0 .238.749 1.67.873 1.67.065 0 .987-.44 2.048-.979zm-55.752-1.632c.644-.754 1.333-2.085 1.473-2.847.247-1.345-.35-2.508-1.52-2.954-.98-.375-1.547-.135-2.996 1.262-.67.645-1.317 1.172-1.44 1.172-.45 0-.547-.507-.233-1.218.35-.793.838-1.328 1.638-1.8.328-.193.576-.413.55-.49-.024-.075-.407-.333-.849-.573l-.804-.437-.76.834c-2.313 2.54-2.223 5.537.18 5.991.78.148 1.43-.196 2.718-1.436.724-.696 1.309-1.151 1.445-1.124 1.068.21-.13 2.481-1.74 3.303-.315.16-.572.35-.572.422 0 .071.36.342.799.602l.8.472.375-.262c.206-.144.627-.557.936-.917zm5.5-4.48.685-.695-.812-.82-.813-.822.415-.214c.227-.117.604-.43.837-.696 1.123-1.278.875-2.921-.646-4.289-1.608-1.446-3.49-1.11-4.147.741-.172.484-.302.661-.443.607-.12-.046-.47.19-.872.586l-.672.662 2.815 2.818c1.549 1.55 2.85 2.818 2.892 2.818.042 0 .384-.313.761-.695zm46.33-.972c.838-.726 1.625-1.487 1.75-1.69.343-.563.278-1.339-.179-2.133-.382-.663-2.22-2.575-2.468-2.568-.064.003-.363.233-.663.512l-.546.507.334.219c1.317.863 2.085 1.792 1.894 2.291-.082.213-.188.166-.796-.357a15.883 15.883 0 0 0-1.279-.986c-1.7-1.126-3.615.434-2.832 2.309.23.55 1.097 1.295 1.648 1.416.321.071.367.126.238.282-.128.153-.038.34.429.897.324.388.67.686.768.663.098-.023.864-.636 1.702-1.362zm-4.133-6.77c1.317-1.658 2.416-3.112 2.443-3.231.04-.185-1.147-1.258-1.392-1.258-.043 0-1.211 1.423-2.596 3.162l-2.517 3.162.671.588c.37.324.745.59.834.591.09.002 1.24-1.354 2.557-3.013zm-38.185 1.392.763-.547c.027-.02-.712-1.134-1.643-2.478l-1.693-2.443-.372.22a8.315 8.315 0 0 0-.828.592l-.456.373 1.637 2.392c.9 1.315 1.692 2.394 1.758 2.397.066.004.442-.224.834-.506zm33.7-1.367c.168-.347.306-.69.306-.765 0-.074-.332-.135-.737-.135-.839 0-2.073-.53-2.384-1.024-.278-.443-.363-.83-.227-1.045.096-.153.477-.003 1.859.73.955.507 1.801.922 1.879.922.202 0 .694-1.08.8-1.758.127-.799-.13-1.467-.792-2.066-.79-.714-1.636-1.042-2.688-1.042-.758 0-.966.061-1.547.452-1.405.946-1.876 2.846-1.035 4.172.653 1.03 2.654 2.169 3.836 2.183.367.004.465-.08.73-.624zm-28.932-1.2c.395-.148.99-.509 1.32-.803l.603-.536-.38-.78c-.21-.428-.443-.778-.518-.778-.076 0-.227.172-.336.382-.433.83-1.345 1.367-2.058 1.21-.842-.184-1.5-1.723-1.076-2.516.286-.534.886-.776 1.888-.761.485.007.881-.01.881-.037 0-.028-.156-.404-.347-.836-.297-.671-.392-.775-.66-.72-.172.035-.56.104-.863.153-1.06.173-2.37 1.069-2.815 1.929-.367.707-.308 1.835.146 2.761.809 1.654 2.182 2.087 4.215 1.331zm22.535-5.17c.41-2.052.722-3.755.693-3.784-.11-.109-2.116-.482-2.272-.422-.09.034-.653.756-1.252 1.603-.677.958-1.123 1.475-1.18 1.366-.051-.096-.266-.956-.479-1.912-.212-.955-.446-1.777-.52-1.825-.173-.113-2.178-.456-2.244-.384-.027.03-.373 1.65-.77 3.6-.395 1.949-.748 3.645-.783 3.767-.051.176.106.258.726.383 1.312.263 1.186.422 1.715-2.164l.475-2.322.338 1.615.339 1.616.502.088c.277.05.6.118.72.153.15.043.471-.31 1.036-1.141.45-.663.84-1.135.87-1.05.027.085-.114.986-.315 2.002a92.46 92.46 0 0 0-.392 2.052c-.028.222 1.089.56 1.706.515.333-.023.36-.112 1.087-3.756zm-15.888 3.081a7.466 7.466 0 0 0 1.23-.485l.678-.343-.096-.633c-.17-1.143-.245-1.202-.86-.688-.918.766-1.978 1.05-2.738.732-.266-.111-.55-.327-.632-.48-.139-.26-.07-.295 1.067-.556.668-.153 1.601-.358 2.074-.455.855-.176.86-.18.787-.602-.041-.235-.24-.77-.443-1.19-.296-.612-.494-.828-.99-1.078-1.428-.72-3.661-.025-4.455 1.387-.468.833-.444 2.056.06 3.086.699 1.428 2.14 1.864 4.318 1.305zm-15.089-.885c.668-.48.702-.532.522-.809-.106-.163-.28-.437-.386-.609-.107-.172-.245-.313-.308-.313-.17 0-1.615 1.026-1.62 1.15-.013.247.748 1.22.906 1.16.095-.036.494-.297.886-.579z"/><g stroke-width=".15"><g fill="none" stroke="#000"><path d="M23.344 73.034c1.05.675 2.1 1.35 3.572 1.922 1.471.571 3.364 1.04 5.126 1.35 1.762.308 3.393.458 5.174.57 1.78.113 3.711.188 5.417.216 1.706.029 3.186.01 4.592-.028 1.406-.037 2.737-.093 3.468-.356.73-.262.862-.73.918-.956.056-.225.038-.206.019-.187"/><path d="M23.344 73.034c-.018-1.162-.037-2.324-.018-3.533.018-1.209.075-2.465.121-3.618.047-1.152.085-2.202.132-3.046.047-.843.103-1.48.215-2.052.113-.572.281-1.078.516-1.49.234-.413.534-.731.815-.9.282-.169.544-.188.806-.197.263-.009.525-.009.881.14.357.15.806.45 1.256.722.45.272.9.516 1.228.713.328.197.534.347.853.506.319.16.75.328 1.237.496.487.17 1.031.338 1.556.525.525.188 1.03.394 1.574.61.544.215 1.125.44 1.828.627.703.188 1.528.338 2.268.525.74.188 1.397.413 1.95.581.553.169 1.002.282 1.555.403.553.122 1.21.253 1.931.356.722.104 1.509.179 2.165.272.656.094 1.18.206 1.678.272.496.066.965.084 1.377.112.413.029.769.066 1.106.179.338.112.656.3.862.496.207.197.3.404.375.703.075.3.131.694.15 1.05.019.356 0 .675-.047.937-.047.263-.122.469-.169.881a13.39 13.39 0 0 0-.056 1.556c.01.525.047.956.085 1.51.037.552.075 1.227.084 1.78.009.553-.009.984-.028 1.415"/></g><path fill="none" stroke="#000" d="M53.889 84.74c-.272.066-.816.197-1.406.31-.59.112-1.228.206-1.771.262-.544.056-.994.075-1.481.112-.488.038-1.012.094-1.556.122-.544.028-1.106.028-1.621.028h-1.219c-.234 0-.234 0-.73-.018-.498-.02-1.491-.057-2.194-.132-.703-.075-1.115-.187-1.537-.253-.422-.065-.853-.084-1.284-.159-.431-.075-.862-.206-1.284-.3-.422-.094-.834-.15-1.246-.234a12.918 12.918 0 0 1-1.19-.31 17.792 17.792 0 0 1-1.06-.365c-.375-.14-.806-.31-1.228-.46-.421-.15-.834-.28-1.19-.393-.356-.112-.656-.206-.965-.31a11.47 11.47 0 0 1-.91-.336c-.28-.122-.524-.253-.777-.385a23.476 23.476 0 0 0-.834-.412c-.319-.15-.694-.319-1.05-.497-.356-.178-.694-.365-1.003-.534-.31-.169-.59-.319-.909-.525-.319-.206-.675-.468-1.003-.665-.328-.197-.628-.328-.778-.553-.15-.225-.15-.544-.122-.844.028-.3.085-.58.188-.796.103-.216.253-.366.403-.47.15-.102.3-.159.478-.224.178-.066.384-.14.61-.169a2.14 2.14 0 0 1 .72.047c.254.056.516.15.863.281.347.132.778.3 1.237.44.46.141.947.254 1.472.376.525.121 1.087.253 1.602.375.516.121.984.234 1.444.328.459.093.909.168 1.396.206.487.037 1.012.037 1.509.084.497.047.965.14 1.359.197.394.056.712.075 1.153.084.44.01 1.003.01 1.5.01h1.433c.506 0 1.087 0 1.66.008.57.01 1.133.028 1.696.056.562.029 1.124.066 1.64.066.515 0 .984-.037 1.555-.047.572-.009 1.247.01 1.734-.019.488-.028.788-.103 1.116-.122a3.88 3.88 0 0 1 .956.076c.271.056.459.13.609.243.15.113.262.263.412.478.15.216.338.497.487.769.15.272.263.534.375.956.113.422.225 1.003.281 1.293l.057.29c.075.282.15.563.225.798.075.234.15.421.225.609l.187.468c.037.094.037.094-.234.16zM29.32 42.743c-.094.17-.282.508-.489.977-.206.47-.432 1.071-.676 1.654-.244.582-.507 1.146-.733 1.69-.225.545-.413 1.071-.62 1.56-.206.488-.432.94-.6 1.39-.17.451-.283.902-.414 1.428-.132.526-.282 1.127-.357 1.672-.075.545-.075 1.033-.094 1.334-.019.3-.056.413.056.62.113.207.376.507.677.79.3.28.639.544 1.16.89.52.347 1.17.743 1.733 1.025.564.282 1.015.432 1.428.639.413.207.79.47 1.265.717.476.246 1.027.467 1.516.654.488.188.901.339 1.333.489.433.15.883.3 1.358.452.475.152.953.3 1.476.494.524.195 1.018.407 1.506.538.489.132.94.17 1.41.282.47.113.958.3 1.502.45.545.151 1.146.264 1.672.377.526.112.977.225 1.48.329.5.104 1.053.199 1.899.255.845.057 1.983.074 2.552.083.57.009.57.009.851.046.282.038.846.113 1.26.076.412-.038.675-.188.882-.339.207-.15.357-.3.489-.676.131-.376.244-.977.432-1.653.187-.676.45-1.428.77-2.048.32-.62.695-1.108.977-1.54.282-.433.47-.808.601-1.222.132-.413.207-.864.225-1.315.02-.45-.018-.901-.168-1.277a1.995 1.995 0 0 0-.677-.864c-.263-.188-.526-.264-.77-.32a4.502 4.502 0 0 0-.751-.113c-.282-.019-.62-.019-1.09-.112-.47-.094-1.07-.282-1.616-.433a33.927 33.927 0 0 0-1.615-.394c-.583-.132-1.26-.282-1.748-.395-.488-.112-.789-.187-1.09-.281-.3-.094-.6-.207-.939-.339-.338-.131-.714-.281-1.146-.432-.432-.15-.92-.3-1.39-.45-.47-.15-.92-.301-1.39-.508-.47-.206-.958-.47-1.447-.714-.488-.244-.977-.47-1.221-.582l-.245-.113c-.375-.263-.75-.526-1.183-.77-.432-.244-.92-.47-1.353-.733-.432-.263-.807-.563-1.183-.845-.376-.282-.752-.545-1.127-.846-.376-.3-.752-.638-1.09-.883-.338-.244-.639-.394-.92-.582-.282-.188-.546-.413-.809-.526a1.219 1.219 0 0 0-.77-.057c-.244.057-.47.17-.582.226-.113.056-.113.056-.207.225zM38.67 28.724a51.291 51.291 0 0 1-1.407 1.66c-.398.437-.69.703-.956 1.021-.265.32-.504.69-.783 1.129-.278.438-.597.942-1.008 1.566-.412.624-.916 1.367-1.328 1.977-.411.61-.73 1.089-.995 1.46-.266.372-.478.637-.624.903a2.38 2.38 0 0 0-.265.783c-.04.252-.04.491.053.69.093.2.279.359.504.61.226.253.491.598.837.956.345.359.77.73 1.234 1.049.464.318.969.584 1.606.969.637.385 1.407.889 1.791 1.141.385.252.385.252.784.465.398.212 1.194.637 1.871.969.677.331 1.234.57 1.991.902.757.332 1.712.757 2.535 1.088.823.332 1.513.571 2.442.89.93.318 2.097.716 3.091 1 .995.284 1.714.433 2.523.619.81.186 1.66.398 2.23.557.57.16.863.266 1.155.305.292.04.584.014.85 0 .265-.013.503-.013.716-.119.212-.106.398-.319.583-.703.186-.385.372-.943.65-1.553.28-.61.651-1.274.97-1.965.318-.69.584-1.406.824-2.1.24-.694.45-1.35.662-1.96.213-.611.425-1.169.61-1.78.187-.61.346-1.273.479-1.804.132-.531.238-.93.358-1.434.12-.504.252-1.115.332-1.699.08-.584.106-1.14.132-1.765.027-.624.054-1.314.067-1.95.013-.638.013-1.222-.146-1.275-.16-.053-.478.425-.744.876-.265.451-.477.876-.743 1.247-.265.372-.584.69-.942 1.075-.359.385-.757.837-1.155 1.208-.398.372-.796.664-1.26 1.022-.465.359-.996.783-1.408 1.089-.41.305-.703.49-1.101.676-.398.186-.903.372-1.473.598-.571.225-1.208.49-1.779.716-.57.226-1.075.412-1.54.545-.464.132-.888.212-1.273.305-.385.093-.73.199-1.089.265-.358.067-.73.093-1.101-.053-.372-.146-.743-.464-1.062-.756a16.132 16.132 0 0 1-.823-.81 5.283 5.283 0 0 1-.664-.823c-.212-.331-.424-.756-.663-1.247-.24-.491-.505-1.049-.77-1.62-.266-.57-.531-1.154-.704-1.698-.172-.544-.252-1.049-.345-1.7a34.18 34.18 0 0 1-.252-2.15 14.476 14.476 0 0 1-.027-1.83c.027-.519.08-.943.133-1.328.053-.385.106-.73.12-1.035.013-.306-.014-.571-.093-.664-.08-.093-.212-.013-.372.12-.16.132-.345.318-.624.61-.278.292-.65.69-1.101 1.168-.451.478-.982 1.035-1.513 1.592z"/><path fill="none" stroke="#000" d="M49.686 39.103c-.186 0-.186-.132.026-.358.213-.226.638-.544 1.01-.796.37-.253.69-.438.955-.61.265-.173.478-.333.69-.518.212-.186.425-.399.756-.73l1.01-1.01c.225-.225.225-.225.344-.41.12-.186.358-.558.57-.823.213-.266.386-.414.592-.698.205-.284.418-.683.63-1.041.212-.358.425-.677.677-1.195.252-.517.544-1.234.783-1.234s.425.717.557 1.235c.133.517.213.836.253 1.18.04.346.04.664.066 1.036.026.372.08.77-.066 1.088-.146.319-.492.558-.876.863-.385.305-.81.677-1.195.955-.385.28-.73.465-1.035.638-.305.172-.57.331-.89.53-.318.2-.69.438-1.008.598-.319.159-.584.239-.85.318-.265.08-.53.16-.875.279-.346.12-.77.279-1.168.425-.399.146-.77.278-.956.278z"/><path fill="#fff" d="M52.6 50.377c-7.493-1.929-12.95-4.304-18.606-8.1-.79-.53-2.524-2.409-2.524-2.735 0-.436.38-1.078 2.64-4.47 2.348-3.526 2.71-3.976 6.257-7.798 1.192-1.284 1.752-1.799 1.784-1.64.026.128-.02.738-.104 1.356-.204 1.517-.19 2.566.06 4.512.278 2.172.564 3.072 1.715 5.394.798 1.612 1.115 2.1 1.847 2.838 1.15 1.16 1.56 1.4 2.387 1.401 1.046.001 3.248-.621 5.772-1.631 2.102-.841 2.454-1.034 3.925-2.146 1.965-1.487 3.637-3.199 4.434-4.54.327-.55.654-1.037.727-1.082.187-.116.001 3.628-.253 5.09-.642 3.7-2.728 9.655-4.82 13.76-.225.441-.731.697-1.35.68-.267-.007-2.019-.407-3.892-.889zM50.028 63.426c-3.602-.214-4.745-.35-6.713-.802-1.168-.269-2.178-.521-2.243-.561-.065-.04-.577-.17-1.137-.288-.56-.118-2.304-.655-3.873-1.194-4.33-1.486-8.87-3.803-10.085-5.15l-.51-.562.098-.994c.145-1.468.678-3.426 1.405-5.158l1.196-2.855c1.179-2.82 1.38-3.197 1.762-3.295.199-.05.465-.085.592-.076.314.021 1.564.856 3.24 2.164.767.597 1.832 1.342 2.367 1.655.535.314 1.257.746 1.604.96 1.93 1.194 7.217 3.326 9.586 3.866.42.096 1.64.392 2.71.659 1.071.267 2.507.57 3.191.676 1.374.21 1.822.452 2.196 1.185.521 1.022.238 2.291-.916 4.116-.718 1.136-1.057 1.983-1.788 4.48-.302 1.028-.879 1.28-2.682 1.174zM38.768 76.773c-3.979-.225-6.659-.586-9.174-1.233-2.17-.559-3.487-1.081-4.974-1.974l-1.112-.667.093-4.518c.144-6.99.335-8.415 1.265-9.43.417-.455.537-.508 1.138-.5.578.008.916.154 2.45 1.063.978.58 2.166 1.194 2.64 1.366.475.172 1.681.616 2.68.987 1 .372 2.784.924 3.963 1.228 1.179.304 2.706.71 3.394.903.688.193 1.908.444 2.71.558 1.952.277 4.286.596 5.553.758 1.562.2 2.084.71 2.077 2.03-.04 8.43-.043 8.503-.317 8.806-.505.558-1.04.611-6.409.641-2.828.016-5.518.008-5.977-.018zM42.73 85.105c-2.918-.218-7.193-1.129-10.142-2.16-3.322-1.163-8.622-3.892-8.83-4.547-.14-.442.182-1.377.56-1.625.626-.41 1.419-.392 2.635.059 1.814.672 5.779 1.539 7.782 1.702.981.08 1.832.174 1.89.21.06.037 3.437.095 7.505.129 7.27.06 7.403.067 7.707.352.534.502 1.04 1.606 1.317 2.875.147.673.358 1.483.47 1.8l.204.576-1.483.226c-2.948.45-6.826.612-9.615.403z"/><path fill="#fff" d="M50.097 38.707c0-.037.548-.437 1.217-.891 2.133-1.447 4.338-3.996 5.647-6.532.424-.82.719-1.248.802-1.164.345.344.799 3.134.624 3.832-.22.878-3.997 3.313-6.55 4.225-1.816.648-1.74.625-1.74.53z"/></g><g fill="#fff" stroke="#010101" stroke-width=".3" aria-label="Spice Melange" font-size="10.583" font-weight="700" style="line-height:1.25;white-space:pre"><path d="M19.97 26.132q.983.57 1.114 1.764.13 1.187-.7 2.617-.48.827-.981 1.36-.503.527-1.038.934l-1.595-.926.109-.188q.733-.285 1.342-.81.612-.53.965-1.137.091-.156.212-.427.121-.27.152-.467.034-.243-.014-.439-.046-.2-.283-.337-.219-.127-.484-.03-.267.09-.56.398-.307.324-.627.7-.322.368-.655.665-.76.682-1.44.783-.683.094-1.375-.308-.93-.54-1.033-1.71-.105-1.179.656-2.488.381-.657.882-1.221.498-.571.963-.929l1.533.89-.107.183q-.555.216-1.11.677-.556.453-.908 1.061-.125.215-.218.447-.095.226-.129.47-.034.213.032.418.061.203.236.304.263.153.523.035.255-.12.696-.612.288-.322.555-.616.268-.298.62-.614.693-.619 1.337-.73.641-.117 1.33.283zM25.023 19.96q.512.503.776 1.075.267.568.289 1.09.026.549-.157 1.029-.183.48-.56.862-.349.354-.669.524-.317.174-.707.297l1.723 1.698-1.306 1.325-5.65-5.568 1.306-1.325.431.424q.058-.545.22-1.01.164-.469.574-.885.762-.773 1.75-.64.99.127 1.98 1.103zm-1.32 1.39q-.603-.595-1.079-.657-.475-.063-.914.383-.185.187-.322.444-.14.253-.212.539l2.08 2.05q.182-.082.345-.219.164-.136.309-.283.518-.527.467-1.085-.056-.563-.674-1.172zM29.85 20.286l-1.528 1.06-3.306-4.77 1.529-1.06zm-3.734-5.479-1.614 1.119-.803-1.16 1.614-1.118zM34.124 18.164q-.687.324-1.334.429-.643.102-1.225-.04-.576-.146-1.05-.557-.473-.411-.801-1.108-.346-.734-.354-1.381-.003-.65.271-1.207.27-.533.753-.949.484-.416 1.082-.698.538-.253 1.046-.35.509-.097.99-.095l.676 1.436-.239.112q-.138-.038-.33-.084-.19-.048-.44-.061-.241-.013-.5.03-.263.037-.567.18-.673.317-.835.92-.16.594.186 1.328.356.758.91.976.56.217 1.242-.104.318-.15.538-.34.221-.195.344-.372.114-.169.188-.329.073-.16.13-.307l.238-.112.676 1.435q-.31.375-.694.687-.377.315-.9.561zM42.066 13.068l-4.16.913q.187.658.729.909.547.25 1.456.05.575-.126 1.07-.451.494-.326.755-.631l.202-.045.32 1.459q-.561.382-1.082.613-.52.23-1.182.376-1.706.375-2.783-.193-1.077-.568-1.388-1.986-.308-1.404.37-2.41.683-1.012 2.182-1.34 1.383-.304 2.233.244.85.544 1.138 1.856zm-2.041-.668q-.14-.567-.471-.796-.33-.23-.896-.105-.525.115-.803.462-.279.347-.187.956zM55.617 16.925l-1.934-.392 1.023-5.05-2.062 2.994-1.342-.272-.734-3.56-1.023 5.05-1.834-.372 1.529-7.541 2.259.457.93 4.127 2.458-3.44 2.259.458zM63.584 18.197l-3.757-2.005q-.285.621-.036 1.164.254.546 1.075.984.52.277 1.107.35.588.074.985.01l.182.098-.703 1.317q-.676-.073-1.222-.236-.546-.162-1.143-.481-1.54-.823-1.991-1.954-.45-1.13.233-2.412.676-1.267 1.846-1.592 1.176-.327 2.53.396 1.249.667 1.54 1.636.293.965-.34 2.15zm-1.119-1.833q.261-.522.158-.911-.103-.389-.613-.662-.474-.253-.911-.17-.437.084-.763.607zM64.832 22.501l-1.455-1.16 5.01-6.288 1.455 1.159zM69.66 25.271l.914-.792q-.27-.265-.6-.56-.328-.297-.531-.422-.25-.153-.477-.154-.22-.001-.426.178-.137.119-.202.217-.066.097-.063.259 0 .157.07.316.073.156.303.421.183.21.455.351.275.144.558.186zm-.678.59q-.184-.04-.451-.102-.267-.063-.466-.15-.273-.126-.509-.311-.24-.182-.47-.448-.542-.624-.52-1.381.02-.757.621-1.278.48-.417.971-.466.49-.05 1.009.192.514.238 1.09.752.574.513 1.148 1.103l.023-.02q.363-.315.243-.73-.117-.419-.618-.996-.302-.348-.769-.634-.463-.289-.678-.403l-.112-.13 1.058-.917q.252.172.763.604.52.432.956.936 1.04 1.198 1.13 2.051.096.853-.693 1.537l-2.982 2.587-1.209-1.394zM73.328 34.295l-.84-1.672 2.57-1.293q.314-.158.608-.346.297-.19.405-.343.125-.178.113-.397-.01-.215-.17-.534-.114-.226-.306-.424-.19-.194-.489-.385l-3.675 1.848-.835-1.662 5.184-2.607.836 1.661-.573.288q.57.27.959.583.39.318.642.816.422.84.17 1.558-.25.721-1.225 1.211zM75.742 41.31q-.798.173-1.392.064-.595-.108-.992-.45-.402-.342-.665-.893-.266-.545-.424-1.272-.128-.59-.183-1.182-.053-.586-.043-1.027l1.419-.308.048.222q-.059.362-.06.865-.008.504.075.882.11.505.274.798.16.298.367.427.196.122.464.137.268.016.621-.06l.106-.024q-.339-.27-.582-.635-.243-.364-.35-.854-.259-1.192.318-1.994t2.041-1.12q.702-.153 1.255-.067.553.086 1.01.362.425.257.727.699.304.447.415.957.1.46.07.857-.024.402-.149.752l.267.01.383 1.763zm.741-2.065 2.57-.559q.032-.17.018-.406-.009-.236-.048-.417-.156-.717-.648-.986-.487-.27-1.224-.11-.818.178-1.076.552-.256.378-.125.979.059.272.202.516.143.244.331.43zM77.618 49.015l.128-4.256q-.683.02-1.059.485-.376.47-.404 1.4-.018.588.177 1.147.196.56.429.887l-.007.206-1.492-.045q-.234-.637-.331-1.199-.097-.56-.077-1.238.053-1.745.866-2.652.813-.906 2.264-.862 1.436.043 2.247.947.815.908.769 2.442-.043 1.416-.782 2.107-.734.691-2.077.65zm1.145-1.816q.585.002.887-.263.303-.265.32-.844.016-.537-.252-.891-.269-.355-.882-.415z"/></g><path fill="#f55" d="M22.257 22.957c-.514-.518-.934-1.01-.934-1.093 0-.246.57-.898.887-1.016.447-.165 1.01.1 1.547.727.603.705.641 1.283.125 1.896-.198.235-.434.428-.525.428-.09 0-.586-.424-1.1-.942zM37.726 12.581c0-.567.602-1.054 1.303-1.054.288 0 1.022.64.887.775-.05.05-1.894.476-2.06.476-.072 0-.13-.088-.13-.197zM61.513 15.768c-1.105-.593-1.118-.607-.79-.846.765-.56 2.167.254 1.803 1.046-.122.265-.16.257-1.013-.2zM68.95 24.861c-.525-.413-.685-.763-.504-1.101.23-.429.819-.341 1.46.217l.556.484-.39.345c-.475.419-.648.428-1.122.055zM76.31 38.872c-.306-.472-.398-1.016-.226-1.336.32-.6 1.58-.919 2.24-.566.334.179.687.845.687 1.3 0 .318-.085.363-1.078.573-.592.126-1.155.253-1.25.283-.096.03-.264-.084-.373-.254zM78.872 46.001c0-1.221.126-1.37.67-.79.395.42.408 1.241.025 1.624-.552.551-.695.379-.695-.834z"/></svg>