<svg xmlns="http://www.w3.org/2000/svg" viewBox="0 0 1875 1875"><g data-name="Layer 2"><g data-name="Layer 1"><g data-name="Layer_1"><circle cx="937.5" cy="937.5" r="937.5" style="fill:#988430"/><circle cx="937.5" cy="937.5" r="907.5" style="fill:#7a6a2a"/><circle cx="937.5" cy="937.5" r="888.4" style="fill:#ba9f33"/><path d="m410 837-16-14-16-15-16-15-8-7-8-7-62-60 63 59 8 7 8 8 15 14a495 495 0 0 1 32 30Zm-278-3 113 14c35 4 142 21 142 21Zm0 0 64 7 32 3 16 2 16 2 64 10 31 6 32 5-32-4-31-4-64-10-16-2-16-2-32-4c-21-3-43-5-64-9Zm248 55-109 28-109 33 218-61Z" style="fill:#cfb66c;fill-rule:evenodd"/><path d="m380 889-54 15-55 15-54 15-27 8-27 7 27-8 27-9 54-16 55-14 54-13Zm-206 111 136-63c12-6 47-18 47-18l-183 81Z" style="fill:#cfb66c;fill-rule:evenodd"/><path d="m174 1000 23-10 22-11 45-22 45-21 24-9 12-4 12-3-46 20c-15 8-30 14-46 20l-46 20-45 20Zm10 42 125-73 72-36Z" style="fill:#cfb66c;fill-rule:evenodd"/><path d="m184 1042 48-30 24-14 24-15 24-14a88 88 0 0 1 13-6l13-7c17-8 33-16 51-23-16 10-33 18-49 27l-25 14-24 13-25 14-24 14-50 27Zm196-97-77 59-74 54 151-113Z" style="fill:#cfb66c;fill-rule:evenodd"/><path d="m713 1305-29-57 17-70 123-48-52-107 26-109 48-98 151-23 110-106 239 18 47 256-90 321-52 167-208 7-97-67-113-47-120-37z" style="fill:#e2cc85;fill-rule:evenodd"/><path d="M1079 1303s-29 13-78 10c-14-19-114-28-114-28s-12-4-34 5c-23 9-44 8-63 13s-39-21-54-26c-15-6-35-19-35-19l-42-4-84-36-134-133-37 57-11 70 41 84 109 99 212 54 126-37 158-67 40-42Z" style="fill:#f1d789;fill-rule:evenodd"/><path d="m323 831 27-82 32-53 104-8-31 91-87 154 36 137-63 32-20-30-16-69-1-77 19-95z" style="fill:#f4ecb4;fill-rule:evenodd"/><path d="m439 1297-19-28s-6-13-3-24c3-12 3-13 1-17s-14-20-13-33-1-17 9-28c10-10 7-28 7-28l13 9 3-5s5 4 5 10c1-8-4-46 6-55s28 41 28 41l-11-72-28-73-50-67-3-73v-7s-23 36-29 63c-5 20 6 43 4 70s-4 25 3 36 23 33 16 49c-5 14-25 4-25 4s-3 12-9 16c-1-7-3-11-7-15l-1 6-7-24c-4-17-9-41-13-53l-7 29 3 33 12 46 12 30 12 37 10 24 8 19 7 42 35 37 18 8 13-7Z" style="fill:#f3e19d;fill-rule:evenodd"/><path d="M341 764s-24 42-32 85a540 540 0 0 0 55 365l1-3a160 160 0 0 1-13-31c-4-16-5-35-9-43-3-9-9-17-12-27-2-10-3-26-11-38-3-5-7-18-8-31-2-19 0-40-1-58-4-29-6-49-3-64s19-59 29-94c6-22 2-41 14-60s19-36 21-47c3-11-31 46-31 46Z" style="fill:#f2e8b0;fill-rule:evenodd"/><path d="M459 747s-13 4-19 11c-6 6-9 12-17 22s-9 20-15 33c-7 14-22 33-24 41s-4 40-8 56 4 35 4 35l8-2s0 11 9 19c8 8 10-25 10-25l32-109 49-33 5-27-34-21Z" style="fill:#f5eec0;fill-rule:evenodd"/><path d="M482 797s-23 1-34 10l-11 10c-9 7-18 14-23 24-4 9-10 24-13 52l-3 32c-1 13-4 23-3 30 2 14 17 22 18 38l32-15 29-116 62-39-35-39-19 13Z" style="fill:#e6db9d;fill-rule:evenodd"/><path d="m318 1574 1-3c4-39 5-69 8-87 5-26 8-36 8-46-1-16-3-27-1-39 2-17 18-36 17-49 0-10-5-17-10-24l-8-11s31-22 31-108a8 8 0 0 1 2 1l15 44 11 12 40 75 51 50 77 52 48 52 5 139-63 81-10 19a891 891 0 0 1-222-158Z" style="fill:#e5cb7a;fill-rule:evenodd"/><path d="M510 1707s1-17 15-28c2 4 4 7 3 10 3-5 21-34 62-41 40-8 50-37 50-37l87-79 99-91 120-43 57-13s1 4-1 13c10-1 33-6 57-15 10-4 19-5 24 0 7 7 8 22 9 32 11-3 25-14 36-13 17 2 32 22 50 22 23 0 34-14 50-25 10-7 24-15 31-21 19-14 218-75 218-75l70 5 11 75-6 196-2 2-317 166-440 67a882 882 0 0 1-281-97l-2-10Z" style="fill:#d8c173;fill-rule:evenodd"/><path d="m345 1599 13-28 5 44-18-16Z" style="fill:#f1d789;fill-rule:evenodd"/><path d="m666 1784 57-16 5 1s2 2 2 7c8-4 14-3 18-6 2 5 5 21 15 23s21-5 33-13c11-9 24-21 33-25a181 181 0 0 1 10 20c12-10 35-51 66-51a120 120 0 0 1 44-53c29-19 48-21 71-19a121 121 0 0 1 33-30c3 2 14 8 27 2s28-29 48-33a46 46 0 0 1 30 7s57-57 96-76c-1-4-4-21 42-59 2 2 1 8 2 9 1 0 12-5 27-16 17-13 38-27 51-31 24-7 49 8 49 8a23 23 0 0 1 8-4c6-1 10-1 13-3 0 8 5 22 0 33a74 74 0 0 0 15 7c-2 5-8 20-17 26 8 4 9 9 20 12l-15 24-21 48c-6 12-13 32-17 36s-17 22-27 31c9-4 46-15 62-19l-51 75a890 890 0 0 1-729 85Z" style="fill:#e0cd81;fill-rule:evenodd"/><path d="M486 793s-13 0-16 2 13 5 18 7 16 10 18 17c3 6 95 43 95 43l65-3 23-31-43-37 30-89-40 6-95 57-48 19-7 9Z" style="fill:#dfc57c;fill-rule:evenodd"/><path d="M629 822a10 10 0 0 0 9 5c14 0 26 3 31 10l33 46 57 21 4-68-63-44-71 27v3Z" style="fill:#e5cc7c;fill-rule:evenodd"/><path d="M618 847s10 1 24-4 35-15 44-11c13 5 10 23 25 39 8 9 24 9 33 20s40 5 40 5l11 63-46 60-16 75h-63l-58-23-29-69 15-70 20-85Z" style="fill:#d2c281;fill-rule:evenodd"/><path d="M741 850a17 17 0 0 0 4 1c-1 1-5 5-4 13s7 20 3 27a33 33 0 0 1 7 12c2 8 3 14 20 15a35 35 0 0 0-7 6s12 10 18 19c6 0 22-5 22-5l3 2 7-3s-6-2-1-19c4-14 8-13 9-14l3-22 4-32-5-53-27-17-22-21-21 39-14 14-1 34 2 4Z" style="fill:#e2c270;fill-rule:evenodd"/><path d="m806 806 7 24a23 23 0 0 0 1-6s4 21 5 29l3 1c0 1 4 19 3 28a76 76 0 0 1 25-25c6-4 14-8 21-9 12 0 20 8 34 8 34 0 64-25 87-33 16-5 31-9 41-18 4-4 13-14 21-27 10-18 21-34 32-36a68 68 0 0 1-15 1s4-3 9-8 13-10 22-10c18 0 26 3 36 3s15-3 15-3 11 7 33 7l51 4c12 1 52-4 63-3a56 56 0 0 1 22 5l-37-108-134-117-79 57-122 122-119 44-24 28v42Z" style="fill:#ccb360;fill-rule:evenodd"/><path d="m1072 744 9-8c6-5 12-10 22-10l36 2c9 0 15-2 15-2s10 7 33 7 38 2 50 3 52-3 64-3a56 56 0 0 1 22 6l-17-49-20-37-56-61-67-40-23-6-61 36-55 143-1 30 35 17c9-15 19-27 28-29l-14 1Z" style="fill:#d5b457;fill-rule:evenodd"/><path d="M1071 754c-5 0-10-1-11-4-4-13-8-15-12-15s-9 8-12 9-7-9-7-9l-3-2s-20 13-33 28-37 40-47 45-45 6-57 8-25 12-27 14 5 4 7 6c1 2-12 1-13 3-1 1 3 10 5 14a25 25 0 0 1 10-2c12-1 20 7 34 7 34 0 64-25 87-32 16-6 31-10 41-19 4-4 13-13 21-27 6-9 11-18 17-24Z" style="fill:#d2b257;fill-rule:evenodd"/><path d="M588 1505s-3-11-31-40l-18-20c-13-13-21-16-30-23-21-15-43-15-61-34s-37-55-51-92l-18-49c0-1 4-8 9-7s5 10 6 12a75 75 0 0 0 8 11c7 8 18 18 23 33-1-13-6-27-6-27s27 17 50 35c23 17 32 23 39 35s22 40 30 49 111 41 111 41l49 37 25 54-20 30-36 7-60-26-19-26Z" style="fill:#d2b159;fill-rule:evenodd"/><path d="M456 1320s12 20 42 39a410 410 0 0 0 174 50c53 1 90-14 136-19 24-3 55-5 86-12 41-10 65-21 97-36 24-11 46-19 63-30 25-14 43-31 64-35-3 7-5 19-26 33l26-1s-15 8-40 28c-16 12-37 32-58 45-14 9-29 15-39 21-24 13-34 19-49 36h6s-20 2-34 10c-3 0-9-1-18 1-7 3-16 8-26 10-14 5-18 3-18 3l2 4-24 1h1a9 9 0 0 0-3 1 31 31 0 0 1-10 4l-5 1 9 18-36 28a26 26 0 0 1 2 5l3 10c2 5 4 6 4 6l-11 2-24 6a95 95 0 0 1-10 1c1 3 8 16-4 30s-16 17-20 27a41 41 0 0 0-6-4c-4-2-10-5-12-8a97 97 0 0 1-4 14c-4 10-10 20-11 28-4-5-11-14-22-12s-19 16-21 20c0-2-1-4-2-1 0 3-6 38-38 66l-1-28c-3 3-7 7-29 17-21 9-18 19-18 19s-1-15 10-31c12-16 19-23 19-25a7 7 0 0 0-2-3l-4-4c2-1 20-10 19-28-1-16-8-24-13-30-1-1 7-7 6-8l-12-12a35 35 0 0 1 2-7c1-3 2-6 1-8 0-4-5-14-6-15h9l-7-14-5-19h9c0-3-5-6-3-9 2 0 5 2 9 6-2-5-5-14-11-18 3-1 13-4 22 1s12 13 12 13l13 10c10 8 22 18 41 26 4 2 14 2 22 0a34 34 0 0 0 9-3 17 17 0 0 1 4-2 73 73 0 0 0-6-9h6s1-4-7-12c2-2 4-3 4-6-2 0-7-4-8-6l7-5c-3-2-8-10-11-10a48 48 0 0 0 7-4s-13-3-17-6l-13-10c-4-1-11-2-14-5h14c0-1 0-3 6-4a28 28 0 0 0 8-2s-6-1-12-7-12-11-15-11c-4-1-11 2-16 2-6-1-8-4-8-4s-20 2-65-25c-39-24-56-45-56-45a67 67 0 0 1-10-5c-15-7-35-23-34-44Z" style="fill:#c2a44d;fill-rule:evenodd"/><path d="M1014 410a20 20 0 0 1 9 6c7 8 11 24-5 40 6 2 9 3 15 2-6 7-19 21-19 34-1 10 5 13 5 13s-10 11-10 30a122 122 0 0 1 15-14c11-9 27-19 37-26a21 21 0 0 0 1 8s20-16 36-9c8 4 4 14 4 14s10-4 18 3 17 26 22 33l14 20a248 248 0 0 1 21 43c0-8 2-20 25-12 22 8 48 24 69 57s27 69 37 83c11 14 23 36 23 45s-3 40 19 122c7-25 17-82 17-82l5-50 6-154-161-134-126-92-83 8 6 12Z" style="fill:#caa13e;fill-rule:evenodd"/><path d="M1313 640s-2-15-40-41c-38-25-67-25-95-46-21-17-43-56-57-69-14-12-16-49-16-49l47-39 69-100 59-64 28 39 39 46 21 92 8 134-63 97Z" style="fill:#b59544;fill-rule:evenodd"/><path d="M1360 801a171 171 0 0 0-7-60c-10-31-32-87-42-107-4-23-1-25 3-28s21-12 30-45 37-34 37-34l18-13 26 66 23 59 7 46 5 38-12 82-62 56-26-60Z" style="fill:#c89d3a;fill-rule:evenodd"/><path d="M503 1712v-1a13 13 0 0 0 3-3l3-4c1-1 8-3 12-2s14 4 19 4c11 0 24-8 44-5 31 6 38 27 55 38 12 8 25 5 27 5h4s6-7 9-6c6 0 7 5 10 5 9 1 27-4 35-2a17 17 0 0 1 11 11c2 6 1 13-4 17-9 8-18 17-20 24a85 85 0 0 1 7 5 883 883 0 0 1-215-86Z" style="fill:#ceb052;fill-rule:evenodd"/><path d="M1311 1409s23-31 32-47c8-16-26-220-26-220l68-225-2-73s4-67 12-97c9 17 38 38 45 48 3-20 13-64 11-110 6 8 19 95 19 95l14 59 18 62 19 66 12 45 6 11 6 19 5 21 16 48 9 40 7 72a110 110 0 0 1 3 17l-1 14c0 2 3 17 2 29-2 12-2 21-11 30s-16 60-16 60l-16-11s3-16-5-29-23-17-32-15-26 4-31 9c-6 5-19 20-31 27-15 9-39 10-52 13s-28 12-43 22a241 241 0 0 1-38 20Z" style="fill:#cca847;fill-rule:evenodd"/><path d="m1311 1741 3 1a891 891 0 0 0 284-210c-1-31-2-62-4-74-2-25 0-50-1-64s-9-74-13-90c-4-15-12-22-13-22s-8 28-8 36l-1 28-2-4-4 12v-8c-1-1-3-1-2-5a43 43 0 0 1 1-7s-5 7-8 24-3 17-5 19c-1 2-7 8-7 10 0 4 6 8 6 10l-7 31c-2 9-1 25-3 34-2 8-3 12-8 15l7 2s5 23-8 42l-11 16a74 74 0 0 0-19 32 54 54 0 0 1-1-8s-16 19-23 29c-8 14-20 13-24 16s-4 10-3 15c-3 0-8 1-12 13-2 6-6 12-14 16s-15 5-20 7l7 2c-2 4-12 10-24 17s-17 18-20 25c-3 6-8 10-15 11l10 7c-3 1-9 1-19 10-11 8-14 11-19 12Z" style="fill:#c39d3c;fill-rule:evenodd"/><path d="M1100 1811a86 86 0 0 1 18-10c24-9 49-11 59-14l28-10v8a884 884 0 0 1-105 26Z" style="fill:#d2ba6b;fill-rule:evenodd"/><path d="M1536 1189s-5 26-13 43l-18 39a72 72 0 0 1 1-15c-11 6-37 21-45 28-7 7-19 18-22 23 7-21 15-40 16-48-11 8-62 50-88 77l-83 67a286 286 0 0 1-30 14l-43 16c3-9 9-17 16-24 8-8 32-33 35-45 3-13 4-20 0-31l-20 4c-6 2-13 8-13 8s5-27 15-54l-21 3s19-32 51-54a166 166 0 0 0-29 9l-55 26c9-12 69-98 106-179 36-81 49-101 57-145 4-21 3-53 4-81s5-53 2-70c10 12 45 45 46 118 1 74-34 173-70 227 9 2 32 5 56-36s23-53 32-71l1 12s35-42 51-96c4 23 14 43-2 85-14 38-32 48-32 48s9-2 22-10c3 6 2 12 6 14s9 7 10 10l12-19c-1 12-2 64 3 91 12-1 24-2 32-23-6 20-6 33-2 51l12-12Z" style="fill:#c0993a;fill-rule:evenodd"/><path d="M1142 353s-12 4-32 4c-17 0-12-6-39-6-42 0-187 24-212 23-17 0 55 8 55 8l185 2 38-3 13-28h-8Z" style="fill:#a88f33;fill-rule:evenodd"/><path d="M662 714s-23 18-33 32-16 23-27 34a23 23 0 0 0 8-1s0 3-2 4a11 11 0 0 1 9 3c-4 2-13 11-6 21 6 9 17 9 17 9s-3 8 8 7c23-1 49-11 61-9 12 3 19 5 28 19 9 15 16 17 16 17s6-13 4-34a100 100 0 0 0 8-34l-8-58-35-43-44 24-4 9Z" style="fill:#e3c571;fill-rule:evenodd"/><path d="M705 705s3 8 17 9a3327 3327 0 0 0 0 13 14 14 0 0 0 4-3v12a28 28 0 0 0 2 7 13 13 0 0 1 1-2s3 9 10 15a6 6 0 0 1 1-3 11 11 0 0 0 2 6 6 6 0 0 1-2-1s1 24 5 36a17 17 0 0 0 2-3l-1 12v13a40 40 0 0 1 9-5c4-2 12-8 16-20a133 133 0 0 0 6-22 30 30 0 0 1 3 9c0 4 8 2 8 2l1-16 9-38 8-23 40-62 71-54 62 14 53-71-91-55-85 9-78 108-62 97-11 16Z" style="fill:#d8b65b;fill-rule:evenodd"/><path d="M1153 550s-6 1-21 9-26 10-32 22-6 21-6 21l16-6c7-2 14-1 13 1a18 18 0 0 1-3 5s12 0 12 6-2 12-5 15c-2 3-11 8-12 11-3 7 1 7-1 13-1 6-6 17-22 36-17 19-24 32-24 32l-13-28-19 10-37-130 1-8s3-4 4-12c-6-2-7-3-14-10s-14-16-26-22c-2-3-4-8-13-10l-15-3s5-2 7-6c-5 1-10 3-22 3h-21c-7 1-15 4-18-7-3-2-10 0-16 9s-8 16-20 20a41 41 0 0 1-5 14l-16 20c-11 13-10 35-28 51-18 17 3-46 3-46l29-69 82-80 128-8 12 66 62 21 40 60Z" style="fill:#d3ae4d;fill-rule:evenodd"/><path d="m1173 564-54-77-37-29-29-50-42-5 3 7a20 20 0 0 1 9 6c7 8 11 24-5 40 6 3 9 3 15 3-6 6-19 21-19 33-1 10 5 13 5 13s-10 12-10 30a122 122 0 0 1 15-14c11-9 27-19 37-25a21 21 0 0 0 1 7s20-16 36-8c8 3 4 13 4 13s10-3 18 4 17 25 22 32l14 20a247 247 0 0 1 21 43c0-6 1-14 12-14l-16-29Z" style="fill:#caa13e;fill-rule:evenodd"/><path d="M370 784s-4-10 0-28 10-27 12-54 19-61 19-61l49-22 35 10 10 46-44 24s-2 10-14 18-30 15-34 23a67 67 0 0 0-5 16s-13-3-20 6c-8 8-8 15-8 22Z" style="fill:#f4efc8;fill-rule:evenodd"/><path d="M468 771s-4 3-7 9c-3-4-10-33-10-59s-2-33 4-42 30-18 26-34c-3-15-17-22-34-17-12 3-21 28-34 41-9 10-20 8-23 13-4 8-1 15-2 19 0 2-4 10-11 20-14 20-37 48-40 73 1-14 0-15 4-30l-2-4 15-49 10-41 21-68 39-69 37-42 38 3 5 58 22 109 47 58-75 50-30 2Z" style="fill:#ebcc73;fill-rule:evenodd"/><path d="M492 792s-7 2-9 0-5-2-4-4l5-5a4 4 0 0 0-4-5c-3 0-4 2-4 2l-6-3a42 42 0 0 1 5 0 47 47 0 0 0-14-4c4-2 12-9 16-9s8-1 8-3-5-7-9-8c1-2 2-5-1-12-4-8-2-13-1-14l6-9 7-8 11-5c5-2 10-4 13-2s2 5 2 5 10-3 19 2c10 4 33 7 33 7l8 16-54 47-23 11-4 1Z" style="fill:#e5c66b;fill-rule:evenodd"/><path d="m567 716-21 15c3 1 6 2 5 4-2 3-13 10-19 18-6 7-12 17-14 21-3 4-20 16-26 18 13 0 38-15 47-15 0 4 3 9 8 10s21 3 41-10c21-12 14-21 23-27 16-11 23-21 32-27l14-8s0-4 3-4a4 4 0 0 1 3 3s16-11 36-14a2 2 0 0 1-1-1s1-1 2-2l2-1c1 0 1 7 3 9 3-2 10-16 10-16l15-44v-40l-12 3-90 38-55 56-6 14Z" style="fill:#e6bd62;fill-rule:evenodd"/><path d="M826 519a51 51 0 0 0 14-5c-2 5-2 10-10 21s-8 14-14 26c-7 12-7 30-13 38a28 28 0 0 1 8-3s-6 6-8 11-8 18-19 25-25 11-41 28c-15 17-31 38-39 45 4-7 10-21 12-31s-1-20 2-33 2-21 15-43 34-97 34-97l45-14 14 32Z" style="fill:#b6933f;fill-rule:evenodd"/><path d="M793 492s-14 20-18 37 0 16-2 25a32 32 0 0 0 0 16 57 57 0 0 1 19-19c13-8 24-13 30-20s12-19 25-28l-15-3c6-6 23-16 40-28s16-16 43-28h-21c3-7 14-10 24-20s-6-26-6-26l-80 48-39 46Z" style="fill:#c49937;fill-rule:evenodd"/><path d="m576 456 2-15 23-37 24-64v-88l-2-51 4-34 3-10 3-4 19 10 27 36 3 71-27 112-74 82-5-8z" style="fill:#dfc068;fill-rule:evenodd"/><path d="M636 149s-12 0-15 50l-6 101c-2 25-6 39-8 54s-3 34-10 46c-3 6-9 24-24 37-17 14-42 25-46 25-7 2-41 5-54 13-5 2-14 5-23 14-18 17-43 46-60 82-27 53-54 203-54 203l6-10s1-13 14-37 9-50 28-95c7-18 16-40 27-59 17-31 38-58 59-73 35-23 72-29 72-29l41-27 17-29c13-22 30-47 34-83 5-53-8-88-8-120s1-54 8-60 2-3 2-3Z" style="fill:#a88f33;fill-rule:evenodd"/><path d="M636 387s18-45 26-84l5-22c4-37 5-53 0-73-4-15-18-28-26-39-7-11-11-15-9-17s7-6 13-6a45 45 0 0 1 32 15c12 14 21 60 21 60l10 60 25 76-97 30Z" style="fill:#c99e3d;fill-rule:evenodd"/><path d="M805 341h-10a14 14 0 0 1-6 12c-6-2-66 3-66 3s-27-5-36-42c-6-24 4-58 1-80-5-33-13-39-14-49l-1-19-9-2c0-3 1-6-2-11 2 1 14 2 29 16 12 11 12 15 13 18 3 2 21 18 29 33s23 66 27 74c1 4 3 7 9 15 8 10 21 29 36 32Z" style="fill:#b58634;fill-rule:evenodd"/><path d="M706 188a420 420 0 0 1 25 46c9 20 14 36 26 50-6-18-17-52-24-65s-21-27-27-31Z" style="fill:#a88f33;fill-rule:evenodd"/><path d="M603 437s-15 4-44 19a475 475 0 0 1-92 37l2 3s0 7 4 11c-2 3-32 23-24 92l15-5c2 0 2 5 4 5s10-3 18-13c0 4-5 46 19 73 5-5 17-23 17-23v-5s1-20 7-38 19-31 19-31l65-92-10-33Z" style="fill:#e6c367;fill-rule:evenodd"/><path d="M543 573a36 36 0 0 1-10 5c-1-4-3-17 6-30 11-15 34-35 40-51 4-10 2-35 39-68l50-44 59-29 73 28-36 141-28 66-111-21-82 3Z" style="fill:#dcba5a;fill-rule:evenodd"/><path d="m585 535 14-18v-12s15-4 32-21 39-49 59-47 22 44 23 56 4 38 8 52-50 68-50 68l-36 28-50-106Z" style="fill:#e9ce77;fill-rule:evenodd"/><path d="M628 679s11-18 3-22c5-11 14-22 14-22s6-16 27-35 33-33 36-46a120 120 0 0 0 4-26 49 49 0 0 0 7 5c3 2 19 15 17 41s-12 37-12 37l-17 14c-7 5-9 11-21 11a14 14 0 0 1 4-2s-13-1-19 5-21 24-28 30l-15 10Z" style="fill:#cdae50;fill-rule:evenodd"/><path d="M1132 384a183 183 0 0 0-56-11c-32-1-78 0-124 1-49 0-94-17-155-20-11-6-36-33-117 24 5-1 58-13 77 10 19 24 14 63 11 73-5 20-21 51-27 72s-5 33-9 48-15 22-9 40c8-5 12-5 25-35s11-50 32-75c22-26 58-60 71-69s121-64 234-11c27-3 47-47 47-47Z" style="fill:#d2a83e;fill-rule:evenodd"/><path d="M725 363a14 14 0 0 0 0-3 24 24 0 0 0-5-6s-26-5-40-4c-23 3-45 32-55 47s-22 38-36 50a5 5 0 0 0-1-3v3l-1 3 2 2c1 0 22-10 50-36 31-28 54-42 66-47a92 92 0 0 1 20-6Z" style="fill:#c29637;fill-rule:evenodd"/><path d="m1243 249-11 13c-13 14-31 30-46 47-14 15-30 28-48 48l-45 50c-4 7-8 18-8 24l-6-4a38 38 0 0 0 5 7l12 16a49 49 0 0 1 8 17c2 0 14 3 28-21s34-51 34-51l30-45 20-38 24-43 3-20Z" style="fill:#ac8132;fill-rule:evenodd"/><path d="M1274 218s-18 15-25 24l-24 33 6-1 31-27 12-22v-7Z" style="fill:#a88f33;fill-rule:evenodd"/><path d="M1269 1424s-1-13 6-20 26-18 43-59l20-51s-32 27-51 34l9-21c-2-2-13-5-14-6 6-6 9-21 21-31l67-51c22-18 67-61 72-74 4 5 4 8 4 8s-22 29-33 48c-10 15-10 24-10 24l21-9s6 23-21 57c12-5 17-2 23-6-11 7-26 17-41 44-14 26-33 58-66 77-32 20-50 36-50 36Z" style="fill:#a67a2e;fill-rule:evenodd"/><path d="M1186 399s-12 26-14 47l-1 14c-1 18 1 38-3 47l-4-7-10 33c-1-5-5-21-4-41v-28c0 6-4 14-6 19l-8-14-6 10-1-14-1-20c1-4 7-20 21-35 16-17 32-51 37-62l26-54h16l-23 53-21 39-29 52 14-16 17-23Z" style="fill:#8c6228;fill-rule:evenodd"/><path d="M1275 216a65 65 0 0 1-12 22c-10 11-30 26-40 38-9 12-27 44-19 82 3-9 9-25 24-43s31-40 39-56c8-17 9-30 9-30l3-3-2-9-2-1Z" style="fill:#cba94c;fill-rule:evenodd"/><path d="M1582 1223s-6-17-8-32 3-18-3-35c-3-11-9-9-11-11s-2-17-2-26 0-19-2-24c-2-2-4-4-7-15l-7-20c-2-3-7-6-7-10 0-6 6-10 6-12-1-4-5-1-6-2-2-1 3-12 1-14 0-1-6 6-7 4-2-2-3-20-6-32l-6-24-26-76a361 361 0 0 1-10-37c-1-7-2-21-3-20s0 9-2 9l-6-31c-1-4-7-18-9-28l-7-54-3-30a187 187 0 0 0-2-34c-3-19-9-42-14-55-10-26-37-91-42-107 0-4 5-2 5-2a4947 4947 0 0 0 44 109c1 2 16 27 22 68s9 79 12 104c2 12 4 25 8 37l18 50c8 19 13 34 16 47l5 38 11 42c6 21 16 47 22 64 13 33 18 60 20 75s7 68 6 84Z" style="fill:#a88f33;fill-rule:evenodd"/><path d="M1275 215v1s2 1 1 4a91 91 0 0 1 0 13l-3 12c0 7 1 16-9 36l-6 14-8 13c5-3 24-15 34-13-7 4-17 11-23 21h18c17-3 35-9 52-8 18 1 11-21 11-21l-21-46-39-28-7 2Z" style="fill:#be9c44;fill-rule:evenodd"/><path d="M1378 558s-17-18-25-78c-7-61-5-150-5-150l-14-35s-3-23-11-32l-29-30c-7-7-14-17-19-19 3-4 13-25 52-25s51 21 55 29 22 42 29 107 7 70 6 92c-1 13-5 42-12 72-7 26-14 56-27 69Z" style="fill:#a17c34;fill-rule:evenodd"/><path d="M1323 609a30 30 0 0 0 17-3c5-1 26 2 41-18 1 5 4 17-3 28l10-7c1 6 6 23-17 65 6-6 14-6 20-7 0 8 5 35-7 49-7 10-19 7-19 7a38 38 0 0 0 0-7c-1-4-2-8-1-11a54 54 0 0 1-16-11c-13-12-30-33-31-49-2-18 14-22 14-22a17 17 0 0 1-3-4l-5-10Z" style="fill:#8c6228;fill-rule:evenodd"/><path d="M1206 419s-1-2-5 3l2-13a48 48 0 0 1 7-12l-3 9s5-11 13-17c6-4 13-7 16-11 4-4 3-5 4-6 0 0 7-5 18-19l6-6 15-7 21-12c11-5 21-4 26-11 4-1 8-13 7-22 6 2 35 20 45 59 7 28-6 70-11 91s-6 36-14 45c-9 13-39 30-47 39-6 7-25 25-25 38 1 10 13 15 16 17s2 4 7 3l9-3 3 1a11 11 0 0 0 2-1s0 14-33 18l-7 2c4-2 6-2 10-8l-21-2 8-9c2-2-1-3-3-2a121 121 0 0 0-11 9c-4 3-7 8-13 12-2-6-2-18 5-26-2 0-5 5-8 4a48 48 0 0 1 1-16c1-7 11-19 11-19l48-85 10-65-109 22Z" style="fill:#92723a;fill-rule:evenodd"/><path d="M1203 422s-2 2 3 5l-5 8-6 7-4 12c0 3-1 16-7 26-3 3-5 9-7 13l-8 15c-2 5-3 19-3 19l5-5-7 11 16-13c13-11 32-29 56-42l-18 3c4-4 38-44 56-48a7 7 0 0 0 1-5l-15-1-31 7-5-24-21 12Z" style="fill:#b18e3e;fill-rule:evenodd"/><path d="M1253 559s-4 4-8 14a48 48 0 0 1-7-10c-6-10-15-22-35-15v-14c3-1 14-9 24-21 7-8 14-18 18-30l15-10c10-7 22-16 23-26-4 2-14 6-28 6 5-3 14-6 13-17l4-2a15 15 0 0 0-5-1c-1-1-1-3-4-2l-3 2c-1 0-5 0-7 2l-13 9 3-5-13 3c-10 3-21 9-32 15l2-3 3-1-1-4a139 139 0 0 1 12-21c6-7 7-17 7-17l23-12 65-15 42 3-5 29-25 51-21 47-25 28-22 17Z" style="fill:#543e26;fill-rule:evenodd"/><path d="M1359 432s-26 32-33 36c5-9 33-67 43-83-2-2-6-2 2-30-6 14-9 22-14 25s-5 3-9 3a6 6 0 0 0 1-4s-21-2-36-2-43 7-59 14c-13 5-20 5-25 8l-9 9c-2 1-11 4-13 7l-5 7c0 1 0 2 2 1l13-7 26-14c22-8 29-7 39-9 10-1 24-6 34-6l32 1c-1 2-3 3-2 10l-3 8-18 43-18 34c-4 7-12 27-20 38l-15 19c-2 3-21 15-20 20 3-1 24-9 40-26s18-28 30-37 21-25 27-38c5-12 4-16 10-27Z" style="fill:#806031;fill-rule:evenodd"/><path d="M809 667s-3 14-11 21c-7 7-20 13-22 24s13 17 13 17-8 13-8 23l1 23a10 10 0 0 0-3 3s1 9 8 16 14 9 18 8a36 36 0 0 1 1 3s6-14 10-26c4-13 7-11 8-28s18-47 18-47l12-25-19-14-26 2Z" style="fill:#b6903c;fill-rule:evenodd"/><path d="M843 692a110 110 0 0 0-10 13c-5 6-9 12-16 15s-11 3-11 10 7 10 11 13c4 4 7 11 6 18 2-1 6-3 10-11l30-58h-20Z" style="fill:#685026;fill-rule:evenodd"/><path d="M948 577s2-6 0-10c-2-5-16-6-23-12-7-5-16-9-23-6 1-3 5-9 2-10s-16 5-19 7l-13 8c-2 2-4 5-5 4-2-1-2-4-5-3s-15 12-17 18-8 19-23 34-22 25-18 30 7 2 8 7a41 41 0 0 1-1 14c-2 8-5 15-1 17 11 3 21-3 23-1 5 4-3 19 8 22s22-3 22-3l40-21 38-21 19-38-10-33-2-3Z" style="fill:#d4b968;fill-rule:evenodd"/><path d="M911 669s-7-10 1-19 20-12 24-18a7 7 0 0 0-3-2 30 30 0 0 1 13-13c-2-2-5-4-8-4-8 0-12 5-19 5s-8-4-8-4 12-1 11-6-3-5-3-5 21-9 25-14 3-10 4-13c3 0 18-7 24-4s2 12 2 12 18-13 27-27c9 1 12-6 18-6 8 0 19 11 22 32 1 13 4 20 1 42-1 12 0 39 3 52 3 10 9 9 9 9a17 17 0 0 1-5 9c-4 3-5 13-4 17a75 75 0 0 0 2 8s-5 6-6 10-6 6-10 6h-16c-3-1-5-2-4-12s-38-32-38-32l-63-23Z" style="fill:#cca849;fill-rule:evenodd"/><path d="M838 765s14 19 71 19c27 0 36-3 42-4 6-2 28-11 51-38 21-24 16-34 16-34l-12-2-39 5-115 49-14 5Z" style="fill:#585136;fill-rule:evenodd"/><path d="M880 770s-49 11-49-20 31-62 38-68c8-6 27-12 27-12h45l9 23-4 49-66 28Z" style="fill:#252211;fill-rule:evenodd"/><path d="M926 679s-10-8-31 3-39 36-40 58c-1 20 16 34 43 35 20 1 32-1 38-3l-9-12-1-81Z" style="fill:#c3b378;fill-rule:evenodd"/><path d="M917 684s-3-2-9 2c-6 3-14 11-21 16l-9 8c-9 11-17 29-12 38s19 20 57 13l-7-77Z" style="fill:#e6d89c;fill-rule:evenodd"/><path d="M904 703s-6 9-6 24c0 16 9 40 41 42 24 1 40-35 58-50 14-11 22-11 22-11s-14-15-51-34c-36-20-77-22-99 8 10-1 44-10 44-10l17 5-26 26Z" style="fill:#252211;fill-rule:evenodd"/><path d="M952 723c-1-3-2-6 2-6s7-1 8 3 3 6 1 7-8 0-11-4Zm-7-22s-2 1-1-1c0-2 2-7 7-6s4 7 3 8-5 4-8 3a3 3 0 0 1-1-4Z" style="fill:#6f674d;fill-rule:evenodd"/><path d="M534 711s12 9 26 9c14-1 31-15 40-24l13-15c4-4 7-6 8-9l7-10-13 10c-5 3-15 9-20 10l-46 24-15 5Z" style="fill:#ac924c;fill-rule:evenodd"/><path d="M552 599s7-5 20-8c12-3 37-5 37-5l21 9 8 31-15 33-19 12-22-35-30-37Z" style="fill:#9f8e57;fill-rule:evenodd"/><path d="m525 627-7 5 4-13c2-10 9-35 20-50s12-13 12-13a8 8 0 0 0-6 1c1-3 11-15 21-21s13-8 23-3 13 7 20 7 14-8 14-8 2 5-4 16-28 34-28 34l-46 32-23 13Z" style="fill:#eac970;fill-rule:evenodd"/><path d="M559 595s34 5 44-5l2 2a3 3 0 0 1-1 2 24 24 0 0 1 3-1 20 20 0 0 0 4 1 24 24 0 0 0 4 0 6 6 0 0 1-3 4l3 1c0 1 1 5-1 6a7 7 0 0 1-5-1 19 19 0 0 0 2 9c3 5 10 12 18 10 0 0 5 11-14 35l-9 12a44 44 0 0 0-3 9s33-13 42-41a221 221 0 0 0 6-100c-5-9-17-8-23-2-7 7-19 26-37 38-17 13-18 15-32 21Z" style="fill:#d7bc6b;fill-rule:evenodd"/><path d="M519 636s-6 4-9 18c-4 15 3 32 6 38s12 21 30 22a32 32 0 0 0 12-3 79 79 0 0 0 17-10l13-11-46-37-17-19-6 2Z" style="fill:#585136;fill-rule:evenodd"/><path d="M561 696s9 0 14-4-31-39-31-39l3 39 14 4Z" style="fill:#453a25;fill-rule:evenodd"/><path d="m522 633-4 11c-1 8 1 31 3 38 2 8 12 20 25 20 7 0 18-4 18-6 0-1-11-3-14-8-2-3-3-11-3-18 0-5 0-11 2-12 4-5 4-18 4-18l15-27h-19l-23 14Z" style="fill:#84754b;fill-rule:evenodd"/><path d="M517 642s15-20 28-25 20-2 20-2l-8 21-11 12v6s-1 17 10 29 19 11 24 11 19-4 26-21c7-16 12-36-1-56-12-20-34-21-39-21s-37 2-49 46Z" style="fill:#252211;fill-rule:evenodd"/><path d="M902 709c-6-2 0-18 5-23s13-10 25-11c5-1 9 2 9 5-2 6-9 14-17 19-9 8-16 13-22 10Z" style="fill:#f7f7e7;fill-rule:evenodd"/><path d="M598 623c5 0 10 3 11 8 1 4-3 14-11 14-6 0-9-8-9-10a12 12 0 0 1 1-5c1-1 1-6 8-7Z" style="fill:#f8f6de;fill-rule:evenodd"/><path d="M539 627s-10 5-15 15a40 40 0 0 0-3 24l7 16c2 3 6 6 9 6s8-8 8-12 0-21 5-31c4-9-11-18-11-18Z" style="fill:#d4c38b;fill-rule:evenodd"/><path d="M541 626c-2 1-5 2-4 4 0 2 7 3 9 8 3 4 3 9 2 12a18 18 0 0 0 5-4c4-4 8-9 11-9l7 1c3 0 7-1 7-5 1-4-6-8-10-8 0-3 1-7-2-10s-14 2-16 4l-9 7Z" style="fill:#e2d59d;fill-rule:evenodd"/><path d="m782 945 22-7 7 5s4 9 11 10c-2 5-8 9-8 13s4 6 4 6-20 33 19 67l-27 12c4 1 14 3 18 7l8 7c4 2 6 5 5 6-2-1-11-6-13-1s-37 2-37 2l-61 12s3-6-4-12-16 1-26-7c-13-10-13-21-17-25 4-3 12-6 32-9-1-2-3-6-2-10 2-6 10-9 7-15 4-1 5-1 13-11 8-11 13-13 19-14s10 0 21-10c8-8 6-14 6-14s5-2 3-12Z" style="fill:#cbac5a;fill-rule:evenodd"/><path d="M716 948c0-2 1-2 9-2l74-5a465 465 0 0 1 166 25c0 2-3 3-5 3-1-1-41-13-53-15s-55-10-78-9c-22 0-31-1-49 1-18 3-49 6-58 5-9-2-7-2-6-3Z" style="fill:#d6bc6f;fill-rule:evenodd"/><path d="M838 1067s31 17 42 37c8 16-5 23-5 23s18 0 15 10c-1 6-30 22-49 31-20 9-20 8-29 10-10 1-35-3-41 4s-3 16-1 17l14 2s-3 8-29 8-31 3-33 6c-1 2 5 1 17 3l28 3s-6 4-19 8c-16 4-41 8-48 12 3 3 9 7 12 7-7 1-16 5-17 6l5 3s-13 16-20 19-50 24-65 20c-37-9-41-50-50-53-14-4-20 5-32-1l14-9-38-23a233 233 0 0 0-11-21c-6-10-15-24-21-37-15-27-16-39-29-54 2-3 10-3 10-3l111 36 196 6 51-73 22 3Z" style="fill:#dfc677;fill-rule:evenodd"/><path d="M547 1178a17 17 0 0 0 4 3c4 3 10 6 13 10 2-2 6-6 12 0s15 2 21 4l5 2 10-5 14-4 14-3c3 3 15 15 63-3 46-18 56-20 64-17 1-2 1-6 13-5 0-5-10-21-10-21l-53-19h-29l-88 16-49 28-4 14Z" style="fill:#c4a859;fill-rule:evenodd"/><path d="M518 1147s1 8 13 17 16 14 16 14l4-6c2-4 3-7 6-8 6-3 20 2 23 1s2-6 5-6c6 0 10 4 13 4l8-1c1-1 1-14 10-20 9-7 21-4 24-3 0 3 0 8 6 9s7-1 12 1 12-1 15 8c2 0 8-1 7-10 3-2 6-4 12-13l6-8c5 0 12-1 20 7l-5 4a55 55 0 0 1 6 8c3 3 4 6 7 7 6 2 17-1 29 0 11 1 20 5 24 7h6c4 1 6 1 2-4 2 1 5 4 7 1s4-5 11-6 8 0 11-6c3-9-8-9-8-9l11-11c7-6 15-15 17-26 4-19-15-22-15-22l-93 29-113-6-97 48Z" style="fill:#927d49;fill-rule:evenodd"/><path d="M435 879s-3 4-5 13l-3 14c-2 6-20 70-13 92s19 29 27 46c1 4 3 6 3 10 3 11 1 19 4 31 1 3 4 8 8 12 9 10 23 19 30 25 9 10 21 29 38 30 8 2 21-2 31-8 9-6 14-14 24-18 6-4 14-5 20-6 13-3 25-3 32-2 11 3 37 10 51 10a139 139 0 0 0 33-4l66-22 26-6c14-3 26-8 33-16-4-6-10-14-40-14-35 1-74 20-94 23s-28 6-50-2c-21-8-22-13-22-13s-22-16-32-56 0-69 25-97c6-7 4-14 4-14s16-21 12-42c-5-20-36-16-36-16l-172 30Z" style="fill:#6e6342;fill-rule:evenodd"/><path d="M461 947a16 16 0 0 0-2 8c0 4 1 10 14 21 10 11 8 23 8 23s5 1 19-6c12-5 15 4 15 4a32 32 0 0 1 11-3 23 23 0 0 0 9-3s13 13 25 20c10 5 16 9 22 5 4-3 4-10 4-13a39 39 0 0 0-4-8c-4-5-9-10-9-15-1-10 7-23 6-26s-9-4-26 2-93-9-93-9Z" style="fill:#39331f;fill-rule:evenodd"/><path d="M500 1015s-8-8-5-48a49 49 0 0 1 11 1s4 31-6 47Z" style="fill:#292311;fill-rule:evenodd"/><path d="M439 849a24 24 0 0 0 3-3c-3 6-17 28-6 63 12 36 40 62 75 63s53-16 74-41l25-32c13-13 23-17 23-30 0-27-28-39-68-51s-76-10-95-2c-19 9-26 18-31 33Z" style="fill:#252211;fill-rule:evenodd"/><path d="m568 1027 3-2s1-12 5-11c5 0 8 7 7 9 0 2-1 6-6 6-7 0-9-2-9-2Z" style="fill:#3f3824;fill-rule:evenodd"/><path d="M554 976s3-1 7 2c3 0 16-1 20 1s5 5 5 5-15 4-23 0c-9-3-9-8-9-8Z" style="fill:#2d2815;fill-rule:evenodd"/><path d="M622 978c0-1-8-6-17-8-2-1-2 1-3 1l-1-3-5 3s-1 1 2 3c2 1 6 3 7 6l1 4c1 1 6 0 9-1l7-5Z" style="fill:#82764f;fill-rule:evenodd"/><path d="M545 1009s2-11 12-11c10-1 12 9 12 9l-6 6s-4-6-18-4Z" style="fill:#2d2816;fill-rule:evenodd"/><path d="M611 964s-5 6-18 8c-1-2-3-5 0-10s7-6 11-5a9 9 0 0 1 7 7Z" style="fill:#574f35;fill-rule:evenodd"/><path d="M634 971v-2c1 0 5-3 6-2v3l-1 4c-1 2-4 2-6 2s-1-3-1-3l2-2Zm26-16 4-2c2 0 2 1 3 2l1 1c1 2 2 4 1 5l-4 2-5-8Z" style="fill:#82764f;fill-rule:evenodd"/><path d="M608 975s3 0 8 4l-4 2s0-3-4-6Z" style="fill:#6e6342;fill-rule:evenodd"/><path d="m600 941 5-2 4 2c2 0 2-1 3-2h4a8 8 0 0 1 1 1 4 4 0 0 1 1-3 5 5 0 0 1 4 0l2 5c0 1-5 2-6 1l5 7c1 1-4 2-5 2-2 0-15-8-18-11Zm20-25a4 4 0 0 0-1-2c-1 0-5 0-5 2s3 12 7 17c3 6 6 10 9 11a4 4 0 0 0 4-1l1-20-2-26h-5c-2 1-7 17-8 19Z" style="fill:#585136;fill-rule:evenodd"/><path d="M607 994s-6-4-11-1c-5 2-4 11-4 11a7 7 0 0 0 6-1c4-2 8-6 9-9Z" style="fill:#574f35;fill-rule:evenodd"/><path d="M617 1006c0-3-3-3-3-5a3 3 0 0 1 3-2c2 0 3 1 5 3 2 1 5 3 5 5s-3 9-7 9-2-7-3-10Zm29-4h-6c0-1 2-3 4-3a6 6 0 0 1 4-1 3 3 0 0 1 2 0h6c2 1 0 1 1 2a11 11 0 0 1 2 4c0 2-5 4-9 4-4-1-3-6-4-6Zm35-7s2 1 1 2-7 3-11 3h-9l6-6a5 5 0 0 1 4-1l11-1c2-1 3 0 2 2l-4 1Zm11-47s-2 5-5 5-3-1-3-2l3-5-3-1c0-2 3-4 5-3a10 10 0 0 1 6-3c3 0 5 1 5 3s-3 5-4 5c-1 1-3 2-4 1Zm-35 90-3 1 2 1a8 8 0 0 0 2-1c0 1 0 2 3 2a14 14 0 0 0 5-2c2 0 3-1 3-3-1-2-2-3-4-3a6 6 0 0 0-4 0h-3c-3 1-2 2-2 3 2 1 1 2 1 2Zm-17 15s4-2 5-1l4 6-5 3-4-3 2-1-2-4Zm-12-22 2-2a3 3 0 0 1 2 0 4 4 0 0 1 3-2l3 1 1 6c0 2-1 4-4 5l-10 1c-1 0-2-3-1-5l4-4Z" style="fill:#82764f;fill-rule:evenodd"/><path d="m633 1032-3 3a7 7 0 0 0 0 2l4-1-1-4Z" style="fill:#6e6342;fill-rule:evenodd"/><path d="m610 1025 7 1c1 1 2 2 1 4s-3 5-7 4c-4 0-7-2-7-4a7 7 0 0 1 2-5h4Z" style="fill:#585136;fill-rule:evenodd"/><path d="m609 1027-6 5-12 14a29 29 0 0 1 3-4 16 16 0 0 0-6 8c-2 6 10 9 18 11l11 3a85 85 0 0 1-8-14c-3-7-4-8-3-11l4-8-1-4Z" style="fill:#574f35;fill-rule:evenodd"/><path d="M436 1039a9 9 0 0 0 3 0c2-1 26-9 51-8a271 271 0 0 1 54 9c32 8 70 25 95 34l18 9c19 7 20 7 31 9 14 2 27-2 41-5 17-4 47-6 73-10a149 149 0 0 0 25-5s-21 20-70 28a219 219 0 0 1-61 0c-16-1-26-3-34-6l-50-15-53-11c-50-9-104-19-123-29Z" style="fill:#252211;fill-rule:evenodd"/><path d="M410 846 284 728" style="fill:none"/><path d="m380 945-37 29-38 29-38 29a534 534 0 0 1-1-2l38-28 37-29 39-28Zm-66 106 30-27c21-19 46-44 55-49l-85 76Z" style="fill:#cfb66c;fill-rule:evenodd"/><path d="M314 1051c6-7 13-13 21-19l10-10 11-10 20-20a128 128 0 0 1 10-10 28 28 0 0 1 6-4c2-1 4-3 7-3l-5 5-5 5-11 9-21 19-21 19-22 19Zm90-61s-49 49-59 57Z" style="fill:#cfb66c;fill-rule:evenodd"/><path d="M404 990a161 161 0 0 1-14 15l-15 14-15 15-15 13 14-14 16-14 14-14 15-15Zm3 27a315 315 0 0 1-17 37c-12 25-31 57-40 73l57-110Z" style="fill:#cfb66c;fill-rule:evenodd"/><path d="M407 1017c0 5-2 10-4 15a151 151 0 0 1-6 14l-7 14-8 14-15 27-17 26 14-27c6-9 10-18 15-28a154 154 0 0 0 7-14l6-14 6-14c3-4 5-9 9-13Z" style="fill:#cfb66c;fill-rule:evenodd"/><path d="M461 1141s-15 20-14 45c4-13 9-33 14-45Zm14 20s-5 54-10 81c6-31 8-29 10-81Zm99 84s-22 66-23 84l23-84Z" style="fill:#dec270;fill-rule:evenodd"/><path d="M627 1137s36 60 63 111c-7-25-24-73-63-111Z" style="fill:#cbaf59;fill-rule:evenodd"/><path d="M725 1225a1105 1105 0 0 1 54 110c-4-26-12-70-54-110Z" style="fill:#e3c677;fill-rule:evenodd"/><path d="M1012 1314c6-4 18-24 29-30 10-5 18-6 27-16 10-11 12-18 33-27 29-12 9-28 9-28a93 93 0 0 1 10-9c8-5 16-12 16-24-2-20-5-50-22-67 16-3 47-5 66-10 22-6 32-14 32-14s-12-21 8-43 38-35 50-60c-14-1-36-9-91 12a70 70 0 0 1 8 5s-34 9-46 20c-22 18-25 33-48 44s-47 9-67 18-22 17-29 20c1 2-1 5 2 7-2 3-12 20-23 20 1 4 10 7 10 7s-7 5-24 6c9 9 17 19 40 34-2 3-10 9-6 16 3 7 12 17 46 25-18 1-38 5-66 1-28-3-32-5-49-1 1 2 6 2 11 6-5 1-34-3-43 10a83 83 0 0 0-14 49c-5 3-10 7-8 17s16 12 25 18c8 7 9 9 17 7 9-1 22-10 29-10s13 5 13 5 20-9 22-7c2 1 0 13 2 15 2 1 25-12 31-16Z" style="fill:#ecd592;fill-rule:evenodd"/><path d="M1453 707a477 477 0 0 0-329-290H455l3 249h133v557H455v249h650c157 0 283-158 283-158 201-285 65-607 65-607Zm-344 440s-51 73-107 73H891l-2-553h142s66 14 112 144c0 0 61 187-34 336Z" style="fill:#fff;fill-opacity:.800000011920929;fill-rule:evenodd"/></g></g></g></svg>