<?xml version="1.0" standalone="no"?>
<!DOCTYPE svg PUBLIC "-//W3C//DTD SVG 20010904//EN"
 "http://www.w3.org/TR/2001/REC-SVG-20010904/DTD/svg10.dtd">
<svg version="1.0" xmlns="http://www.w3.org/2000/svg"
 width="510.000000pt" height="510.000000pt" viewBox="0 0 510.000000 510.000000"
 preserveAspectRatio="xMidYMid meet">
<circle fill="#A78471" cx="255" cy="255" r="250"/>
<g transform="translate(0.000000,510.000000) scale(0.100000,-0.100000)"
fill="#000000" stroke="none">
<path d="M2355 5094 c-382 -39 -672 -123 -980 -283 -245 -127 -425 -260 -630
-466 -214 -214 -351 -406 -485 -680 -122 -247 -200 -505 -242 -800 -17 -118
-17 -512 0 -630 68 -477 242 -892 531 -1265 84 -110 312 -337 422 -422 141
-109 294 -205 454 -283 188 -92 309 -137 500 -185 598 -150 1207 -86 1754 186
707 350 1217 1012 1370 1779 38 188 46 277 46 505 0 352 -49 617 -170 928
-334 853 -1104 1463 -2019 1598 -97 14 -468 26 -551 18z m515 -120 c1006 -129
1840 -890 2065 -1884 76 -334 78 -731 4 -1064 -185 -846 -818 -1541 -1646
-1806 -240 -77 -473 -112 -743 -113 -544 0 -1035 164 -1477 494 -125 94 -377
346 -469 469 -220 294 -362 600 -439 940 -76 334 -78 731 -4 1064 169 771 715
1426 1442 1730 401 168 829 226 1267 170z"/>
<path d="M2200 4914 c-249 -30 -557 -106 -702 -174 -37 -18 -37 -59 2 -128
l29 -53 -22 -9 c-12 -4 -62 -21 -112 -36 -346 -108 -682 -386 -942 -781 -76
-116 -193 -332 -193 -357 0 -19 55 -52 113 -68 59 -15 59 -13 -22 -188 -114
-243 -149 -394 -158 -670 -6 -205 8 -344 53 -550 27 -118 82 -299 115 -376 22
-53 46 -57 122 -19 27 14 54 22 59 17 4 -4 17 -41 29 -82 68 -246 196 -457
409 -671 209 -210 455 -377 730 -494 l84 -36 18 23 c20 26 48 102 48 129 0 15
17 9 103 -36 208 -110 419 -163 678 -172 297 -11 608 44 903 157 100 39 106
43 106 70 0 15 -13 53 -29 84 l-30 56 27 6 c65 13 214 69 297 111 289 145 544
391 750 723 59 97 195 365 195 387 0 17 -59 50 -115 65 -28 6 -51 13 -53 14
-2 1 24 53 57 115 162 310 212 639 155 1039 -38 269 -172 680 -222 680 -9 0
-45 -13 -79 -29 l-62 -29 -21 69 c-112 371 -395 706 -812 965 -95 59 -357 190
-392 196 -25 4 -64 -52 -72 -102 -10 -64 -13 -64 -115 -11 -218 114 -420 162
-704 166 -104 2 -206 1 -225 -1z m585 -234 c702 -79 1328 -506 1660 -1132 353
-668 323 -1495 -78 -2130 -296 -469 -760 -809 -1286 -943 -228 -58 -516 -79
-744 -56 -991 103 -1784 870 -1911 1849 -75 583 90 1174 455 1627 347 430 876
722 1419 784 107 12 379 13 485 1z"/>
<path d="M2317 4432 c-125 -125 -227 -230 -227 -235 0 -4 70 -7 155 -7 l155 0
0 -641 0 -641 -455 447 c-250 246 -455 450 -455 454 0 3 50 56 110 116 61 60
110 113 110 117 0 5 -148 8 -330 8 l-330 0 0 -330 c0 -181 3 -330 7 -330 4 0
53 46 109 101 l102 101 451 -442 c248 -244 450 -444 448 -446 -2 -2 -286 -4
-632 -4 l-630 -1 -5 160 -5 161 -235 -235 -235 -235 238 -238 237 -237 0 158
0 157 453 0 c248 0 538 3 642 6 l190 6 -452 -453 -453 -454 -108 108 c-59 59
-111 107 -115 107 -4 0 -7 -148 -7 -330 l0 -330 330 0 c182 0 330 3 330 7 0 4
-48 56 -107 115 l-108 108 453 453 452 452 0 -643 0 -642 -162 0 -163 0 238
-237 237 -238 237 238 238 237 -163 0 -162 0 0 646 0 646 455 -447 c250 -246
455 -450 455 -454 0 -3 -49 -56 -110 -116 -60 -60 -110 -113 -110 -117 0 -5
149 -8 330 -8 l330 0 0 330 c0 182 -3 330 -7 330 -4 0 -53 -45 -109 -101
l-102 -101 -451 442 c-248 244 -450 444 -448 446 1 2 286 4 632 4 l630 1 5
-160 5 -161 235 235 235 235 -238 238 -237 237 0 -158 0 -157 -452 0 c-249 0
-538 -3 -643 -6 l-190 -6 452 453 453 454 108 -108 c59 -59 111 -107 115 -107
4 0 7 149 7 330 l0 330 -330 0 c-181 0 -330 -3 -330 -7 0 -4 48 -56 107 -115
l108 -108 -453 -453 -452 -452 0 638 0 637 78 1 c42 1 115 4 161 7 l83 7 -230
228 c-127 125 -235 227 -239 227 -5 0 -111 -102 -236 -228z"/>
</g>
</svg>
