<?xml version="1.0" encoding="UTF-8"?>
<svg width="790pt" height="790pt" version="1.0" viewBox="0 0 790 790" xmlns="http://www.w3.org/2000/svg">
  <g transform="translate(0 790) scale(.1 -.1)">
    <path d="m3640 7884c-19-2-80-9-135-15-1033-110-2018-660-2661-1486-759-973-1020-2215-719-3414 108-430 299-855 556-1234 590-873 1514-1478 2549-1669 264-49 404-60 720-60s456 11 720 60c1035 191 1959 796 2549 1669 525 776 751 1686 655 2630-134 1325-949 2503-2144 3104-422 213-794 327-1290 397-109 15-706 29-800 18zm675-739c602-70 1171-308 1650-691 141-113 376-348 489-489 641-801 867-1841 611-2820-191-731-620-1359-1237-1808-355-259-802-455-1233-542-244-49-352-59-645-59s-401 10-645 59c-720 145-1392 555-1858 1135-390 484-618 1030-699 1675-19 150-16 571 5 725 85 621 314 1161 693 1635 113 141 348 376 489 489 538 430 1165 668 1870 710 101 6 383-5 510-19z"/>
    <path d="m3580 5920h740v740h-740z"/>
    <path d="m3580 4750h740v740h-740z"/>
    <path d="m3580 3580h740v740h-740z"/>
  </g>
</svg>
