<?xml version="1.0" encoding="UTF-8"?>
<svg version="1.1" viewBox="0 0 804 800" width="201" height="200" xmlns="http://www.w3.org/2000/svg">
<path transform="translate(371)" d="m0 0h61l35 5 30 6 31 9 22 8 20 9 16 8 19 10 17 11 17 12 14 11 13 11 6 5v2l4 2 20 20 7 8 11 13 15 20 11 17 9 15 12 23 9 19 10 27 8 26 6 27 4 26 2 19 1 17v31l-3 32-5 32-6 25-8 26-11 28-7 16-12 22-11 18-8 12-11 15-13 16-11 12-9 10-11 11-8 7-15 13-19 14-24 16-25 14-23 11-23 9-24 8-28 7-33 6-23 3h-59l-40-6-29-6-28-8-31-12-25-12-19-10-19-12-17-12-14-11-13-11-13-12-17-17-7-8-11-13-15-20-13-20-9-15-18-36-10-26-7-21-8-34-5-32-3-33v-29l5-45 6-31 8-29 9-26 11-25 10-20 15-25 11-16 13-17 11-13 7-8 29-29 11-9 15-12 18-13 20-12 21-12 24-11 26-10 30-9 33-7 28-4zm5 40-28 3-31 6-25 7-28 10-26 12-20 11-19 12-15 11-14 11-15 13-22 22-8 10-13 16-13 19-8 13-8 14-8 15-10 24-12 36-6 25-3 17v4h243l7-14 24-54 30-67 16-36 9-20 16-36 11-24v-2l2 1 7 17 15 33 17 38 16 36 17 38 16 36 17 38 5 12 2 4h243l-1-11-5-26-8-28-11-29-13-27-14-24-11-16-10-13-9-11-11-12-12-13-13-12-11-9-17-13-18-12-15-9-27-14-24-10-24-8-28-7-23-4-29-3zm24 156-9 19-18 41-14 31-11 25-7 15-9 21-7 15-11 25v2l-274 1 1 29 3 33 3 14 28 1h204l-12 27-18 41-17 38-32 72-11 25-6 13 1 4 22 15 13 8 14 8 23 11 25 10 26 8 26 6 28 4 26 2h29l26-2 26-4 30-7 36-12 23-10 19-10 23-14 17-12 3-2-2-6-17-39-12-27-15-34-18-41-15-34-16-37 4-1 227-1 4-29 2-29v-18l-272-1-13-28-18-41-19-42-9-20-8-18-18-41-2-4zm-343 311 3 11 13 32 8 17 16 27 11 16 12 16 13 15 13 13 3 4h3l11-24 7-16 13-30 13-29 18-41 4-8v-2zm527 0 2 6 19 43 10 23 19 43 11 25 5 11 4-2 6-5 7-8 9-10 9-11 13-18 11-17 12-21 11-23 10-26 2-10z" fill="#6465FD"/>
</svg>
