<svg width="1164" height="1202" viewBox="0 0 1164 1202" fill="none" xmlns="http://www.w3.org/2000/svg">
<path d="M745.865 466.423C716.496 438.353 680.283 418.174 640.873 407.985C621.793 403.041 601.913 400.443 581.784 400.443C557.409 400.443 533.484 404.239 510.807 411.382C476.342 422.22 444.725 440.8 418.452 465.674C425.195 411.132 437.182 360.336 454.265 314.136C477.241 251.853 509.258 199.009 549.767 156.355C560.006 145.566 570.745 135.427 582.084 125.938C592.523 134.678 603.162 144.568 613.751 155.756C670.892 215.791 727.235 312.588 745.815 466.423H745.865Z" fill="#2E3192"/>
<path d="M1163.54 657.618V658.667C1163.54 670.604 1153.9 680.294 1141.91 680.294H1141.41C1133.77 680.294 1126.62 676.198 1122.78 669.605C1088.11 610.269 1023.88 573.358 955.25 573.358C886.571 573.358 822.387 610.219 787.722 669.555C783.826 676.198 776.734 680.244 769.042 680.244H768.542C760.85 680.244 753.707 676.148 749.811 669.455C725.436 627.251 686.177 596.284 640.923 581.749V1050.2C640.923 1089.71 625.889 1127.17 598.567 1155.68C570.995 1184.45 534.083 1200.74 494.673 1201.49C493.724 1201.49 492.725 1201.49 491.776 1201.49C452.517 1201.49 415.555 1186.35 387.383 1158.78C358.513 1130.46 342.63 1092.65 342.63 1052.35V1003.5C342.63 967.636 371.8 938.467 407.663 938.467C443.526 938.467 472.696 967.636 472.696 1003.5V1051.15C472.696 1061.84 480.788 1070.93 490.777 1071.37C496.072 1071.62 501.067 1069.78 504.913 1066.13C508.709 1062.48 510.857 1057.54 510.857 1052.3V585.945C470.648 601.778 436.034 630.897 413.806 669.406C409.96 676.098 402.818 680.194 395.076 680.194H394.576C386.934 680.194 379.791 676.098 375.945 669.505C341.281 610.169 277.047 573.259 208.417 573.259C139.738 573.259 75.5538 610.119 40.8894 669.455C36.9934 676.098 29.9007 680.144 22.2086 680.144H21.7091C15.965 680.144 10.5206 677.847 6.42481 673.801C2.37896 669.755 0.0812988 664.261 0.0812988 658.517V657.668C0.0812988 655.371 0.0813095 653.123 0.131258 650.825C0.131258 648.528 0.23115 646.28 0.281098 643.983C0.281098 642.135 0.331041 640.337 0.430938 638.489C0.530836 635.292 0.680691 632.095 0.830537 628.949C3.22807 581.25 11.3198 534.6 24.8559 489.798C24.8559 489.798 24.8559 489.798 24.8559 489.748C52.2277 399.095 101.677 316.034 170.556 247.208C272.851 144.918 406.564 85.4312 549.967 77.6895V32.7377C549.967 15.0566 564.302 0.771973 581.934 0.771973C599.566 0.771973 613.901 15.1066 613.901 32.7377V77.6895C757.254 85.3813 891.016 144.917 993.311 247.258C1062.19 316.134 1111.64 399.195 1138.96 489.898C1155.15 543.59 1163.59 599.98 1163.69 657.618H1163.54ZM1116.33 592.488C1116.33 592.488 1116.38 592.538 1116.43 592.588C1113.04 564.218 1107.34 536.248 1099.5 508.828C1099.45 508.728 1099.35 508.678 1099.3 508.578C1062.54 467.822 1010.29 444.546 955.3 444.546C890.267 444.546 830.628 476.362 794.415 530.055C794.715 536.198 794.915 542.242 795.065 548.086C795.115 549.834 795.165 551.582 795.165 553.33C795.365 562.82 795.365 571.81 795.265 580.301C795.265 581.05 795.265 581.749 795.265 582.499C795.265 584.696 795.215 586.844 795.165 588.942V591.489C807.452 580.151 821.038 570.162 835.573 561.671C871.736 540.494 913.144 529.306 955.25 529.306C1015.54 529.306 1073.03 552.581 1116.33 592.538V592.488ZM1070.23 431.011C1044.01 374.821 1007.8 323.027 962.643 277.825C875.432 190.619 763.597 136.976 642.821 123.441C688.624 170.74 724.637 229.427 750.211 298.553C769.441 350.397 782.578 407.386 789.521 468.621C833.276 425.767 892.165 401.293 955.25 401.293C995.958 401.293 1035.42 411.732 1070.23 431.011V431.011ZM788.122 667.857C788.122 667.857 787.872 668.257 787.772 668.457C787.523 668.856 787.273 669.256 787.023 669.655C787.123 669.555 787.173 669.456 787.273 669.356C787.573 668.856 787.872 668.407 788.122 667.857ZM786.773 670.055C786.773 670.055 786.873 669.905 786.923 669.805C786.873 669.905 786.823 670.005 786.723 670.105H786.773V670.055ZM752.009 584.696C752.109 579.402 752.159 573.858 752.109 568.114C752.109 567.015 752.109 565.867 752.109 564.718V563.669C752.109 562.67 752.109 561.621 752.109 560.572C752.059 555.028 751.959 549.234 751.759 543.341C751.11 542.491 750.461 541.592 749.911 540.644C725.536 498.439 686.277 467.472 641.023 452.937C633.98 450.64 626.738 448.792 619.395 447.344C612.303 445.945 605.06 444.946 597.767 444.297C592.523 443.847 587.228 443.647 581.934 443.647C572.593 443.647 563.303 444.297 554.162 445.645C546.87 446.694 539.677 448.193 532.534 450.091C525.192 452.038 517.999 454.436 510.907 457.183C470.698 473.016 436.083 502.135 413.856 540.644C413.457 541.293 413.057 541.892 412.608 542.492C412.608 542.941 412.608 543.391 412.608 543.84C412.558 545.289 412.508 546.737 412.458 548.135C412.458 548.735 412.458 549.334 412.408 549.934C412.408 550.433 412.408 550.933 412.408 551.432C412.358 554.479 412.308 557.426 412.258 560.322C412.108 571.51 412.208 581.949 412.408 591.489C412.458 592.838 412.508 594.236 412.508 595.535C412.508 595.735 412.508 595.934 412.508 596.134C412.508 597.233 412.558 598.332 412.608 599.381V600.23C439.979 572.459 473.795 551.782 510.907 540.094C517.999 537.846 525.192 535.949 532.534 534.4C539.677 532.902 546.87 531.703 554.162 530.804V529.955C563.303 528.856 572.593 528.307 581.934 528.307C587.278 528.307 592.523 528.457 597.817 528.856V529.705C605.06 530.205 612.303 531.004 619.445 532.153C626.738 533.351 633.98 534.85 641.073 536.698C683.03 547.536 721.44 569.812 751.759 600.829C751.759 600.529 751.759 600.28 751.759 599.98C751.809 598.881 751.859 597.782 751.859 596.683C751.909 595.235 751.959 593.787 751.959 592.288C751.959 590.99 752.009 589.691 752.009 588.392C752.009 587.144 752.059 585.945 752.059 584.696H752.009ZM640.923 407.936C680.333 418.125 716.496 438.303 745.915 466.373C727.334 312.488 670.942 215.742 613.851 155.706C603.212 144.518 592.573 134.629 582.183 125.888C570.895 135.378 560.106 145.517 549.917 156.305C509.408 198.96 477.391 251.803 454.415 314.086C437.332 360.337 425.295 411.082 418.601 465.624C444.825 440.8 476.492 422.17 510.907 411.332C533.583 404.19 557.509 400.394 581.884 400.394C602.013 400.394 621.893 402.991 640.973 407.936H640.923ZM597.717 1050.2V981.721H554.112V1052.35C554.112 1069.33 547.07 1085.76 534.782 1097.45C522.295 1109.33 505.962 1115.43 488.729 1114.58C455.514 1112.93 429.54 1085.06 429.54 1051.15V1003.5C429.54 991.461 419.75 981.721 407.713 981.721C395.675 981.721 385.935 991.51 385.935 1003.5V1052.35C385.935 1080.96 397.223 1107.79 417.752 1127.91C438.231 1148.04 465.254 1158.78 493.924 1158.23C551.165 1157.13 597.767 1108.68 597.767 1050.2H597.717ZM597.717 939.167V572.21C592.473 571.76 587.178 571.56 581.834 571.56C572.493 571.56 563.203 572.21 554.062 573.558V939.167H597.668H597.717ZM413.806 299.102C439.43 229.677 475.543 170.84 521.546 123.391C400.47 136.776 288.385 190.419 201.025 277.775C155.821 322.927 119.659 374.771 93.4354 430.961C128.2 411.682 167.659 401.243 208.417 401.243C271.752 401.243 330.842 425.916 374.597 469.07C381.54 407.936 394.676 350.947 413.806 299.102V299.102ZM369.352 541.543C369.452 538.046 369.602 534.45 369.752 530.804C333.639 476.612 273.8 444.447 208.367 444.447C153.324 444.447 101.078 467.722 64.2654 508.478C64.2154 508.528 64.1655 508.628 64.0656 508.678C56.2236 535.999 50.5794 563.968 47.133 592.288C47.133 592.288 47.1829 592.238 47.2329 592.238C59.82 580.551 73.6557 570.262 88.4905 561.571C124.703 540.344 166.111 529.156 208.267 529.156H208.317C268.456 529.156 325.747 552.281 369.052 592.038C369.052 590.74 369.002 589.491 369.002 588.143C369.002 587.144 369.002 586.145 369.002 585.146C369.002 584.996 369.002 584.796 369.002 584.596C369.002 583.498 369.002 582.399 369.002 581.3C368.903 569.113 369.002 555.727 369.452 541.493L369.352 541.543Z" fill="#1B1464"/>
<path d="M1139.61 492.045C1155.49 545.588 1163.54 601.278 1163.54 657.618C1163.44 599.98 1155.05 543.59 1138.81 489.897C1139.11 490.597 1139.36 491.296 1139.56 492.045H1139.61Z" fill="#1B1464"/>
<path d="M1116.43 592.587C1116.43 592.587 1116.38 592.537 1116.33 592.488C1073.03 552.53 1015.54 529.255 955.25 529.255C913.094 529.255 871.686 540.443 835.573 561.621C821.038 570.111 807.502 580.151 795.115 591.439V588.891C795.215 586.794 795.215 584.646 795.265 582.448C795.265 581.699 795.265 581 795.265 580.251C795.365 571.76 795.365 562.719 795.165 553.28C795.165 551.531 795.115 549.783 795.065 548.035C794.915 542.191 794.715 536.198 794.416 530.004C830.628 476.312 890.267 444.496 955.3 444.496C1010.34 444.496 1062.54 467.771 1099.3 508.528C1099.35 508.627 1099.45 508.677 1099.5 508.777C1107.34 536.148 1113.04 564.168 1116.43 592.537V592.587Z" fill="#4750BA"/>
<path d="M962.643 277.825C1007.8 322.977 1043.96 374.821 1070.23 431.011C1035.47 411.732 996.008 401.293 955.25 401.293C892.215 401.293 833.325 425.767 789.52 468.621C782.578 407.436 769.391 350.397 750.211 298.553C724.637 229.427 688.624 170.74 642.821 123.44C763.597 136.976 875.432 190.618 962.643 277.825V277.825Z" fill="#EDE2D1"/>
<path d="M787.772 668.457C787.772 668.457 788.022 668.057 788.122 667.857C787.822 668.357 787.573 668.856 787.273 669.356C787.223 669.456 787.123 669.556 787.023 669.655C787.273 669.256 787.523 668.856 787.772 668.457Z" fill="#1B1464"/>
<path d="M786.872 669.805C786.872 669.805 786.772 669.953 786.723 670.052H786.673C786.673 670.052 786.822 669.904 786.872 669.805Z" fill="#1B1464"/>
<path d="M752.109 568.164C752.109 573.908 752.109 579.452 752.009 584.746C752.009 585.995 752.009 587.244 751.959 588.442C751.959 589.741 751.959 591.039 751.909 592.338C751.909 593.836 751.859 595.285 751.809 596.733C751.809 597.832 751.759 598.931 751.709 600.03C721.39 568.963 682.98 546.737 640.973 535.849C633.88 534 626.638 532.502 619.345 531.303C612.203 530.155 605.01 529.355 597.717 528.856C592.423 528.506 587.178 528.307 581.834 528.307C572.493 528.307 563.253 528.856 554.062 529.955C546.82 530.804 539.577 532.003 532.435 533.551C525.142 535.099 517.949 537.047 510.807 539.295C473.745 550.982 439.88 571.66 412.508 599.43C412.458 598.382 412.458 597.283 412.408 596.184C412.408 595.984 412.408 595.784 412.408 595.585C412.408 594.236 412.358 592.887 412.308 591.539C412.108 581.999 412.008 571.56 412.158 560.372C412.158 557.475 412.208 554.479 412.308 551.482C412.308 550.982 412.308 550.483 412.308 549.983C412.308 549.384 412.358 548.785 412.358 548.185C412.408 546.787 412.458 545.338 412.508 543.89C412.508 543.44 412.508 542.991 412.508 542.541C412.957 541.942 413.357 541.343 413.756 540.693C435.984 502.185 470.548 473.116 510.807 457.233C517.85 454.436 525.092 452.088 532.435 450.14C539.527 448.242 546.72 446.794 554.062 445.695C563.203 444.347 572.493 443.697 581.834 443.697C587.178 443.697 592.473 443.897 597.668 444.347C604.96 444.946 612.203 445.995 619.295 447.393C626.638 448.842 633.83 450.74 640.923 452.987C686.177 467.522 725.436 498.439 749.811 540.693C750.361 541.642 751.01 542.541 751.659 543.39C751.859 549.334 751.959 555.078 752.009 560.622C752.009 561.671 752.009 562.72 752.009 563.719V564.768C752.009 565.916 752.009 567.065 752.009 568.164H752.109Z" fill="#4750BA"/>
<path d="M751.609 600.08C751.609 600.379 751.609 600.629 751.609 600.929C721.291 569.912 682.88 547.686 640.923 536.798C633.83 534.95 626.588 533.451 619.295 532.253C612.203 531.104 604.96 530.305 597.667 529.805V528.956C604.91 529.456 612.153 530.255 619.295 531.403C626.588 532.602 633.83 534.101 640.923 535.949C682.93 546.837 721.34 569.063 751.659 600.13L751.609 600.08Z" fill="#1B1464"/>
<path d="M597.667 981.721V1050.2C597.667 1108.68 551.065 1157.18 493.824 1158.23C465.154 1158.78 438.081 1147.99 417.652 1127.91C397.123 1107.79 385.835 1080.96 385.835 1052.35V1003.5C385.835 991.46 395.625 981.721 407.613 981.721C419.6 981.721 429.44 991.51 429.44 1003.5V1051.15C429.44 1085.06 455.414 1112.93 488.629 1114.58C505.862 1115.43 522.245 1109.33 534.682 1097.45C546.969 1085.76 554.012 1069.28 554.012 1052.35V981.721H597.618H597.667Z" fill="#4750BA"/>
<path d="M597.667 572.26V939.216H554.062V573.608C563.153 572.26 572.443 571.61 581.834 571.61C587.178 571.61 592.473 571.81 597.717 572.26H597.667Z" fill="#EDE2D1"/>
<path d="M554.062 530.005V530.854C546.82 531.703 539.577 532.902 532.435 534.45C525.142 535.999 517.949 537.946 510.807 540.144C473.745 551.832 439.88 572.509 412.508 600.28V599.431C439.83 571.66 473.695 550.983 510.807 539.295C517.9 537.047 525.092 535.15 532.435 533.551C539.577 532.053 546.77 530.854 554.062 529.955V530.005Z" fill="#1B1464"/>
<path d="M521.496 123.391C475.543 170.84 439.38 229.677 413.756 299.102C394.576 350.947 381.49 407.936 374.547 469.07C330.792 425.867 271.702 401.243 208.367 401.243C167.609 401.243 128.15 411.682 93.3855 430.961C119.609 374.721 155.821 322.927 200.975 277.775C288.335 190.419 400.42 136.776 521.496 123.391V123.391Z" fill="#EDE2D1"/>
<path d="M369.751 530.854C369.602 534.5 369.452 538.047 369.352 541.593C368.902 555.878 368.802 569.213 368.902 581.4C368.902 582.499 368.902 583.598 368.902 584.697C368.902 584.847 368.902 585.046 368.902 585.246C368.902 586.245 368.902 587.244 368.902 588.243C368.902 589.542 368.902 590.84 368.952 592.139C325.697 552.381 268.356 529.256 208.217 529.256H208.167C166.011 529.256 124.603 540.494 88.3905 561.671C73.5557 570.362 59.7199 580.651 47.1328 592.339C47.1328 592.339 47.0829 592.339 47.033 592.388C50.4794 564.069 56.1236 536.099 63.9656 508.778C64.0155 508.728 64.0655 508.628 64.1654 508.578C100.978 467.822 153.174 444.547 208.267 444.547C273.7 444.547 333.539 476.712 369.652 530.904L369.751 530.854Z" fill="#4750BA"/>
<path d="M23.9567 491.946C24.1565 491.196 24.4063 490.497 24.706 489.798C11.1699 534.6 3.0782 581.25 0.680664 628.949C2.92836 582.349 10.7203 536.398 23.9567 491.946Z" fill="#1B1464"/>
</svg>
