<?xml version="1.0" encoding="UTF-8"?>
<svg version="1.1" viewBox="0 0 1000 1000" width="1000" height="1000" xmlns="http://www.w3.org/2000/svg">
<path transform="translate(0)" d="m0 0h1e3v1e3h-1e3z" fill="#EFCB0E"/>
<path transform="translate(375,157)" d="m0 0h11l11 4 8 6 7 8 8 4h18l9 5 10 9 7 8 12 22 14 15 14 14 8 7 16 15 8 7 14 12 13 11 14 10 6 3 9 3 14 14 14 10 13 6 17 4 31 4 12 4 6 5 1 8-5 6-9 4-16 3-28 3-12 3-2 2-1 8 3 17-1 9-4 4-17 3-12 5-17 9-26 16-15 9-16 9-8 4-5 2-2 3-1 9 3 7 8 4 12 2 17 1 16 3 16 6 11 6 14 10 8 8 5 8 2 6 2 23 4 14 6 7 11 4h20l7-1h21l9 4 3 4 1 3v11l-6 12-8 8-9 5-8 1h-16l-19 5-24 10-27 14-27 16-27 18-19 14-16 13-14 12-11 11-9 13-6 12-3 11-2 24-4 13-8 9-6 3h-8l-12-6-5-4-10-4-17-3-23-3-19-2-13-4-6-4-3-7 1-9 5-13 10-17 13-17 13-15 9-11 11-13 1-204 2-27 3-14 6-9 4-5 5-17 5-30 3-32 8-118v-8l-14-17-22-28-9-14-7-15-2-12 2-8 4-6z"/>
<path transform="translate(479,308)" d="m0 0 5 3 22 22 9 11 12 13 7 8-1 4-14 11-15 12-16 11-10 5h-3l-2-5-1-7v-30l2-31 4-24z" fill="#EFCB0E"/>
<path transform="translate(479,585)" d="m0 0 7 6 15 15 8 11 3 8-1 6-6 8-6 4h-7l-6-4-4-6-3-11z" fill="#EFCB0E"/>
</svg>
