<svg width="128" height="128" viewBox="-5 0 36 41" fill="none" xmlns="http://www.w3.org/2000/svg">
<path fill-rule="evenodd" clip-rule="evenodd" d="M0.694583 22.4805C0.311365 22.4805 0 22.7896 0 23.17V31.754C0 32.1345 0.311365 32.4436 0.694583 32.4436C1.0778 32.4436 1.38917 32.1345 1.38917 31.754V23.17C1.38917 22.7896 1.0778 22.4805 0.694583 22.4805Z" fill="url(#paint0_linear_33_22301)"/>
<path fill-rule="evenodd" clip-rule="evenodd" d="M2.78321 18.457C2.39999 18.457 2.08862 18.7662 2.08862 19.1466V35.7772C2.08862 36.1577 2.39999 36.4668 2.78321 36.4668C3.16642 36.4668 3.47779 36.1577 3.47779 35.7772V19.1466C3.47779 18.7662 3.16642 18.457 2.78321 18.457Z" fill="url(#paint1_linear_33_22301)"/>
<path fill-rule="evenodd" clip-rule="evenodd" d="M4.87647 14.4248C4.49325 14.4248 4.18188 14.7339 4.18188 15.1144V25.8384C4.18188 26.2189 4.49325 26.528 4.87647 26.528C5.25969 26.528 5.57105 26.2189 5.57105 25.8384V15.1144C5.57105 14.7339 5.25969 14.4248 4.87647 14.4248Z" fill="url(#paint2_linear_33_22301)"/>
<path fill-rule="evenodd" clip-rule="evenodd" d="M6.96503 34.541C6.58181 34.541 6.27045 34.8501 6.27045 35.2306V37.8367C6.27045 38.2172 6.58181 38.5263 6.96503 38.5263C7.34825 38.5263 7.65961 38.2172 7.65961 37.8367V35.2306C7.65961 34.8501 7.34825 34.541 6.96503 34.541Z" fill="url(#paint3_linear_33_22301)"/>
<path fill-rule="evenodd" clip-rule="evenodd" d="M9.05835 34.541C8.67513 34.541 8.36377 34.8501 8.36377 35.2306V39.8103C8.36377 40.1908 8.67513 40.4999 9.05835 40.4999C9.44157 40.4999 9.75293 40.1908 9.75293 39.8103V35.2306C9.75293 34.8501 9.44157 34.541 9.05835 34.541Z" fill="url(#paint4_linear_33_22301)"/>
<path fill-rule="evenodd" clip-rule="evenodd" d="M11.1516 4.46582C10.7684 4.46582 10.457 4.77494 10.457 5.15539V39.81C10.457 40.1905 10.7684 40.4996 11.1516 40.4996C11.5348 40.4996 11.8462 40.1905 11.8462 39.81V5.15539C11.8462 4.77494 11.5348 4.46582 11.1516 4.46582Z" fill="url(#paint5_linear_33_22301)"/>
<path fill-rule="evenodd" clip-rule="evenodd" d="M13.245 0.5C12.8618 0.5 12.5504 0.809119 12.5504 1.18957V39.8104C12.5504 40.1909 12.8618 40.5 13.245 40.5C13.6282 40.5 13.9396 40.1909 13.9396 39.8104V1.18957C13.9396 0.809119 13.6282 0.5 13.245 0.5Z" fill="url(#paint6_linear_33_22301)"/>
<path fill-rule="evenodd" clip-rule="evenodd" d="M23.6972 18.457C23.314 18.457 23.0026 18.7662 23.0026 19.1466V35.7772C23.0026 36.1577 23.314 36.4668 23.6972 36.4668C24.0804 36.4668 24.3918 36.1577 24.3918 35.7772V19.1466C24.3918 18.7662 24.0804 18.457 23.6972 18.457Z" fill="url(#paint7_linear_33_22301)"/>
<path fill-rule="evenodd" clip-rule="evenodd" d="M21.6039 14.4248C21.2207 14.4248 20.9094 14.7339 20.9094 15.1144V37.8418C20.9094 38.2222 21.2207 38.5313 21.6039 38.5313C21.9872 38.5313 22.2985 38.2222 22.2985 37.8418V15.1144C22.2985 14.7339 21.9872 14.4248 21.6039 14.4248Z" fill="url(#paint8_linear_33_22301)"/>
<path fill-rule="evenodd" clip-rule="evenodd" d="M19.5153 12.4795C19.1321 12.4795 18.8207 12.7886 18.8207 13.1691V37.8368C18.8207 38.2172 19.1321 38.5263 19.5153 38.5263C19.8985 38.5263 20.2099 38.2172 20.2099 37.8368V13.1691C20.2099 12.7886 19.8985 12.4795 19.5153 12.4795Z" fill="url(#paint9_linear_33_22301)"/>
<path fill-rule="evenodd" clip-rule="evenodd" d="M17.4269 8.45117C17.0437 8.45117 16.7323 8.76029 16.7323 9.14075V39.8101C16.7323 40.1906 17.0437 40.4997 17.4269 40.4997C17.8101 40.4997 18.1215 40.1906 18.1215 39.8101V9.14075C18.1215 8.76029 17.8101 8.45117 17.4269 8.45117Z" fill="url(#paint10_linear_33_22301)"/>
<path fill-rule="evenodd" clip-rule="evenodd" d="M15.3335 4.46582C14.9503 4.46582 14.6389 4.77494 14.6389 5.15539V39.81C14.6389 40.1905 14.9503 40.4996 15.3335 40.4996C15.7167 40.4996 16.0281 40.1905 16.0281 39.81V5.15539C16.0281 4.77494 15.7167 4.46582 15.3335 4.46582Z" fill="url(#paint11_linear_33_22301)"/>
<path fill-rule="evenodd" clip-rule="evenodd" d="M25.7858 22.4805C25.4026 22.4805 25.0912 22.7896 25.0912 23.17V31.754C25.0912 32.1345 25.4026 32.4436 25.7858 32.4436C26.169 32.4436 26.4804 32.1345 26.4804 31.754V23.17C26.4804 22.7896 26.169 22.4805 25.7858 22.4805Z" fill="url(#paint12_linear_33_22301)"/>
<path fill-rule="evenodd" clip-rule="evenodd" d="M4.87647 32.4775C4.49325 32.4775 4.18188 32.7867 4.18188 33.1671V37.8372C4.18188 38.2176 4.49325 38.5268 4.87647 38.5268C5.25969 38.5268 5.57105 38.2176 5.57105 37.8372V33.1671C5.57105 32.7867 5.25969 32.4775 4.87647 32.4775Z" fill="url(#paint13_linear_33_22301)"/>
<path fill-rule="evenodd" clip-rule="evenodd" d="M6.96503 12.4795C6.58181 12.4795 6.27045 12.7886 6.27045 13.1691V29.8234C6.27045 30.2039 6.58181 30.513 6.96503 30.513C7.34825 30.513 7.65961 30.2039 7.65961 29.8234V13.1691C7.65961 12.7886 7.34825 12.4795 6.96503 12.4795Z" fill="url(#paint14_linear_33_22301)"/>
<path fill-rule="evenodd" clip-rule="evenodd" d="M9.05835 8.45117C8.67513 8.45117 8.36377 8.76029 8.36377 9.14075V31.8158C8.36377 32.201 8.67513 32.5149 9.05835 32.5149C9.44157 32.5149 9.75293 32.2058 9.75293 31.8158V9.14075C9.75293 8.76029 9.44157 8.45117 9.05835 8.45117Z" fill="url(#paint15_linear_33_22301)"/>
<defs>
<linearGradient id="paint0_linear_33_22301" x1="0.694582" y1="42.4781" x2="0.694582" y2="-0.113763" gradientUnits="userSpaceOnUse">
<stop stop-color="#4EEC91"/>
<stop offset="0.4" stop-color="#19B5FE"/>
<stop offset="1" stop-color="#0287D0"/>
</linearGradient>
<linearGradient id="paint1_linear_33_22301" x1="2.78321" y1="42.478" x2="2.78321" y2="-0.113886" gradientUnits="userSpaceOnUse">
<stop stop-color="#4EEC91"/>
<stop offset="0.4" stop-color="#19B5FE"/>
<stop offset="1" stop-color="#0287D0"/>
</linearGradient>
<linearGradient id="paint2_linear_33_22301" x1="4.87647" y1="42.4785" x2="4.87647" y2="-0.1133" gradientUnits="userSpaceOnUse">
<stop stop-color="#4EEC91"/>
<stop offset="0.4" stop-color="#19B5FE"/>
<stop offset="1" stop-color="#0287D0"/>
</linearGradient>
<linearGradient id="paint3_linear_33_22301" x1="6.96503" y1="42.4782" x2="6.96503" y2="-0.113627" gradientUnits="userSpaceOnUse">
<stop stop-color="#4EEC91"/>
<stop offset="0.4" stop-color="#19B5FE"/>
<stop offset="1" stop-color="#0287D0"/>
</linearGradient>
<linearGradient id="paint4_linear_33_22301" x1="9.05835" y1="42.4782" x2="9.05835" y2="-0.113618" gradientUnits="userSpaceOnUse">
<stop stop-color="#4EEC91"/>
<stop offset="0.4" stop-color="#19B5FE"/>
<stop offset="1" stop-color="#0287D0"/>
</linearGradient>
<linearGradient id="paint5_linear_33_22301" x1="11.1516" y1="42.4779" x2="11.1516" y2="-0.113898" gradientUnits="userSpaceOnUse">
<stop stop-color="#4EEC91"/>
<stop offset="0.4" stop-color="#19B5FE"/>
<stop offset="1" stop-color="#0287D0"/>
</linearGradient>
<linearGradient id="paint6_linear_33_22301" x1="13.245" y1="42.4784" x2="13.245" y2="-0.113483" gradientUnits="userSpaceOnUse">
<stop stop-color="#4EEC91"/>
<stop offset="0.4" stop-color="#19B5FE"/>
<stop offset="1" stop-color="#0287D0"/>
</linearGradient>
<linearGradient id="paint7_linear_33_22301" x1="23.6972" y1="42.478" x2="23.6972" y2="-0.113886" gradientUnits="userSpaceOnUse">
<stop stop-color="#4EEC91"/>
<stop offset="0.4" stop-color="#19B5FE"/>
<stop offset="1" stop-color="#0287D0"/>
</linearGradient>
<linearGradient id="paint8_linear_33_22301" x1="21.6039" y1="42.4786" x2="21.6039" y2="-0.113307" gradientUnits="userSpaceOnUse">
<stop stop-color="#4EEC91"/>
<stop offset="0.4" stop-color="#19B5FE"/>
<stop offset="1" stop-color="#0287D0"/>
</linearGradient>
<linearGradient id="paint9_linear_33_22301" x1="19.5153" y1="42.4783" x2="19.5153" y2="-0.113541" gradientUnits="userSpaceOnUse">
<stop stop-color="#4EEC91"/>
<stop offset="0.4" stop-color="#19B5FE"/>
<stop offset="1" stop-color="#0287D0"/>
</linearGradient>
<linearGradient id="paint10_linear_33_22301" x1="17.4269" y1="42.478" x2="17.4269" y2="-0.113803" gradientUnits="userSpaceOnUse">
<stop stop-color="#4EEC91"/>
<stop offset="0.4" stop-color="#19B5FE"/>
<stop offset="1" stop-color="#0287D0"/>
</linearGradient>
<linearGradient id="paint11_linear_33_22301" x1="15.3335" y1="42.4779" x2="15.3335" y2="-0.113898" gradientUnits="userSpaceOnUse">
<stop stop-color="#4EEC91"/>
<stop offset="0.4" stop-color="#19B5FE"/>
<stop offset="1" stop-color="#0287D0"/>
</linearGradient>
<linearGradient id="paint12_linear_33_22301" x1="25.7858" y1="42.4781" x2="25.7858" y2="-0.113763" gradientUnits="userSpaceOnUse">
<stop stop-color="#4EEC91"/>
<stop offset="0.4" stop-color="#19B5FE"/>
<stop offset="1" stop-color="#0287D0"/>
</linearGradient>
<linearGradient id="paint13_linear_33_22301" x1="4.87647" y1="42.4787" x2="4.87647" y2="-0.113095" gradientUnits="userSpaceOnUse">
<stop stop-color="#4EEC91"/>
<stop offset="0.4" stop-color="#19B5FE"/>
<stop offset="1" stop-color="#0287D0"/>
</linearGradient>
<linearGradient id="paint14_linear_33_22301" x1="6.96503" y1="42.4783" x2="6.96503" y2="-0.11354" gradientUnits="userSpaceOnUse">
<stop stop-color="#4EEC91"/>
<stop offset="0.4" stop-color="#19B5FE"/>
<stop offset="1" stop-color="#0287D0"/>
</linearGradient>
<linearGradient id="paint15_linear_33_22301" x1="9.05835" y1="42.4781" x2="9.05835" y2="-0.113805" gradientUnits="userSpaceOnUse">
<stop stop-color="#4EEC91"/>
<stop offset="0.4" stop-color="#19B5FE"/>
<stop offset="1" stop-color="#0287D0"/>
</linearGradient>
</defs>
</svg>
