<svg xmlns="http://www.w3.org/2000/svg" width="128" height="128" viewBox="0 -10 62 52" fill="none" class="injected-svg" data-src="/imgs/logos/iagon-logo-blk.svg" xmlns:xlink="http://www.w3.org/1999/xlink" role="img">
    <path d="M28.2241 27.2186L27.0887 26.0622C22.1907 28.9137 16.2159 28.0547 12.1872 23.9514L10.7315 22.4688C9.43259 22.4527 8.06269 22.3643 6.95996 21.8934L10.5839 25.5844C15.5067 30.5984 23.0758 31.3173 28.7631 27.74C28.5771 27.5712 28.4 27.3978 28.2241 27.2186Z" fill="url(#paint0_linear_0_1150-189)"></path>
    <path d="M18.6021 17.418C18.2075 17.0161 17.7046 16.7324 17.2581 16.4155C14.7628 17.7936 11.8549 18.2851 9.11612 17.8028C7.0381 17.4364 5.01641 16.5556 3.30368 15.112C5.01641 13.6685 7.00766 12.7773 9.08567 12.411C11.8245 11.9275 14.6873 12.3834 17.1825 13.7615C17.8782 14.1439 18.6202 14.5183 19.2426 15.0477C19.547 15.2992 19.9202 15.4944 20.2054 15.785L20.979 16.5728L22.5823 18.2058L27.4217 23.1349L28.9901 24.7323L29.0251 24.7679L29.8267 25.5844C30.0861 25.8486 30.2755 26.1851 30.5484 26.4308C31.1448 26.9465 31.6466 27.3702 32.2949 27.7813C37.9811 31.3587 45.4307 30.5984 50.3535 25.5844L53.9774 21.8934C52.8736 22.3643 51.5047 22.4516 50.2059 22.4688L48.7502 23.9514C44.7215 28.0547 38.5956 28.7598 33.8486 26.0622C33.1845 25.6867 32.6366 25.3375 31.9465 24.7323L33.5149 23.1349L38.3543 18.2058C38.3351 18.2254 38.1141 17.6925 37.8446 17.418L36.8828 16.4384L31.9127 21.5018L30.4694 22.9717L29.0262 21.5018L24.215 16.6015L22.4515 14.8054L23.8948 13.3354L28.8661 8.27203L27.2627 6.63904L22.2621 11.7322L20.6587 13.3653C20.2934 13.0839 19.5267 12.4729 18.8851 12.0687C16.6108 10.6412 14.0762 9.94073 11.4839 9.88788C10.2877 9.86489 9.02479 9.92461 7.85443 10.1956C5.23064 10.7963 2.68241 12.0745 0.64157 14.1519L0 14.8054L0.961788 15.785C3.0015 17.8624 5.45052 19.2429 8.07427 19.8435C9.24469 20.1145 10.4072 20.2764 11.6035 20.2535C14.1946 20.2018 16.7642 19.4668 19.1241 17.9509L18.6021 17.418Z" fill="url(#paint1_linear_0_1150-190)"></path>
    <path fill-rule="evenodd" clip-rule="evenodd" d="M25.6824 3.33387C21.117 1.30805 15.5955 2.18889 11.8678 5.98556L10.4122 7.46703C9.57717 7.76035 8.45582 7.86764 7.25902 7.98215C7.05473 8.0017 6.84825 8.02145 6.64062 8.04238L10.2645 4.35136C15.1873 -0.66263 22.8568 -1.31952 28.5441 2.25665C29.1913 2.66779 29.9141 3.19376 30.5105 3.70939C31.107 3.19376 31.7689 2.68845 32.4172 2.27732C38.1033 -1.29885 45.7526 -0.66263 50.6754 4.35136L54.2993 8.04354C54.0846 8.02173 53.8713 8.00122 53.6603 7.98095C52.4715 7.86672 51.3589 7.75981 50.5277 7.46819L49.072 5.98556C45.0445 1.88227 38.9186 1.17599 34.1716 3.87477C33.5822 4.20807 32.8311 4.7784 32.4119 5.09676C32.3588 5.13709 32.311 5.17339 32.2695 5.20464L33.8379 6.80209L38.6784 11.7311L40.2818 13.3641C40.3387 13.3203 40.4059 13.2679 40.4812 13.2093C40.8889 12.8917 41.5341 12.3891 42.0757 12.0469C44.3499 10.6194 46.8654 9.93842 49.4566 9.88672C50.6529 9.86373 51.8954 9.94414 53.0658 10.2151C55.6884 10.817 58.2581 12.0745 60.2978 14.1519L60.9394 14.8054L59.9776 15.785C57.9379 17.8624 55.5396 19.2739 52.9158 19.8745C51.7455 20.1455 50.6326 20.3385 49.4363 20.3155C46.8451 20.2638 44.2902 19.5013 42.0159 18.0738C41.3746 17.6685 40.7918 17.1646 40.2024 16.6549L40.2017 16.6543C40.0414 16.5136 39.9097 16.344 39.7775 16.1738C39.6736 16.04 39.5694 15.9058 39.4508 15.785L38.6491 14.9685L37.0457 13.3354L32.2345 8.43515L31.5659 7.75409C29.2725 5.41939 28.101 4.57185 25.6824 3.33387ZM57.6549 15.1315C55.9422 13.688 53.9408 12.7865 51.8627 12.4202C49.1228 11.9366 46.2566 12.388 43.7613 13.7661C43.0657 14.1485 42.4016 14.6021 41.7792 15.1315C42.4016 15.661 43.0657 16.1146 43.7613 16.497C46.2566 17.8751 49.1239 18.3264 51.8627 17.8429C53.9408 17.4766 55.9422 16.5751 57.6549 15.1315Z" fill="url(#paint2_linear_0_1150-191)"></path>
    <defs>
        <linearGradient id="paint0_linear_0_1150-189" x1="-38.527" y1="13.0211" x2="-35.1754" y2="48.4774" gradientUnits="userSpaceOnUse">
            <stop stop-color="#22A7F0"></stop>
            <stop offset="1" stop-color="#9B59B6"></stop>
        </linearGradient>
        <linearGradient id="paint1_linear_0_1150-190" x1="-22.9141" y1="7.2357" x2="-18.2775" y2="43.2058" gradientUnits="userSpaceOnUse">
            <stop stop-color="#22A7F0"></stop>
            <stop offset="1" stop-color="#9B59B6"></stop>
        </linearGradient>
        <linearGradient id="paint2_linear_0_1150-191" x1="-21.2386" y1="1.01844" x2="-17.8195" y2="36.5043" gradientUnits="userSpaceOnUse">
            <stop stop-color="#22A7F0"></stop>
            <stop offset="1" stop-color="#9B59B6"></stop>
        </linearGradient>
    </defs>
</svg>