<svg xmlns="http://www.w3.org/2000/svg" id="Layer_1" data-name="Layer 1" viewBox="0 0 2160 2160">
  <defs>
    <style>.cls-2{stroke-width:0;fill:#fff}</style>
  </defs>
  <path d="M0 0h2160v2160H0z" style="stroke-width:0"/>
  <g id="Offset_Group" data-name="Offset Group">
    <path d="M752.59 1654.12c0 4.77-3.86 8.63-8.63 8.63h-79.72c-2.96 0-5.59-1.49-7.14-3.77H461.6c-2.67 0-4.85-2.18-4.85-4.85s2.18-4.85 4.85-4.85h195.5a8.6 8.6 0 0 1 7.14-3.77h79.72c4.77 0 8.63 3.86 8.63 8.63ZM777.68 1586.07c0 4.77-3.86 8.63-8.63 8.63h-104.8c-2.98 0-5.59-1.49-7.14-3.77H486.76c-2.67 0-4.85-2.18-4.85-4.85s2.18-4.85 4.85-4.85h170.35a8.57 8.57 0 0 1 7.14-3.77h104.8c4.77 0 8.63 3.86 8.63 8.63ZM655.62 1109.71c0-4.77 3.86-8.63 8.63-8.63h192.27c2.46-2.95 6.19-4.85 10.35-4.85h79.48c7.44 0 13.48 6.04 13.48 13.48s-6.04 13.48-13.48 13.48h-79.48c-4.16 0-7.89-1.9-10.35-4.85H664.25c-4.77 0-8.63-3.86-8.63-8.63M729.64 905.56c0-4.77 3.86-8.63 8.63-8.63h118.24c2.46-2.95 6.19-4.85 10.35-4.85h153.62c7.44 0 13.48 6.04 13.48 13.48s-6.04 13.48-13.48 13.48H866.86c-4.16 0-7.89-1.9-10.35-4.85H738.27c-4.77 0-8.63-3.86-8.63-8.63M754.79 837.51c0-4.77 3.86-8.63 8.63-8.63h93.09c2.46-2.95 6.19-4.85 10.35-4.85h178.31c7.44 0 13.48 6.04 13.48 13.48s-6.04 13.48-13.48 13.48H866.86c-4.16 0-7.89-1.9-10.35-4.85h-93.09c-4.77 0-8.63-3.86-8.63-8.63M779.96 769.46c0-4.77 3.86-8.63 8.63-8.63h67.92c2.46-2.95 6.19-4.85 10.35-4.85h191.84c2.96-2.37 6.71-3.77 10.78-3.77h188.84c3.77-3.04 8.58-4.85 13.8-4.85h78.27c12.21 0 22.11 9.9 22.11 22.11s-9.9 22.11-22.11 22.11h-78.27c-5.22 0-10.03-1.81-13.8-4.85h-188.84c-4.08 0-7.83-1.4-10.78-3.77H866.86c-4.16 0-7.89-1.9-10.35-4.85h-67.92c-4.77 0-8.63-3.86-8.63-8.63ZM679.34 1041.66c0-4.77 3.86-8.63 8.63-8.63h168.54c2.46-2.95 6.19-4.85 10.35-4.85h104.2c7.44 0 13.48 6.04 13.48 13.48s-6.04 13.48-13.48 13.48h-104.2c-4.16 0-7.89-1.9-10.35-4.85H687.97c-4.77 0-8.63-3.86-8.63-8.63M830.26 633.36c0-4.77 3.86-8.63 8.63-8.63h17.62c2.46-2.95 6.19-4.85 10.35-4.85h191.84c2.96-2.37 6.71-3.77 10.78-3.77h188.84c3.77-3.04 8.58-4.85 13.8-4.85h27.98c12.21 0 22.11 9.9 22.11 22.11s-9.9 22.11-22.11 22.11h-27.98c-5.22 0-10.03-1.81-13.8-4.85h-188.84c-4.08 0-7.83-1.4-10.78-3.77H866.86c-4.16 0-7.89-1.9-10.35-4.85h-17.62c-4.77 0-8.63-3.86-8.63-8.63ZM802.76 1518.02c0 4.77-3.86 8.63-8.63 8.63H664.24c-2.96 0-5.59-1.49-7.14-3.77H511.9c-2.67 0-4.85-2.18-4.85-4.85s2.18-4.85 4.85-4.85h145.2a8.6 8.6 0 0 1 7.14-3.77h129.89c4.77 0 8.63 3.86 8.63 8.63ZM632.82 1177.76c0-2.67 2.18-4.85 4.85-4.85h19.43a8.57 8.57 0 0 1 7.14-3.77h192.27c2.46-2.95 6.19-4.85 10.35-4.85h54.76c7.44 0 13.48 6.04 13.48 13.48s-6.04 13.48-13.48 13.48h-54.76c-4.16 0-7.89-1.9-10.35-4.85H664.24c-2.98 0-5.59-1.49-7.14-3.77h-19.43c-2.67 0-4.85-2.18-4.85-4.85ZM805.11 701.41c0-4.77 3.86-8.63 8.63-8.63h42.77c2.46-2.95 6.19-4.85 10.35-4.85h191.86c2.95-2.35 6.69-3.77 10.76-3.77h188.84c3.77-3.04 8.58-4.85 13.8-4.85h53.12c12.21 0 22.11 9.9 22.11 22.11s-9.9 22.11-22.11 22.11h-53.12c-5.22 0-10.03-1.81-13.8-4.85h-188.84a17.2 17.2 0 0 1-10.76-3.77H866.86c-4.16 0-7.89-1.9-10.35-4.85h-42.77c-4.77 0-8.63-3.86-8.63-8.63ZM582.52 1313.86c0-2.67 2.18-4.85 4.85-4.85h69.73a8.57 8.57 0 0 1 7.14-3.77h192.27c2.46-2.96 6.19-4.85 10.35-4.85h191.84c2.96-2.37 6.71-3.77 10.78-3.77h188.84c3.77-3.04 8.58-4.85 13.8-4.85h189.12c3.93-2.39 8.54-3.77 13.5-3.77h76.87c14.3 0 25.88 11.58 25.88 25.88s-11.58 25.88-25.88 25.88h-76.87c-4.96 0-9.58-1.38-13.5-3.77h-189.12c-5.22 0-10.03-1.81-13.8-4.85h-188.84c-4.08 0-7.83-1.4-10.78-3.77H866.86c-4.16 0-7.89-1.9-10.35-4.85H664.24c-2.98 0-5.59-1.49-7.14-3.77h-69.73c-2.67 0-4.85-2.18-4.85-4.85ZM704.49 973.61c0-4.77 3.86-8.63 8.63-8.63h143.39c2.46-2.95 6.19-4.85 10.35-4.85h128.9c7.44 0 13.48 6.04 13.48 13.48s-6.04 13.48-13.48 13.48h-128.9c-4.16 0-7.89-1.9-10.35-4.85H713.12c-4.77 0-8.63-3.86-8.63-8.63M557.35 1381.91c0-2.67 2.18-4.85 4.85-4.85h94.9a8.6 8.6 0 0 1 7.14-3.77h192.27c2.46-2.96 6.19-4.85 10.35-4.85h191.86c2.95-2.35 6.69-3.77 10.76-3.77h188.84c3.77-3.04 8.58-4.85 13.8-4.85h189.12c3.93-2.39 8.54-3.77 13.5-3.77h102.02c14.3 0 25.88 11.58 25.88 25.88s-11.58 25.88-25.88 25.88h-102.02c-4.96 0-9.58-1.38-13.5-3.77h-189.12c-5.22 0-10.03-1.81-13.8-4.85h-188.84a17.2 17.2 0 0 1-10.76-3.77H866.86c-4.16 0-7.89-1.9-10.35-4.85H664.24c-2.96 0-5.59-1.49-7.14-3.77h-94.9c-2.67 0-4.85-2.18-4.85-4.85ZM607.67 1245.81c0-2.67 2.18-4.85 4.85-4.85h44.58a8.6 8.6 0 0 1 7.14-3.77h192.27c2.46-2.95 6.19-4.85 10.35-4.85h191.86c2.95-2.35 6.69-3.77 10.76-3.77h188.84c3.77-3.04 8.58-4.85 13.8-4.85h189.12c3.93-2.39 8.54-3.77 13.5-3.77h51.72c14.3 0 25.88 11.58 25.88 25.88s-11.58 25.88-25.88 25.88h-51.72c-4.96 0-9.58-1.38-13.5-3.77h-189.12c-5.22 0-10.03-1.81-13.8-4.85h-188.84a17.2 17.2 0 0 1-10.76-3.77H866.86c-4.16 0-7.89-1.9-10.35-4.85H664.24c-2.96 0-5.59-1.49-7.14-3.77h-44.58c-2.67 0-4.85-2.18-4.85-4.85ZM853.38 565.31c0-7.44 6.04-13.48 13.48-13.48h191.86c2.95-2.35 6.69-3.77 10.76-3.77h202.64c9.53 0 17.26 7.72 17.26 17.26s-7.72 17.26-17.26 17.26h-202.64a17.2 17.2 0 0 1-10.76-3.77H866.86c-7.44 0-13.48-6.04-13.48-13.48ZM875.71 497.26c0-7.44 6.04-13.48 13.48-13.48h169.51c2.96-2.37 6.71-3.77 10.78-3.77h180.32c9.53 0 17.26 7.72 17.26 17.26s-7.72 17.26-17.26 17.26h-180.32c-4.08 0-7.83-1.4-10.78-3.77H889.19c-7.44 0-13.48-6.04-13.48-13.48ZM1272.13 883.45h128.57c12.21 0 22.11 9.9 22.11 22.11s-9.9 22.11-22.11 22.11h-128.57c-5.22 0-10.03-1.81-13.8-4.85h-139.25c-9.53 0-17.26-7.72-17.26-17.26s7.72-17.26 17.26-17.26h139.25c3.77-3.04 8.58-4.85 13.8-4.85M1272.13 951.5h153.72c12.21 0 22.11 9.9 22.11 22.11s-9.9 22.11-22.11 22.11h-153.72c-5.22 0-10.03-1.81-13.8-4.85h-114.68c-9.53 0-17.26-7.72-17.26-17.26s7.72-17.26 17.26-17.26h114.68c3.77-3.04 8.58-4.85 13.8-4.85M1272.13 815.4h103.42c12.21 0 22.11 9.9 22.11 22.11s-9.9 22.11-22.11 22.11h-103.42c-5.22 0-10.03-1.81-13.8-4.85h-163.84c-9.53 0-17.26-7.72-17.26-17.26s7.72-17.26 17.26-17.26h163.84c3.77-3.04 8.58-4.85 13.8-4.85M1461.25 1540.12h-115.91c-12.21 0-22.11-9.9-22.11-22.11s9.9-22.11 22.11-22.11h115.91c3.93-2.39 8.54-3.77 13.5-3.77h152.32c14.3 0 25.88 11.58 25.88 25.88s-11.58 25.88-25.88 25.88h-152.32c-4.96 0-9.58-1.38-13.5-3.77M1461.25 1472.07h-189.12c-5.22 0-10.03-1.81-13.8-4.85h-188.84c-4.08 0-7.83-1.4-10.78-3.77H866.87c-4.16 0-7.89-1.9-10.35-4.85H664.25c-2.98 0-5.59-1.49-7.14-3.77H537.06c-2.67 0-4.85-2.18-4.85-4.85s2.18-4.85 4.85-4.85h120.05a8.57 8.57 0 0 1 7.14-3.77h192.27c2.46-2.96 6.19-4.85 10.35-4.85h191.84c2.96-2.37 6.71-3.77 10.78-3.77h188.84c3.77-3.04 8.58-4.85 13.8-4.85h189.12c3.93-2.39 8.54-3.77 13.5-3.77h127.17c14.3 0 25.88 11.58 25.88 25.88s-11.58 25.88-25.88 25.88h-127.17c-4.96 0-9.58-1.38-13.5-3.77ZM1272.13 1087.6h202.62c12.21 0 22.11 9.9 22.11 22.11s-9.9 22.11-22.11 22.11h-202.62c-5.22 0-10.03-1.81-13.8-4.85h-65.51c-9.53 0-17.26-7.72-17.26-17.26s7.72-17.26 17.26-17.26h65.51c3.77-3.04 8.58-4.85 13.8-4.85M1272.13 1019.55H1451c12.21 0 22.11 9.9 22.11 22.11s-9.9 22.11-22.11 22.11h-178.87c-5.22 0-10.03-1.81-13.8-4.85h-90.09c-9.53 0-17.26-7.72-17.26-17.26s7.72-17.26 17.26-17.26h90.09c3.77-3.04 8.58-4.85 13.8-4.85M1474.75 1151.88h26.57c14.3 0 25.88 11.58 25.88 25.88s-11.58 25.88-25.88 25.88h-26.57c-4.96 0-9.58-1.38-13.5-3.77h-189.12c-5.22 0-10.03-1.81-13.8-4.85h-40.92c-9.53 0-17.26-7.72-17.26-17.26s7.72-17.26 17.26-17.26h40.92c3.77-3.04 8.58-4.85 13.8-4.85h189.12c3.93-2.39 8.54-3.77 13.5-3.77M1703.25 1654.12c0 14.3-11.58 25.88-25.88 25.88h-202.62c-4.96 0-9.58-1.38-13.5-3.77h-66.24c-12.21 0-22.11-9.9-22.11-22.11s9.9-22.11 22.11-22.11h66.24c3.93-2.39 8.54-3.77 13.5-3.77h202.62c14.3 0 25.88 11.58 25.88 25.88M1461.25 1608.17h-91.06c-12.21 0-22.11-9.9-22.11-22.11s9.9-22.11 22.11-22.11h91.06c3.93-2.39 8.54-3.77 13.5-3.77h177.47c14.3 0 25.88 11.58 25.88 25.88s-11.58 25.88-25.88 25.88h-177.47c-4.96 0-9.58-1.38-13.5-3.77"
          class="cls-2"/>
  </g>
</svg>