<?xml version="1.0" encoding="UTF-8" standalone="no"?>
<svg
   version="1.1"
   width="800"
   height="800"
   id="svg3"
   xmlns:xlink="http://www.w3.org/1999/xlink"
   xmlns="http://www.w3.org/2000/svg"
   xmlns:svg="http://www.w3.org/2000/svg">
  <defs
     id="defs3">
    <linearGradient
       id="linearGradient3">
      <stop
         style="stop-color:#f5d875;stop-opacity:1;"
         offset="0"
         id="stop3" />
      <stop
         style="stop-color:#dba037;stop-opacity:1;"
         offset="1"
         id="stop4" />
    </linearGradient>
    <linearGradient
       xlink:href="#linearGradient3"
       id="linearGradient4"
       x1="-23.156111"
       y1="221.08243"
       x2="-18.438765"
       y2="469.7659"
       gradientUnits="userSpaceOnUse" />
  </defs>
  <path
     d="M -23.150171,11.441073 210.41225,104.45035 c 98.65664,230.27013 98.60791,228.58707 98.60791,228.58707 -89.23723,238.2832 -5.64239,24.04485 -91.17135,237.3992 -236.801665,105.08763 -0.79319,-1.56798 -238.881976,107.42592 -227.671894,-93.53867 -0.564876,-2.00042 -226.889714,-94.37724 -16.88143,-39.29563 0.40839,2.60294 -109.64295,-243.90134 99.53792,-228.13233 0.88502,4.20425 98.21678,-232.74149 236.025,-94.09358 236.198879,-95.401397 236.198879,-95.401397 z"
     fill="#eec965"
     transform="translate(421.91797,57.613281)"
     style="fill:url(#linearGradient4)" />
  <path
     d="m 0,0 c 72.422358,29.425595 144.70243,59.199954 217.35449,88.056641 5.78212,2.819635 8.65497,6.254809 11.35254,11.986329 l 1.01294,2.09045 c 88.01106,202.71111 92.01025,216.1676 95.54346,222.40985 3.95566,7.44538 4.33194,15.81588 2.29214,23.94033 -30.33847,75.91738 -61.34831,151.56563 -91.88174,227.40361 -4.36305,10.34184 -10.12783,16.06939 -20.47461,20.33545 -39.18124,16.96737 -153.56873,64.8576 -206.0619824,88.50668 -25.0939326,11.4824 -32.5907316,9.72333 -52.0562436,1.16882 -213.667874,-85.89883 -1.307794,0.0749 -214.129334,-86.8132 -9.82885,-4.44098 -14.5252,-11.95418 -18.52197,-21.66699 -91.41159,-214.00384 -0.3176,-0.49712 -91.99318,-214.04038 -4.64412,-9.96776 -6.85054,-18.05637 -1.58697,-30.74441 31.01383,-75.74583 62.18725,-151.43023 92.81062,-227.33533 4.89491,-10.021798 14.25265,-13.503782 24.04687,-17.586913 C -158.32973,48.19207 -53.742103,3.2306523 -39.895264,-3.6201172 -25.646767,-10.258697 -13.516471,-5.6512275 0,0 Z m -241.23755,125.08252 c -90.84157,218.57255 -91.17152,218.72339 -91.17152,218.72339 98.57544,224.91628 99.67665,223.44336 99.67665,223.44336 212.403961,85.78904 212.208984,85.34884 212.592867,85.48632 222.333363,-96.64815 0.606243,0.86808 222.653373,-95.62844 88.12872,-218.39476 1.00521,1.23715 88.6937,-217.78699 C 195.03812,122.59656 194.69719,121.59315 194.69719,121.59315 -19.279586,33.529281 -20.408752,34.245285 -20.408752,34.245285 -241.21583,126.34079 -21.012935,32.977881 -241.23755,125.08252 Z"
     fill="#000000"
     transform="translate(421.91797,57.613281)"/>
  <path
     d="M 0,0 H 208 V 43 H 63 c 89.59368,98.05592 -0.899248,0.554569 90,99 l -1.28516,1.25 C 120.8027,176.82835 89.543114,210.19045 60,245 h 148 v 44 H 0 C 0,244 0,244 15,228 92.281235,138.26627 13.879712,227.29435 92,140 62.043282,109.39167 30.638708,75.292623 5.9035644,51.001221 -8.9300577,35.406607 0,34.96455 0,0 Z"
     fill="#000000"
     transform="translate(297,256)"/>
</svg>
