<svg width="128" height="128" viewBox="0 0 20 20" fill="none" xmlns="http://www.w3.org/2000/svg">
<path d="M9.99997 0.000366211C4.47714 0.000366211 0 4.48686 0 10.0212C0 11.6266 0.37671 13.1438 1.04638 14.4889L3.59367 12.2954C3.99112 11.9532 4.13761 11.4111 4.06246 10.8921C4.0213 10.6077 3.99999 10.317 3.99999 10.0212C3.99999 6.7006 6.68627 4.00871 9.99997 4.00871C11.4299 4.00871 12.743 4.50995 13.7738 5.34666C14.1999 5.69254 14.7719 5.84212 15.2845 5.64606L18.3333 4.48003C16.5418 1.77992 13.4782 0.000366211 9.99997 0.000366211Z" fill="url(#paint0_linear_5_4888)"/>
<path d="M9.99997 0.000366211C4.47714 0.000366211 0 4.48686 0 10.0212C0 11.6266 0.37671 13.1438 1.04638 14.4889L3.59367 12.2954C3.99112 11.9532 4.13761 11.4111 4.06246 10.8921C4.0213 10.6077 3.99999 10.317 3.99999 10.0212C3.99999 6.7006 6.68627 4.00871 9.99997 4.00871C11.4299 4.00871 12.743 4.50995 13.7738 5.34666C14.1999 5.69254 14.7719 5.84212 15.2845 5.64606L18.3333 4.48003C16.5418 1.77992 13.4782 0.000366211 9.99997 0.000366211Z" fill="url(#paint1_linear_5_4888)"/>
<path d="M18.3327 4.47967C16.5412 1.77955 13.4777 0 9.99944 0C5.58335 0 1.83585 2.86852 0.51123 6.84759C3.16609 3.34029 7.68909 3.02938 11.7494 4.2681C12.4962 4.49593 13.1813 4.8658 13.7733 5.3463C14.1994 5.69219 14.7713 5.84175 15.2839 5.6457L18.3327 4.47967Z" fill="url(#paint2_linear_5_4888)"/>
<path d="M10 20C15.5229 20 20 15.5135 20 9.97914C20 8.37378 19.6233 6.8566 18.9536 5.51151L16.4063 7.70494C16.0089 8.04718 15.8624 8.58923 15.9375 9.10831C15.9787 9.39263 16 9.68339 16 9.97914C16 13.2998 13.3137 15.9917 10 15.9917C8.57012 15.9917 7.25704 15.4904 6.22622 14.6537C5.80009 14.3078 5.22814 14.1582 4.71552 14.3543L1.66672 15.5203C3.45825 18.2204 6.52175 20 10 20Z" fill="url(#paint3_linear_5_4888)"/>
<path d="M10 20C15.5229 20 20 15.5135 20 9.97914C20 8.37378 19.6233 6.8566 18.9536 5.51151L16.4063 7.70494C16.0089 8.04718 15.8624 8.58923 15.9375 9.10831C15.9787 9.39263 16 9.68339 16 9.97914C16 13.2998 13.3137 15.9917 10 15.9917C8.57012 15.9917 7.25704 15.4904 6.22622 14.6537C5.80009 14.3078 5.22814 14.1582 4.71552 14.3543L1.66672 15.5203C3.45825 18.2204 6.52175 20 10 20Z" fill="url(#paint4_linear_5_4888)"/>
<path d="M10 20C15.5229 20 20 15.5135 20 9.97914C20 8.37378 19.6233 6.8566 18.9536 5.51151L16.4063 7.70494C16.0089 8.04718 15.8624 8.58923 15.9375 9.10831C15.9787 9.39263 16 9.68339 16 9.97914C16 13.2998 13.3137 15.9917 10 15.9917C8.57012 15.9917 7.25704 15.4904 6.22622 14.6537C5.80009 14.3078 5.22814 14.1582 4.71552 14.3543L1.66672 15.5203C3.45825 18.2204 6.52175 20 10 20Z" fill="url(#paint5_linear_5_4888)"/>
<path d="M1.66725 15.5202C3.45878 18.2203 6.52229 19.9999 10.0006 19.9999C14.4166 19.9999 18.1641 17.1314 19.4888 13.1523C16.8339 16.6596 12.3109 16.9705 8.2506 15.7318C7.50378 15.5039 6.81872 15.1341 6.22675 14.6536C5.80062 14.3077 5.22868 14.1581 4.71605 14.3542L1.66725 15.5202Z" fill="url(#paint6_linear_5_4888)"/>
<defs>
<linearGradient id="paint0_linear_5_4888" x1="0.166014" y1="14.241" x2="5.67131" y2="2.85777" gradientUnits="userSpaceOnUse">
<stop stop-color="#8B72FF"/>
<stop offset="1" stop-color="#2D54E3"/>
</linearGradient>
<linearGradient id="paint1_linear_5_4888" x1="4.4" y1="9.00027" x2="6.33172" y2="3.27489" gradientUnits="userSpaceOnUse">
<stop stop-color="#8B72FF" stop-opacity="0"/>
<stop offset="1" stop-color="#15102E" stop-opacity="0.6"/>
</linearGradient>
<linearGradient id="paint2_linear_5_4888" x1="0.672611" y1="6.73047" x2="8.92384" y2="-7.28808" gradientUnits="userSpaceOnUse">
<stop stop-color="#8B72FF"/>
<stop offset="1" stop-color="#3C66FF"/>
</linearGradient>
<linearGradient id="paint3_linear_5_4888" x1="19.834" y1="5.75932" x2="14.3287" y2="17.1426" gradientUnits="userSpaceOnUse">
<stop stop-color="#8B72FF"/>
<stop offset="1" stop-color="#2D54E3"/>
</linearGradient>
<linearGradient id="paint4_linear_5_4888" x1="19.834" y1="5.75932" x2="14.3287" y2="17.1426" gradientUnits="userSpaceOnUse">
<stop stop-color="#8B72FF"/>
<stop offset="1" stop-color="#2D54E3"/>
</linearGradient>
<linearGradient id="paint5_linear_5_4888" x1="15.6" y1="11.0001" x2="13.6683" y2="16.7255" gradientUnits="userSpaceOnUse">
<stop stop-color="#8B72FF" stop-opacity="0"/>
<stop offset="1" stop-color="#15102E" stop-opacity="0.6"/>
</linearGradient>
<linearGradient id="paint6_linear_5_4888" x1="19.3274" y1="13.2694" x2="11.0762" y2="27.288" gradientUnits="userSpaceOnUse">
<stop stop-color="#8B72FF"/>
<stop offset="1" stop-color="#3C66FF"/>
</linearGradient>
</defs>
</svg>
