<?xml version="1.0" encoding="UTF-8"?>
<svg version="1.1" viewBox="0 0 804 800" width="804" height="800" xmlns="http://www.w3.org/2000/svg">
    <defs>
        <linearGradient id="myGradient" gradientTransform="rotate(-10)">
            <stop offset="25%" stop-color="#449484" />
            <stop offset="100%" stop-color="#54b474" />
        </linearGradient>
    </defs>
    <path fill="url('#myGradient')" transform="translate(358)" d="m0 0h89v1l39 7 28 7 30 10 25 11 16 8 21 11 27 18 12 9 10 8 13 11 10 10 8 7 16 17 12 14 14 19 12 18 9 15 12 23 9 19 11 29 9 31 6 29 3 21 2 22 1 21v12l-2 29-5 37-6 27-8 27-11 29-11 24-15 27-7 10-7 11-12 16-8 10-11 13-10 10-2 3h-2l-2 4-8 7-9 9-25 20-20 14-18 11-21 12-29 13-25 9-23 7-26 6-36 6-3 1h-77l-35-6-32-7-29-9-28-11-34-17-18-11-15-10-15-11-11-9-13-11-9-9-8-7-14-15-13-15-15-20-17-26-9-16-16-32-11-29-7-23-6-26-5-30-2-16-1-3v-62l2-10 5-35 7-29 7-24 9-24 11-24 12-23 15-24 11-15 11-14 9-11 11-12 21-21 8-7 17-14 18-13 17-11 24-14 23-11 27-11 29-9 30-7 32-5zm29 40-26 2-27 4-27 6-36 12-21 9-16 8-15 8-22 14-16 12-11 9-14 12-24 24-8 10-11 14-6 8-10 15-13 22-12 24-9 23-8 24-7 28-3 17v6l242-1 6-12 12-27 17-38 13-29 16-36 13-29 10-23 7-15 8-18 10-23 1-3 3 3 7 17 15 33 9 20 32 72 26 58 16 36 6 14 5 1 237-1-1-14-6-28-10-32-10-24-11-23-16-27-13-18-11-14-10-11-7-8-19-19-10-8-12-10-17-12-19-12-18-10-23-11-26-10-23-7-21-5-33-5-28-2zm14 156-8 16-12 27-17 38-12 27-14 31-24 54-1 1-272 1v17l2 30 3 24 1 5h707l1-1 4-31 2-43-1-1-271-1-8-16-13-29-12-27-18-40-16-36-19-43zm-343 312 3 11 10 25 7 16 11 20 12 19 12 17 11 14 9 10 7 8 9 9h3l13-29 15-34 12-27 19-43 6-13v-3zm204 0-18 40-15 34-19 43-17 38-7 16-2 4 1 5 17 12 18 11 24 13 20 9 21 8 28 8 29 6 36 4h46l29-3 27-5 26-7 21-7 24-10 24-12 23-14 17-12 3-2-3-9-13-30-10-23-12-27-19-43-13-30-8-17zm323 0 2 6 19 43 11 25 15 34 13 30 5 11 4-1 11-11 9-11 8-9 10-13 12-18 12-20 12-23 11-27 4-13v-3z"/>
    <path transform="translate(353,799)" d="m0 0h6v1h-6z"/>
</svg>
