<svg xmlns="http://www.w3.org/2000/svg" version="1.0" width="640.000000" height="640.000000" preserveAspectRatio="xMidYMid meet"><rect id="backgroundrect" width="100%" height="100%" x="0" y="0" fill="none" stroke="none"/>


<g class="currentLayer" style=""><title>Layer 1</title><g transform="translate(0,640) scale(0.10000000149011612,-0.10000000149011612) " fill="#000000" stroke="none" id="svg_1" class="selected">
<path d="M3698.4838829040527,6350.096773147584 c-11,-26 -16,-69 -17,-133 c0,-83 3,-102 27,-153 c32,-71 56,-102 105,-137 c64,-47 121,-60 316,-70 c254,-14 347,-43 396,-123 c24,-39 26,-107 4,-153 c-39,-82 -165,-105 -275,-51 c-62,30 -88,62 -149,179 c-38,75 -67,97 -77,59 c-3,-12 -11,-21 -19,-21 c-34,0 -124,44 -174,85 c-67,55 -85,55 -84,0 c0,-22 4,-48 9,-59 c7,-17 4,-18 -46,-11 c-30,3 -69,11 -87,17 c-45,14 -61,-1 -39,-36 c9,-13 26,-27 37,-31 c57,-18 -4,-41 -84,-31 c-165,19 -294,132 -368,322 c-57,149 -160,235 -338,283 c-209,56 -249,31 -83,-51 c97,-48 203,-139 235,-201 c15,-31 23,-73 30,-167 c5,-69 13,-147 18,-173 c25,-125 109,-228 241,-297 c43,-22 79,-43 79,-46 c0,-11 -149,-72 -216,-88 c-144,-35 -168,-67 -177,-230 c-10,-184 8,-221 142,-290 c131,-68 160,-64 263,31 c57,52 83,54 150,12 c56,-36 88,-73 88,-102 c0,-35 -48,-105 -93,-135 c-23,-15 -69,-36 -102,-46 c-94,-28 -190,-83 -263,-151 c-129,-121 -174,-238 -173,-459 c0,-71 -4,-137 -9,-147 c-6,-10 -32,-31 -58,-45 c-128,-74 -168,-110 -250,-231 c-44,-65 -91,-128 -104,-140 l-24,-23 l-50,68 c-27,37 -125,162 -217,277 c-176,219 -293,385 -333,470 c-37,79 -29,145 18,145 c29,0 85,-58 104,-106 c9,-24 22,-43 28,-41 c19,5 56,91 72,168 c38,181 -15,371 -144,510 c-122,132 -245,190 -410,192 c-56,1 -87,-2 -87,-9 c0,-6 24,-30 54,-55 c73,-60 112,-117 118,-172 c4,-36 1,-49 -16,-66 c-45,-45 -106,-39 -160,17 c-20,21 -116,122 -214,225 c-99,103 -185,187 -193,187 c-36,0 -5,-74 173,-410 c82,-156 113,-239 113,-308 c0,-63 -16,-78 -83,-75 c-74,2 -182,59 -247,129 c-95,105 -120,184 -129,402 c-3,89 -10,153 -16,154 c-20,4 -53,-64 -98,-199 c-60,-181 -81,-299 -74,-428 c14,-272 151,-537 348,-671 c132,-89 258,-124 450,-124 c131,0 230,17 317,56 c62,27 68,50 15,60 c-141,25 -263,170 -263,308 c0,90 -6,97 308,-293 c182,-225 354,-478 330,-485 c-7,-2 -32,-9 -56,-15 c-92,-25 -107,-128 -38,-265 c78,-154 146,-192 271,-150 c59,21 60,20 106,-105 c29,-77 32,-97 33,-196 c0,-60 -3,-149 -8,-197 c-11,-107 -3,-123 58,-115 c48,7 161,82 218,146 c121,136 130,288 31,485 c-19,39 -46,88 -60,109 c-44,69 -11,99 198,183 c135,54 207,91 273,142 c72,54 85,77 96,165 c5,44 15,98 21,120 c10,36 13,39 20,22 c24,-60 -10,-329 -50,-396 c-13,-23 -25,-65 -30,-111 c-10,-91 -29,-129 -167,-333 c-59,-88 -126,-200 -150,-250 c-47,-101 -131,-383 -120,-410 c3,-9 20,-22 36,-28 c32,-12 34,-21 20,-82 c-22,-97 -30,-215 -20,-281 c19,-119 79,-204 242,-341 c44,-37 91,-87 105,-111 c23,-39 25,-51 20,-110 c-13,-148 -125,-398 -258,-577 c-113,-151 -145,-202 -169,-276 c-26,-77 -18,-109 29,-109 c23,0 28,-4 24,-18 c-2,-10 5,-26 18,-37 c31,-28 158,-26 259,4 c156,47 373,179 427,260 c29,42 29,81 1,176 c-20,69 -21,80 -9,150 c13,80 93,371 135,494 c15,41 26,80 26,86 c0,6 -24,43 -53,82 c-30,39 -73,106 -97,149 c-24,44 -67,114 -97,157 c-29,43 -53,88 -53,101 c0,36 63,131 85,129 c11,-1 67,-7 124,-13 c57,-6 184,-10 282,-9 l179,2 l100,-116 c101,-119 140,-179 140,-218 c0,-13 -21,-68 -47,-123 c-40,-85 -48,-113 -51,-173 c-5,-86 9,-121 116,-291 c74,-119 128,-249 138,-335 c4,-33 0,-77 -10,-120 c-9,-38 -16,-92 -16,-121 c0,-115 119,-279 250,-344 c103,-52 143,-40 156,44 l6,45 l29,-27 c40,-38 94,-39 123,-1 c18,25 21,41 20,125 c-3,166 -47,320 -184,641 c-93,220 -94,225 -49,397 c49,187 41,325 -46,723 c-19,90 -34,165 -33,165 c2,1 15,7 31,14 c20,9 27,19 27,40 c0,46 -117,486 -150,566 c-17,41 -64,123 -104,183 c-96,142 -108,167 -111,227 c-3,73 -28,125 -65,139 c-28,10 -30,14 -24,47 c16,93 73,175 196,282 l59,51 l62,-31 c34,-17 94,-39 134,-47 c98,-22 101,-27 69,-127 c-41,-129 -39,-139 52,-273 c17,-27 32,-61 32,-76 c0,-46 -29,-111 -82,-184 c-61,-83 -94,-158 -114,-261 c-40,-209 3,-294 147,-294 c108,0 279,42 340,83 c57,38 64,79 38,225 c-37,211 -22,288 81,415 c87,107 129,228 130,368 c0,81 -19,147 -70,242 c-31,57 -45,101 -65,202 c-32,161 -63,230 -180,393 c-133,185 -230,268 -375,318 l-65,23 l-41,80 c-37,72 -80,145 -120,207 c-14,20 -13,20 144,21 c86,1 160,2 163,2 c38,4 -37,168 -109,240 c-30,30 -65,54 -89,61 l-40,12 l56,58 c149,152 184,378 85,560 c-33,61 -85,110 -153,145 c-93,47 -155,55 -426,55 c-333,0 -418,18 -472,99 c-22,33 -26,47 -38,144 c-4,26 -11,47 -16,47 c-6,0 -17,-17 -26,-37 z" id="svg_2"/>
</g></g></svg>