<svg id="svg" version="1.1" xmlns="http://www.w3.org/2000/svg" xmlns:xlink="http://www.w3.org/1999/xlink" width="400" height="400" viewBox="0, 0, 400,400"><g id="svgg"><path id="path0" d="M201.945 16.940 C 201.929 16.953,198.804 17.013,195.000 17.074 C 187.360 17.197,186.470 17.228,183.083 17.489 C 180.766 17.668,180.169 17.730,178.250 17.993 C 177.700 18.068,176.612 18.217,175.833 18.324 C 175.054 18.430,173.839 18.632,173.132 18.771 C 172.425 18.911,171.514 19.038,171.106 19.054 C 170.698 19.069,170.391 19.126,170.424 19.179 C 170.457 19.232,169.831 19.363,169.034 19.471 C 168.236 19.578,167.433 19.698,167.250 19.738 C 167.067 19.778,166.167 19.968,165.250 20.159 C 164.333 20.351,163.058 20.649,162.417 20.821 C 161.775 20.994,161.137 21.135,161.000 21.136 C 160.862 21.136,159.587 21.439,158.167 21.810 C 154.346 22.805,154.359 22.802,152.917 23.147 C 152.183 23.322,150.703 23.736,149.627 24.066 C 148.551 24.396,147.524 24.667,147.345 24.667 C 147.166 24.667,146.973 24.743,146.915 24.836 C 146.857 24.929,146.746 24.965,146.667 24.917 C 146.588 24.868,146.475 24.905,146.417 25.000 C 146.358 25.095,146.237 25.127,146.148 25.072 C 146.059 25.016,145.895 25.043,145.784 25.131 C 145.674 25.219,145.358 25.329,145.083 25.376 C 144.521 25.470,142.816 25.961,140.583 26.672 C 139.758 26.934,138.896 27.179,138.667 27.215 C 138.438 27.251,138.025 27.375,137.750 27.491 C 137.287 27.684,135.801 28.162,135.417 28.240 C 135.325 28.259,134.950 28.405,134.583 28.565 C 134.217 28.724,133.692 28.894,133.417 28.942 C 133.142 28.990,132.804 29.072,132.667 29.125 C 132.529 29.178,132.367 29.228,132.306 29.236 C 132.244 29.244,132.138 29.306,132.069 29.375 C 132.001 29.444,131.813 29.500,131.653 29.500 C 131.492 29.500,131.336 29.573,131.306 29.662 C 131.275 29.751,131.063 29.858,130.833 29.899 C 130.604 29.941,130.398 29.990,130.375 30.008 C 130.352 30.027,130.277 30.057,130.208 30.076 C 130.140 30.095,129.721 30.273,129.278 30.472 C 128.835 30.671,128.379 30.833,128.264 30.833 C 128.149 30.833,127.999 30.890,127.931 30.958 C 127.862 31.027,127.756 31.090,127.694 31.098 C 127.633 31.106,127.217 31.283,126.768 31.491 C 126.320 31.699,125.870 31.883,125.768 31.898 C 125.667 31.914,125.246 32.086,124.833 32.281 C 124.421 32.476,123.333 32.987,122.417 33.415 C 119.630 34.719,114.652 37.223,114.563 37.366 C 114.518 37.440,114.378 37.500,114.254 37.500 C 114.129 37.500,113.440 37.848,112.722 38.274 C 112.004 38.700,111.187 39.145,110.906 39.263 C 110.624 39.382,109.987 39.748,109.489 40.077 C 108.991 40.406,108.246 40.838,107.833 41.038 C 107.421 41.238,106.944 41.530,106.774 41.688 C 106.604 41.845,106.229 42.071,105.941 42.189 C 105.653 42.308,105.271 42.538,105.094 42.702 C 104.916 42.866,104.684 43.000,104.577 43.000 C 104.471 43.000,104.204 43.157,103.984 43.350 C 103.764 43.542,103.321 43.844,103.000 44.022 C 102.070 44.535,100.826 45.351,99.603 46.250 C 98.979 46.708,98.403 47.083,98.323 47.083 C 98.243 47.083,98.024 47.215,97.837 47.375 C 97.649 47.535,97.422 47.667,97.331 47.667 C 97.241 47.667,97.167 47.730,97.167 47.808 C 97.167 47.886,96.512 48.392,95.712 48.933 C 94.912 49.474,94.069 50.087,93.837 50.295 C 93.606 50.503,93.210 50.765,92.958 50.877 C 92.706 50.990,92.500 51.125,92.500 51.179 C 92.500 51.233,92.144 51.529,91.708 51.838 C 91.273 52.147,90.879 52.444,90.833 52.499 C 90.787 52.554,90.487 52.781,90.167 53.003 C 89.846 53.224,89.021 53.841,88.333 54.373 C 87.646 54.904,87.008 55.394,86.917 55.461 C 86.825 55.528,86.365 55.902,85.894 56.292 C 85.422 56.681,84.972 57.004,84.894 57.008 C 84.815 57.013,84.450 57.312,84.083 57.674 C 83.717 58.035,83.339 58.331,83.245 58.332 C 83.151 58.333,82.965 58.483,82.833 58.667 C 82.701 58.850,82.503 59.000,82.394 59.000 C 82.284 59.000,82.169 59.056,82.139 59.125 C 82.072 59.276,81.082 60.121,80.432 60.583 C 80.174 60.767,79.877 60.992,79.772 61.083 C 79.667 61.175,79.132 61.625,78.582 62.083 C 78.033 62.542,77.425 63.067,77.232 63.250 C 77.038 63.433,76.527 63.880,76.095 64.242 C 75.663 64.604,75.109 65.079,74.863 65.297 C 73.341 66.650,72.642 67.294,71.779 68.136 C 71.244 68.657,70.732 69.063,70.641 69.038 C 70.550 69.012,70.520 69.064,70.574 69.152 C 70.629 69.240,70.484 69.449,70.251 69.615 C 69.840 69.909,66.645 73.050,64.208 75.557 C 63.544 76.240,63.000 76.882,63.000 76.983 C 63.000 77.084,62.894 77.167,62.764 77.167 C 62.634 77.167,62.503 77.237,62.472 77.324 C 62.372 77.606,57.461 83.167,57.312 83.167 C 57.232 83.167,57.167 83.241,57.167 83.332 C 57.167 83.519,56.738 84.055,55.708 85.154 C 55.319 85.570,55.000 85.968,55.000 86.039 C 55.000 86.109,54.869 86.299,54.708 86.462 C 54.548 86.624,54.007 87.280,53.506 87.920 C 53.006 88.560,52.462 89.233,52.298 89.417 C 51.419 90.400,51.000 90.920,51.000 91.030 C 51.000 91.097,50.813 91.339,50.583 91.568 C 50.354 91.797,50.167 92.049,50.167 92.128 C 50.167 92.206,50.016 92.432,49.832 92.629 C 49.648 92.827,49.305 93.272,49.070 93.619 C 48.835 93.966,48.422 94.493,48.152 94.790 C 47.883 95.087,47.532 95.551,47.373 95.822 C 46.902 96.625,46.119 97.721,45.712 98.148 C 45.504 98.366,45.333 98.648,45.333 98.773 C 45.333 98.898,45.258 99.000,45.167 99.000 C 45.075 99.000,45.000 99.076,45.000 99.169 C 45.000 99.342,43.743 101.181,43.265 101.708 C 43.119 101.869,43.039 102.000,43.086 102.000 C 43.133 102.000,43.002 102.252,42.794 102.561 C 41.437 104.579,41.062 105.166,40.709 105.833 C 40.490 106.246,40.185 106.680,40.031 106.799 C 39.876 106.917,39.767 107.067,39.788 107.132 C 39.863 107.361,38.139 110.169,37.983 110.073 C 37.896 110.019,37.845 110.037,37.870 110.113 C 37.895 110.188,37.578 110.876,37.166 111.642 C 36.754 112.407,36.311 113.232,36.182 113.475 C 35.058 115.590,34.201 116.981,34.085 116.876 C 34.009 116.807,34.000 116.843,34.066 116.957 C 34.131 117.071,33.929 117.630,33.613 118.207 C 31.745 121.619,27.441 130.147,27.240 130.833 C 27.174 131.063,26.807 131.887,26.425 132.667 C 26.043 133.446,25.722 134.142,25.711 134.213 C 25.680 134.424,24.081 138.703,23.798 139.333 C 23.695 139.563,23.595 139.825,23.575 139.917 C 23.529 140.127,21.675 145.829,21.543 146.167 C 21.406 146.518,21.403 146.527,21.269 147.083 C 20.862 148.766,20.772 149.100,20.687 149.250 C 20.635 149.342,20.577 149.518,20.559 149.642 C 20.429 150.499,19.261 154.761,19.144 154.806 C 19.063 154.837,19.041 154.931,19.093 155.015 C 19.145 155.100,19.111 155.412,19.018 155.709 C 18.736 156.613,17.636 161.028,17.473 161.917 C 17.388 162.375,17.272 162.862,17.214 163.000 C 17.156 163.137,17.090 163.410,17.066 163.606 C 17.042 163.803,16.934 164.290,16.825 164.690 C 16.717 165.090,16.596 165.642,16.557 165.917 C 16.518 166.192,16.381 166.979,16.252 167.667 C 16.124 168.354,15.860 169.843,15.666 170.974 C 15.472 172.106,15.247 173.205,15.167 173.416 C 15.087 173.626,15.051 173.829,15.087 173.865 C 15.123 173.901,14.931 175.465,14.660 177.340 C 14.160 180.807,13.847 184.136,13.431 190.417 C 13.303 192.342,13.147 194.067,13.084 194.250 C 12.991 194.518,13.004 194.535,13.148 194.333 C 13.295 194.129,13.329 194.162,13.331 194.514 C 13.332 194.751,13.290 194.988,13.236 195.041 C 13.089 195.189,13.119 204.143,13.279 207.917 C 13.360 209.816,13.358 211.295,13.275 211.355 C 13.195 211.412,13.205 211.487,13.298 211.521 C 13.390 211.556,13.511 212.433,13.565 213.472 C 13.620 214.511,13.698 215.415,13.739 215.482 C 13.780 215.548,13.857 216.273,13.911 217.093 C 13.965 217.913,14.196 219.971,14.425 221.667 C 14.655 223.362,14.871 225.088,14.906 225.500 C 14.941 225.912,15.008 226.362,15.055 226.500 C 15.102 226.637,15.378 228.175,15.669 229.917 C 15.960 231.658,16.339 233.731,16.511 234.522 C 16.684 235.313,16.858 236.213,16.899 236.522 C 17.102 238.060,19.311 246.729,21.078 252.917 C 23.975 263.065,28.493 273.864,34.045 283.914 C 34.601 284.920,35.056 285.839,35.056 285.955 C 35.056 286.072,35.106 286.167,35.168 286.167 C 35.230 286.167,35.490 286.560,35.745 287.042 C 36.001 287.523,36.431 288.270,36.702 288.702 C 36.976 289.141,37.140 289.576,37.071 289.686 C 36.996 289.808,37.019 289.841,37.131 289.772 C 37.239 289.706,37.545 290.053,37.879 290.621 C 38.191 291.150,38.927 292.329,39.515 293.240 C 40.102 294.151,40.565 294.958,40.542 295.032 C 40.519 295.106,40.565 295.167,40.645 295.167 C 40.817 295.167,41.689 296.451,41.737 296.775 C 41.755 296.900,42.048 297.328,42.388 297.727 C 42.727 298.125,43.764 299.493,44.691 300.767 C 46.757 303.607,48.968 306.507,51.412 309.583 C 52.432 310.867,53.487 312.214,53.758 312.578 C 54.029 312.941,54.368 313.360,54.513 313.508 C 54.658 313.655,55.704 314.933,56.838 316.346 C 59.268 319.375,60.783 321.156,64.489 325.331 C 68.754 330.137,69.729 331.164,70.028 331.165 C 70.181 331.166,70.668 331.323,71.111 331.513 C 73.921 332.722,76.273 333.263,77.960 333.089 C 81.994 332.674,88.128 330.949,91.874 329.176 L 92.998 328.643 92.707 328.243 C 92.547 328.022,92.296 327.801,92.149 327.751 C 91.701 327.598,88.451 324.231,86.970 322.385 C 83.079 317.533,79.942 309.045,79.591 302.416 C 79.548 301.591,79.465 300.204,79.408 299.333 C 79.057 293.983,80.718 284.126,82.985 278.108 C 83.680 276.263,86.956 269.488,87.672 268.417 C 87.916 268.050,88.677 266.813,89.361 265.667 C 92.093 261.093,98.170 252.743,100.138 250.860 C 106.939 244.352,108.986 242.785,117.500 237.569 C 118.737 236.811,119.938 236.047,120.167 235.872 C 120.396 235.697,121.349 235.131,122.286 234.614 C 124.481 233.403,128.082 231.103,131.293 228.860 C 132.692 227.883,134.430 226.708,135.155 226.250 C 136.871 225.166,138.829 223.843,139.250 223.483 C 145.489 218.151,146.072 216.321,142.949 211.865 C 142.453 211.157,141.994 210.411,141.929 210.206 C 141.864 210.001,141.749 209.833,141.674 209.833 C 141.599 209.833,141.406 209.552,141.244 209.208 C 140.926 208.534,140.755 208.294,139.283 206.457 C 137.530 204.271,136.938 203.601,135.335 201.994 C 131.609 198.259,126.339 194.500,124.830 194.500 C 124.324 194.500,123.489 194.158,123.000 193.752 C 122.862 193.637,122.112 193.302,121.333 193.006 C 120.554 192.711,118.717 191.958,117.250 191.333 C 113.903 189.908,111.984 189.168,110.917 188.889 C 110.458 188.770,109.558 188.525,108.917 188.345 C 108.275 188.166,107.365 188.015,106.893 188.010 C 106.422 188.004,105.422 187.883,104.671 187.741 C 103.590 187.536,103.124 187.520,102.429 187.664 C 101.804 187.794,100.939 187.797,99.428 187.674 C 98.260 187.579,95.192 187.426,92.611 187.335 C 87.407 187.149,86.467 187.073,85.250 186.738 C 84.792 186.612,83.854 186.426,83.167 186.325 C 81.013 186.008,77.811 185.083,74.250 183.748 C 71.872 182.857,66.855 180.182,63.101 177.804 C 58.294 174.759,56.764 173.141,55.603 169.874 C 55.367 169.209,55.065 168.497,54.932 168.291 C 54.324 167.348,53.926 160.410,54.389 158.819 C 55.316 155.635,58.420 154.370,63.333 155.175 C 64.479 155.363,66.242 155.625,67.250 155.757 C 68.258 155.890,69.683 156.114,70.417 156.254 C 73.126 156.773,73.784 156.858,75.333 156.886 C 77.840 156.931,84.047 155.825,85.525 155.068 C 85.767 154.944,86.330 154.762,86.775 154.663 C 88.676 154.243,92.218 152.549,94.083 151.168 C 94.450 150.897,95.013 150.496,95.333 150.277 C 97.455 148.830,101.998 142.819,103.604 139.333 C 103.836 138.829,104.164 138.117,104.333 137.750 C 105.169 135.934,106.382 132.202,106.825 130.083 C 109.021 119.588,111.272 112.883,114.638 106.810 C 115.845 104.632,116.298 103.898,118.156 101.106 C 119.185 99.559,119.446 99.182,120.375 97.897 C 120.581 97.611,121.054 96.936,121.426 96.397 C 130.833 82.748,145.420 69.645,157.615 63.891 C 166.003 59.933,177.037 56.344,183.938 55.330 C 185.175 55.148,187.926 54.667,190.052 54.261 C 196.951 52.943,207.221 52.759,214.917 53.815 C 215.467 53.890,217.004 54.079,218.333 54.235 C 219.662 54.390,221.237 54.625,221.833 54.756 C 222.429 54.887,223.479 55.076,224.167 55.177 C 231.560 56.258,244.626 59.322,251.167 61.510 C 260.356 64.583,270.385 70.220,279.356 77.355 C 280.148 77.985,280.873 78.500,280.967 78.500 C 281.276 78.500,281.619 69.864,281.654 61.250 C 281.680 54.714,282.008 50.730,282.737 48.083 C 282.864 47.625,283.018 46.881,283.081 46.429 C 283.327 44.665,285.469 39.634,286.417 38.595 C 287.270 37.659,287.500 37.866,283.296 35.782 C 279.465 33.884,277.588 33.000,277.387 33.000 C 277.330 33.000,276.882 32.813,276.392 32.583 C 274.138 31.530,273.679 31.330,272.621 30.934 C 272.001 30.702,271.251 30.405,270.955 30.273 C 270.659 30.141,269.667 29.753,268.750 29.410 C 267.833 29.067,266.858 28.691,266.583 28.573 C 264.656 27.749,262.475 27.000,262.006 27.000 C 261.850 27.000,261.673 26.951,261.613 26.891 C 261.412 26.690,257.303 25.317,254.457 24.500 C 253.837 24.323,252.825 24.027,252.207 23.842 C 251.589 23.658,250.183 23.273,249.083 22.987 C 247.983 22.701,246.746 22.366,246.333 22.243 C 244.343 21.651,242.865 21.295,240.417 20.819 C 238.950 20.533,237.450 20.236,237.083 20.158 C 236.717 20.080,235.029 19.787,233.333 19.506 C 231.637 19.226,229.875 18.926,229.417 18.840 C 228.958 18.754,227.908 18.602,227.083 18.502 C 226.258 18.402,225.133 18.252,224.583 18.168 C 222.804 17.897,220.960 17.679,218.917 17.498 C 217.817 17.400,216.242 17.260,215.417 17.187 C 214.592 17.115,212.642 17.038,211.083 17.017 C 206.079 16.951,201.973 16.916,201.945 16.940 M296.207 43.047 C 294.407 45.348,292.750 51.510,292.649 56.280 C 292.611 58.062,292.424 57.821,298.967 64.417 C 306.038 71.545,312.797 78.934,320.842 88.334 C 332.992 102.528,338.690 109.527,342.344 114.743 L 343.739 116.735 343.862 116.159 C 343.930 115.842,344.105 114.571,344.251 113.333 C 345.329 104.173,347.438 98.681,351.638 94.086 C 352.126 93.553,352.167 93.442,351.972 93.172 C 351.850 93.003,351.399 92.374,350.970 91.774 C 350.097 90.555,344.551 83.575,343.732 82.667 C 342.283 81.059,341.163 79.792,340.333 78.824 C 339.516 77.869,338.103 76.360,335.833 74.015 C 335.421 73.589,334.400 72.530,333.565 71.662 C 332.731 70.794,331.681 69.755,331.232 69.353 C 330.784 68.951,329.374 67.638,328.099 66.436 C 325.283 63.780,325.683 64.128,319.583 59.017 C 318.850 58.402,317.650 57.442,316.917 56.882 C 316.183 56.323,314.946 55.368,314.167 54.760 C 313.387 54.152,312.327 53.360,311.809 53.000 C 311.292 52.640,310.767 52.247,310.643 52.126 C 310.518 52.006,309.892 51.559,309.250 51.133 C 308.608 50.706,307.333 49.830,306.417 49.186 C 304.952 48.156,301.645 46.013,300.113 45.102 C 299.822 44.928,299.171 44.507,298.667 44.165 C 297.210 43.178,296.394 42.807,296.207 43.047 M290.592 71.485 C 290.230 72.072,290.012 80.380,290.234 85.158 L 290.384 88.400 291.330 89.575 C 292.172 90.622,294.306 93.589,295.532 95.417 C 303.020 106.581,306.232 119.000,306.331 137.167 L 306.344 139.417 308.713 141.937 C 324.144 158.348,335.071 170.626,339.870 176.947 L 341.285 178.810 341.396 173.697 C 341.457 170.884,341.545 166.858,341.591 164.750 C 341.864 152.316,341.975 131.101,341.767 130.929 C 341.648 130.831,339.838 128.725,337.743 126.250 C 335.649 123.775,333.103 120.775,332.086 119.583 C 329.764 116.864,316.393 101.142,307.356 90.506 C 289.474 69.457,290.868 71.039,290.592 71.485 M358.978 104.468 C 358.635 104.824,356.679 107.991,356.123 109.090 C 355.413 110.495,354.847 112.583,354.576 114.797 C 354.433 115.963,354.281 117.067,354.239 117.250 C 354.174 117.535,353.737 121.106,353.159 126.083 C 352.988 127.555,352.653 154.259,352.258 197.917 C 352.116 213.592,351.925 232.192,351.832 239.250 C 351.740 246.308,351.587 258.983,351.492 267.417 C 351.397 275.850,351.261 287.700,351.191 293.750 C 351.062 304.805,351.066 305.138,351.342 304.645 C 351.699 304.007,353.144 302.192,353.845 301.501 C 354.828 300.532,356.387 298.389,356.260 298.183 C 356.206 298.095,356.249 297.969,356.356 297.902 C 356.478 297.827,356.507 297.854,356.433 297.974 C 356.367 298.080,356.353 298.167,356.401 298.167 C 356.449 298.167,356.573 298.008,356.677 297.813 C 356.831 297.527,356.824 297.486,356.642 297.599 C 356.518 297.675,356.700 297.365,357.046 296.910 C 357.392 296.455,357.834 295.783,358.028 295.417 C 358.451 294.618,359.070 293.765,359.719 293.083 C 360.209 292.569,361.500 290.480,361.500 290.203 C 361.500 290.117,361.700 289.755,361.945 289.398 C 362.367 288.783,362.725 288.183,364.090 285.805 C 364.415 285.239,364.801 284.688,364.949 284.580 C 365.097 284.472,365.164 284.298,365.099 284.192 C 365.034 284.086,365.064 284.000,365.167 284.000 C 365.269 284.000,365.315 283.939,365.269 283.865 C 365.223 283.790,365.336 283.509,365.519 283.240 C 365.703 282.970,365.924 282.577,366.010 282.365 C 366.103 282.135,366.244 282.028,366.359 282.099 C 366.480 282.174,366.506 282.145,366.430 282.022 C 366.363 281.913,366.764 280.963,367.340 279.871 C 368.951 276.814,370.534 273.633,371.754 271.000 C 373.155 267.975,373.259 267.734,373.507 266.917 C 373.619 266.550,373.765 266.175,373.831 266.083 C 373.898 265.992,374.157 265.373,374.407 264.708 C 374.658 264.044,374.915 263.500,374.978 263.500 C 375.042 263.500,375.110 263.308,375.129 263.072 C 375.149 262.837,375.542 261.656,376.003 260.447 C 376.889 258.124,378.759 252.490,379.249 250.667 C 379.409 250.071,379.687 249.113,379.868 248.538 C 380.049 247.963,380.334 246.838,380.502 246.038 C 380.670 245.238,381.044 243.758,381.332 242.750 C 381.620 241.742,381.892 240.729,381.936 240.500 C 381.981 240.271,382.156 239.629,382.327 239.074 C 382.497 238.518,382.686 237.668,382.748 237.185 C 382.809 236.702,382.971 235.918,383.107 235.445 C 383.243 234.971,383.422 234.171,383.504 233.667 C 383.587 233.162,383.769 232.188,383.910 231.500 C 384.767 227.310,385.286 224.324,385.611 221.708 C 385.774 220.402,385.970 219.333,386.047 219.333 C 386.123 219.333,386.140 219.259,386.084 219.167 C 386.027 219.076,386.096 217.970,386.236 216.709 C 386.635 213.126,386.815 210.809,386.925 207.833 C 386.981 206.321,387.087 203.733,387.161 202.083 C 387.236 200.433,387.260 199.023,387.216 198.949 C 387.171 198.874,387.066 196.587,386.982 193.865 C 386.899 191.144,386.762 188.017,386.680 186.917 C 386.597 185.817,386.483 184.279,386.427 183.500 C 386.330 182.166,386.239 181.436,385.832 178.708 C 385.740 178.090,385.550 176.646,385.411 175.500 C 385.127 173.165,384.753 170.668,384.500 169.417 C 384.408 168.958,384.258 168.133,384.167 167.583 C 384.076 167.033,383.923 166.208,383.826 165.750 C 383.730 165.292,383.585 164.579,383.503 164.167 C 383.422 163.754,383.274 163.042,383.174 162.583 C 383.074 162.125,382.962 161.600,382.924 161.417 C 382.766 160.655,382.474 159.378,382.333 158.833 C 382.250 158.512,382.032 157.612,381.849 156.833 C 381.665 156.054,381.443 155.154,381.356 154.833 C 381.268 154.512,381.035 153.650,380.838 152.917 C 380.641 152.183,380.109 150.343,379.657 148.827 C 379.204 147.311,378.833 145.979,378.833 145.866 C 378.833 145.754,378.766 145.532,378.684 145.373 C 378.397 144.817,377.000 140.747,377.000 140.468 C 377.000 140.313,376.925 140.140,376.833 140.083 C 376.742 140.027,376.667 139.834,376.667 139.655 C 376.667 139.475,376.600 139.199,376.519 139.039 C 376.349 138.704,376.107 138.100,375.897 137.485 C 375.716 136.954,374.544 133.936,374.252 133.250 C 374.135 132.975,373.910 132.450,373.753 132.083 C 373.595 131.717,373.407 131.267,373.336 131.083 C 372.628 129.272,372.171 128.189,371.578 126.917 C 371.193 126.092,370.762 125.154,370.621 124.833 C 370.255 124.006,368.690 120.695,368.335 120.000 C 368.171 119.679,367.665 118.704,367.209 117.833 C 366.754 116.962,365.970 115.462,365.467 114.500 C 364.964 113.537,364.351 112.412,364.106 112.000 C 363.860 111.587,363.455 110.889,363.205 110.448 C 361.628 107.667,360.172 105.213,359.965 104.987 C 359.833 104.843,359.676 104.599,359.617 104.446 C 359.485 104.100,359.328 104.106,358.978 104.468 M305.376 155.811 C 305.427 156.007,305.401 156.167,305.318 156.167 C 305.235 156.167,305.167 156.464,305.167 156.827 C 305.167 159.129,300.603 173.158,298.487 177.362 C 296.569 181.172,292.935 186.550,289.877 190.102 L 288.862 191.282 291.693 194.099 C 295.761 198.147,302.198 204.995,306.551 209.906 C 307.450 210.920,308.687 212.305,309.301 212.983 C 309.915 213.662,310.743 214.599,311.143 215.067 C 311.542 215.534,312.547 216.620,313.375 217.479 C 314.628 218.780,316.364 220.728,320.186 225.125 C 320.733 225.755,321.030 225.796,321.640 225.325 C 321.884 225.138,323.058 224.320,324.250 223.507 C 327.335 221.404,329.130 220.031,329.373 219.587 C 330.951 216.709,333.247 213.756,335.945 211.134 C 336.798 210.305,340.311 208.167,340.820 208.167 C 341.229 208.167,341.303 206.512,341.171 200.333 L 341.070 195.583 340.259 194.189 C 339.399 192.709,340.055 193.444,317.333 168.513 C 311.787 162.428,306.891 157.030,306.453 156.517 C 305.569 155.481,305.232 155.260,305.376 155.811 M278.131 201.444 C 275.186 204.174,271.800 206.979,269.164 208.873 C 266.272 210.951,259.164 215.529,257.583 216.331 C 257.217 216.517,256.467 216.913,255.917 217.212 C 255.367 217.511,253.994 218.242,252.867 218.836 L 250.817 219.917 254.110 220.031 C 264.147 220.379,273.614 221.744,278.118 223.493 C 278.823 223.766,279.411 223.973,279.426 223.953 C 279.441 223.933,279.392 223.392,279.318 222.750 C 279.147 221.263,279.149 207.751,279.322 203.583 C 279.394 201.842,279.432 200.392,279.407 200.361 C 279.381 200.330,278.807 200.818,278.131 201.444 M289.000 210.755 C 289.000 212.769,288.952 217.379,288.894 221.000 L 288.789 227.583 291.770 228.611 C 299.764 231.369,302.625 232.065,306.000 232.075 C 308.502 232.083,310.904 231.635,310.051 231.320 C 309.412 231.083,309.733 231.452,291.525 210.000 C 290.475 208.762,289.477 207.602,289.308 207.421 C 289.008 207.101,289.000 207.187,289.000 210.755 M339.616 278.583 C 339.542 278.858,339.233 279.608,338.930 280.250 C 337.849 282.537,337.678 282.932,337.237 284.167 C 335.747 288.333,332.425 295.616,330.547 298.833 C 328.383 302.538,326.850 304.936,324.151 308.833 C 322.724 310.894,320.618 313.361,318.942 314.934 C 318.074 315.750,316.302 317.520,315.005 318.870 L 312.647 321.322 318.615 324.323 C 328.596 329.341,328.749 329.427,329.084 330.223 L 329.283 330.697 330.433 329.403 C 332.060 327.572,332.160 327.476,332.338 327.586 C 332.425 327.640,332.459 327.586,332.413 327.467 C 332.338 327.271,333.998 325.319,337.417 321.583 C 338.088 320.850,338.887 319.875,339.194 319.417 L 339.750 318.583 339.667 314.333 C 339.621 311.996,339.640 303.183,339.709 294.750 C 339.842 278.471,339.838 277.756,339.616 278.583 M247.667 374.833 C 247.323 374.943,247.309 374.969,247.583 374.981 C 247.767 374.989,248.029 374.922,248.167 374.833 C 248.459 374.645,248.256 374.645,247.667 374.833 " stroke="none" fill="#4c74fb" fill-rule="evenodd"></path><path id="path1" d="M199.419 58.182 C 197.495 58.251,195.357 58.383,194.669 58.478 C 193.980 58.572,192.779 58.695,192.000 58.752 C 189.648 58.925,185.274 59.898,178.250 61.813 C 168.861 64.372,167.427 64.788,166.167 65.318 C 165.754 65.492,164.779 65.875,164.000 66.169 C 162.765 66.634,161.412 67.271,157.982 69.002 C 157.526 69.232,157.099 69.494,157.033 69.585 C 156.967 69.676,156.202 70.115,155.332 70.561 C 152.143 72.196,148.904 74.691,142.583 80.382 C 140.127 82.593,135.609 87.345,133.937 89.475 C 133.193 90.424,132.246 91.630,131.833 92.155 C 128.046 96.974,127.789 97.342,124.044 103.333 C 119.989 109.821,117.652 115.045,116.330 120.583 C 116.046 121.775,115.670 123.353,115.494 124.090 C 115.319 124.827,114.988 126.439,114.759 127.673 C 114.530 128.907,114.209 130.442,114.045 131.083 C 113.881 131.725,113.771 132.445,113.799 132.683 L 113.851 133.117 115.884 133.222 C 119.151 133.392,121.401 134.009,123.734 135.374 C 124.385 135.755,125.329 136.273,125.833 136.527 C 127.086 137.156,130.884 141.180,131.833 142.883 C 133.283 145.486,133.415 146.174,133.402 151.083 C 133.379 159.481,131.470 163.350,124.205 169.724 L 122.566 171.162 123.462 172.123 C 127.622 176.587,126.529 183.591,121.250 186.304 C 120.700 186.586,120.392 186.821,120.566 186.825 C 120.740 186.830,121.340 187.052,121.900 187.320 C 122.459 187.588,123.667 188.154,124.583 188.580 C 132.260 192.140,138.118 196.421,145.671 203.990 C 153.428 211.763,154.764 214.256,153.764 219.094 C 153.283 221.419,149.059 226.853,147.411 227.266 C 147.167 227.327,147.043 227.424,147.134 227.480 C 147.380 227.633,144.653 229.653,142.833 230.667 C 141.962 231.152,139.712 232.463,137.833 233.581 C 133.705 236.038,132.022 236.943,128.750 238.467 C 119.592 242.733,108.911 249.658,104.770 254.014 C 102.421 256.485,96.666 263.911,94.579 267.164 C 90.507 273.513,86.632 284.978,85.978 292.618 C 85.490 298.310,85.791 306.347,86.593 309.039 C 88.577 315.706,93.912 324.408,96.738 325.589 C 97.049 325.719,97.328 325.890,97.360 325.969 C 97.417 326.114,102.227 323.472,103.000 322.871 C 103.229 322.693,103.604 322.490,103.833 322.420 C 104.063 322.351,104.372 322.187,104.521 322.056 C 105.344 321.335,114.760 316.730,116.917 315.994 C 126.444 312.741,143.667 312.003,153.646 314.420 C 159.533 315.845,163.561 317.680,169.917 321.832 C 173.922 324.449,174.799 324.956,179.500 327.376 C 184.750 330.078,185.891 330.547,196.083 334.192 C 206.307 337.849,211.941 337.389,224.027 331.911 C 231.440 328.551,231.560 328.485,238.513 324.067 C 246.475 319.008,249.573 317.477,255.364 315.743 C 269.602 311.480,283.443 311.978,302.016 317.421 C 305.103 318.326,305.187 318.341,305.557 318.049 C 305.907 317.773,306.686 317.080,309.936 314.156 C 310.605 313.554,311.471 312.654,311.861 312.156 C 312.251 311.658,312.980 310.800,313.481 310.250 C 316.360 307.093,319.009 303.168,321.356 298.583 C 323.369 294.652,326.224 288.412,327.684 284.750 C 328.049 283.833,328.493 282.746,328.670 282.333 C 329.048 281.450,330.547 277.054,331.000 275.500 C 331.173 274.904,331.545 273.667,331.825 272.750 C 333.898 265.960,335.707 256.513,336.483 248.417 C 337.465 238.167,337.668 222.653,336.863 219.449 C 336.752 219.008,336.670 219.097,335.414 221.029 C 333.291 224.295,331.246 226.234,327.500 228.534 C 326.537 229.125,325.337 229.874,324.833 230.199 C 324.329 230.524,323.167 231.172,322.250 231.640 C 321.333 232.108,320.096 232.764,319.500 233.098 C 315.395 235.399,309.023 236.471,303.667 235.761 C 298.344 235.056,294.754 234.329,292.500 233.501 C 291.721 233.215,290.895 232.951,290.664 232.915 C 290.434 232.879,288.671 232.327,286.748 231.688 C 284.824 231.050,282.050 230.258,280.583 229.930 C 275.939 228.890,275.160 228.693,270.909 227.487 C 265.734 226.019,263.373 225.540,260.500 225.378 C 257.106 225.185,251.918 225.230,250.417 225.464 C 249.683 225.579,247.621 225.784,245.833 225.921 C 237.090 226.591,236.452 226.478,235.754 224.129 C 235.293 222.575,235.598 220.301,236.337 219.783 C 236.517 219.657,236.622 219.510,236.569 219.458 C 236.413 219.302,238.088 218.062,239.124 217.568 C 239.651 217.316,240.202 217.010,240.347 216.887 C 240.492 216.765,241.562 216.260,242.725 215.764 C 243.887 215.268,245.531 214.454,246.378 213.954 C 247.224 213.454,248.254 212.855,248.667 212.623 C 261.921 205.173,266.833 202.345,266.833 202.163 C 266.833 202.086,267.377 201.747,268.042 201.409 C 270.114 200.357,274.657 197.110,276.613 195.283 C 283.601 188.754,290.812 177.284,295.275 165.601 C 298.749 156.504,299.460 142.568,297.097 129.883 C 296.879 128.710,296.648 127.263,296.584 126.667 C 296.216 123.232,294.068 115.175,292.386 110.917 C 290.488 106.113,287.528 100.391,285.551 97.701 C 285.167 97.178,284.454 96.202,283.968 95.533 C 274.800 82.917,261.522 73.190,244.209 66.407 C 234.944 62.778,216.166 58.776,205.917 58.248 C 204.908 58.196,203.821 58.132,203.500 58.106 C 203.179 58.079,201.343 58.114,199.419 58.182 M190.417 119.905 C 195.485 120.407,199.500 122.585,199.500 124.833 C 199.500 127.681,194.361 129.002,184.375 128.719 C 179.969 128.594,179.482 128.955,182.354 130.217 C 182.869 130.444,183.338 130.706,183.395 130.799 C 183.453 130.892,184.044 131.247,184.708 131.588 C 191.735 135.194,191.982 140.185,185.347 144.469 L 184.750 144.854 185.250 144.755 C 185.525 144.701,187.325 144.612,189.250 144.557 C 198.086 144.307,203.616 147.187,201.433 150.902 C 199.941 153.441,196.002 153.931,179.687 153.604 C 176.627 153.543,174.067 153.458,173.998 153.415 C 173.929 153.373,173.320 153.260,172.644 153.164 C 168.344 152.557,167.057 149.466,169.519 145.658 C 170.964 143.422,174.610 140.369,177.498 138.976 C 179.037 138.234,179.010 138.043,177.232 137.094 C 175.016 135.911,170.877 131.793,169.766 129.667 C 167.228 124.806,171.179 121.039,179.750 120.148 C 180.758 120.043,181.996 119.903,182.500 119.836 C 184.069 119.630,187.978 119.664,190.417 119.905 M116.496 185.412 C 116.717 185.678,117.680 185.915,118.033 185.791 C 118.295 185.698,117.097 185.167,116.626 185.167 C 116.351 185.167,116.328 185.210,116.496 185.412 " stroke="none" fill="#f4fb1c" fill-rule="evenodd"></path><path id="path2" d="M191.455 17.120 C 191.750 17.157,192.275 17.158,192.621 17.122 C 192.967 17.086,192.725 17.055,192.083 17.055 C 191.442 17.054,191.159 17.083,191.455 17.120 M169.708 19.282 C 169.869 19.323,170.131 19.323,170.292 19.282 C 170.452 19.240,170.321 19.205,170.000 19.205 C 169.679 19.205,169.548 19.240,169.708 19.282 M99.218 46.429 L 98.750 46.858 99.292 46.481 C 99.590 46.274,99.833 46.081,99.833 46.052 C 99.833 45.920,99.649 46.033,99.218 46.429 M281.872 53.667 C 281.872 53.987,281.906 54.119,281.948 53.958 C 281.990 53.798,281.990 53.535,281.948 53.375 C 281.906 53.215,281.872 53.346,281.872 53.667 M281.721 56.750 C 281.722 57.392,281.752 57.634,281.788 57.288 C 281.824 56.942,281.824 56.417,281.787 56.121 C 281.750 55.825,281.721 56.108,281.721 56.750 M292.539 56.833 C 292.539 57.154,292.573 57.285,292.615 57.125 C 292.657 56.965,292.657 56.702,292.615 56.542 C 292.573 56.381,292.539 56.512,292.539 56.833 M295.250 60.833 C 295.794 61.383,296.277 61.833,296.323 61.833 C 296.369 61.833,295.961 61.383,295.417 60.833 C 294.872 60.283,294.390 59.833,294.344 59.833 C 294.298 59.833,294.706 60.283,295.250 60.833 M73.406 66.542 L 72.917 67.083 73.458 66.594 C 73.963 66.138,74.077 66.000,73.948 66.000 C 73.919 66.000,73.675 66.244,73.406 66.542 M281.542 67.750 C 281.544 68.117,281.578 68.247,281.618 68.040 C 281.658 67.832,281.656 67.532,281.615 67.373 C 281.573 67.214,281.540 67.383,281.542 67.750 M302.250 67.833 C 302.608 68.200,302.938 68.500,302.984 68.500 C 303.030 68.500,302.775 68.200,302.417 67.833 C 302.059 67.467,301.728 67.167,301.682 67.167 C 301.637 67.167,301.892 67.467,302.250 67.833 M70.677 69.008 C 70.178 69.462,69.843 69.833,69.933 69.833 C 70.023 69.833,70.465 69.458,70.917 69.000 C 71.962 67.938,71.847 67.942,70.677 69.008 M305.326 71.042 C 306.017 71.778,306.167 71.910,306.167 71.785 C 306.167 71.758,305.810 71.402,305.375 70.993 L 304.583 70.250 305.326 71.042 M307.000 72.885 C 307.000 72.914,307.244 73.158,307.542 73.427 L 308.083 73.917 307.594 73.375 C 307.138 72.870,307.000 72.757,307.000 72.885 M290.214 74.083 C 290.216 74.542,290.248 74.709,290.286 74.456 C 290.325 74.203,290.324 73.828,290.284 73.623 C 290.244 73.418,290.213 73.625,290.214 74.083 M290.062 77.750 C 290.063 78.758,290.090 79.149,290.123 78.619 C 290.157 78.088,290.156 77.263,290.123 76.786 C 290.089 76.308,290.062 76.742,290.062 77.750 M290.048 82.583 C 290.049 83.042,290.081 83.209,290.120 82.956 C 290.158 82.703,290.157 82.328,290.117 82.123 C 290.078 81.918,290.046 82.125,290.048 82.583 M57.740 82.708 L 57.250 83.250 57.792 82.760 C 58.297 82.304,58.410 82.167,58.281 82.167 C 58.252 82.167,58.009 82.410,57.740 82.708 M290.224 85.917 C 290.224 86.650,290.254 86.929,290.289 86.537 C 290.324 86.145,290.324 85.545,290.288 85.204 C 290.252 84.863,290.223 85.183,290.224 85.917 M39.337 107.792 C 39.068 108.227,38.643 108.865,38.392 109.208 C 37.903 109.879,37.663 110.588,38.074 110.150 C 38.361 109.842,40.018 107.000,39.910 107.000 C 39.864 107.000,39.606 107.356,39.337 107.792 M35.727 113.958 C 35.542 114.210,34.734 115.675,33.931 117.214 C 33.127 118.752,32.221 120.381,31.916 120.834 C 31.611 121.287,31.309 121.904,31.245 122.204 C 31.088 122.938,31.152 122.848,32.170 120.917 C 33.536 118.324,35.334 114.989,35.787 114.208 C 36.255 113.403,36.225 113.279,35.727 113.958 M30.417 124.000 C 30.274 124.275,30.196 124.500,30.241 124.500 C 30.287 124.500,30.441 124.275,30.583 124.000 C 30.726 123.725,30.804 123.500,30.759 123.500 C 30.713 123.500,30.559 123.725,30.417 124.000 M29.656 125.450 C 29.445 125.890,29.222 126.287,29.160 126.333 C 28.946 126.491,28.500 127.484,28.509 127.783 C 28.513 127.948,28.893 127.344,29.352 126.441 C 29.812 125.538,30.154 124.765,30.113 124.724 C 30.072 124.683,29.866 125.009,29.656 125.450 M26.780 131.591 C 26.388 132.412,26.443 132.552,26.853 131.776 C 27.039 131.424,27.161 131.106,27.125 131.070 C 27.089 131.034,26.934 131.268,26.780 131.591 M341.905 139.667 C 341.905 141.729,341.929 142.573,341.958 141.542 C 341.987 140.510,341.987 138.823,341.958 137.792 C 341.929 136.760,341.905 137.604,341.905 139.667 M309.333 142.750 C 309.831 143.254,310.276 143.667,310.322 143.667 C 310.368 143.667,309.998 143.254,309.500 142.750 C 309.002 142.246,308.557 141.833,308.511 141.833 C 308.466 141.833,308.835 142.246,309.333 142.750 M352.735 145.083 C 352.735 146.642,352.760 147.302,352.791 146.550 C 352.821 145.798,352.821 144.523,352.791 143.717 C 352.760 142.910,352.735 143.525,352.735 145.083 M312.583 146.167 C 312.941 146.533,313.272 146.833,313.318 146.833 C 313.363 146.833,313.108 146.533,312.750 146.167 C 312.392 145.800,312.062 145.500,312.016 145.500 C 311.970 145.500,312.225 145.800,312.583 146.167 M314.667 148.417 C 314.978 148.737,315.270 149.000,315.315 149.000 C 315.361 149.000,315.144 148.737,314.833 148.417 C 314.522 148.096,314.230 147.833,314.185 147.833 C 314.139 147.833,314.356 148.096,314.667 148.417 M316.833 150.750 C 317.144 151.071,317.436 151.333,317.482 151.333 C 317.528 151.333,317.311 151.071,317.000 150.750 C 316.689 150.429,316.397 150.167,316.351 150.167 C 316.305 150.167,316.522 150.429,316.833 150.750 M19.532 152.844 C 19.412 153.036,19.281 153.580,19.239 154.054 L 19.163 154.917 19.498 153.833 C 19.861 152.656,19.873 152.298,19.532 152.844 M341.737 156.000 C 341.737 157.971,341.762 158.777,341.791 157.792 C 341.821 156.806,341.821 155.194,341.791 154.208 C 341.762 153.223,341.737 154.029,341.737 156.000 M18.429 157.429 C 18.367 157.673,18.349 157.905,18.389 157.944 C 18.428 157.983,18.510 157.816,18.571 157.571 C 18.633 157.327,18.651 157.095,18.611 157.056 C 18.572 157.017,18.490 157.184,18.429 157.429 M307.000 157.219 C 307.000 157.248,307.244 157.491,307.542 157.760 L 308.083 158.250 307.594 157.708 C 307.138 157.203,307.000 157.090,307.000 157.219 M352.570 160.583 C 352.570 162.417,352.594 163.189,352.624 162.301 C 352.654 161.412,352.654 159.912,352.624 158.967 C 352.595 158.023,352.570 158.750,352.570 160.583 M18.026 159.026 C 17.917 159.497,17.858 159.914,17.895 159.951 C 17.932 159.988,18.054 159.635,18.167 159.167 C 18.279 158.698,18.338 158.282,18.297 158.242 C 18.257 158.201,18.135 158.554,18.026 159.026 M341.548 168.250 C 341.549 168.708,341.581 168.876,341.620 168.623 C 341.658 168.369,341.657 167.994,341.617 167.789 C 341.578 167.584,341.546 167.792,341.548 168.250 M15.625 169.513 C 15.365 170.376,15.034 173.341,15.217 173.167 C 15.351 173.039,16.037 169.028,15.963 168.805 C 15.927 168.697,15.775 169.015,15.625 169.513 M341.389 172.000 C 341.389 172.688,341.419 172.969,341.455 172.625 C 341.491 172.281,341.491 171.719,341.455 171.375 C 341.419 171.031,341.389 171.313,341.389 172.000 M352.404 175.833 C 352.404 177.713,352.428 178.481,352.458 177.542 C 352.487 176.602,352.487 175.065,352.458 174.125 C 352.428 173.185,352.404 173.954,352.404 175.833 M14.671 175.452 C 14.463 176.261,14.220 179.153,14.372 179.000 C 14.493 178.879,15.045 174.823,14.954 174.731 C 14.911 174.689,14.784 175.013,14.671 175.452 M325.667 177.719 C 325.667 177.748,325.910 177.991,326.208 178.260 L 326.750 178.750 326.260 178.208 C 325.804 177.703,325.667 177.590,325.667 177.719 M14.209 179.750 C 14.211 180.117,14.245 180.247,14.285 180.040 C 14.324 179.832,14.323 179.532,14.281 179.373 C 14.239 179.214,14.207 179.383,14.209 179.750 M13.613 184.136 C 13.442 185.164,13.312 187.200,13.263 189.596 C 13.199 192.797,13.211 193.092,13.338 191.417 C 13.421 190.317,13.608 187.889,13.753 186.023 C 14.049 182.216,14.013 181.726,13.613 184.136 M332.500 185.219 C 332.500 185.248,332.744 185.491,333.042 185.760 L 333.583 186.250 333.094 185.708 C 332.638 185.203,332.500 185.090,332.500 185.219 M352.239 193.083 C 352.239 195.283,352.262 196.160,352.291 195.032 C 352.320 193.904,352.320 192.104,352.291 191.032 C 352.262 189.960,352.238 190.883,352.239 193.083 M13.041 194.610 C 13.015 194.963,13.064 195.147,13.166 195.084 C 13.360 194.964,13.393 194.223,13.208 194.109 C 13.140 194.067,13.064 194.292,13.041 194.610 M13.066 199.167 C 13.066 200.496,13.092 201.040,13.124 200.375 C 13.155 199.710,13.155 198.623,13.124 197.958 C 13.092 197.294,13.066 197.838,13.066 199.167 M295.583 198.167 C 296.128 198.717,296.610 199.167,296.656 199.167 C 296.702 199.167,296.294 198.717,295.750 198.167 C 295.206 197.617,294.723 197.167,294.677 197.167 C 294.631 197.167,295.039 197.617,295.583 198.167 M341.235 201.167 C 341.235 202.771,341.260 203.427,341.291 202.625 C 341.321 201.823,341.321 200.510,341.291 199.708 C 341.260 198.906,341.235 199.563,341.235 201.167 M298.833 201.583 C 299.144 201.904,299.436 202.167,299.482 202.167 C 299.528 202.167,299.311 201.904,299.000 201.583 C 298.689 201.262,298.397 201.000,298.351 201.000 C 298.305 201.000,298.522 201.262,298.833 201.583 M301.000 203.917 C 301.311 204.237,301.603 204.500,301.649 204.500 C 301.695 204.500,301.478 204.237,301.167 203.917 C 300.856 203.596,300.564 203.333,300.518 203.333 C 300.472 203.333,300.689 203.596,301.000 203.917 M13.043 205.917 C 13.037 207.017,13.090 208.329,13.160 208.833 C 13.333 210.089,13.344 206.761,13.172 205.083 C 13.064 204.025,13.052 204.103,13.043 205.917 M341.220 206.667 C 341.220 207.262,341.250 207.506,341.287 207.208 C 341.324 206.910,341.324 206.423,341.287 206.125 C 341.250 205.827,341.220 206.071,341.220 206.667 M352.073 210.083 C 352.073 212.558,352.096 213.594,352.124 212.385 C 352.153 211.176,352.153 209.151,352.125 207.885 C 352.096 206.619,352.073 207.608,352.073 210.083 M279.231 207.917 C 279.232 209.108,279.258 209.574,279.290 208.951 C 279.323 208.329,279.322 207.354,279.290 206.785 C 279.257 206.216,279.231 206.725,279.231 207.917 M304.167 207.385 C 304.167 207.414,304.410 207.658,304.708 207.927 L 305.250 208.417 304.760 207.875 C 304.304 207.370,304.167 207.257,304.167 207.385 M309.667 213.552 C 309.667 213.581,309.910 213.825,310.208 214.094 L 310.750 214.583 310.260 214.042 C 309.804 213.537,309.667 213.423,309.667 213.552 M13.539 214.167 C 13.539 214.487,13.573 214.619,13.615 214.458 C 13.657 214.298,13.657 214.035,13.615 213.875 C 13.573 213.715,13.539 213.846,13.539 214.167 M13.709 216.083 C 13.711 216.450,13.745 216.580,13.785 216.373 C 13.824 216.166,13.823 215.866,13.781 215.706 C 13.739 215.547,13.707 215.717,13.709 216.083 M314.437 218.917 C 315.707 220.383,317.377 222.221,318.146 223.000 L 319.545 224.417 318.470 223.167 C 316.153 220.472,314.701 218.861,313.441 217.583 C 312.487 216.616,312.760 216.982,314.437 218.917 M13.875 217.750 C 13.877 218.117,13.911 218.247,13.951 218.040 C 13.991 217.832,13.990 217.532,13.948 217.373 C 13.906 217.214,13.874 217.383,13.875 217.750 M14.045 219.500 C 14.045 219.912,14.078 220.081,14.118 219.875 C 14.157 219.669,14.157 219.331,14.118 219.125 C 14.078 218.919,14.045 219.088,14.045 219.500 M14.184 220.934 C 14.166 221.633,14.788 226.010,14.925 226.147 C 15.045 226.267,15.007 225.911,14.593 223.000 C 14.378 221.487,14.194 220.558,14.184 220.934 M351.909 228.083 C 351.909 231.658,351.931 233.097,351.958 231.281 C 351.985 229.464,351.985 226.539,351.958 224.781 C 351.931 223.022,351.909 224.508,351.909 228.083 M288.611 224.624 C 288.535 225.654,288.403 226.540,288.319 226.592 C 288.066 226.748,288.147 227.290,288.441 227.403 C 288.847 227.559,288.847 227.563,288.797 225.065 L 288.750 222.750 288.611 224.624 M279.333 223.456 C 279.333 223.706,279.822 224.273,279.828 224.030 C 279.831 223.909,279.721 223.697,279.583 223.560 C 279.446 223.422,279.333 223.376,279.333 223.456 M15.015 226.770 C 15.007 226.964,15.105 227.752,15.234 228.520 C 15.363 229.288,15.518 230.292,15.578 230.750 C 15.708 231.734,15.995 232.894,16.086 232.803 C 16.121 232.768,15.898 231.316,15.590 229.578 C 15.283 227.839,15.024 226.576,15.015 226.770 M384.015 230.888 C 383.899 231.423,383.838 231.893,383.879 231.935 C 384.004 232.060,384.370 230.562,384.296 230.228 C 384.258 230.057,384.132 230.354,384.015 230.888 M16.354 234.500 C 16.336 234.940,16.745 236.634,16.908 236.797 C 17.012 236.901,16.890 236.213,16.574 234.917 C 16.448 234.404,16.364 234.244,16.354 234.500 M383.083 235.333 C 383.020 235.621,383.003 235.892,383.045 235.934 C 383.088 235.977,383.171 235.772,383.229 235.479 C 383.368 234.784,383.233 234.650,383.083 235.333 M351.740 242.750 C 351.740 245.317,351.763 246.343,351.791 245.032 C 351.820 243.720,351.819 241.620,351.791 240.365 C 351.763 239.110,351.740 240.183,351.740 242.750 M18.102 243.263 C 17.961 243.630,18.115 243.785,18.369 243.531 C 18.509 243.391,18.515 243.282,18.389 243.155 C 18.263 243.029,18.179 243.061,18.102 243.263 M380.679 245.192 C 380.285 246.901,380.311 247.362,380.717 245.880 C 381.049 244.669,381.230 243.667,381.117 243.667 C 381.069 243.667,380.872 244.353,380.679 245.192 M18.833 245.417 C 18.833 245.991,19.231 247.647,19.350 247.573 C 19.433 247.522,19.500 247.572,19.500 247.685 C 19.500 247.797,19.536 247.853,19.580 247.809 C 19.666 247.723,19.071 245.516,18.922 245.366 C 18.873 245.318,18.833 245.340,18.833 245.417 M19.787 248.935 C 19.631 249.091,19.840 249.863,20.111 250.135 C 20.380 250.403,20.379 250.421,20.115 249.536 C 19.997 249.143,19.850 248.873,19.787 248.935 M379.778 248.958 C 379.604 249.248,378.661 252.883,378.739 252.962 C 378.848 253.070,378.876 252.983,379.477 250.708 C 379.925 249.011,379.997 248.594,379.778 248.958 M351.565 255.333 C 351.565 256.571,351.592 257.077,351.624 256.458 C 351.656 255.840,351.656 254.827,351.624 254.208 C 351.592 253.590,351.565 254.096,351.565 255.333 M378.255 254.158 C 378.194 254.258,378.112 254.506,378.073 254.711 C 378.034 254.916,377.966 255.265,377.922 255.488 C 377.794 256.128,378.089 255.658,378.317 254.859 C 378.516 254.158,378.484 253.788,378.255 254.158 M21.461 255.073 C 21.409 255.347,21.491 255.631,21.690 255.860 C 21.860 256.057,22.000 256.294,22.000 256.387 C 22.000 256.480,22.032 256.524,22.071 256.484 C 22.110 256.445,22.008 256.015,21.843 255.528 C 21.582 254.757,21.533 254.699,21.461 255.073 M375.500 261.750 C 375.298 262.358,375.178 262.900,375.233 262.955 C 375.288 263.010,375.333 262.956,375.333 262.833 C 375.333 262.711,375.372 262.649,375.418 262.696 C 375.465 262.743,375.390 263.102,375.252 263.495 C 374.955 264.336,374.955 264.333,375.155 264.333 C 375.298 264.333,375.464 263.990,375.518 263.583 C 375.530 263.492,375.602 263.253,375.678 263.053 C 375.766 262.822,375.750 262.667,375.636 262.629 C 375.512 262.587,375.538 262.283,375.720 261.665 C 376.098 260.375,375.937 260.437,375.500 261.750 M374.833 263.524 C 374.833 263.568,374.649 264.074,374.423 264.650 C 374.159 265.323,374.097 265.627,374.247 265.502 C 374.524 265.273,375.079 263.690,374.934 263.545 C 374.878 263.490,374.833 263.480,374.833 263.524 M25.000 265.298 C 25.000 265.727,25.299 266.444,25.702 266.981 C 26.093 267.503,26.080 267.423,25.567 266.154 C 25.065 264.915,25.000 264.817,25.000 265.298 M373.658 266.440 C 373.566 266.682,373.522 266.910,373.559 266.948 C 373.597 266.986,373.708 266.788,373.805 266.509 C 374.022 265.887,373.891 265.826,373.658 266.440 M351.401 270.250 C 351.401 271.717,351.427 272.294,351.457 271.534 C 351.488 270.773,351.488 269.573,351.457 268.867 C 351.426 268.161,351.401 268.783,351.401 270.250 M26.844 269.694 C 26.833 269.990,27.876 272.528,28.238 273.086 C 28.358 273.270,28.507 273.645,28.570 273.919 C 28.632 274.193,28.861 274.547,29.079 274.706 C 29.409 274.948,29.304 274.634,28.437 272.790 C 27.867 271.576,27.278 270.321,27.127 270.000 C 26.977 269.679,26.850 269.541,26.844 269.694 M371.601 273.097 C 371.539 273.260,371.576 273.336,371.698 273.295 C 371.947 273.212,372.084 272.833,371.865 272.833 C 371.776 272.833,371.657 272.952,371.601 273.097 M340.333 276.250 C 340.223 276.583,340.171 276.893,340.217 276.939 C 340.263 276.985,340.390 276.750,340.500 276.417 C 340.610 276.084,340.662 275.773,340.617 275.728 C 340.571 275.682,340.443 275.917,340.333 276.250 M368.839 277.986 C 368.726 278.259,368.668 278.581,368.710 278.700 C 368.752 278.819,368.870 278.621,368.972 278.259 C 369.198 277.461,369.121 277.304,368.839 277.986 M339.902 280.750 C 339.901 282.308,339.926 282.968,339.957 282.217 C 339.988 281.465,339.988 280.190,339.958 279.383 C 339.927 278.577,339.902 279.192,339.902 280.750 M32.167 280.702 C 32.167 280.843,32.291 281.062,32.444 281.188 C 32.698 281.397,32.703 281.381,32.505 281.000 C 32.214 280.441,32.167 280.399,32.167 280.702 M33.000 282.287 C 33.000 282.384,33.154 282.640,33.343 282.857 L 33.686 283.250 33.394 282.750 C 33.008 282.092,33.000 282.082,33.000 282.287 M351.236 286.667 C 351.236 288.454,351.261 289.185,351.291 288.292 C 351.321 287.398,351.321 285.935,351.291 285.042 C 351.261 284.148,351.236 284.879,351.236 286.667 M34.729 285.403 C 34.798 285.595,34.760 285.776,34.633 285.854 C 34.494 285.940,34.544 285.976,34.781 285.958 C 35.088 285.935,35.115 285.881,34.965 285.590 C 34.721 285.121,34.589 285.016,34.729 285.403 M35.197 286.250 C 35.315 286.607,36.177 288.167,36.256 288.167 C 36.301 288.167,36.153 287.810,35.926 287.375 C 35.515 286.586,35.092 285.933,35.197 286.250 M36.923 289.417 C 37.685 290.849,39.520 293.667,39.692 293.667 C 39.761 293.667,39.533 293.235,39.184 292.708 C 38.836 292.181,38.120 291.037,37.594 290.167 C 36.415 288.216,36.094 287.857,36.923 289.417 M339.714 298.917 L 339.727 309.583 339.885 299.448 C 339.992 292.563,339.987 289.142,339.871 288.781 C 339.751 288.408,339.705 291.419,339.714 298.917 M362.472 288.824 C 362.280 289.162,362.260 289.287,362.408 289.230 C 362.646 289.139,363.063 288.333,362.871 288.334 C 362.805 288.335,362.625 288.555,362.472 288.824 M360.539 292.376 C 359.814 293.573,359.852 293.798,360.594 292.697 C 360.921 292.212,361.164 291.741,361.133 291.650 C 361.103 291.560,360.836 291.887,360.539 292.376 M358.897 294.039 C 358.198 295.064,358.075 295.320,358.553 294.750 C 359.010 294.206,359.562 293.333,359.448 293.333 C 359.409 293.333,359.161 293.651,358.897 294.039 M41.241 296.114 C 41.382 296.407,41.581 296.697,41.682 296.760 C 41.906 296.898,41.665 296.423,41.254 295.917 C 41.003 295.607,41.002 295.621,41.241 296.114 M42.430 297.917 C 43.907 300.352,46.465 303.918,46.950 304.217 C 47.069 304.290,47.167 304.433,47.167 304.535 C 47.167 304.797,49.471 307.833,49.670 307.833 C 49.760 307.833,49.837 307.927,49.842 308.042 C 49.847 308.156,50.264 308.737,50.770 309.333 C 51.775 310.519,54.632 314.061,55.726 315.477 C 56.106 315.969,56.859 316.906,57.399 317.561 C 57.939 318.215,58.568 319.031,58.796 319.375 C 59.024 319.719,59.315 320.000,59.443 320.000 C 59.571 320.000,59.742 320.177,59.825 320.394 C 59.953 320.732,60.303 321.000,60.617 321.000 C 60.667 321.000,60.300 320.531,59.801 319.958 C 59.303 319.385,57.969 317.760,56.836 316.346 C 55.703 314.933,54.658 313.655,54.513 313.508 C 54.368 313.360,54.029 312.941,53.758 312.578 C 53.487 312.214,52.430 310.867,51.409 309.583 C 49.487 307.169,45.666 302.142,43.870 299.667 C 43.305 298.887,42.682 298.063,42.485 297.833 L 42.127 297.417 42.430 297.917 M351.066 301.417 C 351.066 302.700,351.092 303.203,351.124 302.534 C 351.156 301.866,351.155 300.816,351.123 300.201 C 351.091 299.586,351.065 300.133,351.066 301.417 M350.333 306.250 C 350.218 306.389,350.200 306.500,350.293 306.500 C 350.384 306.500,350.553 306.387,350.667 306.250 C 350.782 306.111,350.800 306.000,350.707 306.000 C 350.616 306.000,350.447 306.112,350.333 306.250 M133.083 313.189 C 123.032 313.793,117.702 315.175,109.800 319.228 C 105.058 321.661,104.839 321.777,104.521 322.056 C 104.372 322.187,104.063 322.349,103.833 322.416 C 103.604 322.483,103.267 322.669,103.083 322.828 C 102.900 322.987,102.150 323.442,101.417 323.840 C 100.683 324.237,98.890 325.267,97.432 326.128 C 91.318 329.737,87.008 331.447,81.195 332.567 C 76.729 333.428,75.187 333.266,71.111 331.513 C 69.439 330.794,69.268 331.104,70.645 332.358 C 71.184 332.849,72.223 334.000,72.956 334.917 C 74.296 336.593,74.944 337.276,75.142 337.220 C 75.202 337.203,75.625 337.547,76.083 337.983 C 76.542 338.419,77.254 339.033,77.667 339.348 C 78.079 339.662,78.642 340.117,78.917 340.358 C 80.105 341.399,81.599 342.619,82.232 343.065 C 82.607 343.330,82.990 343.641,83.082 343.755 C 83.309 344.035,89.278 348.485,90.027 348.931 C 90.194 349.031,90.463 349.228,90.624 349.368 C 90.785 349.509,91.667 350.134,92.583 350.758 C 93.500 351.381,94.275 351.953,94.306 352.029 C 94.336 352.105,94.430 352.167,94.514 352.167 C 94.599 352.167,95.436 352.679,96.375 353.305 C 98.463 354.696,101.821 356.833,101.918 356.833 C 101.958 356.833,102.511 357.171,103.149 357.583 C 103.787 357.996,104.346 358.333,104.391 358.333 C 104.437 358.333,105.136 358.717,105.945 359.187 C 106.755 359.656,107.867 360.282,108.417 360.579 C 108.967 360.875,109.754 361.306,110.167 361.538 C 110.579 361.769,111.629 362.330,112.500 362.785 C 113.371 363.239,114.233 363.695,114.417 363.798 C 114.875 364.057,120.658 366.833,120.737 366.833 C 120.772 366.833,121.427 367.127,122.192 367.486 C 122.957 367.845,124.071 368.335,124.667 368.577 C 125.263 368.818,125.900 369.081,126.083 369.162 C 126.421 369.312,128.238 370.065,129.000 370.371 C 129.229 370.464,129.547 370.605,129.706 370.686 C 129.865 370.767,130.075 370.833,130.172 370.833 C 130.270 370.833,130.660 370.983,131.039 371.167 C 131.419 371.350,131.813 371.500,131.915 371.500 C 132.018 371.500,132.472 371.679,132.926 371.898 C 133.379 372.116,133.900 372.336,134.083 372.385 C 134.267 372.435,135.392 372.821,136.583 373.242 C 139.128 374.143,140.616 374.640,142.333 375.161 C 143.021 375.369,143.733 375.599,143.917 375.672 C 144.322 375.834,145.676 376.247,146.583 376.486 C 146.950 376.583,147.731 376.813,148.319 376.998 C 148.907 377.182,149.559 377.333,149.768 377.333 C 149.976 377.333,150.193 377.408,150.250 377.500 C 150.307 377.592,150.502 377.667,150.683 377.667 C 150.865 377.667,151.479 377.806,152.048 377.976 C 152.618 378.147,153.646 378.412,154.333 378.566 C 155.588 378.847,156.163 378.986,157.436 379.320 C 157.813 379.419,158.353 379.500,158.635 379.500 C 158.916 379.500,159.188 379.567,159.239 379.649 C 159.290 379.731,159.613 379.839,159.957 379.888 C 160.302 379.938,160.921 380.055,161.333 380.148 C 162.283 380.362,164.594 380.827,165.250 380.936 C 165.525 380.982,166.425 381.134,167.250 381.275 C 170.522 381.834,171.328 381.955,174.167 382.314 C 174.854 382.400,175.529 382.515,175.667 382.568 C 175.804 382.622,177.117 382.775,178.583 382.909 C 180.050 383.043,182.037 383.270,183.000 383.413 C 184.535 383.640,188.254 384.042,190.750 384.249 C 191.208 384.287,191.818 384.366,192.105 384.426 C 192.392 384.485,192.666 384.470,192.714 384.392 C 192.762 384.314,194.215 384.313,195.942 384.390 C 203.302 384.718,206.433 384.558,213.333 383.501 C 214.479 383.325,216.092 383.101,216.917 383.003 C 220.833 382.536,230.435 380.788,235.833 379.559 C 255.564 375.067,269.382 370.402,281.903 364.005 C 283.860 363.006,285.349 362.342,285.529 362.389 C 285.696 362.433,285.798 362.411,285.754 362.340 C 285.595 362.082,288.060 360.505,288.280 360.724 C 288.438 360.882,289.000 360.510,289.000 360.247 C 289.000 360.115,289.206 359.961,289.458 359.906 C 290.254 359.733,290.833 359.466,290.838 359.271 C 290.843 359.105,293.495 357.561,297.569 355.353 C 301.342 353.308,306.878 349.753,310.167 347.264 C 312.744 345.312,314.694 343.803,315.016 343.509 C 315.171 343.367,315.957 342.725,316.762 342.083 C 322.698 337.348,331.698 329.125,329.375 330.558 C 329.244 330.639,329.167 330.594,329.167 330.436 C 329.167 329.670,328.619 329.352,318.667 324.349 C 309.492 319.737,308.478 319.315,301.998 317.416 C 283.508 311.997,269.538 311.496,255.364 315.743 C 249.570 317.479,246.474 319.009,238.513 324.067 C 231.560 328.485,231.440 328.551,224.027 331.911 C 211.941 337.389,206.307 337.849,196.083 334.192 C 185.891 330.547,184.750 330.078,179.500 327.376 C 174.799 324.956,173.922 324.449,169.917 321.832 C 158.507 314.378,149.287 312.215,133.083 313.189 M339.705 317.000 C 339.705 317.321,339.740 317.452,339.782 317.292 C 339.823 317.131,339.823 316.869,339.782 316.708 C 339.740 316.548,339.705 316.679,339.705 317.000 M339.211 319.704 C 339.117 319.821,338.993 320.074,338.934 320.265 C 338.817 320.647,338.000 321.491,338.000 321.229 C 338.000 321.140,338.056 320.992,338.125 320.901 C 338.453 320.465,336.714 322.328,334.951 324.301 C 333.292 326.157,332.351 327.480,333.712 326.042 C 333.951 325.790,334.244 325.499,334.365 325.395 C 334.485 325.292,334.709 325.067,334.863 324.895 C 335.017 324.724,335.242 324.490,335.363 324.377 C 335.761 324.003,336.261 323.430,337.000 322.500 C 337.967 321.283,338.075 321.177,337.931 321.583 C 337.734 322.134,338.811 321.020,339.194 320.276 C 339.523 319.636,339.533 319.302,339.211 319.704 M332.594 326.988 C 332.429 327.171,332.356 327.401,332.426 327.515 C 332.497 327.629,332.482 327.675,332.393 327.620 C 332.181 327.489,332.014 327.615,331.238 328.485 C 330.555 329.252,330.932 329.204,331.654 328.432 C 331.876 328.194,332.161 328.000,332.288 328.000 C 332.504 328.000,333.095 326.873,332.953 326.731 C 332.917 326.694,332.755 326.810,332.594 326.988 M66.165 327.496 C 66.262 327.677,66.508 327.912,66.712 328.018 C 67.022 328.178,67.002 328.123,66.594 327.688 C 66.027 327.084,65.918 327.035,66.165 327.496 M68.000 329.385 C 68.000 329.414,68.244 329.658,68.542 329.927 L 69.083 330.417 68.594 329.875 C 68.138 329.370,68.000 329.257,68.000 329.385 M70.478 332.616 C 70.679 333.002,70.974 333.248,71.094 333.128 C 71.133 333.089,70.968 332.875,70.727 332.653 C 70.309 332.269,70.297 332.267,70.478 332.616 M75.126 337.417 C 75.329 337.792,75.966 338.500,76.101 338.500 C 76.231 338.500,75.562 337.592,75.230 337.319 C 74.973 337.106,74.963 337.115,75.126 337.417 M248.167 374.833 C 248.029 374.922,247.767 374.989,247.583 374.981 C 247.309 374.969,247.323 374.943,247.667 374.833 C 248.256 374.645,248.459 374.645,248.167 374.833 " stroke="none" fill="#8cd3fb" fill-rule="evenodd"></path><path id="path3" d="M203.144 12.828 C 202.902 12.901,202.040 12.937,201.227 12.908 C 199.666 12.853,197.295 13.136,197.435 13.362 C 197.480 13.436,197.405 13.453,197.268 13.400 C 197.130 13.348,196.095 13.457,194.967 13.643 C 191.807 14.166,180.092 15.823,179.366 15.850 C 178.122 15.898,180.255 16.149,181.917 16.151 C 183.430 16.152,188.785 15.542,189.833 15.248 C 189.971 15.210,191.096 15.062,192.333 14.920 C 193.571 14.778,196.070 14.357,197.888 13.984 L 201.193 13.307 203.305 13.899 C 204.466 14.225,206.054 14.609,206.833 14.754 C 207.612 14.899,209.525 15.278,211.083 15.595 C 213.865 16.163,215.317 16.273,217.000 16.047 L 217.750 15.946 216.417 15.675 C 215.477 15.484,215.012 15.455,214.843 15.577 C 214.672 15.700,214.635 15.697,214.714 15.564 C 214.828 15.373,213.623 15.077,209.667 14.325 C 208.097 14.027,204.952 13.198,203.833 12.787 C 203.696 12.737,203.386 12.755,203.144 12.828 M204.208 16.956 C 204.644 16.990,205.356 16.990,205.792 16.956 C 206.227 16.922,205.871 16.893,205.000 16.893 C 204.129 16.893,203.773 16.922,204.208 16.956 M286.738 38.327 C 286.137 39.018,285.152 40.634,284.753 41.583 C 284.058 43.237,283.323 45.447,283.102 46.548 C 282.969 47.209,282.700 48.538,282.504 49.500 C 281.973 52.105,281.845 54.133,281.663 62.750 C 281.408 74.848,281.302 78.060,281.148 78.359 C 281.037 78.574,281.249 78.832,282.128 79.553 C 282.745 80.058,283.475 80.725,283.750 81.034 C 284.025 81.343,285.067 82.456,286.066 83.506 C 287.064 84.557,288.375 85.997,288.979 86.706 C 290.304 88.262,290.304 88.262,290.150 85.083 C 289.888 79.694,290.082 72.821,290.533 71.561 L 290.720 71.038 291.601 71.991 C 292.518 72.980,293.217 73.799,311.178 94.917 C 317.181 101.975,326.582 113.028,332.069 119.479 L 342.046 131.209 341.936 142.479 C 341.747 161.668,341.660 167.288,341.496 171.000 C 341.408 172.971,341.332 175.558,341.326 176.750 L 341.315 178.917 340.949 178.431 C 336.866 173.005,329.678 164.674,320.013 154.167 C 315.074 148.797,311.766 145.235,310.178 143.579 C 309.209 142.568,307.950 141.221,307.380 140.587 C 306.810 139.953,306.306 139.472,306.260 139.518 C 306.214 139.564,306.169 141.698,306.161 144.259 C 306.150 147.548,306.051 149.868,305.822 152.155 C 305.506 155.317,305.506 155.402,305.810 155.739 C 305.981 155.928,311.171 161.633,317.343 168.417 C 343.625 197.302,340.885 193.962,341.185 197.476 C 341.278 198.567,341.331 201.425,341.302 203.826 L 341.250 208.192 341.691 208.280 C 342.152 208.372,342.780 210.072,344.481 215.833 C 345.318 218.667,346.441 226.250,346.825 231.667 C 347.379 239.480,346.588 252.900,345.165 259.807 C 344.894 261.122,344.364 263.260,343.987 264.557 C 343.611 265.855,342.978 268.117,342.581 269.583 C 342.184 271.050,341.624 272.887,341.336 273.667 C 341.047 274.446,340.744 275.403,340.660 275.794 C 340.577 276.185,340.441 276.635,340.357 276.794 C 340.018 277.441,339.970 279.033,339.911 291.785 C 339.877 299.099,339.807 308.104,339.754 311.796 L 339.659 318.508 340.038 318.296 C 340.246 318.179,340.548 317.978,340.708 317.849 C 340.880 317.712,341.000 317.688,341.000 317.793 C 341.000 318.041,341.549 317.936,341.638 317.671 C 341.687 317.524,341.636 317.499,341.482 317.594 C 341.028 317.875,342.563 315.964,343.537 315.036 C 344.801 313.831,346.516 311.699,348.492 308.875 C 349.342 307.660,350.108 306.667,350.195 306.667 C 350.282 306.667,350.310 306.597,350.257 306.511 C 350.204 306.426,350.300 306.257,350.470 306.136 C 351.027 305.741,351.037 305.450,351.251 283.917 C 351.301 278.875,351.415 268.337,351.504 260.500 C 351.693 243.857,351.904 223.601,352.250 189.083 C 352.915 122.760,352.783 127.418,354.329 116.083 C 355.018 111.034,356.672 106.864,358.928 104.491 C 359.430 103.963,359.436 103.758,358.958 103.423 C 358.752 103.278,358.612 103.118,358.647 103.066 C 358.729 102.944,355.398 97.853,354.074 96.077 C 353.511 95.322,352.880 94.429,352.673 94.093 C 352.199 93.327,352.193 93.332,350.143 96.052 C 346.925 100.321,345.299 105.110,344.334 113.157 C 343.846 117.228,343.914 117.110,342.913 115.642 C 335.729 105.116,311.298 76.746,298.083 63.583 C 295.598 61.108,293.323 58.729,293.027 58.295 L 292.489 57.507 292.661 55.078 C 292.972 50.708,293.843 47.349,295.466 44.267 L 296.274 42.731 295.429 42.243 C 294.964 41.974,294.171 41.523,293.667 41.240 C 293.162 40.957,292.394 40.525,291.958 40.279 C 290.268 39.327,289.707 39.021,288.500 38.390 L 287.250 37.737 286.738 38.327 M387.772 166.542 C 387.514 167.502,387.695 170.227,388.242 173.651 C 389.919 184.133,390.374 188.051,390.354 191.833 C 390.300 201.828,389.691 211.318,388.558 219.833 C 388.332 221.529,388.039 223.545,387.907 224.313 C 387.640 225.866,387.584 228.333,387.816 228.333 C 387.984 228.333,388.400 226.178,388.260 226.037 C 388.210 225.988,388.236 225.865,388.317 225.765 C 388.398 225.665,388.697 223.933,388.982 221.917 C 389.267 219.900,389.576 217.725,389.669 217.083 C 389.762 216.442,389.914 214.942,390.007 213.750 C 390.101 212.558,390.252 210.920,390.342 210.110 C 390.433 209.300,390.544 207.772,390.589 206.714 C 390.635 205.657,390.707 204.736,390.750 204.667 C 390.977 204.300,391.130 195.790,390.957 193.167 C 390.887 192.112,390.719 189.262,390.583 186.833 C 390.447 184.404,390.260 181.967,390.169 181.417 C 390.077 180.867,390.001 180.393,390.001 180.365 C 390.000 180.337,389.925 180.360,389.833 180.417 C 389.742 180.473,389.667 180.446,389.667 180.357 C 389.667 180.268,389.752 180.166,389.857 180.131 C 390.155 180.032,389.555 176.168,389.195 175.871 C 389.042 175.745,389.010 175.689,389.125 175.747 C 389.406 175.890,388.804 170.944,388.506 170.667 C 388.457 170.621,388.394 170.173,388.366 169.671 C 388.339 169.170,388.264 168.720,388.200 168.671 C 388.086 168.586,388.011 167.803,388.011 166.708 C 388.010 166.077,387.914 166.010,387.772 166.542 M12.543 171.333 C 12.434 171.838,12.191 173.000,12.003 173.917 C 11.815 174.833,11.504 176.238,11.312 177.039 C 11.120 177.839,11.007 178.612,11.063 178.756 C 11.118 178.900,11.101 178.979,11.026 178.932 C 10.860 178.830,10.447 180.946,10.588 181.174 C 10.642 181.262,10.619 181.333,10.537 181.333 C 10.218 181.333,9.950 183.644,10.175 184.447 C 10.443 185.403,10.556 185.198,10.906 183.130 C 11.057 182.239,11.251 181.302,11.337 181.047 C 11.423 180.792,11.604 179.946,11.739 179.167 C 11.874 178.387,12.172 177.000,12.400 176.083 C 12.975 173.782,13.030 173.279,12.877 171.750 L 12.743 170.417 12.543 171.333 M285.583 194.635 C 283.842 196.354,281.879 198.192,281.223 198.720 C 279.313 200.257,279.445 199.750,279.311 206.083 C 279.074 217.379,279.175 223.355,279.610 223.637 C 279.705 223.699,279.816 223.853,279.857 223.978 C 280.041 224.553,288.167 227.515,288.167 227.007 C 288.167 226.830,288.231 226.647,288.309 226.598 C 288.591 226.424,288.871 221.215,288.976 214.196 L 289.083 207.055 292.354 210.902 C 294.153 213.019,298.489 218.125,301.990 222.250 C 310.657 232.462,309.805 231.756,312.144 230.663 C 312.727 230.390,313.266 230.167,313.342 230.167 C 313.501 230.167,317.542 227.832,317.667 227.668 C 317.833 227.448,319.831 226.159,320.255 225.998 L 320.690 225.833 320.334 225.380 C 320.139 225.131,319.252 224.175,318.364 223.256 C 317.477 222.336,315.144 219.746,313.181 217.500 C 307.652 211.175,304.768 207.954,300.351 203.168 C 296.812 199.334,289.146 191.500,288.939 191.505 C 288.835 191.507,287.325 192.916,285.583 194.635 M9.293 217.167 C 9.028 219.133,9.089 219.426,9.875 219.950 C 10.635 220.457,10.933 221.121,11.340 223.221 C 11.517 224.129,11.548 224.175,11.819 223.929 C 11.979 223.785,12.268 223.667,12.462 223.667 C 12.817 223.667,13.112 223.390,12.940 223.218 C 12.837 223.115,12.213 223.099,11.847 223.191 C 11.682 223.232,11.550 222.976,11.405 222.333 C 10.981 220.447,10.357 219.333,9.725 219.333 C 9.572 219.333,9.499 218.905,9.465 217.792 C 9.419 216.318,9.411 216.291,9.293 217.167 M17.500 241.335 C 17.500 241.444,17.624 241.956,17.776 242.474 C 18.070 243.479,18.290 243.397,18.067 242.366 C 17.993 242.027,17.929 241.644,17.924 241.514 C 17.913 241.229,17.500 241.055,17.500 241.335 M18.167 243.772 C 18.167 243.830,18.252 244.164,18.357 244.514 C 18.573 245.233,18.996 245.552,18.871 244.901 C 18.829 244.681,18.724 244.500,18.637 244.500 C 18.551 244.500,18.522 244.432,18.574 244.348 C 18.694 244.153,18.510 243.667,18.316 243.667 C 18.234 243.667,18.167 243.714,18.167 243.772 M19.400 248.069 C 19.448 248.428,19.574 248.803,19.678 248.902 C 19.820 249.037,19.838 248.935,19.748 248.500 C 19.566 247.614,19.292 247.276,19.400 248.069 M20.000 250.125 C 20.000 250.272,21.126 254.394,21.332 255.000 L 21.474 255.417 21.487 254.967 C 21.494 254.720,21.319 253.932,21.098 253.217 C 20.877 252.502,20.575 251.485,20.427 250.958 C 20.190 250.117,20.000 249.746,20.000 250.125 M396.169 254.847 C 396.171 254.977,396.246 255.196,396.336 255.333 C 396.467 255.532,396.490 255.507,396.449 255.213 C 396.390 254.786,396.165 254.494,396.169 254.847 M21.692 256.458 C 21.783 256.802,21.995 257.496,22.163 258.000 C 22.332 258.504,22.667 259.554,22.907 260.333 C 23.148 261.112,23.410 261.900,23.490 262.083 C 23.569 262.267,23.795 262.829,23.993 263.333 C 24.476 264.569,24.984 265.486,24.993 265.136 C 24.997 264.982,24.768 264.232,24.485 263.470 C 24.201 262.707,23.598 260.996,23.144 259.667 C 21.948 256.164,21.821 255.833,21.666 255.833 C 21.590 255.833,21.601 256.115,21.692 256.458 M25.655 267.208 C 26.213 268.631,26.822 269.862,26.827 269.579 C 26.833 269.238,25.753 266.833,25.594 266.833 C 25.547 266.833,25.574 267.002,25.655 267.208 M28.833 274.565 C 28.833 274.630,29.214 275.485,29.680 276.466 C 30.146 277.447,30.738 278.775,30.997 279.417 C 31.617 280.953,34.767 286.390,34.385 285.264 C 34.306 285.033,34.335 284.981,34.488 285.076 C 34.656 285.180,34.660 285.132,34.508 284.849 C 34.401 284.649,34.234 284.542,34.130 284.606 C 34.009 284.681,33.980 284.625,34.049 284.446 C 34.110 284.287,34.078 284.187,33.973 284.210 C 33.873 284.232,33.754 284.146,33.708 284.018 C 33.653 283.869,33.695 283.831,33.825 283.912 C 33.950 283.989,33.925 283.839,33.760 283.520 C 33.613 283.235,33.401 283.021,33.288 283.043 C 33.175 283.065,33.094 282.953,33.106 282.793 C 33.119 282.634,33.075 282.537,33.009 282.578 C 32.943 282.619,32.889 282.431,32.889 282.161 C 32.889 281.632,32.391 280.945,32.127 281.108 C 32.030 281.168,32.008 281.071,32.073 280.866 C 32.166 280.572,31.429 278.895,30.519 277.333 C 30.439 277.196,30.162 276.613,29.905 276.038 C 29.498 275.133,28.833 274.219,28.833 274.565 M32.832 282.250 C 32.832 282.342,32.682 282.171,32.499 281.871 C 32.068 281.163,32.068 280.932,32.500 281.583 C 32.682 281.858,32.831 282.158,32.832 282.250 M350.014 308.482 C 349.731 308.839,349.503 309.233,349.507 309.357 C 349.516 309.646,350.667 308.354,350.667 308.056 C 350.667 307.716,350.571 307.779,350.014 308.482 M59.167 320.083 C 59.167 320.168,62.871 324.339,64.421 326.000 C 67.196 328.972,68.415 330.241,69.029 330.794 C 70.231 331.877,69.647 331.073,67.878 329.211 C 66.941 328.224,65.335 326.442,64.311 325.250 C 63.287 324.058,62.236 322.881,61.975 322.634 C 61.714 322.387,61.500 322.111,61.500 322.021 C 61.500 321.930,61.354 321.809,61.175 321.753 C 60.997 321.696,60.805 321.507,60.750 321.333 C 60.695 321.159,60.499 320.969,60.315 320.911 C 60.131 320.853,59.912 320.624,59.828 320.402 C 59.701 320.068,59.167 319.810,59.167 320.083 M309.417 349.559 C 308.958 349.773,308.133 350.159,307.583 350.416 C 307.033 350.673,305.355 351.470,303.855 352.189 C 302.354 352.907,301.042 353.446,300.938 353.387 C 300.835 353.328,300.805 353.341,300.872 353.415 C 300.940 353.490,300.827 353.640,300.622 353.748 C 300.418 353.857,299.450 354.366,298.472 354.879 C 294.779 356.817,290.743 359.131,290.857 359.246 C 290.900 359.289,291.869 358.793,293.010 358.144 C 295.456 356.751,301.820 353.446,304.420 352.220 C 309.092 350.015,309.771 349.681,310.083 349.438 C 310.545 349.077,310.387 349.106,309.417 349.559 M289.171 359.993 C 288.734 360.270,289.123 360.367,289.610 360.103 C 290.000 359.892,290.025 359.846,289.750 359.843 C 289.567 359.840,289.306 359.908,289.171 359.993 M287.150 361.213 C 286.636 361.509,286.085 361.860,285.924 361.993 C 285.595 362.267,285.361 362.411,284.314 362.982 C 283.912 363.202,283.358 363.547,283.083 363.749 C 282.808 363.952,282.471 364.168,282.333 364.229 C 282.196 364.290,281.408 364.787,280.583 365.333 C 279.758 365.878,278.726 366.533,278.288 366.787 C 276.730 367.695,273.763 369.667,273.956 369.667 C 274.191 369.667,275.921 368.626,280.333 365.832 C 284.638 363.107,285.351 362.662,286.873 361.749 C 288.704 360.651,288.947 360.180,287.150 361.213 M246.083 378.839 C 245.442 379.011,245.198 379.118,245.542 379.076 C 246.784 378.925,247.333 378.794,247.333 378.648 C 247.333 378.567,247.315 378.506,247.292 378.514 C 247.269 378.521,246.725 378.668,246.083 378.839 M242.000 379.684 C 238.936 380.408,236.773 381.020,237.667 380.910 C 238.079 380.859,239.054 380.666,239.833 380.482 C 243.164 379.693,244.754 379.294,244.819 379.233 C 245.002 379.059,243.892 379.237,242.000 379.684 M153.250 385.008 C 153.526 385.100,157.258 385.246,161.583 385.334 C 177.136 385.648,187.351 386.234,190.750 387.007 C 191.636 387.208,196.103 387.200,198.500 386.993 C 201.899 386.699,202.227 386.667,203.750 386.485 C 204.575 386.387,205.550 386.272,205.917 386.231 C 207.761 386.025,212.154 385.442,214.000 385.159 L 216.083 384.839 214.000 384.911 C 212.854 384.951,210.229 385.176,208.167 385.411 C 206.104 385.646,202.804 386.022,200.833 386.246 C 194.245 386.995,192.596 387.083,190.906 386.773 C 188.549 386.342,185.842 386.018,183.110 385.839 C 175.194 385.323,174.346 385.295,160.583 385.083 C 157.192 385.031,154.042 384.955,153.583 384.914 C 152.858 384.850,152.815 384.862,153.250 385.008 " stroke="none" fill="#fbfafb" fill-rule="evenodd"></path><path id="path4" d="M195.923 53.364 C 194.827 53.446,192.188 53.848,190.058 54.257 C 187.929 54.665,185.175 55.148,183.938 55.330 C 177.037 56.344,166.003 59.933,157.615 63.891 C 145.420 69.645,130.838 82.743,121.426 96.397 C 121.054 96.936,120.581 97.611,120.375 97.897 C 120.169 98.183,119.832 98.652,119.625 98.939 C 119.179 99.560,117.319 102.350,116.434 103.726 C 112.156 110.378,109.322 118.153,106.825 130.083 C 106.382 132.202,105.169 135.934,104.333 137.750 C 104.164 138.117,103.836 138.829,103.604 139.333 C 101.998 142.819,97.455 148.830,95.333 150.277 C 95.013 150.496,94.450 150.897,94.083 151.168 C 92.218 152.549,88.676 154.243,86.775 154.663 C 86.330 154.762,85.767 154.944,85.525 155.068 C 84.047 155.825,77.840 156.931,75.333 156.886 C 73.784 156.858,73.126 156.773,70.417 156.254 C 69.683 156.114,68.258 155.890,67.250 155.757 C 66.242 155.625,64.479 155.363,63.333 155.175 C 58.420 154.370,55.316 155.635,54.389 158.819 C 53.926 160.410,54.324 167.348,54.932 168.291 C 55.065 168.497,55.367 169.209,55.603 169.874 C 56.764 173.141,58.294 174.759,63.101 177.804 C 66.855 180.182,71.872 182.857,74.250 183.748 C 77.811 185.083,81.013 186.008,83.167 186.325 C 83.854 186.426,84.792 186.612,85.250 186.738 C 86.467 187.073,87.407 187.149,92.611 187.335 C 95.192 187.426,98.260 187.579,99.428 187.674 C 100.939 187.797,101.804 187.794,102.429 187.664 C 103.124 187.520,103.590 187.536,104.671 187.741 C 105.422 187.883,106.422 188.004,106.893 188.010 C 107.365 188.015,108.275 188.166,108.917 188.345 C 109.558 188.525,110.458 188.770,110.917 188.889 C 111.984 189.168,113.903 189.908,117.250 191.333 C 118.717 191.958,120.554 192.711,121.333 193.006 C 122.112 193.302,122.862 193.637,123.000 193.752 C 123.489 194.158,124.324 194.500,124.830 194.500 C 126.339 194.500,131.609 198.259,135.335 201.994 C 136.938 203.601,137.530 204.271,139.283 206.457 C 140.755 208.294,140.926 208.534,141.244 209.208 C 141.406 209.552,141.599 209.833,141.674 209.833 C 141.749 209.833,141.864 210.001,141.929 210.206 C 141.994 210.411,142.453 211.157,142.949 211.865 C 146.072 216.321,145.489 218.151,139.250 223.483 C 138.829 223.843,136.871 225.166,135.155 226.250 C 134.430 226.708,132.692 227.883,131.293 228.860 C 128.082 231.103,124.481 233.403,122.286 234.614 C 121.349 235.131,120.396 235.697,120.167 235.872 C 119.938 236.047,118.737 236.811,117.500 237.569 C 108.986 242.785,106.939 244.352,100.138 250.860 C 98.170 252.743,92.093 261.093,89.361 265.667 C 88.677 266.813,87.916 268.050,87.672 268.417 C 82.784 275.736,78.831 290.527,79.408 299.333 C 79.465 300.204,79.548 301.591,79.591 302.416 C 79.942 309.045,83.079 317.533,86.970 322.385 C 88.320 324.068,91.762 327.667,92.021 327.667 C 92.094 327.667,92.346 327.873,92.581 328.125 L 93.009 328.583 94.379 327.868 C 97.408 326.288,97.713 325.996,96.754 325.596 C 94.463 324.638,89.767 317.658,87.607 312.000 C 86.029 307.867,85.785 306.206,85.783 299.583 C 85.780 291.308,86.144 288.871,88.607 280.667 C 91.106 272.346,94.483 266.422,102.045 257.098 C 107.107 250.856,117.063 243.910,128.750 238.467 C 132.022 236.943,133.705 236.038,137.833 233.581 C 139.712 232.463,141.962 231.152,142.833 230.667 C 144.653 229.653,147.380 227.633,147.134 227.480 C 147.043 227.424,147.167 227.327,147.411 227.266 C 149.059 226.853,153.283 221.419,153.764 219.094 C 154.764 214.256,153.428 211.763,145.671 203.990 C 138.118 196.421,132.260 192.140,124.583 188.580 C 123.667 188.154,122.459 187.588,121.900 187.320 C 121.340 187.052,120.740 186.830,120.566 186.825 C 120.392 186.821,120.700 186.586,121.250 186.304 C 126.529 183.591,127.622 176.587,123.462 172.123 L 122.566 171.162 124.205 169.724 C 131.470 163.350,133.379 159.481,133.402 151.083 C 133.415 146.174,133.283 145.486,131.833 142.883 C 130.884 141.180,127.086 137.156,125.833 136.527 C 125.329 136.273,124.385 135.755,123.734 135.374 C 121.401 134.009,119.151 133.392,115.884 133.222 L 113.851 133.117 113.799 132.683 C 113.771 132.445,113.881 131.725,114.045 131.083 C 114.209 130.442,114.530 128.907,114.759 127.673 C 114.988 126.439,115.319 124.827,115.494 124.090 C 115.670 123.353,116.046 121.775,116.330 120.583 C 117.652 115.045,119.989 109.821,124.044 103.333 C 127.789 97.342,128.046 96.974,131.833 92.155 C 132.246 91.630,133.193 90.424,133.937 89.475 C 139.009 83.012,150.002 73.294,155.332 70.561 C 156.202 70.115,156.967 69.676,157.033 69.585 C 157.099 69.494,157.526 69.232,157.982 69.002 C 161.412 67.271,162.765 66.634,164.000 66.169 C 164.779 65.875,165.754 65.492,166.167 65.318 C 167.427 64.788,168.861 64.372,178.250 61.813 C 189.054 58.868,193.413 58.196,201.917 58.160 C 214.679 58.108,235.702 62.612,248.250 68.087 C 263.751 74.851,275.498 83.877,283.968 95.533 C 284.454 96.202,285.167 97.178,285.551 97.701 C 287.528 100.391,290.488 106.113,292.386 110.917 C 294.068 115.175,296.216 123.232,296.584 126.667 C 296.648 127.263,296.879 128.710,297.097 129.883 C 299.143 140.865,298.920 152.755,296.500 161.684 C 293.105 174.217,282.611 190.973,274.194 197.303 C 271.857 199.060,269.279 200.781,268.042 201.409 C 267.377 201.747,266.833 202.086,266.833 202.163 C 266.833 202.345,261.921 205.173,248.667 212.623 C 248.254 212.855,247.224 213.454,246.378 213.954 C 245.531 214.454,243.887 215.268,242.725 215.764 C 241.562 216.260,240.492 216.765,240.347 216.887 C 240.202 217.010,239.651 217.316,239.124 217.568 C 238.088 218.062,236.413 219.302,236.569 219.458 C 236.622 219.510,236.517 219.657,236.337 219.783 C 235.598 220.301,235.293 222.575,235.754 224.129 C 236.452 226.478,237.090 226.591,245.833 225.921 C 247.621 225.784,249.683 225.579,250.417 225.464 C 251.918 225.230,257.106 225.185,260.500 225.378 C 263.373 225.540,265.734 226.019,270.909 227.487 C 275.160 228.693,275.939 228.890,280.583 229.930 C 282.050 230.258,284.824 231.050,286.748 231.688 C 288.671 232.327,290.434 232.879,290.664 232.915 C 290.895 232.951,291.721 233.215,292.500 233.501 C 294.754 234.329,298.344 235.056,303.667 235.761 C 309.023 236.471,315.395 235.399,319.500 233.098 C 320.096 232.764,321.333 232.108,322.250 231.640 C 323.167 231.172,324.329 230.524,324.833 230.199 C 325.337 229.874,326.537 229.125,327.500 228.534 C 331.246 226.234,333.291 224.295,335.414 221.029 C 336.670 219.097,336.752 219.008,336.863 219.449 C 337.668 222.653,337.465 238.167,336.483 248.417 C 335.707 256.513,333.898 265.960,331.825 272.750 C 331.545 273.667,331.173 274.904,331.000 275.500 C 330.547 277.054,329.048 281.450,328.670 282.333 C 328.493 282.746,328.049 283.833,327.684 284.750 C 326.224 288.412,323.369 294.652,321.356 298.583 C 319.009 303.168,316.360 307.093,313.481 310.250 C 312.980 310.800,312.251 311.658,311.861 312.156 C 311.167 313.043,310.453 313.722,307.033 316.750 C 306.102 317.575,305.338 318.288,305.336 318.334 C 305.335 318.380,306.177 318.705,307.208 319.055 C 308.240 319.405,309.871 320.054,310.833 320.497 L 312.583 321.301 316.843 317.026 C 322.068 311.781,322.506 311.260,326.014 306.124 C 328.151 302.994,330.913 298.332,332.506 295.167 C 333.648 292.896,336.410 286.476,337.238 284.167 C 337.704 282.865,338.272 281.555,338.863 280.417 C 339.053 280.050,339.567 278.700,340.006 277.417 C 340.445 276.133,341.041 274.446,341.332 273.667 C 341.622 272.887,342.184 271.050,342.581 269.583 C 342.978 268.117,343.611 265.855,343.987 264.557 C 345.924 257.884,346.979 248.529,346.992 237.917 C 347.001 230.590,345.850 220.466,344.481 215.833 C 342.294 208.429,342.169 208.167,340.821 208.167 C 340.311 208.167,336.800 210.303,335.945 211.134 C 333.248 213.755,330.954 216.704,329.374 219.585 C 328.949 220.359,322.141 225.180,320.417 225.928 C 319.794 226.198,317.852 227.425,317.667 227.667 C 317.510 227.870,314.262 229.720,312.838 230.417 C 308.097 232.737,304.696 232.719,297.000 230.332 C 293.157 229.140,283.517 225.701,280.000 224.267 C 273.832 221.752,265.787 220.435,254.110 220.031 L 250.817 219.917 252.867 218.836 C 253.994 218.242,255.367 217.511,255.917 217.212 C 256.467 216.913,257.217 216.517,257.583 216.331 C 260.251 214.977,269.171 209.026,272.167 206.602 C 274.229 204.932,278.635 201.094,279.917 199.850 C 280.192 199.583,280.904 198.966,281.500 198.480 C 287.703 193.415,294.927 184.435,298.487 177.362 C 300.603 173.158,305.167 159.129,305.167 156.827 C 305.167 156.464,305.223 156.166,305.292 156.166 C 305.360 156.166,305.429 155.960,305.445 155.708 C 305.461 155.456,305.624 153.843,305.808 152.122 C 306.026 150.078,306.146 147.770,306.154 145.456 C 306.161 143.509,306.210 140.529,306.264 138.833 C 306.781 122.672,303.759 109.131,297.172 98.083 C 292.660 90.516,285.731 82.322,280.167 77.973 C 268.475 68.833,258.159 63.298,247.250 60.311 C 238.240 57.844,230.247 56.066,224.167 55.177 C 223.479 55.076,222.429 54.887,221.833 54.756 C 221.237 54.625,219.662 54.390,218.333 54.235 C 217.004 54.079,215.467 53.890,214.917 53.815 C 210.506 53.210,200.986 52.984,195.923 53.364 M182.500 119.836 C 181.996 119.903,180.758 120.043,179.750 120.148 C 171.179 121.039,167.228 124.806,169.766 129.667 C 170.877 131.793,175.016 135.911,177.232 137.094 C 179.010 138.043,179.037 138.234,177.498 138.976 C 174.610 140.369,170.964 143.422,169.519 145.658 C 167.057 149.466,168.344 152.557,172.644 153.164 C 173.320 153.260,173.929 153.373,173.998 153.415 C 174.067 153.458,176.627 153.543,179.687 153.604 C 196.002 153.931,199.941 153.441,201.433 150.902 C 202.992 148.250,200.515 145.890,195.132 144.897 C 192.784 144.464,187.132 144.383,185.250 144.755 L 184.750 144.854 185.347 144.469 C 191.982 140.185,191.735 135.194,184.708 131.588 C 184.044 131.247,183.453 130.892,183.395 130.799 C 183.338 130.706,182.869 130.444,182.354 130.217 C 179.482 128.955,179.969 128.594,184.375 128.719 C 194.361 129.002,199.500 127.681,199.500 124.833 C 199.500 121.427,190.502 118.782,182.500 119.836 M117.605 185.440 C 118.319 185.744,118.124 185.925,117.258 185.762 C 116.590 185.637,116.091 185.167,116.626 185.167 C 116.809 185.167,117.250 185.290,117.605 185.440 " stroke="none" fill="#f45b25" fill-rule="evenodd"></path></g></svg>
