<svg width="800" height="800" viewBox="0 0 800 800" fill="none" xmlns="http://www.w3.org/2000/svg">
<g clip-path="url(#clip0_642_45)">
<path d="M561.607 241.069C561.607 241.069 561.576 241.126 561.551 241.157C558.376 244.955 554.887 248.478 551.122 251.689C528.772 269.713 499.399 281.416 466.854 283.474C466.709 283.474 466.595 283.474 466.444 283.474C466.299 283.488 466.152 283.488 466.007 283.474C462.847 283.651 459.794 283.74 456.666 283.74H205.735V283.854H197.132V177.094H429.392C430.341 180.248 431.972 183.154 434.171 185.605C440.263 192.438 452.797 198.954 478.516 198.841C504.14 198.72 516.092 192.324 521.566 185.605C522.695 184.237 523.64 182.728 524.379 181.115C524.79 181.026 525.232 180.969 525.643 180.906C526.054 180.843 526.61 180.76 527.084 180.703C528.487 180.526 529.865 180.349 531.211 180.235C540.819 179.209 548.372 179.146 548.372 179.146C540.155 180.703 536.426 183.287 534.694 185.605C532.646 188.423 533.645 190.886 533.645 190.886C534.315 188.86 537.273 187.131 541.577 185.605C543.278 185.016 545.18 184.459 547.266 183.933C548.29 183.667 549.377 183.401 550.489 183.167C555.995 181.938 562.322 180.938 568.706 180.114C568.753 180.103 568.803 180.103 568.851 180.114C569.736 181.932 570.495 183.75 571.196 185.63C571.55 186.624 571.898 187.625 572.194 188.651C572.397 189.24 572.574 189.823 572.751 190.412C573.13 191.88 573.484 193.35 573.775 194.813C574.456 198.112 574.896 201.456 575.09 204.819C575.374 215.858 572.093 228.39 561.607 241.069Z" fill="url(#paint0_linear_642_45)"/>
<g style="mix-blend-mode:overlay" opacity="0.5">
<path d="M434.171 185.605H205.71V283.911H197.132V177.094H429.392C430.341 180.248 431.972 183.154 434.171 185.605Z" fill="white"/>
</g>
<g style="mix-blend-mode:overlay" opacity="0.5">
<path d="M548.365 179.146C540.148 180.703 536.42 183.287 534.688 185.605H521.585C522.713 184.237 523.659 182.728 524.397 181.115V181.083L525.661 180.906C526.136 180.817 526.629 180.76 527.103 180.703C528.506 180.526 529.883 180.349 531.23 180.235C540.813 179.208 548.365 179.146 548.365 179.146Z" fill="white"/>
</g>
<g style="mix-blend-mode:overlay" opacity="0.5">
<path d="M571.181 185.605H541.569C543.269 185.016 545.172 184.459 547.257 183.933C548.281 183.667 549.369 183.401 550.48 183.167C555.986 181.938 562.313 180.937 568.697 180.114C568.745 180.102 568.795 180.102 568.842 180.114C569.721 181.913 570.479 183.724 571.181 185.605Z" fill="white"/>
</g>
<path opacity="0.1" d="M561.607 241.067C561.607 241.067 561.576 241.124 561.55 241.156C520.542 285.683 473.655 282.604 454.586 284.042L451.748 283.953L449.075 283.782C445.326 284.074 445.003 283.979 445.003 283.979L201.127 284.124L202.208 234.582C202.208 234.582 202.562 234.728 203.15 234.993C203.737 235.26 204.673 235.753 205.722 236.342C219.286 244.087 263.632 274.726 334.158 278.925C349.77 279.831 363.126 280.129 374.579 279.951H374.667C422.527 279.393 436.439 271.351 436.439 271.351C392.561 281.3 345.902 266.918 345.902 266.918C345.902 266.918 502.774 269.502 510.422 235.608C514.639 216.768 538.802 205.292 559.395 198.776C564.546 197.135 569.439 195.843 573.775 194.786C574.456 198.085 574.896 201.428 575.09 204.792C575.374 215.855 572.093 228.388 561.607 241.067Z" fill="white"/>
<path d="M566.734 120.515C566.525 120.369 566.355 120.217 566.177 120.103C553.612 111.326 539.523 105.81 524.379 102.877C522.388 102.466 521.042 101.611 521.92 98.8243C523.476 93.9479 524.776 88.9929 525.813 83.9799C526.01 82.8257 526.479 81.7356 527.183 80.8011C527.887 79.8666 528.805 79.115 529.859 78.6096C532.697 77.0834 535.13 72.53 534.599 69.7435C533.757 65.1348 531.543 60.8892 528.247 57.5652C522.587 51.8769 515.523 47.7948 507.774 45.7354C496.201 42.5689 485.02 43.7088 474.414 49.3768C469.844 51.8086 466.564 55.7097 466.677 61.3207C466.74 65.4245 470.224 68.2426 472.998 66.6276C480.551 62.2579 488.458 60.1174 497.307 60.928C503.957 61.517 509.873 63.3662 515.233 67.261C516.136 67.9386 517.167 68.7302 516.636 69.5218C516.054 70.4591 514.968 69.3445 514.266 68.9645C508.443 65.8421 501.945 64.2002 495.342 64.1831C489.647 64.0943 484.001 65.246 478.794 67.5586C476.044 68.7872 472.878 70.0222 471.765 73.6889C469.42 81.2884 449.245 139.101 446.9 146.847C446.394 148.519 446.223 150.254 448.98 149.785C451.584 149.342 469.395 145.733 487.788 153.585C488.522 153.896 489.628 154.56 489.571 155.434C483.832 155.903 423.621 143.636 436.193 180.544C436.547 181.589 438.588 181.672 438.493 180.025C438.14 173.693 448.992 163.515 475.488 169.722C450.92 166.713 417.85 185.712 471.335 192.38C482.612 193.793 495.847 193.286 502.528 189.848C507.73 187.181 514.816 175.756 506.896 167.277C505.866 166.175 505.872 164.781 506.396 163.053C508.185 157.302 509.557 151.401 510.878 145.536C511.2 144.092 511.51 142.629 511.813 141.16C513.311 134.029 514.714 126.841 517.502 120.147C518.639 121.148 518.614 122.554 518.406 123.846C517.672 128.861 516.914 133.915 516.004 138.899C515.372 142.395 516.124 144.39 518.583 144.769C534.896 147.303 548.985 153.927 559.995 166.663C559.995 166.663 560.729 167.454 561.841 168.949C562.164 169.361 562.473 169.829 562.865 170.329C563.106 170.653 563.339 171.007 563.598 171.356C564.774 172.904 565.841 174.534 566.79 176.232C567.137 176.759 567.452 177.307 567.732 177.872C568.154 178.606 568.533 179.341 568.87 180.076C569.755 181.893 570.513 183.711 571.215 185.592C571.569 186.586 571.916 187.587 572.214 188.613C572.416 189.202 572.593 189.784 572.77 190.373C574.191 195.048 574.978 199.895 575.108 204.781C575.406 215.844 572.125 228.377 561.639 241.055C561.639 241.055 561.607 241.112 561.582 241.144C558.407 244.942 554.919 248.465 551.153 251.676C528.803 269.699 499.431 281.403 466.885 283.461C466.74 283.461 466.626 283.461 466.475 283.461C466.33 283.474 466.184 283.474 466.039 283.461C462.879 283.639 459.825 283.727 456.697 283.727H205.766V283.841H197.132V295.113H412.787L413.11 295.202H413.141L413.4 295.291H468.391C475.397 295.313 482.398 294.883 489.349 294.005H489.438C509.196 291.467 528.264 285.066 545.559 275.165C553.134 270.792 560.266 265.692 566.853 259.934C575.938 252.082 583.788 242.901 590.139 232.702C593.436 226.939 596.003 220.787 597.78 214.387C599.461 207.092 600.337 199.634 600.391 192.146C600.593 150.247 573.472 125.91 566.734 120.515Z" fill="url(#paint1_linear_642_45)"/>
<path d="M377.177 354.581L198.403 295.381L415.834 295.406L602.863 354.569L377.177 354.581Z" fill="url(#paint2_linear_642_45)"/>
<g style="mix-blend-mode:multiply" opacity="0.3">
<path d="M377.177 354.582L198.403 295.382L307.523 295.362L298.996 300.112L469.756 354.569L377.177 354.582Z" fill="#322F84"/>
</g>
<g style="mix-blend-mode:multiply" opacity="0.3">
<path d="M427.774 300.156H212.82L198.403 295.381L412.921 295.4L427.774 300.156Z" fill="#252855"/>
<path d="M602.862 354.568L377.177 354.581L350.105 345.613H574.565L602.862 354.568Z" fill="#322F84"/>
</g>
<path d="M604.337 536.761L249.26 415.004L225.147 445.491L225.116 445.554L195.825 473.489L195.769 473.577L195.882 473.634C195.925 473.633 195.966 473.644 196.002 473.666L368.923 536.761H604.337Z" fill="url(#paint3_linear_642_45)"/>
<g style="mix-blend-mode:multiply" opacity="0.5">
<path d="M368.943 536.75L487.879 536.7L287.147 475.131L308.574 473.592L225.147 445.537L195.712 473.567L368.943 536.75Z" fill="#E94C40"/>
</g>
<g style="mix-blend-mode:multiply" opacity="0.4">
<path d="M579.838 528.281L345.898 528.351L368.942 536.761H604.337L579.838 528.281Z" fill="#991C1F"/>
<path d="M438.33 479.834L249.272 415.004L195.692 473.546L220.924 482.773L438.33 479.834Z" fill="#991C1F"/>
</g>
<path d="M602.863 354.568C602.859 359.138 602.538 363.703 601.902 368.228C601.423 371.577 600.776 374.9 599.961 378.184C599.696 379.269 599.408 380.354 599.096 381.439C598.76 382.573 598.4 383.725 598.04 384.858C598.004 384.992 597.956 385.121 597.895 385.245C597.535 386.353 597.149 387.436 596.738 388.519C595.872 390.881 594.912 393.199 593.875 395.485C593.032 397.296 592.143 399.097 591.208 400.887C590.752 401.774 590.266 402.642 589.766 403.534C589.02 404.839 588.249 406.137 587.428 407.441C586.606 408.746 585.822 409.975 584.956 411.241C584.091 412.508 583.06 413.939 582.068 415.262C581.391 416.206 580.671 417.119 579.951 418.037C579.059 419.17 578.168 420.253 577.233 421.336C576.601 422.083 575.969 422.805 575.336 423.508C574.704 424.211 574.015 424.978 573.345 425.7C571.923 427.238 570.432 428.733 568.921 430.202C568.421 430.683 567.916 431.171 567.385 431.671C566.013 432.976 564.597 434.205 563.15 435.471C562.31 436.218 561.443 436.941 560.552 437.663C559.832 438.245 559.111 438.822 558.365 439.398C557.234 440.316 556.058 441.183 554.876 442.077C554.832 442.077 554.807 442.121 554.756 442.146C553.676 442.944 552.594 443.71 551.489 444.483C551.374 444.572 551.254 444.652 551.128 444.724C549.902 445.566 548.6 446.409 547.336 447.257C546.071 448.106 544.763 448.897 543.468 449.663C542.172 450.43 540.819 451.234 539.473 451.981C538.272 452.653 537.064 453.33 535.839 453.957C535.332 454.242 534.808 454.508 534.277 454.774C531.945 455.978 529.537 457.136 527.109 458.219C526.995 458.286 526.874 458.343 526.749 458.39C525.378 459.023 523.981 459.594 522.615 460.17C521.25 460.746 519.942 461.259 518.596 461.784C518.21 461.931 517.849 462.076 517.489 462.196C516.225 462.678 514.961 463.133 513.64 463.596C512.123 464.121 510.587 464.653 509.045 465.135C507.503 465.616 505.922 466.097 504.355 466.559C502.787 467.021 501.195 467.427 499.621 467.827C498.047 468.225 496.397 468.65 494.786 469.01C493.174 469.371 491.625 469.707 490.045 470.024C489.95 470.024 489.83 470.024 489.736 470.068C488.149 470.385 486.575 470.67 484.951 470.935C483.326 471.202 481.942 471.443 480.4 471.658C479.825 471.734 479.25 471.829 478.694 471.879C477.682 472.025 476.652 472.164 475.64 472.266C473.669 472.506 471.696 472.696 469.724 472.867C468.018 473.013 466.311 473.133 464.579 473.228H464.478C463.011 473.298 461.545 473.374 460.054 473.418C458.056 473.494 456.065 473.513 454.043 473.513H195.679V371.458C196.63 376.671 197.294 381.934 197.67 387.221C198.15 396.043 202.41 406.91 204.958 412.691V411.103C197.24 385.992 198.15 360.16 198.466 354.568H602.863Z" fill="url(#paint4_linear_642_45)"/>
<g style="mix-blend-mode:overlay" opacity="0.5">
<path d="M197.686 387.221C198.167 396.043 202.414 406.904 204.961 412.686V461.988H195.689V371.465C196.629 376.678 197.296 381.938 197.686 387.221Z" fill="white"/>
</g>
<g style="mix-blend-mode:overlay" opacity="0.5">
<path d="M589.47 354.568C589.47 354.688 589.47 354.808 589.419 354.929C589.419 355.29 589.35 355.676 589.299 356.133C589.268 356.209 589.251 356.29 589.249 356.373C589.204 356.715 589.128 357.051 589.084 357.386C588.794 359.286 588.452 361.186 588.022 363.124H204.99V411.103C197.272 385.992 198.182 360.16 198.498 354.568H589.47Z" fill="white"/>
</g>
<g style="mix-blend-mode:multiply" opacity="0.3">
<path d="M589.48 354.556C582.154 414.776 518.638 461.829 441.311 461.829H195.702V473.482H454.003C536.228 473.482 602.88 420.241 602.88 354.556H589.48Z" fill="#253B7B"/>
</g>
<path opacity="0.07" d="M206.328 401.122C206.328 401.122 259.877 373.307 304.065 390.356C348.252 407.404 379.198 436.017 423.393 414.016C423.393 414.016 442.949 402.617 448.675 393.117C448.675 393.117 453.245 403.25 437.437 417.714C421.629 432.178 390.576 436.238 390.576 436.238C390.576 436.238 435.597 439.556 439.15 428.145C439.15 428.145 434.77 443.4 398.198 443.863C398.198 443.863 451.146 448.637 485.885 443.293C524.997 437.277 578.167 396.024 588.034 363.162C588.034 363.162 573.957 447.391 458.959 461.145L204.969 462.026C204.969 462.026 205.058 400.293 206.328 401.122Z" fill="white"/>
<g style="mix-blend-mode:hard-light" opacity="0.1">
<path d="M605.019 537.787H586.297H488.118L369.175 538.294L361.179 535.33L346.244 529.365L235.588 488.606H235.411L231.429 487.112L228.181 485.896H228.091L221.771 483.546L209.534 479.024H209.383V478.993H209.319L200.274 475.674L289.105 476.111L299.389 476.174C299.389 476.174 334.886 477.315 362.678 483.774C380.926 488.061 395.836 494.635 395.223 504.673C395.111 506.229 395.149 507.792 395.336 509.34C396.335 517.997 401.783 524.869 411.138 529.415C418.546 533.051 428.387 535.255 440.453 535.748H440.662C442.887 535.868 445.201 535.894 447.615 535.837C456.389 535.685 465.14 534.9 473.801 533.487C476.703 533.051 479.629 532.519 482.65 531.936C488.301 530.822 494.028 530.036 499.843 529.44C517.591 527.648 535.605 528.092 551.54 529.44C568.894 530.891 586.129 533.534 603.122 537.351H603.3C603.931 537.496 604.411 537.616 604.703 537.673L605.019 537.787Z" fill="white"/>
</g>
<path opacity="0.07" d="M599.725 354.574H377.239C383.761 354.498 425.029 353.973 464.16 351.465L461.303 351.82C480.012 350.616 498.222 348.951 511.906 346.664L513.17 346.449C557.567 338.76 473.534 337.652 403.684 332.207C401.788 332.06 400.056 331.889 398.393 331.699C398.393 331.699 398.393 331.699 398.349 331.699C385.076 330.256 378.407 327.697 376.126 324.588C370.399 316.906 391.422 305.842 404.48 299.94C410.036 297.407 414.151 295.843 414.151 295.843L427.089 299.94L488.899 319.484L492.438 320.617L599.725 354.574Z" fill="white"/>
<path d="M383.868 536.716C383.255 536.812 382.651 536.956 382.06 537.146C377.471 537.558 372.933 536.304 368.565 539.002H368.357C367.978 539.002 366.625 539.167 366.145 539.686L365.949 539.749C365.021 540.043 364.077 540.286 363.123 540.477C362.611 540.573 362.415 540.617 362.137 541.111C362.137 541.111 362.137 541.149 362.137 541.174C362.137 541.199 362.137 541.174 362.137 541.174C362.137 541.073 362.176 540.851 362.029 541.561C361.72 543.004 361.183 543.118 363.787 542.669C366.518 542.2 370.215 542.573 373.211 542.523C375.486 542.479 377.927 542.568 380.221 542.523C380.031 542.561 379.753 542.599 379.589 542.618H379.196C377.933 542.618 375.79 542.618 374.002 542.682C368.154 542.827 348.087 544.195 341.659 544.296C340.901 544.284 340.15 544.447 339.465 544.771C341.892 544.816 344.452 545.043 346.847 545.024C355.981 544.961 360.172 544.923 369.298 544.1C371.77 543.878 374.305 544.03 376.788 543.821C379.905 543.784 383.014 543.771 386.131 543.758C386.031 543.801 385.946 543.874 385.89 543.967H385.846C385.727 543.899 385.594 543.865 385.457 543.865C385.321 543.865 385.187 543.899 385.069 543.967C385.119 543.967 385.031 544.081 384.399 544.474C383.537 544.931 382.59 545.205 381.617 545.278C380.791 545.376 379.954 545.376 379.128 545.278C378.35 545.211 377.596 544.98 376.915 544.601L376.814 544.664H376.662C375.59 544.745 374.531 544.945 373.502 545.259C373.274 545.341 373.053 545.417 372.87 545.512C372.237 545.436 371.536 545.328 370.86 545.259C370.21 545.196 369.556 545.196 368.907 545.259H368.711C367.447 545.499 366.296 546.664 365.165 547.026C364.375 547.273 364.609 546.975 363.989 546.69C363.768 544.695 352.738 545.373 351.911 545.424C350.817 545.468 353.035 547.659 349.193 547.558C348.9 547.512 348.62 547.405 348.372 547.243C348.124 547.081 347.913 546.87 347.751 546.62V546.583C347.688 546.443 347.903 546.791 347.707 546.456C347.29 545.709 345.488 545.968 344.737 546.228C344.737 546.228 344.68 546.19 344.66 546.184C344.319 546.051 343.978 545.898 343.637 545.753C342.952 545.727 342.274 545.898 341.683 546.247C341.299 546.323 340.938 546.488 340.628 546.728H340.527C340.135 546.601 341.159 546.899 340.097 546.57C339.425 546.389 338.737 546.268 338.043 546.209C336.292 546.044 334.086 546.133 332.784 546.95C331.483 547.305 330.137 547.463 328.79 547.418H328.714C327.73 547.369 326.748 547.538 325.838 547.912L325.926 547.989C326.462 548.255 327.053 548.394 327.651 548.394C328.003 548.336 328.362 548.336 328.714 548.394C329.004 548.495 329.15 548.749 328.979 549.356C329.737 550.116 329.87 550.269 330.977 550.091C332.873 549.774 335.11 549.242 337.038 550.186C337.038 550.186 337.069 550.332 337.101 550.477C337.322 551.408 338.106 551.699 335.837 551.37C334.744 551.218 332.392 551.699 331.109 552.137C333.406 552.514 335.737 552.652 338.061 552.548C339.137 552.548 340.211 552.459 341.298 552.402C341.296 552.419 341.296 552.436 341.298 552.453C341.361 552.63 341.253 552.288 341.393 552.713C341.532 553.137 341.829 554.378 342.461 554.214H342.928C343.971 554.258 346.203 553.992 347.669 554.15C348.763 554.271 350.507 555.556 351.461 554.106C351.461 554.049 351.544 553.922 351.821 553.675C352.561 553.004 359.88 551.554 360.512 552.339C361.594 553.694 362.409 553.276 363.673 553.257C364.937 553.239 366.29 553.213 367.567 553.162C368.843 553.112 367.067 552.168 369.216 552.529C371.113 552.852 373.881 553.226 375.973 552.611C375.973 552.611 375.942 552.554 375.973 552.573C376.327 552.801 377.414 553.416 377.724 553.245C379.551 552.219 381.934 552.472 383.52 552.44C384.689 552.44 384.999 552.529 385.619 551.598C385.549 551.598 385.587 551.598 385.619 551.566C386.8 550.718 387.913 550.775 389.234 550.705C389.665 550.709 390.093 550.634 390.498 550.484C392.875 549.47 391.428 549.046 390.113 548.78C389.057 548.571 385.056 549.724 385.795 547.07C387.257 547.551 388.826 547.601 390.315 547.216C390.864 547.076 391.851 546.785 392.211 546.69C394.701 546.835 396.958 546.386 399.373 546.551C398.584 545.957 397.686 545.527 396.73 545.284C395.929 545.107 395.111 545.015 394.291 545.012C394.097 545.066 393.916 545.159 393.759 545.284C393.289 545.646 392.772 545.944 392.223 546.171C392.223 546.171 392.223 546.171 392.223 546.209L392.078 546.152C391.86 546.087 391.659 545.976 391.488 545.826C391.316 545.677 391.18 545.492 391.086 545.284C391.048 545.207 391.018 545.127 390.998 545.043C390.943 544.786 390.833 544.544 390.676 544.333C390.519 544.122 390.318 543.947 390.087 543.821C391.845 543.821 393.595 543.821 395.353 543.821C398.563 543.777 401.787 543.745 404.997 543.733C405.031 543.759 405.07 543.779 405.111 543.79C405.219 543.848 405.342 543.874 405.465 543.864C405.587 543.853 405.703 543.808 405.8 543.733H428.245C428.32 543.779 428.401 543.813 428.485 543.834C428.759 543.93 429.052 543.956 429.338 543.91C429.541 543.859 429.529 543.79 429.686 543.733H440.431C441.682 543.767 442.932 543.667 444.161 543.435C439.66 543.328 435.134 543.39 430.622 543.372C432.133 542.998 433.649 542.739 435.141 542.238H446.347C445.835 542.308 445.34 542.473 444.887 542.726L473.185 543.676C473.176 543.73 473.162 543.783 473.141 543.834C472.395 543.992 471.39 544.227 470.708 544.36C470.126 544.48 470.076 544.448 469.671 544.942C469.671 544.942 469.671 544.942 469.671 544.993C469.524 545.114 469.368 545.222 469.203 545.316H591.748L591.698 545.462C589.922 551.313 587.108 556.563 583.962 561.547L584.252 561.42C585.8 560.769 587.312 560.031 588.778 559.21L588.936 559.122V559.192C588.966 559.162 589 559.136 589.037 559.115H589.112C589.129 559.11 589.147 559.11 589.163 559.115C589.163 559.115 589.163 559.078 589.163 559.058H589.207C590.206 558.513 591.16 557.969 592.058 557.367C592.69 556.956 593.322 556.544 593.878 556.101C594.434 555.657 595.142 555.202 595.692 554.72L596.514 554.036C596.793 553.816 597.061 553.581 597.316 553.333C597.898 552.821 598.455 552.288 598.986 551.776C598.986 551.776 598.986 551.776 598.986 551.731L599.036 551.687L599.08 551.636C599.516 551.2 599.927 550.762 600.294 550.326C600.508 550.103 600.705 549.888 600.875 549.692C601.046 549.496 601.241 549.255 601.406 549.058C601.773 548.622 602.108 548.21 602.424 547.792C602.74 547.374 603.056 546.925 603.322 546.526C603.587 546.127 603.789 545.836 604.004 545.487C605.251 543.546 606.289 541.478 607.101 539.318C607.196 539.071 607.291 538.831 607.366 538.609C607.512 538.172 607.607 537.811 607.682 537.546V537.494C607.692 537.447 607.692 537.398 607.682 537.349C607.688 537.313 607.688 537.277 607.682 537.242V537.146C607.682 537.108 607.682 537.071 607.733 537.038C607.73 537.022 607.73 537.005 607.733 536.988C607.755 536.958 607.77 536.923 607.777 536.887L383.868 536.716ZM367.996 550.256C363.003 550.04 352.877 551.167 351.639 549.091C352.978 549.172 357.371 548.837 360.488 549.192C362.72 549.44 364.978 549.361 367.188 548.957C370.917 548.736 374.419 548.635 377.837 546.222C377.876 546.266 377.939 546.222 377.964 546.279C377.989 546.335 377.964 546.5 378.008 546.57C377.994 546.596 377.975 546.62 377.951 546.64L377.686 546.956C377.01 547.798 377.408 549.027 378.95 548.653C375.265 549.857 371.662 549.654 367.996 550.256ZM476.434 542.96L476.339 542.998L476.187 543.074H476.124L476.086 543.036C475.891 542.916 475.593 543.036 475.36 543.068C474.636 543.134 473.908 543.134 473.185 543.068L472.212 542.865C469.235 542.276 463.723 542.574 459.767 542.511C456.606 542.466 452.15 542.168 448.838 542.213C451.088 542.174 453.471 542.213 455.753 542.213C456.746 542.191 457.735 542.071 458.704 541.852H458.799H460.146C460.36 541.852 460.253 541.852 460.253 541.852C460.681 542.002 461.124 542.105 461.574 542.162C466.523 542.162 471.453 542.162 476.396 542.162C476.843 542.101 477.283 541.999 477.711 541.858C477.635 541.858 477.515 541.763 478.027 541.915C478.26 541.985 478.621 542.143 479.019 542.314C478.134 542.442 477.263 542.659 476.421 542.96H476.434ZM482.4 541.814C482.394 541.791 482.38 541.772 482.363 541.756C482.454 541.619 482.56 541.492 482.679 541.377C483.399 540.642 486.844 540.648 487.647 541.959C486.528 541.624 484.474 541.624 482.4 541.814ZM462.098 554.049H463.824C463.249 554.049 462.667 554.049 462.092 554.049H462.098ZM506.976 600.64H507.171C507.171 600.64 507.171 600.64 507.14 600.64C507.108 600.64 507.007 600.628 506.976 600.64ZM456.486 556.823H456.599H456.486ZM441.948 545.113L441.601 545.031C440.017 544.717 438.395 544.648 436.791 544.828C436.74 544.828 436.753 544.828 436.747 544.828C436.501 544.86 436.252 544.86 436.007 544.828C435.615 544.752 435.16 544.373 434.837 544.828C430.464 544.929 409.517 545.024 405.131 545.12C404.391 544.847 403.866 544.771 403.291 545.335H446.525C445.974 545.271 445.431 545.201 444.881 545.113C443.904 545.183 442.925 545.183 441.948 545.113ZM443.996 560.312H443.921H443.996Z" fill="url(#paint5_linear_642_45)"/>
<path d="M367.628 614.655C367.63 614.674 367.63 614.693 367.628 614.712C367.804 614.712 367.968 614.712 368.001 614.668L367.628 614.655ZM500.76 651.519C503.225 650.937 505.651 650.31 508.072 649.619C509.185 649.309 510.298 648.986 511.391 648.651C511.56 648.629 511.725 648.579 511.877 648.505C512.99 648.169 514.103 647.802 515.196 647.441C516.289 647.08 517.541 646.662 518.704 646.251C521.808 645.136 524.829 643.971 527.812 642.71C530.795 641.45 533.697 640.114 536.554 638.701H536.629C538.229 637.922 539.821 637.124 541.37 636.257C542.533 635.674 543.677 635.041 544.79 634.408C544.843 634.386 544.892 634.353 544.935 634.312C545.662 633.926 546.382 633.515 547.091 633.046C547.548 632.804 547.993 632.537 548.424 632.248L549.637 631.52C550.7 630.887 551.742 630.184 552.798 629.506C552.994 629.386 553.209 629.266 553.43 629.119C553.892 628.828 554.327 628.537 554.788 628.195C555.42 627.759 556.091 627.296 556.723 626.859C557.867 626.086 558.948 625.282 560.067 624.484C561.47 623.464 562.829 622.4 564.181 621.318C565.369 620.349 566.558 619.38 567.72 618.385C568.422 617.803 569.124 617.189 569.807 616.562C571.16 615.345 572.489 614.109 573.795 612.85C573.907 612.751 574.012 612.646 574.111 612.534C574.648 612.027 575.179 611.489 575.717 610.957C576.253 610.425 576.804 609.867 577.284 609.304C578.042 608.557 578.738 607.778 579.439 607.005C579.97 606.442 580.483 605.859 580.994 605.276C581.43 604.795 581.866 604.282 582.259 603.776C582.65 603.268 583.08 602.8 583.491 602.293C584.628 600.913 585.716 599.526 586.79 598.095C587.005 597.829 587.22 597.537 587.422 597.246C588.756 595.429 590.039 593.561 591.214 591.667C591.846 590.698 592.479 589.722 593.111 588.728C593.016 588.874 592.94 588.994 592.845 589.121C592.794 589.237 592.721 589.342 592.63 589.431L592.466 589.685L592.144 590.116C591.516 591.011 590.82 591.858 590.064 592.648C589.772 592.986 589.455 593.302 589.117 593.592L588.099 594.542C587.738 594.852 587.378 595.175 586.986 595.486C585.607 596.635 584.168 597.711 582.676 598.709C582.315 598.982 581.949 599.222 581.563 599.469C580.804 599.976 580.04 600.457 579.263 600.944C578.485 601.432 577.682 601.888 576.886 602.35C575.621 603.085 574.295 603.813 572.986 604.516C570.394 605.897 567.803 607.208 565.401 608.347C563.587 609.215 561.938 609.975 560.414 610.627C559.953 610.824 559.516 610.995 559.08 611.159L559.187 611.109C560.142 610.615 561.084 610.128 562.032 609.583C562.86 609.12 563.682 608.632 564.478 608.152C565.06 607.815 565.641 607.423 566.204 607.062V607.011C567.562 606.137 568.865 605.187 570.123 604.219C570.515 603.927 570.951 603.586 571.386 603.25C571.403 603.256 571.421 603.256 571.437 603.25C571.437 603.25 571.482 603.25 571.507 603.199C571.533 603.148 571.507 603.199 571.507 603.154C571.924 602.863 572.31 602.521 572.701 602.23C574.104 601.091 575.438 599.906 576.721 598.69C577.353 598.057 577.985 597.423 578.617 596.847C579.25 596.271 579.825 595.631 580.432 594.998C581.374 594.004 582.296 592.984 583.188 591.939C583.605 591.483 583.99 591.021 584.382 590.558C586.437 588.133 588.351 585.632 590.07 583.155C590.5 582.553 590.918 581.946 591.335 581.338C591.752 580.73 592.232 580.071 592.643 579.393C593.054 578.716 593.465 578.127 593.907 577.494C594.685 576.227 595.437 574.96 596.164 573.757C596.72 572.833 597.226 571.933 597.712 571.034C598.199 570.135 598.68 569.293 599.115 568.444C600.013 566.766 600.816 565.163 601.511 563.682L602.144 562.25C602.263 561.985 602.383 561.744 602.504 561.503C602.914 560.655 603.255 559.85 603.571 559.122C603.667 558.925 603.742 558.761 603.812 558.59C603.881 558.419 603.964 558.222 604.033 558.058C604.539 556.867 604.924 555.873 605.171 555.195C604.328 555.867 603.486 556.5 602.642 557.096C601.8 557.69 600.907 558.244 599.962 558.755C599.65 558.965 599.327 559.159 598.996 559.337C598.458 559.654 597.953 559.939 597.422 560.205C595.872 561.034 594.278 561.78 592.649 562.44C591.923 562.732 591.24 563.023 590.538 563.264C590.508 563.272 590.475 563.272 590.443 563.264C589.932 563.46 589.451 563.625 588.964 563.777C588.815 563.842 588.66 563.898 588.503 563.941C588.023 564.087 587.561 564.258 587.075 564.403V564.359C586.986 564.395 586.895 564.424 586.803 564.448C586.801 564.465 586.801 564.482 586.803 564.499H586.753H586.72H586.645C586.013 564.682 585.381 564.847 584.749 565.012C583.061 565.442 581.412 565.809 579.768 566.076C579.604 566.083 579.441 566.106 579.281 566.145C578.27 566.291 577.296 566.462 576.304 566.582H576.26C570.901 567.235 565.482 567.235 560.124 566.582C564.026 566.375 567.91 565.897 571.747 565.151C575.614 564.402 579.406 563.311 583.08 561.889C583.364 561.763 583.636 561.661 583.908 561.554C587.069 556.57 589.868 551.32 591.644 545.468L591.695 545.322H469.043C468.72 545.544 468.41 545.817 468.518 546.019C463.885 546.019 459.302 545.861 454.663 545.747C451.957 545.677 449.215 545.639 446.503 545.322H403.27L403.068 545.544H402.954C402.606 545.62 401.512 545.367 401.272 545.931C401.664 546.136 402.095 546.257 402.537 546.285C411.246 546.849 436.472 546.544 445.176 546.969C456.142 547.508 467.121 548.04 478.125 548.16C483.561 548.223 489.079 548.901 494.559 548.115C494.667 548.144 494.777 548.166 494.888 548.178C498.618 548.854 502.427 548.963 506.189 548.502C508.768 548.166 459.164 548.438 461.755 548.559C462.526 548.596 462.147 548.73 461.995 549.262C460.332 549.185 511.618 548.958 509.943 549.059C504.053 549.433 498.105 549.768 492.189 549.99C484.875 550.263 477.544 550.072 470.231 549.99C466.685 549.945 463.164 549.591 459.612 549.819C459.311 549.861 459.007 549.884 458.702 549.888C457.649 549.565 456.544 549.445 455.447 549.534C453.835 549.534 452.236 549.534 450.631 549.496C451.36 549.646 452.035 549.997 452.578 550.509H452.646C452.724 550.648 452.758 550.807 452.741 550.966C453.867 551.542 454.638 552.32 455.902 551.801C456.938 552.365 457.798 552.212 458.898 551.801C459.53 552.219 460.162 551.871 460.845 551.7H460.907C461.182 551.741 461.459 551.756 461.736 551.744H461.818C462.159 551.886 462.507 552.011 462.861 552.118H462.898C462.898 552.118 462.898 552.118 462.898 552.162C461.774 552.118 460.655 552.061 459.53 551.985C459.428 552.179 459.28 552.346 459.1 552.471C458.919 552.595 458.711 552.674 458.494 552.7C456.464 552.149 453.892 552.263 451.952 552.434C450.011 552.605 448.98 552.878 447.476 551.421C446.783 551.715 446.142 552.122 445.58 552.624C441.484 552.835 437.378 552.755 433.293 552.383C430.663 552.827 411.443 553.15 408.807 553.517C409.231 553.209 409.695 552.957 410.185 552.77C406.803 553.091 403.397 553.038 400.027 552.611C399.218 553.492 398.238 553.765 397.316 554.341C399.677 554.274 402.028 554.681 404.23 555.537C403.011 555.409 401.783 555.369 400.558 555.417C404.71 555.886 425.405 555.417 429.57 555.05C429.499 555.33 429.339 555.578 429.115 555.759C422.876 555.981 400.04 556.203 393.966 556.468C393.747 556.33 393.521 556.203 393.289 556.089C392.646 555.772 392.037 555.387 391.475 554.942C391.448 554.929 391.424 554.909 391.406 554.885C391.368 554.828 391.279 554.752 391.216 554.67C391.14 554.565 391.08 554.45 391.039 554.328C390.988 554.119 390.948 553.908 390.919 553.695C390.991 553.656 391.059 553.609 391.121 553.555C391.583 553.156 391.754 551.542 390.61 552.289L388.713 552.764C388.713 552.903 388.713 553.049 388.676 553.188L388.536 553.264C387.967 553.593 386.476 554.252 385.901 554.53L385.755 554.6H385.717C385.471 554.663 385.129 554.562 384.927 554.6C384.582 554.717 384.268 554.912 384.011 555.17C383.149 555.826 382.089 556.164 381.008 556.126C379.963 555.905 378.932 555.615 377.924 555.259C376.217 554.518 374.295 553.213 372.905 555.379C372.858 555.462 372.804 555.542 372.741 555.614C372.4 556.019 371.167 555.366 370.718 555.05C368.936 553.783 367.558 553.942 365.738 554.993C363.715 555.671 353.514 556.393 351.699 557.843C351.731 557.881 351.743 557.925 351.782 557.95C352.691 557.95 362.135 557.855 362.976 557.874C363.267 557.897 363.544 558.007 363.772 558.191C363.028 558.221 362.29 558.335 361.573 558.533L360.643 558.66C359.841 558.66 357.799 558.66 355.005 558.66C343.565 558.66 337.131 558.811 335.461 559.16C334.83 559.217 334.413 559.287 334.007 559.363C333.603 559.438 333.224 559.514 332.743 559.584C331.827 559.729 330.696 559.869 330.032 560.034C329.173 560.243 327.586 560.439 328.237 560.712C327.832 560.712 327.453 560.762 327.112 560.787C325.468 560.933 324.583 561.129 324.583 561.352C324.583 561.453 324.767 561.547 325.14 561.655C325.285 561.693 325.285 561.744 325.349 561.788C324.666 561.788 324.084 561.845 323.364 561.845H323.06V561.985C323.435 561.997 323.809 562.031 324.179 562.086C324.347 562.126 324.51 562.186 324.666 562.263C324.855 562.421 326.038 562.567 325.671 562.725C325.305 562.883 325.475 562.997 326.208 563.118C325.898 563.194 325.051 563.27 326.17 563.352L327.118 563.448C327.896 563.542 328.282 563.606 328.282 563.669C328.282 563.732 327.889 563.796 327.118 563.871L326.651 563.91C325.222 564.049 325.671 564.195 326.562 564.34C326.644 564.416 326.619 564.492 326.739 564.562C326.856 564.625 326.985 564.664 327.118 564.676C327.352 564.716 327.589 564.741 327.826 564.752L328.212 564.802C328.212 564.802 328.212 564.859 328.098 564.866L327.118 564.935C325.254 565.088 324.893 565.277 325.772 565.569C326.212 565.694 326.663 565.775 327.118 565.809L327.718 565.898C327.801 565.949 328.237 565.993 328.237 566.05C328.237 566.107 328.073 566.113 327.548 566.145L327.118 566.177C325.772 566.297 325.759 566.481 326.98 566.69C327.478 566.816 326.151 566.829 325.987 566.905C326.337 566.954 326.69 566.973 327.042 566.962H327.099C327.542 566.962 328.016 566.962 328.42 566.962C329.432 566.962 329.204 567.07 327.674 567.19H326.271C325.638 567.153 325.003 567.179 324.375 567.266C324.141 567.361 325.07 567.386 325.595 567.43C326.783 567.513 326.695 567.602 325.747 567.697C323.281 567.918 323.275 567.956 325.608 568.14C325.739 568.15 325.869 568.175 325.993 568.216C325.463 568.418 324.482 568.615 325.316 568.849C325.134 568.938 325.494 569.007 325.835 569.084C326.53 569.242 327.327 569.407 326.467 569.59C326.085 569.581 325.704 569.615 325.329 569.692C324.647 569.843 323.926 570.002 325.45 570.141C326.973 570.281 326.714 570.407 325.367 570.54C325.061 570.505 324.752 570.505 324.445 570.54C324.879 570.646 325.327 570.68 325.772 570.641L327.125 570.743C327.7 570.8 327.965 570.838 327.965 570.888C327.965 570.939 327.713 570.989 327.27 571.066H326.638H326.075C325.335 571.043 324.594 571.064 323.857 571.129C323.8 571.237 325.31 571.205 326.107 571.25C326.208 571.287 326.739 571.338 326.208 571.363C324.842 571.427 325.507 571.49 326.12 571.554L327.105 571.648H327.295C327.295 571.87 328.622 571.933 330.121 571.978C330.535 572.041 330.944 572.132 331.347 572.25C331.631 572.332 331.871 572.402 331.72 572.485C331.012 572.586 331.72 572.655 332.314 572.687C334.349 572.789 334.046 572.96 333.395 573.149C333.172 573.168 332.947 573.168 332.725 573.149C332.513 573.141 332.301 573.155 332.093 573.194C331.688 573.245 331.492 573.308 331.492 573.358C331.492 573.409 331.7 573.479 332.124 573.536C332.547 573.593 332.124 573.858 333.3 573.972L334.052 574.061C334.052 574.061 334.084 574.099 334.052 574.106C331.201 574.296 330.519 574.537 331.733 574.897L332.049 574.942C332.464 575.039 332.887 575.102 333.313 575.131C333.313 575.22 334.88 575.29 333.584 575.398C331.688 575.556 331.498 575.733 332.883 575.974C333.16 576.031 325.829 576.068 335.897 576.094C345.967 576.12 355.972 576.151 355.972 576.202H356.889C357.566 576.157 358.245 576.182 358.917 576.278C358.994 576.405 357.653 576.411 356.825 576.449H356.232C355.599 576.411 354.963 576.435 354.335 576.519C354.083 576.613 354.967 576.645 355.492 576.683C356.655 576.765 356.756 576.848 355.769 576.949C355.542 576.949 355.264 576.949 355.087 577C353.393 577.202 353.387 577.215 355.365 577.38C355.859 577.424 355.764 577.468 355.769 577.525C354.904 577.754 354.682 577.988 355.435 578.228C356.017 578.361 356.8 578.495 356.8 578.633C356.8 578.773 356.649 578.767 356.263 578.843C355.805 578.827 355.347 578.878 354.904 578.994V579.027C353.993 579.216 354.72 579.343 356.105 579.45C356.617 579.552 356.528 579.647 355.769 579.736C355.318 579.704 354.865 579.721 354.417 579.787C354.297 579.875 355.049 579.907 355.713 579.919C356.225 579.919 356.718 579.982 357.135 580.027C357.45 580.05 357.761 580.105 358.065 580.192C357.36 580.31 356.648 580.364 355.934 580.35C355.062 580.35 354.094 580.35 353.242 580.413C354.309 580.483 355.176 580.514 356.092 580.527C356.212 580.547 356.33 580.576 356.446 580.61C356.446 580.61 356.414 580.61 356.339 580.61C354.487 580.711 355.757 580.768 356.541 580.838C358.322 581.02 360.111 581.111 361.901 581.11C364.568 581.18 367.432 581.23 368.436 581.256C369.166 581.308 369.892 581.406 370.611 581.547C371.351 581.713 372.108 581.802 372.867 581.813H373.019H373.184C374.068 581.844 375.004 581.863 375.819 581.907C378.164 582.034 388.783 582.168 391.462 582.187C392.094 582.187 392.821 582.187 392.821 582.319C392.309 582.319 391.785 582.319 391.279 582.358C390.774 582.395 389.642 582.358 389.933 582.472C390.521 582.528 391.114 582.528 391.703 582.472C392.714 582.427 393.732 582.408 394.768 582.395L391.956 582.547C380.268 583.181 350.801 583.725 339.083 583.421C337.475 584.535 335.512 585.013 333.572 584.764C332.56 584.669 331.536 584.466 330.462 584.264C329.033 584.757 327.567 584.707 326.145 585.271C327.58 585.455 328.983 585.435 330.335 586.138C330.38 586.917 330.38 587.214 329.817 587.557C327.959 587.462 326.107 587.316 324.249 587.24C322.581 587.157 320.909 587.172 319.242 587.284C320.917 587.538 322.58 587.86 324.249 588.158C325.513 588.386 326.777 588.596 328.041 588.754C327.82 589.095 327.409 589.836 327.965 589.932C328.648 588.563 329.957 588.893 331.006 588.703C331.435 588.722 331.852 588.86 332.209 589.102C332.566 589.343 332.85 589.678 333.028 590.071C330.898 590.812 335.493 591.224 333.344 591.825C334.109 593.041 328.37 592.858 329.45 592.712C330.841 592.889 332.215 593.022 333.572 593.11C336.207 593.276 345.581 593.269 348.331 593.149C352.489 592.965 345.543 592.718 349.721 592.908C350.581 592.908 350.643 593.408 351.617 593.345C355.966 593.079 357.938 592.825 362.362 593.624C361.911 593.628 361.462 593.664 361.016 593.732C361.651 593.72 362.287 593.771 362.912 593.883H363H363.152L363.373 593.921C365.542 594.276 368.24 594.757 370.579 594.036C368.788 594.037 366.999 593.938 365.219 593.738C367.185 593.789 369.157 593.903 371.129 594.023C371.963 593.237 372.835 593.294 373.796 593.326C373.55 593.668 373.658 593.896 373.796 594.27C372.751 594.323 371.714 594.478 370.699 594.732L371.217 594.878C369.77 594.878 368.31 594.833 366.862 594.814C366.531 594.767 366.195 594.767 365.864 594.814C365.074 594.814 364.271 594.814 363.487 594.814C359.593 594.764 347.414 594.288 343.52 594.504C337.263 594.858 353.317 594.764 347.085 594.77C345.212 594.694 343.337 594.871 341.51 595.296C341.125 595.327 340.74 595.34 340.36 595.346C337.199 595.416 334.102 594.998 331.031 595.72C329.987 595.965 328.98 596.346 328.034 596.853H328.003H328.034L327.889 596.746C327.371 596.397 326.177 596.746 325.633 597.468L325.412 597.525C324.78 597.67 323.338 597.994 322.599 598.158C322.757 598.158 326.214 598.209 331.05 598.234L340.379 598.285C351.238 598.355 351.712 598.469 351.712 598.721C351.714 598.732 351.714 598.743 351.712 598.754C351.716 598.778 351.716 598.804 351.712 598.829C351.712 598.741 351.743 598.474 351.617 599.159C351.579 599.348 350.733 599.514 349.31 599.652C366.958 599.652 371.142 599.652 384.377 599.608C384.908 599.608 385.464 599.558 385.989 599.564C385.989 599.564 385.926 599.564 385.989 599.564C386.052 599.564 386.121 599.564 386.185 599.526C386.517 599.491 386.845 599.423 387.165 599.323C387.3 599.285 387.441 599.259 387.582 599.247C387.923 599.247 388.562 599.247 388.795 599.247H388.896C389.329 599.373 389.77 599.462 390.217 599.514C395.154 599.514 400.078 599.514 405.008 599.469C405.245 599.456 405.48 599.417 405.709 599.355C407.979 599.469 426.814 599.564 429.096 599.615C430.36 599.615 431.624 599.615 432.888 599.659C432.711 599.792 432.535 599.937 432.37 600.083C432.321 600.132 432.279 600.188 432.243 600.248C429.361 600.096 409.9 599.849 407.005 600.033C400.728 600.438 394.434 600.318 388.169 600.355C386.289 600.283 384.407 600.468 382.576 600.907C381.354 600.934 380.131 600.879 378.916 600.742C378.373 600.697 377.835 600.64 377.298 600.603C374.473 600.375 371.691 600.412 369.031 602.502C369.031 602.502 369.031 602.502 368.986 602.502C368.853 602.407 369.208 602.611 368.816 602.37C368.424 602.129 358.911 602.287 358.488 603.13L358.241 603.199C357.641 603.364 356.155 603.687 355.422 603.833C354.923 603.927 354.72 603.934 354.417 604.409C354.417 604.459 354.417 604.409 354.417 604.409C354.414 604.434 354.414 604.46 354.417 604.484C354.417 604.383 354.417 604.232 354.298 604.827C353.931 606.359 353.621 606.093 356.118 605.764C358.734 605.384 370.655 605.625 373.651 605.587C376.647 605.548 379.972 605.587 383.069 605.587C383.069 605.682 383.069 605.764 383.069 605.859L375.225 606.347C375.579 606.558 375.977 606.681 376.388 606.707C382.86 606.606 389.295 606.613 395.76 606.536C397.751 606.536 399.743 606.486 401.74 606.473V606.53C401.74 606.53 401.778 606.53 401.74 606.587C401.702 606.644 400.533 607.455 400.779 607.626C400.717 607.677 400.653 607.708 400.596 607.752C406.126 607.929 428.237 608.113 433.773 608.284L431.018 608.461C431.372 608.67 431.77 608.792 432.18 608.816C436.605 608.759 441.029 608.734 445.454 608.728C445.404 609.608 445.738 609.874 446.32 610.032H446.124L445.264 610.095C441.964 610.328 438.667 610.59 435.372 610.881C435.288 610.806 435.189 610.75 435.082 610.717C435.091 610.777 435.091 610.839 435.082 610.9C434.917 610.9 434.766 610.944 434.601 610.944C432.073 610.888 429.627 610.818 427.098 610.754C423.837 610.678 403.965 610.627 400.716 610.121C399.743 610.121 398.706 610.178 397.771 610.121H397.638L397.429 610.077C395.842 609.819 394.23 609.746 392.625 609.861C392.55 609.861 392.594 609.861 392.575 609.861C392.33 609.893 392.081 609.893 391.835 609.861C391.456 609.786 391.001 609.412 390.672 609.861L380.674 610.115L377.583 610.191L377.368 610.115C377.171 610.019 376.955 609.969 376.736 609.969C376.517 609.969 376.3 610.019 376.104 610.115C375.989 610.185 375.883 610.267 375.787 610.362C375.699 610.441 375.619 610.528 375.547 610.621H375.434C375.092 610.678 373.986 610.437 373.759 611.02C374.147 611.235 374.579 611.358 375.023 611.381C382.259 611.825 389.478 611.692 396.702 611.869C398.15 611.869 399.597 611.945 401.044 612.014C401.721 612.014 402.397 612.059 403.061 612.103C402.998 612.103 401.797 612.167 402.631 612.243C403.7 612.344 403.984 612.388 405.431 612.445C406.879 612.502 426.384 612.566 428.116 612.61C428.417 612.727 428.682 612.919 428.887 613.167C428.826 612.956 428.705 612.767 428.54 612.622C430.52 612.673 432.499 612.745 434.475 612.837C434.215 612.837 433.956 612.837 433.742 613.047C434.119 613.013 434.489 612.925 434.841 612.787L435.859 612.825C435.916 612.912 435.95 613.013 435.958 613.117C435.968 613.22 435.951 613.325 435.909 613.42C437.887 613.237 439.878 613.26 441.851 613.49C443.406 613.674 443.867 613.895 445.207 614.123C441.958 614.123 438.779 614.123 435.556 614.123C435.67 614.32 435.859 614.478 435.745 614.756C435.044 614.756 434.348 614.756 433.646 614.756C433.571 614.756 433.514 614.681 433.444 614.649C433.912 614.548 434.525 614.756 434.835 614.149C432.827 614.169 430.82 614.294 428.824 614.522C428.945 614.537 429.066 614.558 429.185 614.585C428.748 614.585 428.325 614.585 427.888 614.585C424.532 614.585 404.666 614.554 401.342 614.377C395.609 614.073 389.87 613.597 384.093 614.193C383.218 614.282 382.336 614.219 381.482 614.009C380.351 613.63 379.946 613.788 378.954 614.288C379.111 614.511 379.285 614.723 379.472 614.922L379.535 614.985L378.17 614.909C378.34 615.031 378.464 615.208 378.525 615.409C378.296 615.156 378 614.973 377.671 614.883C375.775 614.826 372.545 614.763 370.965 614.706C369.384 614.649 369.068 614.618 367.893 614.528C367.311 614.471 367.628 614.427 367.95 614.402L365.915 614.3C361.358 614.098 365.371 614.073 360.814 614.041L361.143 613.845C359.398 613.61 358.203 613.155 358.431 612.287C359.777 612.673 358.127 612.768 361.358 612.553C361.765 612.534 362.173 612.494 362.577 612.432H362.761C363.355 612.287 364.025 612.432 364.714 611.837C364.754 611.809 364.793 611.778 364.827 611.742C366.603 610.767 369.884 610.279 371.647 611.799C370.111 610.437 368.645 610.254 366.654 610.235C366.401 610.235 365.099 611.565 364.607 611.375C364.568 611.375 364.574 611.374 364.607 611.426C364.567 611.391 364.525 611.361 364.48 611.337C364.234 611.237 364.011 611.089 363.824 610.9C363.637 610.712 363.49 610.488 363.393 610.241C362.881 608.677 361.408 608.867 360.308 609.221H360.27H360.137C359.633 609.273 359.126 609.286 358.62 609.26L358.563 609.221C358.444 609.157 358.311 609.123 358.175 609.123C358.039 609.123 357.906 609.157 357.786 609.221C357.868 609.221 357.837 609.304 357.154 609.786C355.656 610.824 360.118 611.197 358.197 609.918L358.07 609.994L357.793 610.026C357.002 610.113 356.216 610.247 355.441 610.425C355.251 610.469 355.062 610.52 354.891 610.577H332.478C332.207 610.575 331.937 610.591 331.669 610.621C330.569 610.748 329.583 611.597 328.622 612.123L334.311 612.198C333.483 612.217 332.661 612.354 331.871 612.603C330.578 612.998 329.228 613.174 327.876 613.123C326.865 613.067 325.853 613.242 324.919 613.636L325 613.705C325.541 613.975 326.136 614.111 326.739 614.105C327.34 614.066 328.079 613.915 328.136 614.535C328.768 614.465 329.4 614.37 330.102 614.25C333.3 614.041 354.816 613.908 357.767 612.35H358.039H358.247C358.108 612.308 357.963 612.288 357.817 612.294C358.329 612.023 358.82 611.718 359.29 611.381C359.328 611.431 359.385 611.381 359.417 611.444C359.448 611.508 359.417 611.654 359.468 611.723L359.417 611.768H359.385C359.345 611.808 359.303 611.846 359.259 611.882C357.628 613.3 359 613.737 360.371 613.845C359.493 614.243 358.567 614.525 357.615 614.681C355.94 614.605 335.79 614.497 334.115 614.345C332.112 614.585 330.108 614.731 328.104 614.877C328.109 614.919 328.109 614.962 328.104 615.003C328.736 615.593 328.914 615.827 329.52 615.796C329.72 615.788 329.918 615.762 330.115 615.719C330.392 615.675 330.683 615.612 330.967 615.555C332.681 615.213 353.02 614.858 354.676 615.783C354.674 615.799 354.674 615.817 354.676 615.833C354.711 616.07 354.783 616.298 354.891 616.511C355.169 617.062 355.435 617.207 353.444 616.973C351.926 616.96 350.416 617.197 348.975 617.676L348.678 617.778C348.81 617.778 348.88 617.822 348.88 617.847C348.376 617.981 347.853 618.035 347.332 618.006C346.333 618.05 344.911 618.081 343.223 618.107C340.613 618.144 337.37 618.164 334.071 618.164C333.692 618.072 333.301 618.051 332.914 618.1C332.87 618.116 332.828 618.138 332.788 618.164C330.892 618.164 329.065 618.164 327.32 618.164C323.086 618.164 319.483 618.094 317.991 618.043H317.599C317.688 618.081 317.833 618.144 317.991 618.227C318.447 618.436 319.015 618.778 318.889 619.247C319.173 619.247 322.612 619.285 327.32 619.31L339.361 619.355H345.771C345.426 619.447 345.103 619.608 344.823 619.829C344.601 620.001 344.633 620.159 344.772 620.286C345.106 620.507 345.496 620.628 345.897 620.634C345.96 620.634 346.289 620.678 346.384 620.634C344.784 621.387 343.192 620.875 341.548 620.773C340.379 622.084 338.154 621.039 336.846 621.07C333.641 621.16 347.907 621.704 344.753 622.229C346.43 622.434 348.122 622.486 349.809 622.388C350.208 622.388 350.606 622.388 351.004 622.388C350.95 622.503 350.888 622.616 350.821 622.724C350.745 622.845 350.654 622.955 350.549 623.053C350.319 623.257 350.053 623.418 349.765 623.528C349.335 623.39 348.873 623.387 348.441 623.518C348.009 623.649 347.626 623.908 347.344 624.263C348.684 624.203 350.027 624.277 351.352 624.484C351.693 624.535 352.034 624.592 352.375 624.662C349.771 625.428 347.319 625.788 344.721 625.251H344.588C342.071 625.77 339.511 626.045 336.94 626.074C336.461 626.507 335.888 626.822 335.265 626.992C334.001 627.321 332.738 627.074 331.429 626.992C330.47 627.83 329.348 628.462 328.136 628.847C328.907 628.936 329.678 628.892 330.442 629.056C329.269 630.296 327.67 631.045 325.968 631.152C326.234 630.887 326.537 630.696 326.815 630.444C325.172 630.604 323.567 631.032 322.062 631.71C321.915 631.679 321.768 631.655 321.619 631.64C320.861 631.577 320.109 631.723 321.619 631.964C321.847 632.001 322.125 632.033 322.46 632.078C324.508 632.318 326.398 632.407 328.243 632.552C330.632 632.68 332.993 633.123 335.265 633.87L335.733 634.04H335.265H334.273L334.387 634.104L333.193 634.015H333.256C330.778 633.832 328.288 633.895 325.823 634.205C326.043 634.237 326.265 634.281 326.486 634.294C326.53 634.294 326.517 634.218 326.556 634.224C326.739 634.224 326.916 634.345 327.105 634.357C328.622 634.446 330.121 634.358 331.581 634.877L331.801 634.965C330.974 634.965 330.146 634.965 329.311 634.901C330.714 635.015 332.117 635.117 333.521 635.206L334.785 635.288L334.615 635.25H336.372C336.296 635.313 336.606 635.326 336.251 635.383C339.096 635.345 341.858 635.383 344.582 635.421H344.683L344.816 635.472C346.352 635.503 347.117 635.51 347.344 635.472C352.704 635.63 348.912 635.922 344.601 636.231C339.677 636.592 334.084 636.973 340.758 637.232H341.093L344.588 637.352C347.66 637.46 350.992 637.555 354.386 637.663C357.281 637.751 342.92 637.847 345.809 637.948C343.091 637.948 357.685 637.948 354.967 637.948L344.588 637.998H338.167H344.101H354.455C357.988 637.998 344.222 637.998 347.756 637.998C349.19 638.055 350.599 638.106 351.971 638.169L351.389 638.214C348.109 638.543 363.095 638.815 361.117 639.056C356.99 639.55 354.354 639.899 347.521 640.322C347.553 640.322 347.521 640.278 347.262 640.379C346.795 640.576 348.652 640.684 349.487 640.652C343.166 641.285 347.989 641.875 356.825 641.919H358.14C357.368 642.013 356.59 642.034 355.814 641.982H355.725H355.612L354.853 642.077C353.014 642.299 346.004 642.622 340.233 642.856L332.927 643.154C332.036 643.261 338.084 643.419 337.434 643.502C336.22 643.66 335.076 643.78 333.944 643.881C332.813 643.983 331.53 644.109 330.279 644.255C330.229 644.319 330.166 644.371 330.095 644.407C329.981 644.469 329.861 644.515 329.735 644.547C328.983 644.651 328.225 644.708 327.466 644.718C327.131 644.762 328.218 645.706 325.007 646.485C323.634 646.593 322.274 646.84 320.949 647.219H320.981L320.596 647.327C319.666 647.6 319.868 647.903 320.981 647.846C322.352 648.226 323.718 648.638 325.134 648.954C325.607 649.041 326.087 649.086 326.568 649.087C327.933 649.151 326.265 649.474 327.371 649.366H327.409C327.826 649.474 328.231 649.575 328.673 649.651C328.905 649.697 329.139 649.729 329.375 649.746C329.741 649.784 330.121 649.803 330.499 649.823C330.759 649.823 331.031 649.822 331.296 649.86L333.414 649.93C341.845 650.658 334.602 650.297 343.052 650.563C343.932 650.563 344.823 650.563 345.708 650.607H346.554H347.818C346.883 650.607 326.043 650.696 326.594 650.708H327.434C328.433 650.708 329.432 650.76 330.431 650.778C331.909 650.817 333.395 650.842 334.855 650.892L337.131 650.949C348.444 651.12 344.033 651.475 355.346 651.691C357.135 651.691 358.658 651.779 360.453 651.798L362.173 651.829H363.013C363.418 651.829 363.828 651.798 364.233 651.772C365.7 651.696 367.16 651.772 368.626 651.772C368.24 651.912 368.354 652.033 368.664 652.153C368.664 652.026 368.714 651.899 368.734 651.772H369.29C369.625 651.741 369.922 651.684 370.275 651.627C371.999 651.863 373.741 651.936 375.478 651.842C376.726 651.828 377.974 651.896 379.213 652.045C381.925 652.235 384.643 652.311 387.361 652.349C387.642 652.402 387.927 652.433 388.214 652.444C388.375 652.43 388.535 652.407 388.694 652.374C389.383 652.374 390.009 652.374 390.672 652.374C390.641 652.55 390.641 652.731 390.672 652.906H390.59C390.654 652.906 390.678 652.906 390.59 652.906H390.489H390.401H390.344L389.712 652.976C385.514 653.438 381.294 653.662 377.07 653.647C376.763 653.624 376.465 653.529 376.2 653.369C375.936 653.21 375.712 652.99 375.547 652.729C375.547 652.729 375.547 652.672 375.547 652.577C375.547 652.482 373.101 651.754 372.482 652.368C372.482 652.368 372.431 652.317 372.412 652.305C372.064 652.184 371.729 652.026 371.388 651.886C370.712 651.961 370.05 652.131 369.423 652.394H369.34C369.144 652.425 368.563 652.552 368.379 652.862H368.266L367.779 652.824C366.433 652.723 362.394 652.33 360.498 653.058C359.302 653.46 358.041 653.632 356.781 653.565C355.775 653.512 354.77 653.68 353.835 654.059L353.918 654.135C354.452 654.407 355.044 654.546 355.644 654.54C356.383 654.496 357.312 654.287 356.977 655.509C357.211 655.743 358.178 655.914 359.429 656.041H359.683C362.482 656.307 357.951 656.345 358.702 656.206C358.981 656.161 359.272 656.098 359.569 656.041H364.258C364.434 656.113 364.605 656.196 364.77 656.288C364.77 656.288 364.77 656.427 364.827 656.567C365.017 657.447 365.977 657.789 363.563 657.466C362.407 657.314 360.118 657.808 358.803 658.251C362.166 658.847 365.592 658.676 369.018 658.461L369.1 658.542C369.557 659.044 369.942 659.607 370.244 660.215C370.288 660.215 370.143 660.215 370.124 660.215L370.617 660.265C371.678 660.367 373.891 660.05 375.377 660.163C376.483 660.246 378.22 661.563 379.169 660.094C379.169 660.17 379.371 660.056 379.251 659.968C379.227 660.01 379.2 660.05 379.169 660.088C379.169 660.043 379.251 659.917 379.529 659.657C380.268 658.986 382.999 658.954 384.301 658.638C384.69 658.609 385.081 658.609 385.471 658.638C387.032 659.587 387.809 658.916 389.332 658.34H389.484H389.44C389.505 658.332 389.568 658.317 389.629 658.295C390.261 658.124 392.619 657.447 393.245 658.226C394.32 659.575 395.141 659.157 396.405 659.131C397.67 659.106 399.167 659.131 400.337 659.024C402.183 658.916 398.618 657.821 401.601 658.327C404.243 658.77 422.788 658.923 425.367 658.466C425.322 658.466 425.284 658.466 425.304 658.409C425.651 658.65 426.751 659.252 427.054 659.081C428.887 658.055 431.27 658.295 432.863 658.264C434.039 658.264 434.336 658.359 434.968 657.415C434.892 657.415 434.937 657.415 434.968 657.384C436.15 656.535 437.268 656.592 438.583 656.523C439.015 656.527 439.444 656.45 439.848 656.295C440.077 656.2 440.3 656.092 440.517 655.971C440.662 655.889 411.48 655.807 411.568 655.737H449C448.906 655.59 448.795 655.454 448.671 655.332C449.847 655.332 451.022 655.364 452.205 655.332C453.3 655.247 454.401 655.367 455.453 655.686C455.758 655.678 456.061 655.656 456.363 655.616C458.919 655.513 461.478 655.544 464.03 655.712H426.777C426.774 655.756 426.782 655.8 426.799 655.841C426.816 655.882 426.844 655.918 426.878 655.946H457.95C460.661 655.946 463.348 655.895 466.015 655.775C468 655.68 470.009 655.579 471.969 655.433C472.968 655.364 473.96 655.294 474.952 655.193C475.945 655.091 476.912 655.027 477.879 654.901C479.194 654.755 480.471 654.61 481.785 654.445M372.576 556.772C372.001 556.95 371.136 557.197 370.478 557.361C370.238 557.418 369.953 557.501 369.713 557.583C369.741 557.373 369.758 557.162 369.764 556.95C369.972 555.962 370.617 556.95 371.142 556.804C371.922 556.855 372.696 556.632 373.329 556.17C373.234 556.69 373.006 556.645 372.576 556.772ZM387.588 556.006C387.729 556.267 387.796 556.564 387.778 556.861L387.089 556.893L386.172 556.943C386.666 556.544 387.181 556.172 387.714 555.829C387.967 555.671 388.1 555.594 387.993 555.246V555.215C388.359 555.607 387.885 555.835 387.588 556.006ZM405.52 605.587L405.324 605.638C404.692 605.783 403.263 606.1 402.467 606.271C402.204 606.304 401.949 606.386 401.715 606.511C401.032 606.483 400.361 606.319 399.743 606.03C398.199 606.368 396.621 606.525 395.04 606.499C394.785 606.515 394.53 606.515 394.276 606.499C392.189 606.113 390.052 606.079 387.954 606.398C387.165 606.511 385.35 606.695 385.388 605.638H385.313H385.622C386.381 605.587 387.556 605.638 388.593 605.638C394.219 605.638 399.97 605.605 405.659 605.593C405.612 605.595 405.566 605.593 405.52 605.587ZM373.86 658.15C373.596 658.053 373.329 657.97 373.057 657.903C372.265 657.762 371.464 657.665 370.661 657.612C370.197 657.6 369.733 657.651 369.283 657.764C369.498 656.104 371.129 656.554 372.336 656.56C373.411 656.633 374.492 656.598 375.56 656.453H376.192C375.364 656.965 374.435 657.136 373.86 658.15ZM463.815 554.024H462.09C462.659 554.024 463.24 554.017 463.815 554.024ZM511.852 555.999C514.779 555.366 465.421 555.366 468.189 555.024C470.218 554.803 471.109 556.038 472.948 556.025C473.585 556.008 474.217 555.947 474.845 555.841C476.229 555.81 477.613 555.81 479.004 555.81C480.887 556.124 482.809 556.124 484.693 555.81H484.958C485.242 555.81 485.527 555.81 485.792 555.81C487.828 555.854 489.895 555.81 491.942 555.81C492.201 555.838 492.462 555.808 492.707 555.721C492.455 555.675 492.199 555.656 491.942 555.664C492.043 555.626 492.297 555.581 492.297 555.55C492.297 555.519 492.119 555.493 491.513 555.487H486.172L486.646 555.379L487.347 555.227C487.676 555.227 487.979 555.227 488.339 555.227L487.613 555.189L488.245 555.075C489.357 555.075 490.464 555.075 491.569 555.075H491.702C492.049 555.164 492.404 555.329 492.707 555.386C494.649 555.697 496.627 555.713 498.573 555.43H501.177C503.016 555.43 504.04 555.353 504.147 555.132H507.219C507.939 555.512 508.724 555.753 509.532 555.841C510.494 555.892 510.36 555.841 510 555.132C511.688 555.132 513.369 555.132 515.057 555.202C514.065 555.29 512.959 555.246 511.941 555.272C511.543 555.272 511.119 555.272 511.163 555.36C511.417 555.414 511.676 555.433 511.934 555.417C513.262 555.417 514.608 555.467 515.866 555.417C517.769 555.813 519.714 555.973 521.656 555.892C520.773 555.999 519.882 556.026 518.995 555.975C517.237 555.857 515.472 555.908 513.723 556.126C513.394 556.069 513.091 556.012 512.744 555.981C512.56 555.981 512.371 555.981 512.188 555.981L512.137 555.601C511.827 555.715 511.688 555.835 512.074 555.981C511.84 555.981 511.606 555.981 511.372 555.981C511.139 555.981 510.955 555.981 510.74 555.981H510.676H509.887H509.697C509.255 555.981 508.275 555.981 507.662 555.918C507.314 555.886 506.828 555.867 506.442 555.861H505.607C505.032 555.861 504.451 555.861 503.875 555.861C502.075 555.861 500.254 555.975 498.453 555.999C494.338 556.056 490.236 556.152 486.108 556.253C482.227 556.05 478.17 556.006 474.149 556.183C471.837 556.284 469.605 556.304 467.273 556.297L461.243 556.253C461.104 556.253 513.705 556.253 513.591 556.209C512.949 556.132 512.302 556.101 511.657 556.113H511.328L511.852 555.999ZM486.197 552.225H487.973C487.171 552.44 486.368 552.65 485.558 552.859C485.817 552.605 486.026 552.39 486.241 552.225H486.197ZM484.105 555.342C486.304 555.342 488.53 555.29 490.723 555.342L489.509 555.721C488.947 555.862 488.365 555.898 487.79 555.829C487.417 555.829 487.006 555.747 486.614 555.753C485.836 555.767 485.059 555.701 484.294 555.557C484.08 555.512 483.877 555.474 483.663 555.443C483.833 555.386 483.991 555.373 484.149 555.342H484.105ZM480.059 556.044C480.1 555.799 480.223 555.576 480.407 555.41C480.995 555.41 481.576 555.41 482.158 555.41C482.247 555.41 482.341 555.474 482.423 555.512C482.299 555.553 482.179 555.604 482.063 555.664L481.779 555.81H481.323C480.944 555.81 480.508 555.854 480.552 555.905C480.849 555.965 481.153 555.985 481.457 555.962C481.314 556.031 481.165 556.088 481.014 556.133H479.624C479.202 556.05 478.791 555.913 478.403 555.728C478.998 555.804 479.56 555.911 480.104 556.044H480.059ZM475.85 554.29C475.316 554.496 474.767 554.656 474.206 554.771C471.318 554.771 468.423 554.98 465.535 555.132H465.408C468.885 554.632 472.361 554.429 475.85 554.29ZM456.483 556.823H456.591H456.483ZM443.968 560.3H443.924H444C444 560.3 443.975 560.306 443.962 560.312L443.968 560.3ZM434.803 555.696C434.14 555.696 433.444 555.696 432.819 555.696L431.453 555.74C432.55 555.641 433.64 555.474 434.715 555.24C439.5 555.559 444.303 555.559 449.088 555.24C452.451 555.062 455.744 555.018 459.1 555.145H459.056L455.453 555.208C448.5 555.36 441.643 555.557 434.797 555.708L434.803 555.696ZM402.03 656.433H401.771C401.399 656.466 401.089 656.503 400.849 656.535C395.824 656.339 390.812 656.807 385.787 657.118C385.412 657.198 385.044 657.305 384.687 657.441C383.221 657.283 381.583 657.441 380.351 656.433H380.319C380.003 656.167 379.737 655.848 379.529 655.49C380.885 655.566 382.244 655.566 383.6 655.49C386.838 655.218 390.095 655.218 393.334 655.49C395.574 655.729 397.838 655.638 400.052 655.224C403.263 655.009 422.971 654.724 426.1 653.426H426.871C426.043 654.812 427.636 654.806 428.35 654.946C425.025 656.041 407.643 656.01 402.043 656.446L402.03 656.433Z" fill="url(#paint6_linear_642_45)"/>
<path style="mix-blend-mode:multiply" opacity="0.3" d="M558.974 611.206C558.937 611.206 558.86 611.263 558.823 611.294L559.107 611.18C560.965 610.426 563.033 609.458 565.333 608.381C575.041 603.802 587.455 596.944 592.114 590.136C592.448 589.692 592.746 589.217 593.043 588.743L592.41 589.743C582.929 605.196 569.27 618.78 552.742 629.565C547.564 632.969 542.172 636.034 536.6 638.741H536.53C513.693 650.032 486.798 656.543 457.976 656.543H426.891C426.861 656.52 426.838 656.489 426.821 656.454L441.049 656.118C440.913 656.297 440.738 656.442 440.537 656.543H402.039C407.645 656.106 425.021 656.131 428.338 655.08C427.631 654.94 426.031 654.953 426.86 653.56H426.088C422.96 654.865 403.259 655.144 400.041 655.365C397.826 655.781 395.562 655.869 393.322 655.624C390.084 655.352 386.827 655.352 383.588 655.624C382.233 655.707 380.874 655.707 379.518 655.624C379.727 655.984 379.996 656.306 380.314 656.574H359.406C358.142 656.447 357.193 656.27 356.953 656.036C357.295 654.814 356.359 655.023 355.62 655.067C355.02 655.072 354.428 654.933 353.894 654.662L353.811 654.592C354.747 654.207 355.755 654.037 356.763 654.092C358.023 654.158 359.284 653.986 360.48 653.585C362.376 652.864 366.409 653.25 367.755 653.351L368.242 653.389C368.282 653.395 368.322 653.395 368.361 653.389C368.539 653.079 369.12 652.958 369.323 652.921H369.405C370.033 652.66 370.695 652.489 371.371 652.414C371.711 652.553 372.053 652.711 372.401 652.838C372.401 652.838 372.451 652.908 372.464 652.895C373.096 652.262 375.529 653.104 375.529 653.104C375.525 653.157 375.525 653.21 375.529 653.262C375.689 653.528 375.912 653.751 376.178 653.911C376.443 654.071 376.743 654.164 377.052 654.18C381.276 654.202 385.497 653.978 389.694 653.51L390.327 653.446C390.288 653.446 390.282 653.446 390.327 653.446H390.395H390.465H390.566C390.674 653.446 390.643 653.446 390.566 653.446C390.593 653.441 390.621 653.441 390.649 653.446C390.617 653.271 390.617 653.09 390.649 652.914C389.978 652.914 389.353 652.864 388.67 652.914C388.51 652.946 388.347 652.97 388.184 652.984C387.899 652.977 387.615 652.945 387.337 652.888C384.619 652.851 381.901 652.781 379.189 652.585C377.948 652.438 376.697 652.37 375.447 652.382C373.711 652.477 371.969 652.408 370.245 652.173C369.917 652.23 369.613 652.281 369.266 652.312C369.083 652.312 368.893 652.312 368.71 652.344C368.71 652.471 368.666 652.597 368.64 652.724C368.324 652.597 368.216 652.483 368.596 652.344C367.129 652.344 365.669 652.281 364.209 652.344C363.799 652.344 363.394 652.388 362.983 652.395H362.149H360.423C358.628 652.395 357.105 652.319 355.316 652.281C344.009 652.065 348.414 651.711 337.107 651.54L334.824 651.482C333.345 651.438 331.867 651.407 330.4 651.375C329.395 651.375 328.403 651.331 327.404 651.3C327.119 651.3 326.842 651.3 326.563 651.3C326.014 651.3 346.852 651.223 347.782 651.198H346.518C346.233 651.198 345.949 651.198 345.671 651.198C344.779 651.198 343.895 651.198 343.01 651.153C334.565 650.906 341.809 651.274 333.377 650.52L331.259 650.444H330.464C330.084 650.444 329.698 650.4 329.332 650.369C329.092 650.343 328.857 650.312 328.631 650.273C328.201 650.197 327.79 650.096 327.366 649.988H327.328C326.228 650.096 327.897 649.78 326.526 649.716C326.046 649.709 325.569 649.663 325.097 649.577C323.681 649.26 322.316 648.855 320.944 648.475C319.826 648.525 319.63 648.221 320.559 647.956C320.683 647.912 320.809 647.877 320.938 647.848H320.906C322.232 647.462 323.594 647.214 324.971 647.107C328.175 646.334 327.094 645.384 327.423 645.34C328.182 645.329 328.94 645.274 329.692 645.176C329.819 645.145 329.94 645.096 330.052 645.03H445.24C448.508 645.03 451.782 644.941 455.018 644.764C455.178 644.748 455.339 644.748 455.498 644.764C469.563 644.055 489.713 641.736 502.43 638.051H502.619C502.754 638.003 502.891 637.963 503.03 637.931C503.327 637.841 503.624 637.785 503.884 637.696C517.606 633.656 523.604 628.038 535.094 621.148C553.766 609.945 569.094 595.329 579.542 578.452C582.28 574.019 584.67 569.38 586.69 564.576V564.538H586.729C586.83 564.515 586.929 564.483 587.025 564.443C588.901 563.894 590.746 563.241 592.55 562.486C597.051 560.684 601.261 558.221 605.04 555.178C605.03 555.206 605.02 555.234 605.008 555.26C602.555 561.701 590.173 591.199 566.066 607.051V607.082C563.789 608.601 561.42 609.978 558.974 611.206Z" fill="url(#paint7_linear_642_45)"/>
<path d="M250.601 645.964L317.82 652.246L317.593 639.105L286.691 638.351L317.6 637.781L317.606 635.121L267.578 634.317L301.95 634.001L286.698 633.703L317.606 633.133L317.625 626.889L271.256 626.097L313.624 625.679L310.641 625.534L317.631 624.906L317.65 617.516L312.606 617.263L316.19 617.098L272.704 616.635L307.032 616.49L297.746 616.344L317.65 616.059L317.662 610.645L286.761 609.891L305.831 609.606L286.761 609.226L314.547 608.814L310.685 608.624L314.25 608.15L317.669 607.94L317.675 605.636L310.584 605.167L314.641 604.913L286.774 604.223L317.682 603.653L317.695 597.764L286.792 597.004L317.701 596.433L317.707 593.774L267.679 592.97L302.051 592.659L286.805 592.355L317.707 591.785L317.726 585.547L271.357 584.75L313.725 584.332L310.742 584.185L317.732 583.559L317.751 576.168L312.707 575.915L316.292 575.75L272.805 575.288L307.133 575.142L297.847 574.997L317.751 574.712L317.764 569.297L286.862 568.543L305.932 568.258L286.862 567.879L314.648 567.467L310.786 567.277L314.345 566.802L317.77 566.593L317.776 564.287L310.685 563.819L314.742 563.572L286.875 562.875L317.783 562.305L317.82 546.485L250.601 552.369V645.964Z" fill="#E9603E"/>
<path d="M273.627 550.554L250.601 552.39V645.984L301.899 650.316C302.659 646.472 303.199 642.588 303.517 638.683L286.673 638.353L303.568 638.1C303.656 637.004 303.713 635.909 303.744 634.826L267.553 634.313L301.924 634.003L286.685 633.705L303.751 633.451C303.791 631.155 303.69 628.858 303.448 626.574L271.212 626.099L303.346 625.783C303.147 624.143 302.842 622.518 302.43 620.919C302.063 619.513 301.646 618.183 301.166 616.897L272.634 616.637L301.033 616.511C301.033 616.473 301.033 616.442 300.989 616.397L297.676 616.346H300.964C300.185 614.22 299.26 612.151 298.195 610.153L286.691 609.918L297.98 609.753C297.93 609.665 297.879 609.564 297.828 609.481L286.685 609.26L297.614 609.095C296.684 607.449 295.718 605.929 294.675 604.415L286.704 604.257L294.478 604.137C292.747 601.647 290.888 599.343 289.036 597.081L286.723 597.037L288.974 596.999C287.949 595.733 286.919 594.516 285.914 593.256L267.584 593.003L285.554 592.838C283.487 590.325 281.586 587.678 279.865 584.916L271.243 584.783L279.739 584.701C277.959 581.761 276.531 578.622 275.485 575.347L272.691 575.315H275.479C274.896 573.494 274.431 571.636 274.088 569.755C273.058 563.406 272.903 556.945 273.627 550.554Z" fill="#5C5C5C"/>
<path d="M262.505 592.557C260.318 593.381 257.417 601.277 255.23 601.1C242.702 600.087 230.16 599.382 217.603 598.985C205.771 598.622 193.94 598.582 182.112 598.865C174.61 599.036 167.246 600.252 159.819 600.878C150.263 601.682 127.015 584.09 125.972 579.98C125.776 579.195 125.726 578.334 125.151 577.675C124.518 578.194 124.411 578.941 124.183 579.67C122.309 585.492 122.671 591.807 125.2 597.375C127.729 602.945 132.242 607.367 137.855 609.777C144.808 612.861 152.095 613.012 159.503 612.151C168.491 611.106 177.068 608.155 185.911 606.452C190.121 605.641 194.324 604.849 198.616 604.748C207.755 604.533 220.46 607.002 223.967 616.685C232.545 637.052 249.351 652.036 256.633 652.523C258.283 652.637 259.054 652.289 259.161 650.44C259.471 646.007 260.027 641.644 260.426 637.242C261.247 628.921 262.347 597.351 262.505 592.557Z" fill="#BF1E61"/>
<path d="M259.451 546.899C259.217 546.265 259.293 545.632 258.402 545.436C250.987 543.764 244.098 544.315 238.232 549.869C234.408 553.466 232.329 558.14 230.015 562.693C226.261 570.065 221.994 577.024 214.214 580.932C211.211 582.028 206.136 584.896 197.198 581.685C189.911 579.07 160.892 561.066 140.995 565.549C133.764 567.177 128.101 570.653 125.13 577.715C125.661 598.392 150.248 601.71 159.805 600.906C167.232 600.273 174.596 599.064 182.098 598.893C193.939 598.626 205.769 598.666 217.589 599.013C230.154 599.392 242.651 601.127 255.216 601.127C261.682 601.127 262.276 600.172 262.276 599.861C262.345 592.243 264.437 560.679 259.451 546.899Z" fill="#9B1B47"/>
<path d="M419.635 537.222C419.027 537.315 418.426 537.457 417.84 537.645C413.269 538.057 408.744 536.804 404.396 539.489H404.187C403.814 539.489 402.468 539.66 401.987 540.172L401.792 540.242C400.862 540.542 399.916 540.793 398.96 540.989C398.752 540.987 398.547 541.045 398.372 541.158C398.196 541.27 398.058 541.432 397.974 541.623C397.97 541.644 397.97 541.665 397.974 541.686C397.974 541.585 398.012 541.357 397.86 542.066C397.557 543.504 397.019 543.624 399.61 543.175C402.335 542.706 406.014 543.079 408.997 543.022C411.267 542.984 413.699 543.067 415.982 543.022C415.792 543.061 415.52 543.092 415.35 543.111H414.957C413.693 543.111 411.557 543.111 409.781 543.175C403.959 543.313 389.681 543.808 383.752 544.073C377.362 544.333 355.847 544.707 349.457 544.776C348.702 544.768 347.956 544.932 347.275 545.258C349.69 545.296 352.238 545.524 354.627 545.505C363.728 545.442 396.008 545.404 405.098 544.587C407.562 544.365 410.084 544.511 412.556 544.308C415.659 544.264 418.762 544.257 421.859 544.244C421.764 544.291 421.681 544.361 421.62 544.447H421.569C421.452 544.379 421.319 544.343 421.183 544.343C421.048 544.343 420.915 544.379 420.798 544.447C420.849 544.447 420.76 544.561 420.134 544.954C419.273 545.405 418.328 545.677 417.359 545.752C416.536 545.85 415.705 545.85 414.882 545.752C414.108 545.684 413.357 545.455 412.676 545.081L412.581 545.137H412.549H412.398C411.341 545.225 410.296 545.424 409.282 545.733C409.067 545.805 408.855 545.89 408.65 545.986C408.018 545.91 407.322 545.803 406.646 545.733C406.001 545.66 405.351 545.649 404.705 545.701L404.503 545.733C403.239 545.974 402.101 547.133 400.976 547.487C400.192 547.735 400.42 547.443 399.807 547.157C399.579 545.175 388.594 545.847 387.797 545.891C386.71 545.935 385.484 545.733 385.567 547.297H385.402H385.314L384.858 547.341C381.597 547.683 360.808 548.083 356.978 547.975C356.687 547.93 356.408 547.824 356.161 547.663C355.914 547.503 355.703 547.292 355.543 547.043V547.006C355.48 546.872 355.701 547.215 355.505 546.879C355.088 546.138 353.293 546.392 352.547 546.651C352.547 546.651 352.491 546.62 352.471 546.607C352.13 546.474 351.788 546.328 351.454 546.176C350.769 546.153 350.092 546.324 349.501 546.67C349.119 546.747 348.759 546.912 348.451 547.152H348.357C347.958 547.025 348.989 547.323 347.92 546.993C347.252 546.814 346.569 546.694 345.879 546.632C344.134 546.467 341.941 546.556 340.639 547.373C339.344 547.723 338.004 547.88 336.663 547.842H336.588C335.608 547.786 334.63 547.953 333.724 548.329L333.813 548.412C334.346 548.672 334.932 548.809 335.526 548.811C335.878 548.753 336.236 548.753 336.588 548.811C336.872 548.912 337.023 549.165 336.853 549.767C337.605 550.527 337.738 550.679 338.844 550.495C340.74 550.185 342.959 549.66 344.874 550.591L344.937 550.882C345.152 551.806 345.936 552.091 343.673 551.768C342.586 551.616 340.241 552.091 338.964 552.528C387.209 552.528 343.565 553.003 345.916 552.939C346.985 552.908 348.059 552.858 349.134 552.794V552.845C349.176 552.928 349.207 553.014 349.229 553.105C349.387 553.598 349.659 554.763 350.297 554.599H350.765C351.801 554.643 354.026 554.378 355.487 554.536C356.574 554.656 358.312 555.942 359.279 554.498C359.279 554.441 359.361 554.314 359.639 554.067C360.378 553.434 367.122 553.383 368.412 553.073C368.412 553.073 380.421 553.073 380.529 553.073C382.071 554.023 382.842 553.364 384.359 552.794H384.41L384.587 552.756C385.218 552.585 395.799 551.92 396.425 552.699C397.506 554.048 398.321 553.636 399.586 553.618C400.85 553.598 402.196 553.573 403.467 553.522C404.737 553.471 402.973 552.534 405.11 552.889C407.006 553.219 409.756 553.585 411.842 552.972C411.842 552.972 411.809 552.921 411.842 552.934C412.195 553.162 413.276 553.776 413.586 553.605C415.407 552.579 417.776 552.832 419.357 552.801C420.52 552.801 420.829 552.889 421.449 551.958C421.373 551.958 421.417 551.958 421.449 551.958C422.631 551.122 423.736 551.18 425.058 551.103C425.49 551.114 425.919 551.041 426.322 550.888C428.693 549.881 427.251 549.45 425.943 549.191C424.887 548.981 420.886 550.128 421.644 547.487C423.099 547.963 424.658 548.011 426.139 547.626C426.689 547.487 427.675 547.202 428.035 547.107C430.513 547.253 432.756 546.803 435.165 546.968C434.379 546.374 433.483 545.943 432.529 545.701C431.732 545.524 430.918 545.432 430.102 545.429C429.909 545.484 429.729 545.577 429.571 545.701C429.105 546.064 428.592 546.362 428.048 546.588C427.998 546.572 427.949 546.553 427.902 546.531C427.684 546.468 427.482 546.359 427.311 546.21C427.139 546.061 427.002 545.877 426.91 545.67C426.872 545.592 426.842 545.512 426.821 545.429C426.767 545.172 426.657 544.93 426.5 544.72C426.343 544.51 426.142 544.337 425.911 544.213C427.662 544.213 429.413 544.213 431.164 544.213C434.324 544.169 437.573 544.137 440.771 544.124C440.802 544.151 440.839 544.17 440.879 544.181C440.987 544.24 441.109 544.266 441.231 544.255C441.354 544.245 441.471 544.2 441.568 544.124H463.683C463.76 544.167 463.84 544.201 463.924 544.226C464.198 544.318 464.491 544.345 464.777 544.301C464.979 544.251 464.967 544.181 465.119 544.124H475.863C477.107 544.158 478.351 544.059 479.573 543.827C475.099 543.719 470.586 543.782 466.092 543.764C467.596 543.396 469.106 543.13 470.592 542.636H481.755C481.243 542.703 480.749 542.868 480.301 543.124L508.472 544.156C508.462 544.21 508.448 544.263 508.427 544.314C507.681 544.472 506.683 544.707 506 544.84C505.425 544.954 505.337 544.922 504.97 545.422C504.97 545.422 504.97 545.422 504.939 545.473C504.792 545.594 504.635 545.702 504.471 545.796H590.761C590.761 545.847 590.729 545.891 590.717 545.942C588.946 551.774 586.146 556.999 583.012 561.964L583.302 561.831C584.844 561.183 586.348 560.449 587.809 559.634C587.859 559.602 587.912 559.575 587.967 559.551V559.615C587.996 559.584 588.03 559.558 588.068 559.538H588.144H588.188V559.481H588.226C589.224 558.937 590.173 558.399 591.07 557.797C591.703 557.385 592.335 556.98 592.878 556.531C593.422 556.081 594.142 555.637 594.686 555.156L595.507 554.472C595.784 554.253 596.05 554.021 596.304 553.776C596.885 553.263 597.435 552.731 597.966 552.224C597.966 552.224 597.966 552.224 597.966 552.179L598.017 552.135L598.061 552.085C598.497 551.648 598.908 551.211 599.268 550.78C599.483 550.558 599.679 550.343 599.85 550.147C600.02 549.951 600.21 549.71 600.381 549.514C600.741 549.077 601.076 548.665 601.392 548.247C601.708 547.829 602.024 547.38 602.283 546.98C602.543 546.581 602.751 546.29 602.966 545.948C604.207 544.013 605.241 541.952 606.051 539.799C606.145 539.559 606.24 539.318 606.316 539.102C606.455 538.665 606.556 538.304 606.626 538.039V537.823C606.638 537.775 606.638 537.726 606.626 537.677C606.628 537.641 606.628 537.605 606.626 537.57C606.628 537.54 606.628 537.51 606.626 537.481C606.635 537.443 606.65 537.407 606.67 537.373V537.323C606.72 537.246 606.72 537.228 606.72 537.228L419.635 537.222ZM403.833 550.698C398.859 550.489 385.617 550.932 380.63 551.211C380.263 551.294 368.949 551.395 368.589 551.534C366.775 551.325 360.663 551.616 359.43 549.539C360.764 549.615 366.174 549.653 367.508 549.577C370.713 549.387 393.252 549.286 396.374 549.634C398.597 549.883 400.844 549.804 403.043 549.4C406.76 549.185 410.248 549.083 413.655 546.677C413.687 546.721 413.75 546.677 413.782 546.74C413.813 546.803 413.782 546.962 413.826 547.025C413.809 547.051 413.788 547.075 413.763 547.095C413.732 547.139 413.655 547.234 413.504 547.411C412.828 548.247 413.225 549.469 414.768 549.102C411.07 550.324 407.487 550.109 403.82 550.698H403.833ZM511.828 543.434L511.733 543.478L511.582 543.554H511.525C511.525 543.554 511.525 543.554 511.487 543.523C511.29 543.403 510.994 543.523 510.766 543.523C510.045 543.593 509.319 543.593 508.598 543.523L507.631 543.326C504.66 542.731 499.174 543.029 495.23 542.965C492.07 542.921 487.645 542.63 484.346 542.674C486.589 542.636 488.96 542.674 491.236 542.674C492.224 542.653 493.21 542.532 494.174 542.313H494.263H495.609C495.824 542.313 495.717 542.313 495.717 542.313C496.144 542.464 496.588 542.568 497.038 542.623C501.962 542.623 506.873 542.623 511.797 542.623C512.241 542.567 512.678 542.469 513.105 542.332C513.022 542.332 512.909 542.231 513.415 542.382C513.655 542.452 514.008 542.61 514.407 542.782C513.524 542.916 512.656 543.135 511.815 543.434H511.828ZM517.788 542.301C517.783 542.276 517.77 542.253 517.751 542.237C517.842 542.103 517.945 541.978 518.06 541.863C518.781 541.129 522.213 541.135 523.015 542.439C521.884 542.079 519.843 542.098 517.788 542.301ZM477.469 545.581L477.121 545.499C475.544 545.188 473.928 545.119 472.33 545.296C472.28 545.296 472.293 545.296 472.286 545.296C472.043 545.328 471.796 545.328 471.553 545.296C471.167 545.22 470.712 544.846 470.39 545.296C466.035 545.398 445.17 545.492 440.815 545.587C440.076 545.315 439.551 545.239 438.989 545.803H482.045C481.495 545.739 480.951 545.67 480.408 545.581C479.426 545.655 478.439 545.655 477.456 545.581H477.469Z" fill="url(#paint8_linear_642_45)"/>
<path style="mix-blend-mode:hard-light" opacity="0.66" d="M585.704 564.917C584.333 568.153 553.639 638.189 454.753 644.946C443.66 645.396 359.531 644.269 359.531 644.269L359.803 644.231C360.435 644.174 360.682 644.142 360.764 644.142H360.853C361.983 644.179 363.114 644.12 364.234 643.964C363.603 643.844 363.533 643.566 365.581 643.23C366.371 643.103 367.477 642.964 368.994 642.825C369.778 642.825 377.363 642.742 377.805 642.565C377.898 642.529 377.996 642.51 378.096 642.508L381.003 642.35H381.091L382.096 642.28C389.239 641.818 390.364 641.349 399.858 640.494C400.034 640.494 400.237 640.494 400.49 640.437L395.882 640.26C388.038 640.291 387.159 640.291 382.261 640.291C385.902 640.26 386.401 640.203 393.227 640.203C384.89 639.943 376.123 639.741 369.133 639.487H368.753C361.048 639.221 362.231 638.854 362.496 638.455C362.501 638.436 362.501 638.416 362.496 638.398C362.54 638.284 362.452 638.176 361.915 638.081C360.226 637.871 358.527 637.763 356.826 637.758C356.593 637.758 364.316 637.758 362.622 637.758C362.58 637.723 362.526 637.703 362.471 637.701C360.764 637.67 359.02 637.65 357.25 637.65C355.939 637.65 354.625 637.65 353.305 637.65C353.685 637.587 353.338 637.587 353.452 637.53C352.781 637.53 352.143 637.53 351.498 637.53C351.529 637.537 351.562 637.537 351.593 637.53C349.621 637.416 347.668 637.328 345.696 637.157C346.6 637.214 347.529 637.214 348.407 637.214C346.745 636.581 345.02 636.745 343.268 636.631C343.056 636.606 342.844 636.568 342.636 636.517C342.573 636.517 342.605 636.574 342.573 636.574C342.33 636.562 342.087 636.532 341.846 636.485C344.509 636.18 347.194 636.12 349.867 636.308L351.182 636.397C351.151 636.365 351.125 636.365 351.062 636.333C351.593 636.333 352.086 636.333 352.668 636.333C351.693 636.015 350.701 635.752 349.696 635.548C349.052 635.422 348.407 635.313 347.762 635.225C344.647 634.801 341.569 634.794 338.079 634.408C337.757 634.393 337.435 634.353 337.119 634.288V634.085C337.297 634.091 337.474 634.111 337.65 634.142C339.286 633.48 341.016 633.076 342.776 632.945C342.485 633.18 342.144 633.382 341.878 633.648C342.742 633.558 343.592 633.358 344.406 633.053C345.251 632.72 346.017 632.216 346.656 631.571C345.81 631.425 344.963 631.457 344.128 631.368C345.417 631.018 346.619 630.401 347.655 629.557C349.722 629.671 351.858 630.14 353.666 628.652C356.038 628.615 358.405 628.42 360.752 628.069C358.097 628.037 353.666 627.746 355.474 627.252C353.869 626.955 354.956 626.784 356.384 626.841C357.142 625.96 357.958 625.96 358.982 626.105C359.263 626.03 359.524 625.892 359.743 625.699C359.962 625.507 360.134 625.267 360.246 624.997C359.779 624.997 359.311 624.997 358.843 624.997C357.035 624.997 363.798 625.118 362.003 624.839C365.41 624.314 353.742 623.788 357.212 623.699C358.672 623.667 361.125 624.693 362.351 623.401C363.805 623.497 356.662 623.838 358.047 623.573C358.397 623.509 358.738 623.405 359.064 623.262C358.944 623.262 358.596 623.262 358.508 623.262C358.444 623.267 358.381 623.267 358.319 623.262C357.967 623.213 357.626 623.101 357.313 622.933C357.13 622.806 357.067 622.654 357.313 622.483C358.578 621.578 360.202 621.926 361.599 622.128C361.469 622.265 361.323 622.385 361.162 622.483C364.455 622.395 367.723 622.249 371.023 622.071L374.183 621.894C374.386 621.23 372.919 620.818 372.666 620.672C371.629 620.735 370.593 620.799 369.556 620.843C366.863 620.992 364.162 620.877 361.491 620.501C362.364 620.234 363.253 620.022 364.152 619.868C364.971 619.714 365.804 619.652 366.637 619.684C369.379 619.975 368.273 619.684 368.007 618.779C368.007 618.734 368.007 618.69 368.007 618.658C368.004 618.612 368.004 618.565 368.007 618.519H367.976C365.821 617.467 363.425 618.107 361.327 618.462C360.101 618.665 359.987 618.462 359.108 617.759C359.43 616.562 358.438 616.764 357.623 616.821C357.244 616.821 364.613 616.676 364.291 616.41C364.234 616.41 364.203 616.353 364.178 616.353C365.252 615.884 357.68 615.859 358.817 615.859C360.286 615.915 361.753 615.738 363.166 615.334C362.616 616.239 363.868 616.53 365.094 616.6C364.86 616.689 366.725 616.777 369.727 616.834C369.753 616.748 369.764 616.658 369.759 616.569C370.138 616.626 371.921 616.657 373.728 616.689C373.381 616.654 373.049 616.532 372.761 616.334C372.634 616.246 372.534 616.126 372.47 615.986L374.202 616.094C375.877 616.195 377.653 616.277 379.429 616.353C381.382 616.435 383.348 616.505 385.187 616.569C384.761 616.655 384.35 616.804 383.967 617.012C383.967 617.012 383.967 617.012 383.967 617.069C384.757 617.069 385.51 617.069 386.268 617.069H384.024C384.207 617.266 384.401 617.452 384.606 617.626C384.024 617.594 383.38 617.594 382.798 617.568C382.894 617.402 382.972 617.226 383.032 617.043H382.027C382.375 617.043 382.754 617.043 383.076 617.043C382.318 616.923 381.559 616.809 380.801 616.657C380.646 616.765 380.517 616.906 380.421 617.069H379.657C377.394 617.037 375.232 616.986 373.273 616.961C373.6 617.02 373.921 617.106 374.233 617.22L376.13 617.309C375.031 617.366 373.929 617.366 372.83 617.309C373.085 617.658 373.39 617.967 373.734 618.227L373.962 618.392H373.684C372.445 618.433 371.204 618.355 369.98 618.157C370.677 618.372 371.396 618.505 372.123 618.557L373.387 618.683C373.259 618.792 373.157 618.928 373.086 619.079C373.015 619.231 372.978 619.397 372.976 619.563C373.466 619.469 373.963 619.419 374.461 619.412C375.343 619.456 376.221 619.556 377.091 619.71C377.397 619.759 377.7 619.836 377.995 619.937C378.222 619.532 377.363 619.241 376.098 619.038C376.913 619.152 377.76 619.152 378.576 619.209C378.987 619.095 379.366 618.974 379.777 618.886C383.569 618.652 387.362 618.392 391.154 618.214C389.347 618.247 387.538 618.304 385.756 618.247C387.071 618.1 388.379 617.98 389.694 617.866C389.745 617.854 389.793 617.835 389.839 617.809H390.774C393.075 617.632 395.446 617.518 397.778 617.309L393.284 617.22C393.916 617.163 394.592 617.106 395.269 616.992C396.286 616.929 394.637 616.872 391.679 616.784C397.279 616.46 402.848 616.872 408.422 617.132C412.094 617.309 415.691 617.341 419.363 617.341C419.824 617.341 420.292 617.341 420.76 617.341L420.387 617.284C422.555 617.04 424.735 616.913 426.917 616.904C426.625 617.487 425.924 617.284 425.431 617.397C425.502 617.443 425.581 617.473 425.665 617.487H427.94C428.054 617.22 427.852 617.081 427.707 616.853H438.262C436.776 616.676 436.284 616.442 434.558 616.271C432.407 616.045 430.24 616.026 428.085 616.214C428.12 616.116 428.13 616.011 428.115 615.908C428.099 615.805 428.059 615.708 427.997 615.625C427.618 615.625 427.239 615.625 426.891 615.625C426.501 615.753 426.099 615.84 425.69 615.884C425.924 615.65 426.19 615.682 426.48 615.65C424.768 615.586 423.048 615.536 421.329 615.485C421.139 615.289 420.966 615.077 420.81 614.852C421.815 614.352 422.22 614.219 423.339 614.574C424.188 614.777 425.067 614.839 425.937 614.757C431.689 614.168 437.402 614.637 443.116 614.94C446.46 615.118 466.243 615.15 469.587 615.143C470.023 615.143 470.447 615.143 470.851 615.143L470.497 615.08C472.483 614.854 474.479 614.731 476.477 614.712C476.174 615.346 475.56 615.112 475.099 615.213C475.162 615.213 475.219 615.321 475.294 615.321C475.996 615.321 476.692 615.321 477.387 615.321C477.5 615.055 477.311 614.896 477.197 614.688C480.409 614.688 483.575 614.688 486.811 614.688C485.478 614.491 485.016 614.269 483.467 614.086C481.501 613.859 479.516 613.835 477.545 614.016C477.589 613.923 477.609 613.819 477.6 613.716C477.593 613.612 477.559 613.513 477.5 613.427L476.483 613.389C476.133 613.525 475.764 613.611 475.39 613.643C475.61 613.427 475.863 613.465 476.123 613.44C474.151 613.347 472.179 613.275 470.207 613.225C470.374 613.368 470.497 613.558 470.561 613.769C470.355 613.518 470.087 613.325 469.783 613.212C468.064 613.168 448.634 613.104 447.193 613.047C445.752 612.99 445.474 612.946 444.406 612.844C443.577 612.769 444.773 612.712 444.835 612.705C444.203 612.661 443.496 612.648 442.826 612.616C441.384 612.547 439.943 612.502 438.502 612.471C438.329 612.224 438.253 611.922 438.287 611.622C433.439 611.622 428.66 611.622 423.819 611.705C423.38 611.668 422.951 611.55 422.555 611.356L425.564 611.179L417.688 610.951L409.187 610.653H439.526H439.659C440.588 610.71 441.625 610.653 442.598 610.653C445.827 611.16 465.618 611.21 468.866 611.286C471.395 611.35 473.841 611.42 476.344 611.47C476.502 611.47 476.66 611.47 476.824 611.433C476.828 611.371 476.828 611.31 476.824 611.249C476.929 611.284 477.026 611.34 477.109 611.413C480.396 611.126 483.68 610.864 486.962 610.628H454.929C471.363 610.628 487.443 605.726 500.072 596.22V596.189C501.946 594.783 503.739 593.273 505.444 591.667C508.908 588.425 511.828 584.942 513.553 581.388L514.976 581.066C514.072 584.27 511.31 589.666 503.757 598.292C501.918 600.419 499.756 602.725 497.259 605.257C500.864 603.939 504.372 602.369 507.758 600.559C516.36 595.973 527.2 588.248 527.788 578.134C527.845 577.157 527.804 576.177 527.668 575.208C525.108 556.57 516.354 553.714 516.354 553.714C516.354 553.714 524.419 552.751 531.7 569.198C532.778 571.601 533.539 574.134 533.963 576.734C536.27 591.654 525.177 602.42 519.059 607.057C517.854 607.965 516.603 608.811 515.311 609.589C515.621 609.501 517.466 608.918 520.437 607.81C530.942 603.871 555.289 593.339 572.854 574.644C575.287 572.051 577.562 569.315 579.668 566.449C580.515 566.278 581.368 566.082 582.197 565.855C582.219 565.858 582.242 565.858 582.265 565.855L582.898 565.689C583.214 565.601 583.53 565.512 583.859 565.411C584.408 565.253 584.959 565.075 585.514 564.891H585.736L585.704 564.917Z" fill="url(#paint9_linear_642_45)"/>
<path style="mix-blend-mode:hard-light" opacity="0.66" d="M592.693 537.471C592.693 537.471 592.693 537.819 592.63 538.49C592.645 538.537 592.645 538.588 592.63 538.636C592.529 539.978 592.27 542.467 591.676 545.811C591.253 548.205 590.658 551.042 589.824 554.221C589.4 555.842 588.908 557.552 588.351 559.338C588.332 559.333 588.313 559.333 588.294 559.338C588.263 559.365 588.239 559.4 588.225 559.439H588.149V559.388C588.11 559.415 588.07 559.438 588.028 559.458C586.408 560.381 584.736 561.212 583.023 561.947L583.073 561.872C586.234 556.906 589.009 551.681 590.778 545.849C590.778 545.798 590.778 545.754 590.822 545.704C591.63 543.004 592.254 540.254 592.693 537.471Z" fill="url(#paint10_linear_642_45)"/>
</g>
<defs>
<linearGradient id="paint0_linear_642_45" x1="197.132" y1="230.506" x2="575.096" y2="230.506" gradientUnits="userSpaceOnUse">
<stop stop-color="#80CBD6"/>
<stop offset="0.13" stop-color="#7BC4D1"/>
<stop offset="0.32" stop-color="#6EAFC4"/>
<stop offset="0.56" stop-color="#598DAF"/>
<stop offset="0.82" stop-color="#3C5F92"/>
<stop offset="1" stop-color="#253B7B"/>
</linearGradient>
<linearGradient id="paint1_linear_642_45" x1="197.132" y1="169.671" x2="600.359" y2="169.671" gradientUnits="userSpaceOnUse">
<stop stop-color="#5E9AB5"/>
<stop offset="0.14" stop-color="#5993B0"/>
<stop offset="0.35" stop-color="#4D7EA4"/>
<stop offset="0.4" stop-color="#4978A0"/>
<stop offset="0.74" stop-color="#2A457C"/>
<stop offset="0.75" stop-color="#29437B"/>
<stop offset="1" stop-color="#263469"/>
</linearGradient>
<linearGradient id="paint2_linear_642_45" x1="198.397" y1="324.981" x2="602.863" y2="324.981" gradientUnits="userSpaceOnUse">
<stop stop-color="#8461A6"/>
<stop offset="0.14" stop-color="#7D5CA3"/>
<stop offset="0.36" stop-color="#68509A"/>
<stop offset="0.61" stop-color="#473C8D"/>
<stop offset="0.75" stop-color="#322F84"/>
<stop offset="1" stop-color="#253B7B"/>
</linearGradient>
<linearGradient id="paint3_linear_642_45" x1="555.819" y1="600.844" x2="227.771" y2="400.125" gradientUnits="userSpaceOnUse">
<stop stop-color="#F8E820"/>
<stop offset="0.05" stop-color="#F7E221"/>
<stop offset="0.11" stop-color="#F6D224"/>
<stop offset="0.19" stop-color="#F3B82A"/>
<stop offset="0.27" stop-color="#F09332"/>
<stop offset="0.35" stop-color="#EB633B"/>
<stop offset="0.39" stop-color="#E94C40"/>
<stop offset="0.54" stop-color="#C65363"/>
<stop offset="0.72" stop-color="#A25B87"/>
<stop offset="0.86" stop-color="#8C5F9E"/>
<stop offset="0.96" stop-color="#8461A6"/>
</linearGradient>
<linearGradient id="paint4_linear_642_45" x1="195.679" y1="414.028" x2="602.863" y2="414.028" gradientUnits="userSpaceOnUse">
<stop stop-color="#8461A6"/>
<stop offset="0.19" stop-color="#7D5CA3"/>
<stop offset="0.48" stop-color="#68509A"/>
<stop offset="0.82" stop-color="#473C8D"/>
<stop offset="1" stop-color="#322F84"/>
</linearGradient>
<linearGradient id="paint5_linear_642_45" x1="325.686" y1="568.678" x2="863.259" y2="568.678" gradientUnits="userSpaceOnUse">
<stop stop-color="#E94C40"/>
<stop offset="0.22" stop-color="#EE7C36"/>
<stop offset="0.47" stop-color="#F2AA2D"/>
<stop offset="0.7" stop-color="#F5CC26"/>
<stop offset="0.88" stop-color="#F7E122"/>
<stop offset="1" stop-color="#F8E820"/>
</linearGradient>
<linearGradient id="paint6_linear_642_45" x1="317.075" y1="603.301" x2="605.095" y2="603.301" gradientUnits="userSpaceOnUse">
<stop stop-color="#E94C40"/>
<stop offset="0.22" stop-color="#EE7C36"/>
<stop offset="0.47" stop-color="#F2AA2D"/>
<stop offset="0.7" stop-color="#F5CC26"/>
<stop offset="0.88" stop-color="#F7E122"/>
<stop offset="1" stop-color="#F8E820"/>
</linearGradient>
<linearGradient id="paint7_linear_642_45" x1="320.002" y1="605.842" x2="605.09" y2="605.842" gradientUnits="userSpaceOnUse">
<stop stop-color="#E94C40"/>
<stop offset="0.22" stop-color="#EE7C36"/>
<stop offset="0.47" stop-color="#F2AA2D"/>
<stop offset="0.7" stop-color="#F5CC26"/>
<stop offset="0.88" stop-color="#F7E122"/>
<stop offset="1" stop-color="#F8E820"/>
</linearGradient>
<linearGradient id="paint8_linear_642_45" x1="333.585" y1="549.596" x2="854.174" y2="549.596" gradientUnits="userSpaceOnUse">
<stop stop-color="#E94C40"/>
<stop offset="0.22" stop-color="#EE7C36"/>
<stop offset="0.47" stop-color="#F2AA2D"/>
<stop offset="0.7" stop-color="#F5CC26"/>
<stop offset="0.88" stop-color="#F7E122"/>
<stop offset="1" stop-color="#F8E820"/>
</linearGradient>
<linearGradient id="paint9_linear_642_45" x1="337.15" y1="599.418" x2="589.579" y2="599.418" gradientUnits="userSpaceOnUse">
<stop stop-color="#E94C40"/>
<stop offset="0.22" stop-color="#EE7C36"/>
<stop offset="0.47" stop-color="#F2AA2D"/>
<stop offset="0.7" stop-color="#F5CC26"/>
<stop offset="0.88" stop-color="#F7E122"/>
<stop offset="1" stop-color="#F8E820"/>
</linearGradient>
<linearGradient id="paint10_linear_642_45" x1="186.382" y1="549.763" x2="592.693" y2="549.763" gradientUnits="userSpaceOnUse">
<stop stop-color="#E94C40"/>
<stop offset="0.22" stop-color="#EE7C36"/>
<stop offset="0.47" stop-color="#F2AA2D"/>
<stop offset="0.7" stop-color="#F5CC26"/>
<stop offset="0.88" stop-color="#F7E122"/>
<stop offset="1" stop-color="#F8E820"/>
</linearGradient>
<clipPath id="clip0_642_45">
<rect width="485" height="617" fill="white" transform="translate(123 44)"/>
</clipPath>
</defs>
</svg>
