<svg xmlns="http://www.w3.org/2000/svg" width="768" height="768" viewBox="0 0 768 768" version="1.1"><path d="M 320 608 L 320 640 368 640 L 416 640 416 608 L 416 576 368 576 L 320 576 320 608" stroke="none" fill="#df9caf" fill-rule="evenodd"/><path d="M 256 384 L 256 416 272 416 L 288 416 288 400 L 288 384 304 384 L 320 384 320 368 L 320 352 288 352 L 256 352 256 384 M 416 368 L 416 384 432 384 L 448 384 448 400 L 448 416 464 416 L 480 416 480 384 L 480 352 448 352 L 416 352 416 368" stroke="none" fill="#617a9e" fill-rule="evenodd"/><path d="M 192 80 L 192 96 176 96 L 160 96 160 128 L 160 160 144 160 L 128 160 128 224 L 128 288 160 288 L 192 288 192 272 L 192 256 208 256 L 224 256 224 240 L 224 224 240 224 L 256 224 256 160 L 256 96 240 96 L 224 96 224 80 L 224 64 208 64 L 192 64 192 80 M 512 80 L 512 96 496 96 L 480 96 480 160 L 480 224 496 224 L 512 224 512 240 L 512 256 528 256 L 544 256 544 272 L 544 288 576 288 L 608 288 608 224 L 608 160 592 160 L 576 160 576 128 L 576 96 560 96 L 544 96 544 80 L 544 64 528 64 L 512 64 512 80 M 193 80.500 L 193 96 208 96 L 223 96 223 80.500 L 223 65 208 65 L 193 65 193 80.500 M 513 80.500 L 513 96 528 96 L 543 96 543 80.500 L 543 65 528 65 L 513 65 513 80.500 M 161 128.500 L 161 160 176.500 160 L 192 160 192 128.500 L 192 97 176.500 97 L 161 97 161 128.500 M 224 160 L 224 223 239.500 223 L 255 223 255 160 L 255 97 239.500 97 L 224 97 224 160 M 481 160 L 481 223 496.500 223 L 512 223 512 160 L 512 97 496.500 97 L 481 97 481 160 M 544 128.500 L 544 160 559.500 160 L 575 160 575 128.500 L 575 97 559.500 97 L 544 97 544 128.500 M 129 224 L 129 287 160 287 L 191 287 191 271.500 L 191 256 175.500 256 L 160 256 160 208.500 L 160 161 144.500 161 L 129 161 129 224 M 576 208.500 L 576 256 560.500 256 L 545 256 545 271.500 L 545 287 576 287 L 607 287 607 224 L 607 161 591.500 161 L 576 161 576 208.500 M 192 239.500 L 192 255 207.500 255 L 223 255 223 239.500 L 223 224 207.500 224 L 192 224 192 239.500 M 513 239.500 L 513 255 528.500 255 L 544 255 544 239.500 L 544 224 528.500 224 L 513 224 513 239.500 M 288.692 256.642 L 288 257.333 288 272.667 L 288 288 272 288 L 256 288 256 304 L 256 320 240 320 L 224 320 224 368 L 224 416 240 416 L 256 416 256 431.993 L 256 447.985 192.250 448.243 L 128.500 448.500 128.500 480 L 128.500 511.500 144.236 511.775 L 159.972 512.051 160.236 543.775 L 160.500 575.500 176.225 575.775 L 191.949 576.051 192.225 591.775 L 192.500 607.500 208.225 607.775 L 223.949 608.051 224.225 623.775 L 224.500 639.500 240.225 639.775 L 255.949 640.051 256.225 655.775 L 256.500 671.500 272.225 671.775 L 287.949 672.051 288.225 687.775 L 288.500 703.500 304.250 703.775 L 320 704.051 320 720.525 L 320 737 336 737 L 352 737 352 720.500 L 352 704 336 704 L 320 704 320 688.500 L 320 673 368 673 L 416 673 416 688.500 L 416 704 400 704 L 384 704 384 720.500 L 384 737 400 737 L 416 737 416 720.525 L 416 704.051 431.750 703.775 L 447.500 703.500 447.775 687.775 L 448.051 672.051 463.775 671.775 L 479.500 671.500 479.775 655.775 L 480.051 640.051 495.775 639.775 L 511.500 639.500 511.775 623.775 L 512.051 608.051 527.775 607.775 L 543.500 607.500 543.775 591.775 L 544.051 576.051 559.775 575.775 L 575.500 575.500 575.764 543.775 L 576.028 512.051 591.764 511.775 L 607.500 511.500 607.500 480 L 607.500 448.500 543.750 448.243 L 480 447.985 480 431.993 L 480 416 496 416 L 512 416 512 368 L 512 320 496 320 L 480 320 480 304 L 480 288 464.025 288 L 448.051 288 447.775 272.250 L 447.500 256.500 432 256.500 L 416.500 256.500 416.240 304.250 L 415.981 352 399.990 352 L 384 352 384 368 L 384 384 368 384 L 352 384 352 368 L 352 352 336.010 352 L 320.019 352 319.760 304.250 L 319.500 256.500 304.442 256.225 L 289.383 255.950 288.692 256.642 M 272.775 288.748 L 257.051 289.051 256.775 304.775 L 256.500 320.500 240.750 320.775 L 225 321.051 225 368 L 225 414.949 240.750 415.225 L 256.500 415.500 256.500 432 L 256.500 448.500 240.250 448.775 L 224 449.050 224 464.525 L 224 480 192 480 L 160 480 160 496 L 160 512 176 512 L 192 512 192 544 L 192 576 208 576 L 224 576 224 592 L 224 608 240 608 L 256 608 256 624 L 256 640 271.500 640 L 287 640 287 608.525 L 287 577.051 271.250 576.775 L 255.500 576.500 255.500 560 L 255.500 543.500 272 543.500 L 288.500 543.500 288.775 559.250 L 289.051 575 304 575 L 318.949 575 319.225 559.250 L 319.500 543.500 368 543.500 L 416.500 543.500 416.775 559.250 L 417.051 575 432 575 L 446.949 575 447.225 559.250 L 447.500 543.500 464 543.500 L 480.500 543.500 480.500 560 L 480.500 576.500 464.750 576.775 L 449 577.051 449 608.525 L 449 640 464.500 640 L 480 640 480 624 L 480 608 496 608 L 512 608 512 592 L 512 576 528 576 L 544 576 544 544 L 544 512 560 512 L 576 512 576 496 L 576 480 544 480 L 512 480 512 464.525 L 512 449.050 495.750 448.775 L 479.500 448.500 479.500 432 L 479.500 415.500 495.250 415.225 L 511 414.949 511 368 L 511 321.051 495.250 320.775 L 479.500 320.500 479.225 304.909 L 478.951 289.318 455.725 288.661 L 432.500 288.005 424.764 288.002 L 417.028 288 416.764 320.250 L 416.500 352.500 400.775 352.775 L 385.051 353.051 384.775 368.775 L 384.500 384.500 368 384.500 L 351.500 384.500 351.225 368.775 L 350.949 353.051 335.225 352.775 L 319.500 352.500 319.236 320.250 L 318.972 288 303.736 288.223 L 288.500 288.445 272.775 288.748 M 320.222 399.725 L 320 415.950 303.750 416.252 L 287.500 416.553 303.781 416.777 L 320.063 417 320.559 415.708 L 321.054 414.416 320.749 398.958 L 320.444 383.500 320.222 399.725 M 415.460 400 L 415.500 416.500 431.751 416.538 L 448.002 416.577 432.026 416.264 L 416.049 415.951 415.735 399.725 L 415.421 383.500 415.460 400 M 319.458 448.250 L 318.971 449.518 319.235 481.009 L 319.500 512.500 368 512.500 L 416.500 512.500 416.500 480 L 416.500 447.500 368.222 447.240 L 319.945 446.981 319.458 448.250 M 320 480 L 320 512 368 512 L 416 512 416 480 L 416 448 368 448 L 320 448 320 480 M 256 560 L 256 576 272 576 L 288 576 288 608 L 288 640 304 640 L 320 640 320 656 L 320 672 368 672 L 416 672 416 656 L 416 640 432 640 L 448 640 448 608 L 448 576 464 576 L 480 576 480 560 L 480 544 464 544 L 448 544 448 560 L 448 576 432 576 L 416 576 416 560 L 416 544 368 544 L 320 544 320 560 L 320 576 304 576 L 288 576 288 560 L 288 544 272 544 L 256 544 256 560 M 288 656.500 L 288 672 303.500 672 L 319 672 319 656.500 L 319 641 303.500 641 L 288 641 288 656.500 M 417 656.500 L 417 672 432.500 672 L 448 672 448 656.500 L 448 641 432.500 641 L 417 641 417 656.500" stroke="none" fill="#c9c9c9" fill-rule="evenodd"/><path d="M 193 80.500 L 193 96 208 96 L 223 96 223 80.500 L 223 65 208 65 L 193 65 193 80.500 M 513 80.500 L 513 96 528 96 L 543 96 543 80.500 L 543 65 528 65 L 513 65 513 80.500 M 161 128.500 L 161 160 176.500 160 L 192 160 192 128.500 L 192 97 176.500 97 L 161 97 161 128.500 M 224 160 L 224 223 239.500 223 L 255 223 255 160 L 255 97 239.500 97 L 224 97 224 160 M 481 160 L 481 223 496.500 223 L 512 223 512 160 L 512 97 496.500 97 L 481 97 481 160 M 544 128.500 L 544 160 559.500 160 L 575 160 575 128.500 L 575 97 559.500 97 L 544 97 544 128.500 M 129 224 L 129 287 160 287 L 191 287 191 271.500 L 191 256 175.500 256 L 160 256 160 208.500 L 160 161 144.500 161 L 129 161 129 224 M 576 208.500 L 576 256 560.500 256 L 545 256 545 271.500 L 545 287 576 287 L 607 287 607 224 L 607 161 591.500 161 L 576 161 576 208.500 M 192 239.500 L 192 255 207.500 255 L 223 255 223 239.500 L 223 224 207.500 224 L 192 224 192 239.500 M 513 239.500 L 513 255 528.500 255 L 544 255 544 239.500 L 544 224 528.500 224 L 513 224 513 239.500 M 272.775 288.748 L 257.051 289.051 256.775 304.775 L 256.500 320.500 240.750 320.775 L 225 321.051 225 368.025 L 225 415 240.500 415 L 256 415 256 383.500 L 256 352 287.500 352 L 319 352 319 320 L 319 288 303.750 288.223 L 288.500 288.445 272.775 288.748 M 417 320 L 417 352 448.500 352 L 480 352 480 383.500 L 480 415 495.500 415 L 511 415 511 368.025 L 511 321.051 495.250 320.775 L 479.500 320.500 479.225 304.909 L 478.951 289.318 455.725 288.661 L 432.500 288.005 424.750 288.002 L 417 288 417 320 M 320.152 384.750 L 320.500 416.500 288.775 416.153 L 257.050 415.806 256.775 432.153 L 256.500 448.500 240.250 448.775 L 224 449.050 224 464.525 L 224 480 192 480 L 160 480 160 496 L 160 512 176 512 L 192 512 192 544 L 192 576 208 576 L 224 576 224 592 L 224 608 240 608 L 256 608 256 624 L 256 640 271.500 640 L 287 640 287 608.525 L 287 577.051 271.250 576.775 L 255.500 576.500 255.500 560 L 255.500 543.500 272 543.500 L 288.500 543.500 288.775 559.250 L 289.051 575 304 575 L 318.949 575 319.225 559.250 L 319.500 543.500 368 543.500 L 416.500 543.500 416.775 559.250 L 417.051 575 432 575 L 446.949 575 447.225 559.250 L 447.500 543.500 464 543.500 L 480.500 543.500 480.500 560 L 480.500 576.500 464.750 576.775 L 449 577.051 449 608.525 L 449 640 464.500 640 L 480 640 480 624 L 480 608 496 608 L 512 608 512 592 L 512 576 528 576 L 544 576 544 544 L 544 512 560 512 L 576 512 576 496 L 576 480 544 480 L 512 480 512 464.525 L 512 449.050 495.750 448.775 L 479.500 448.500 479.225 432.153 L 478.950 415.806 447.225 416.153 L 415.500 416.500 415.848 384.750 L 416.195 353 400.623 353 L 385.051 353 384.775 368.750 L 384.500 384.500 368 384.500 L 351.500 384.500 351.225 368.750 L 350.949 353 335.377 353 L 319.805 353 320.152 384.750 M 319.458 448.250 L 318.971 449.518 319.235 481.009 L 319.500 512.500 368 512.500 L 416.500 512.500 416.500 480 L 416.500 447.500 368.222 447.240 L 319.945 446.981 319.458 448.250 M 288 656.500 L 288 672 303.500 672 L 319 672 319 656.500 L 319 641 303.500 641 L 288 641 288 656.500 M 417 656.500 L 417 672 432.500 672 L 448 672 448 656.500 L 448 641 432.500 641 L 417 641 417 656.500 M 320 688.500 L 320 704 336 704 L 352 704 352 720.500 L 352 737 368 737 L 384 737 384 720.500 L 384 704 400 704 L 416 704 416 688.500 L 416 673 368 673 L 320 673 320 688.500" stroke="none" fill="#e9e9e9" fill-rule="evenodd"/><path d="M 191.680 31.653 L 191 32.333 191 47.641 L 191 62.949 175.250 63.225 L 159.500 63.500 159.225 79.225 L 158.949 94.949 143.225 95.225 L 127.500 95.500 127.236 127.225 L 126.972 158.949 111.236 159.225 L 95.500 159.500 95.244 239.225 L 94.988 318.949 79.244 319.225 L 63.500 319.500 63.236 351.225 L 62.972 382.949 47.236 383.225 L 31.500 383.500 31.500 448 L 31.500 512.500 47.236 512.775 L 62.972 513.051 63.236 544.775 L 63.500 576.500 79.225 576.775 L 94.949 577.051 95.225 592.775 L 95.500 608.500 111.225 608.775 L 126.949 609.051 127.225 624.775 L 127.500 640.500 143.225 640.775 L 158.949 641.051 159.225 656.775 L 159.500 672.500 191.225 672.764 L 222.949 673.028 223.225 688.764 L 223.500 704.500 255.225 704.764 L 286.949 705.028 287.225 720.764 L 287.500 736.500 303.750 736.775 L 320 737.050 320 720.525 L 320 704 304 704 L 288 704 288 688 L 288 672 272 672 L 256 672 256 656 L 256 640 240 640 L 224 640 224 624 L 224 608 208 608 L 192 608 192 592 L 192 576 176 576 L 160 576 160 544 L 160 512 144 512 L 128 512 128 480 L 128 448 192 448 L 256 448 256 432 L 256 416 240 416 L 224 416 224 368 L 224 320 240 320 L 256 320 256 304 L 256 288 272 288 L 288 288 288 272 L 288 256 304 256 L 320 256 320 304 L 320 352 336 352 L 352 352 352 368 L 352 384 368 384 L 384 384 384 368 L 384 352 400 352 L 416 352 416 304 L 416 256 432 256 L 448 256 448 272 L 448 288 464 288 L 480 288 480 304 L 480 320 496 320 L 512 320 512 368 L 512 416 496 416 L 480 416 480 432 L 480 448 544 448 L 608 448 608 480 L 608 512 592 512 L 576 512 576 544 L 576 576 560 576 L 544 576 544 592 L 544 608 528 608 L 512 608 512 624 L 512 640 496 640 L 480 640 480 656 L 480 672 464 672 L 448 672 448 688 L 448 704 432 704 L 416 704 416 720.525 L 416 737.050 432.250 736.775 L 448.500 736.500 448.775 720.764 L 449.051 705.028 480.775 704.764 L 512.500 704.500 512.775 688.764 L 513.051 673.028 544.775 672.764 L 576.500 672.500 576.775 656.775 L 577.051 641.051 592.775 640.775 L 608.500 640.500 608.775 624.775 L 609.051 609.051 624.775 608.775 L 640.500 608.500 640.775 592.775 L 641.051 577.051 656.775 576.775 L 672.500 576.500 672.764 544.775 L 673.028 513.051 688.764 512.775 L 704.500 512.500 704.500 448 L 704.500 383.500 688.764 383.225 L 673.028 382.949 672.764 351.225 L 672.500 319.500 656.756 319.225 L 641.012 318.949 640.756 239.225 L 640.500 159.500 624.764 159.225 L 609.028 158.949 608.764 127.225 L 608.500 95.500 592.775 95.225 L 577.051 94.949 576.775 79.225 L 576.500 63.500 560.775 63.225 L 545.051 62.949 544.775 47.225 L 544.500 31.500 512 31.500 L 479.500 31.500 479.236 63.225 L 478.972 94.949 463.236 95.225 L 447.500 95.500 447.240 143.250 L 446.981 191 368 191 L 289.019 191 288.760 143.250 L 288.500 95.500 272.764 95.225 L 257.028 94.949 256.764 63.225 L 256.500 31.500 224.430 31.236 L 192.361 30.973 191.680 31.653 M 192 80 L 192 96 176 96 L 160 96 160 128 L 160 160 144 160 L 128 160 128 224 L 128 288 160 288 L 192 288 192 272 L 192 256 208 256 L 224 256 224 240 L 224 224 240 224 L 256 224 256 160 L 256 96 240 96 L 224 96 224 80 L 224 64 208 64 L 192 64 192 80 M 512 80 L 512 96 496 96 L 480 96 480 160 L 480 224 496 224 L 512 224 512 240 L 512 256 528 256 L 544 256 544 272 L 544 288 576 288 L 608 288 608 224 L 608 160 592 160 L 576 160 576 128 L 576 96 560 96 L 544 96 544 80 L 544 64 528 64 L 512 64 512 80 M 288 400 L 288 416 304 416 L 320 416 320 400 L 320 384 304 384 L 288 384 288 400 M 416 400 L 416 416 432 416 L 448 416 448 400 L 448 384 432 384 L 416 384 416 400 M 320 480 L 320 512 368 512 L 416 512 416 480 L 416 448 368 448 L 320 448 320 480 M 256 560 L 256 576 272 576 L 288 576 288 608 L 288 640 304 640 L 320 640 320 656 L 320 672 368 672 L 416 672 416 656 L 416 640 432 640 L 448 640 448 608 L 448 576 464 576 L 480 576 480 560 L 480 544 464 544 L 448 544 448 560 L 448 576 432 576 L 416 576 416 560 L 416 544 368 544 L 320 544 320 560 L 320 576 304 576 L 288 576 288 560 L 288 544 272 544 L 256 544 256 560 M 320 608 L 320 640 368 640 L 416 640 416 608 L 416 576 368 576 L 320 576 320 608" stroke="none" fill="#101010" fill-rule="evenodd"/></svg>