<svg xmlns="http://www.w3.org/2000/svg" xmlns:xlink="http://www.w3.org/1999/xlink" viewBox="0 0 458.8 458.8"><defs><style>.cls-1{fill:#fff;stroke:#000;stroke-miterlimit:10;}.cls-2{fill:url(#Dégradé_sans_nom);}</style><linearGradient id="Dégradé_sans_nom" x1="20.6" y1="252" x2="479.4" y2="252" gradientTransform="matrix(1, 0, 0, -1, 0, 502)" gradientUnits="userSpaceOnUse"><stop offset="0" stop-color="#c101fe"/><stop offset="1" stop-color="#2ac3a9"/></linearGradient></defs><g id="Calque_2" data-name="Calque 2"><rect class="cls-1" x="110.75" y="94.01" width="228.79" height="277.45"/></g><g id="Calque_1" data-name="Calque 1"><path class="cls-2" d="M250,20.6C123.3,20.6,20.6,123.3,20.6,250S123.3,479.4,250,479.4,479.4,376.7,479.4,250,376.7,20.6,250,20.6Zm91,344.5a3.67,3.67,0,0,1-3.6,3.3H155.6a3.69,3.69,0,0,1-3.7-3.7V364a3.41,3.41,0,0,1,.9-2.4l92.5-102.9a3.64,3.64,0,0,0,.2-4.7L155.4,138.6a3.57,3.57,0,0,1-.8-2.3v-1a3.69,3.69,0,0,1,3.7-3.7H329.7a3.69,3.69,0,0,1,3.7,3.7v55.6a3.69,3.69,0,0,1-3.7,3.7h-5.4a3.53,3.53,0,0,1-3.5-2.8,87.81,87.81,0,0,0-13.4-28.6q-10.5-14.7-21.6-16.5a124,124,0,0,0-14.3-1.2c-6.2-.3-11.2-.4-15.1-.4H212.2a3.64,3.64,0,0,0-2.9,5.9l69,88.4a3.57,3.57,0,0,1,.8,2.3,3.84,3.84,0,0,1-.9,2.5l-80.4,89a3.64,3.64,0,0,0,2.7,6.1H301.3a21.45,21.45,0,0,0,13.4-4.5,40.13,40.13,0,0,0,10-11.5,83.9,83.9,0,0,0,6.8-14.1q2.4-6.3,4.5-12a3.54,3.54,0,0,1,3.4-2.4h5a3.6,3.6,0,0,1,3.6,4.1Z" transform="translate(-20.6 -20.6)"/></g></svg>
